M48
; DRILL file {KiCad (6.0.6)} date Sun Aug 21 22:00:08 2022
; FORMAT={-:-/ absolute / metric / decimal}
; #@! TF.CreationDate,2022-08-21T22:00:08+02:00
; #@! TF.GenerationSoftware,Kicad,Pcbnew,(6.0.6)
; #@! TF.FileFunction,Plated,1,2,PTH
FMAT,2
METRIC
; #@! TA.AperFunction,Plated,PTH,ComponentDrill
T1C0.500
; #@! TA.AperFunction,Plated,PTH,ComponentDrill
T2C0.550
; #@! TA.AperFunction,Plated,PTH,ViaDrill
T3C0.600
; #@! TA.AperFunction,Plated,PTH,ComponentDrill
T4C1.000
; #@! TA.AperFunction,Plated,PTH,ComponentDrill
T5C1.100
%
G90
G05
T3
X101.27Y-84.76
X104.445Y-90.475
X106.604Y-71.044
X106.604Y-78.664
X106.604Y-83.236
X108.128Y-56.312
X109.652Y-56.312
X111.684Y-68.504
X111.747Y-80.696
X112.192Y-74.658
X112.7Y-64.948
X114.732Y-82.728
X115.328Y-59.36
X116.256Y-89.84
X116.764Y-51.74
X117.78Y-60.884
X118.097Y-79.426
X118.288Y-64.948
X118.288Y-82.728
X119.304Y-53.264
X119.304Y-65.964
X119.812Y-89.84
X120.32Y-86.792
X121.336Y-54.788
X121.336Y-60.376
X122.86Y-89.84
X123.876Y-74.092
X123.876Y-76.632
X123.876Y-78.156
X123.876Y-86.792
X124.384Y-67.488
X124.892Y-71.552
X125.4Y-64.948
X125.908Y-89.84
X126.416Y-74.092
X126.416Y-76.632
X126.416Y-80.188
X128.448Y-61.9
X128.448Y-64.44
X128.956Y-76.632
X128.956Y-86.792
X128.956Y-89.84
X130.48Y-81.204
X130.988Y-64.44
X132.004Y-89.84
X132.512Y-59.36
X132.512Y-72.06
X132.512Y-86.792
X133.02Y-67.488
X135.052Y-61.9
X135.052Y-67.996
X135.56Y-81.712
X135.56Y-86.792
X136.068Y-66.472
X136.068Y-73.076
X136.068Y-74.6
X138.608Y-51.232
X139.116Y-89.332
X140.64Y-55.804
X142.672Y-89.332
X144.196Y-73.076
X144.704Y-66.472
X144.704Y-67.996
X144.704Y-74.6
X144.704Y-81.204
X146.228Y-72.06
X146.228Y-89.332
X146.726Y-57.315
X148.26Y-80.696
X148.768Y-63.424
X149.784Y-89.332
X153.34Y-89.332
X153.848Y-51.232
X153.848Y-59.36
X153.848Y-64.948
X154.356Y-69.52
X155.88Y-54.28
X156.896Y-64.948
X156.896Y-89.332
X158.928Y-61.9
X159.944Y-67.996
X159.944Y-70.028
X160.452Y-57.836
X160.452Y-90.348
X161.468Y-61.9
X161.976Y-52.375
X162.484Y-73.076
X162.992Y-77.013
T4
X108.37Y-46.23
X108.37Y-48.77
X110.91Y-46.23
X110.91Y-48.77
X113.45Y-46.23
X113.45Y-48.77
X115.99Y-46.23
X115.99Y-48.77
X118.53Y-46.23
X118.53Y-48.77
X121.07Y-46.23
X121.07Y-48.77
X123.61Y-46.23
X123.61Y-48.77
X126.15Y-46.23
X126.15Y-48.77
X128.69Y-46.23
X128.69Y-48.77
X131.23Y-46.23
X131.23Y-48.77
X133.77Y-46.23
X133.77Y-48.77
X136.31Y-46.23
X136.31Y-48.77
X138.85Y-46.23
X138.85Y-48.77
X141.39Y-46.23
X141.39Y-48.77
X143.93Y-46.23
X143.93Y-48.77
X146.47Y-46.23
X146.47Y-48.77
X149.01Y-46.23
X149.01Y-48.77
X151.55Y-46.23
X151.55Y-48.77
X154.09Y-46.23
X154.09Y-48.77
X156.63Y-46.23
X156.63Y-48.77
T5
X104.064Y-66.98
X104.064Y-69.52
X104.064Y-72.06
X104.064Y-74.6
X104.064Y-77.14
X104.064Y-79.68
X104.064Y-82.22
X104.064Y-84.76
X114.732Y-95.936
X117.272Y-95.936
X119.812Y-95.936
X122.352Y-95.936
X124.892Y-95.936
X127.432Y-95.936
X129.972Y-95.936
X132.512Y-95.936
X138.1Y-95.936
X140.64Y-95.936
X143.18Y-95.936
X145.72Y-95.936
X148.26Y-95.936
X150.8Y-95.936
X153.34Y-95.936
X155.88Y-95.936
T1
X101.776Y-53.35G85X101.126Y-53.35
G05
X101.776Y-60.35G85X101.126Y-60.35
G05
T2
X104.151Y-54.2G85X104.151Y-54.5
G05
X104.151Y-59.2G85X104.151Y-59.5
G05
T0
M30
