G04 #@! TF.GenerationSoftware,KiCad,Pcbnew,(6.0.6)*
G04 #@! TF.CreationDate,2022-09-28T22:45:11+02:00*
G04 #@! TF.ProjectId,Phoniebox,50686f6e-6965-4626-9f78-2e6b69636164,rev?*
G04 #@! TF.SameCoordinates,Original*
G04 #@! TF.FileFunction,Legend,Top*
G04 #@! TF.FilePolarity,Positive*
%FSLAX46Y46*%
G04 Gerber Fmt 4.6, Leading zero omitted, Abs format (unit mm)*
G04 Created by KiCad (PCBNEW (6.0.6)) date 2022-09-28 22:45:11*
%MOMM*%
%LPD*%
G01*
G04 APERTURE LIST*
%ADD10C,0.300000*%
%ADD11C,0.150000*%
%ADD12C,0.120000*%
%ADD13C,2.700000*%
%ADD14R,2.200000X2.200000*%
%ADD15C,2.200000*%
%ADD16R,1.000000X3.150000*%
%ADD17R,1.700000X1.700000*%
%ADD18O,1.700000X1.700000*%
%ADD19C,0.650000*%
%ADD20O,2.100000X1.000000*%
%ADD21O,1.600000X1.000000*%
G04 APERTURE END LIST*
D10*
X109827142Y-80342857D02*
X109898571Y-80128571D01*
X109898571Y-79771428D01*
X109827142Y-79628571D01*
X109755714Y-79557142D01*
X109612857Y-79485714D01*
X109470000Y-79485714D01*
X109327142Y-79557142D01*
X109255714Y-79628571D01*
X109184285Y-79771428D01*
X109112857Y-80057142D01*
X109041428Y-80200000D01*
X108970000Y-80271428D01*
X108827142Y-80342857D01*
X108684285Y-80342857D01*
X108541428Y-80271428D01*
X108470000Y-80200000D01*
X108398571Y-80057142D01*
X108398571Y-79700000D01*
X108470000Y-79485714D01*
X108898571Y-78842857D02*
X110398571Y-78842857D01*
X108970000Y-78842857D02*
X108898571Y-78700000D01*
X108898571Y-78414285D01*
X108970000Y-78271428D01*
X109041428Y-78200000D01*
X109184285Y-78128571D01*
X109612857Y-78128571D01*
X109755714Y-78200000D01*
X109827142Y-78271428D01*
X109898571Y-78414285D01*
X109898571Y-78700000D01*
X109827142Y-78842857D01*
X109827142Y-76914285D02*
X109898571Y-77057142D01*
X109898571Y-77342857D01*
X109827142Y-77485714D01*
X109684285Y-77557142D01*
X109112857Y-77557142D01*
X108970000Y-77485714D01*
X108898571Y-77342857D01*
X108898571Y-77057142D01*
X108970000Y-76914285D01*
X109112857Y-76842857D01*
X109255714Y-76842857D01*
X109398571Y-77557142D01*
X109898571Y-75557142D02*
X109112857Y-75557142D01*
X108970000Y-75628571D01*
X108898571Y-75771428D01*
X108898571Y-76057142D01*
X108970000Y-76200000D01*
X109827142Y-75557142D02*
X109898571Y-75700000D01*
X109898571Y-76057142D01*
X109827142Y-76200000D01*
X109684285Y-76271428D01*
X109541428Y-76271428D01*
X109398571Y-76200000D01*
X109327142Y-76057142D01*
X109327142Y-75700000D01*
X109255714Y-75557142D01*
X109898571Y-74842857D02*
X108398571Y-74842857D01*
X109327142Y-74700000D02*
X109898571Y-74271428D01*
X108898571Y-74271428D02*
X109470000Y-74842857D01*
X109827142Y-73057142D02*
X109898571Y-73200000D01*
X109898571Y-73485714D01*
X109827142Y-73628571D01*
X109684285Y-73700000D01*
X109112857Y-73700000D01*
X108970000Y-73628571D01*
X108898571Y-73485714D01*
X108898571Y-73200000D01*
X108970000Y-73057142D01*
X109112857Y-72985714D01*
X109255714Y-72985714D01*
X109398571Y-73700000D01*
X109898571Y-72342857D02*
X108898571Y-72342857D01*
X109184285Y-72342857D02*
X109041428Y-72271428D01*
X108970000Y-72200000D01*
X108898571Y-72057142D01*
X108898571Y-71914285D01*
X122995714Y-65702571D02*
X122995714Y-64202571D01*
X123638571Y-64345428D02*
X123710000Y-64274000D01*
X123852857Y-64202571D01*
X124210000Y-64202571D01*
X124352857Y-64274000D01*
X124424285Y-64345428D01*
X124495714Y-64488285D01*
X124495714Y-64631142D01*
X124424285Y-64845428D01*
X123567142Y-65702571D01*
X124495714Y-65702571D01*
X125995714Y-65559714D02*
X125924285Y-65631142D01*
X125710000Y-65702571D01*
X125567142Y-65702571D01*
X125352857Y-65631142D01*
X125210000Y-65488285D01*
X125138571Y-65345428D01*
X125067142Y-65059714D01*
X125067142Y-64845428D01*
X125138571Y-64559714D01*
X125210000Y-64416857D01*
X125352857Y-64274000D01*
X125567142Y-64202571D01*
X125710000Y-64202571D01*
X125924285Y-64274000D01*
X125995714Y-64345428D01*
X102235428Y-57964820D02*
X102449714Y-58036249D01*
X102806857Y-58036249D01*
X102949714Y-57964820D01*
X103021142Y-57893392D01*
X103092571Y-57750535D01*
X103092571Y-57607678D01*
X103021142Y-57464820D01*
X102949714Y-57393392D01*
X102806857Y-57321963D01*
X102521142Y-57250535D01*
X102378285Y-57179106D01*
X102306857Y-57107678D01*
X102235428Y-56964820D01*
X102235428Y-56821963D01*
X102306857Y-56679106D01*
X102378285Y-56607678D01*
X102521142Y-56536249D01*
X102878285Y-56536249D01*
X103092571Y-56607678D01*
X104378285Y-57036249D02*
X104378285Y-58036249D01*
X103735428Y-57036249D02*
X103735428Y-57821963D01*
X103806857Y-57964820D01*
X103949714Y-58036249D01*
X104164000Y-58036249D01*
X104306857Y-57964820D01*
X104378285Y-57893392D01*
X105092571Y-57036249D02*
X105092571Y-58536249D01*
X105092571Y-57107678D02*
X105235428Y-57036249D01*
X105521142Y-57036249D01*
X105664000Y-57107678D01*
X105735428Y-57179106D01*
X105806857Y-57321963D01*
X105806857Y-57750535D01*
X105735428Y-57893392D01*
X105664000Y-57964820D01*
X105521142Y-58036249D01*
X105235428Y-58036249D01*
X105092571Y-57964820D01*
X106449714Y-57036249D02*
X106449714Y-58536249D01*
X106449714Y-57107678D02*
X106592571Y-57036249D01*
X106878285Y-57036249D01*
X107021142Y-57107678D01*
X107092571Y-57179106D01*
X107164000Y-57321963D01*
X107164000Y-57750535D01*
X107092571Y-57893392D01*
X107021142Y-57964820D01*
X106878285Y-58036249D01*
X106592571Y-58036249D01*
X106449714Y-57964820D01*
X108021142Y-58036249D02*
X107878285Y-57964820D01*
X107806857Y-57821963D01*
X107806857Y-56536249D01*
X108449714Y-57036249D02*
X108806857Y-58036249D01*
X109164000Y-57036249D02*
X108806857Y-58036249D01*
X108664000Y-58393392D01*
X108592571Y-58464820D01*
X108449714Y-58536249D01*
X142859428Y-61638571D02*
X142359428Y-60924285D01*
X142002285Y-61638571D02*
X142002285Y-60138571D01*
X142573714Y-60138571D01*
X142716571Y-60210000D01*
X142788000Y-60281428D01*
X142859428Y-60424285D01*
X142859428Y-60638571D01*
X142788000Y-60781428D01*
X142716571Y-60852857D01*
X142573714Y-60924285D01*
X142002285Y-60924285D01*
X144359428Y-61495714D02*
X144288000Y-61567142D01*
X144073714Y-61638571D01*
X143930857Y-61638571D01*
X143716571Y-61567142D01*
X143573714Y-61424285D01*
X143502285Y-61281428D01*
X143430857Y-60995714D01*
X143430857Y-60781428D01*
X143502285Y-60495714D01*
X143573714Y-60352857D01*
X143716571Y-60210000D01*
X143930857Y-60138571D01*
X144073714Y-60138571D01*
X144288000Y-60210000D01*
X144359428Y-60281428D01*
X145716571Y-60138571D02*
X145002285Y-60138571D01*
X144930857Y-60852857D01*
X145002285Y-60781428D01*
X145145142Y-60710000D01*
X145502285Y-60710000D01*
X145645142Y-60781428D01*
X145716571Y-60852857D01*
X145788000Y-60995714D01*
X145788000Y-61352857D01*
X145716571Y-61495714D01*
X145645142Y-61567142D01*
X145502285Y-61638571D01*
X145145142Y-61638571D01*
X145002285Y-61567142D01*
X144930857Y-61495714D01*
X146359428Y-60281428D02*
X146430857Y-60210000D01*
X146573714Y-60138571D01*
X146930857Y-60138571D01*
X147073714Y-60210000D01*
X147145142Y-60281428D01*
X147216571Y-60424285D01*
X147216571Y-60567142D01*
X147145142Y-60781428D01*
X146288000Y-61638571D01*
X147216571Y-61638571D01*
X147788000Y-60281428D02*
X147859428Y-60210000D01*
X148002285Y-60138571D01*
X148359428Y-60138571D01*
X148502285Y-60210000D01*
X148573714Y-60281428D01*
X148645142Y-60424285D01*
X148645142Y-60567142D01*
X148573714Y-60781428D01*
X147716571Y-61638571D01*
X148645142Y-61638571D01*
X121575142Y-90824857D02*
X121789428Y-90896285D01*
X121860857Y-90967714D01*
X121932285Y-91110571D01*
X121932285Y-91324857D01*
X121860857Y-91467714D01*
X121789428Y-91539142D01*
X121646571Y-91610571D01*
X121075142Y-91610571D01*
X121075142Y-90110571D01*
X121575142Y-90110571D01*
X121718000Y-90182000D01*
X121789428Y-90253428D01*
X121860857Y-90396285D01*
X121860857Y-90539142D01*
X121789428Y-90682000D01*
X121718000Y-90753428D01*
X121575142Y-90824857D01*
X121075142Y-90824857D01*
X123218000Y-90610571D02*
X123218000Y-91610571D01*
X122575142Y-90610571D02*
X122575142Y-91396285D01*
X122646571Y-91539142D01*
X122789428Y-91610571D01*
X123003714Y-91610571D01*
X123146571Y-91539142D01*
X123218000Y-91467714D01*
X123718000Y-90610571D02*
X124289428Y-90610571D01*
X123932285Y-90110571D02*
X123932285Y-91396285D01*
X124003714Y-91539142D01*
X124146571Y-91610571D01*
X124289428Y-91610571D01*
X124575142Y-90610571D02*
X125146571Y-90610571D01*
X124789428Y-90110571D02*
X124789428Y-91396285D01*
X124860857Y-91539142D01*
X125003714Y-91610571D01*
X125146571Y-91610571D01*
X125860857Y-91610571D02*
X125718000Y-91539142D01*
X125646571Y-91467714D01*
X125575142Y-91324857D01*
X125575142Y-90896285D01*
X125646571Y-90753428D01*
X125718000Y-90682000D01*
X125860857Y-90610571D01*
X126075142Y-90610571D01*
X126218000Y-90682000D01*
X126289428Y-90753428D01*
X126360857Y-90896285D01*
X126360857Y-91324857D01*
X126289428Y-91467714D01*
X126218000Y-91539142D01*
X126075142Y-91610571D01*
X125860857Y-91610571D01*
X127003714Y-90610571D02*
X127003714Y-91610571D01*
X127003714Y-90753428D02*
X127075142Y-90682000D01*
X127218000Y-90610571D01*
X127432285Y-90610571D01*
X127575142Y-90682000D01*
X127646571Y-90824857D01*
X127646571Y-91610571D01*
X128289428Y-91539142D02*
X128432285Y-91610571D01*
X128718000Y-91610571D01*
X128860857Y-91539142D01*
X128932285Y-91396285D01*
X128932285Y-91324857D01*
X128860857Y-91182000D01*
X128718000Y-91110571D01*
X128503714Y-91110571D01*
X128360857Y-91039142D01*
X128289428Y-90896285D01*
X128289428Y-90824857D01*
X128360857Y-90682000D01*
X128503714Y-90610571D01*
X128718000Y-90610571D01*
X128860857Y-90682000D01*
X144732571Y-91610571D02*
X144018285Y-91610571D01*
X144018285Y-90110571D01*
X145232571Y-90824857D02*
X145732571Y-90824857D01*
X145946857Y-91610571D02*
X145232571Y-91610571D01*
X145232571Y-90110571D01*
X145946857Y-90110571D01*
X146589714Y-91610571D02*
X146589714Y-90110571D01*
X146946857Y-90110571D01*
X147161142Y-90182000D01*
X147304000Y-90324857D01*
X147375428Y-90467714D01*
X147446857Y-90753428D01*
X147446857Y-90967714D01*
X147375428Y-91253428D01*
X147304000Y-91396285D01*
X147161142Y-91539142D01*
X146946857Y-91610571D01*
X146589714Y-91610571D01*
X148018285Y-91539142D02*
X148161142Y-91610571D01*
X148446857Y-91610571D01*
X148589714Y-91539142D01*
X148661142Y-91396285D01*
X148661142Y-91324857D01*
X148589714Y-91182000D01*
X148446857Y-91110571D01*
X148232571Y-91110571D01*
X148089714Y-91039142D01*
X148018285Y-90896285D01*
X148018285Y-90824857D01*
X148089714Y-90682000D01*
X148232571Y-90610571D01*
X148446857Y-90610571D01*
X148589714Y-90682000D01*
D11*
X108164380Y-85677333D02*
X108878666Y-85677333D01*
X109021523Y-85724952D01*
X109116761Y-85820190D01*
X109164380Y-85963047D01*
X109164380Y-86058285D01*
X108497714Y-84772571D02*
X109164380Y-84772571D01*
X108116761Y-85010666D02*
X108831047Y-85248761D01*
X108831047Y-84629714D01*
X133564380Y-73485333D02*
X134278666Y-73485333D01*
X134421523Y-73532952D01*
X134516761Y-73628190D01*
X134564380Y-73771047D01*
X134564380Y-73866285D01*
X133564380Y-72532952D02*
X133564380Y-73009142D01*
X134040571Y-73056761D01*
X133992952Y-73009142D01*
X133945333Y-72913904D01*
X133945333Y-72675809D01*
X133992952Y-72580571D01*
X134040571Y-72532952D01*
X134135809Y-72485333D01*
X134373904Y-72485333D01*
X134469142Y-72532952D01*
X134516761Y-72580571D01*
X134564380Y-72675809D01*
X134564380Y-72913904D01*
X134516761Y-73009142D01*
X134469142Y-73056761D01*
X140676380Y-54689333D02*
X141390666Y-54689333D01*
X141533523Y-54736952D01*
X141628761Y-54832190D01*
X141676380Y-54975047D01*
X141676380Y-55070285D01*
X141104952Y-54070285D02*
X141057333Y-54165523D01*
X141009714Y-54213142D01*
X140914476Y-54260761D01*
X140866857Y-54260761D01*
X140771619Y-54213142D01*
X140724000Y-54165523D01*
X140676380Y-54070285D01*
X140676380Y-53879809D01*
X140724000Y-53784571D01*
X140771619Y-53736952D01*
X140866857Y-53689333D01*
X140914476Y-53689333D01*
X141009714Y-53736952D01*
X141057333Y-53784571D01*
X141104952Y-53879809D01*
X141104952Y-54070285D01*
X141152571Y-54165523D01*
X141200190Y-54213142D01*
X141295428Y-54260761D01*
X141485904Y-54260761D01*
X141581142Y-54213142D01*
X141628761Y-54165523D01*
X141676380Y-54070285D01*
X141676380Y-53879809D01*
X141628761Y-53784571D01*
X141581142Y-53736952D01*
X141485904Y-53689333D01*
X141295428Y-53689333D01*
X141200190Y-53736952D01*
X141152571Y-53784571D01*
X141104952Y-53879809D01*
X113839666Y-91019380D02*
X113839666Y-91733666D01*
X113792047Y-91876523D01*
X113696809Y-91971761D01*
X113553952Y-92019380D01*
X113458714Y-92019380D01*
X114268238Y-91114619D02*
X114315857Y-91067000D01*
X114411095Y-91019380D01*
X114649190Y-91019380D01*
X114744428Y-91067000D01*
X114792047Y-91114619D01*
X114839666Y-91209857D01*
X114839666Y-91305095D01*
X114792047Y-91447952D01*
X114220619Y-92019380D01*
X114839666Y-92019380D01*
X136572666Y-91019380D02*
X136572666Y-91733666D01*
X136525047Y-91876523D01*
X136429809Y-91971761D01*
X136286952Y-92019380D01*
X136191714Y-92019380D01*
X136953619Y-91019380D02*
X137572666Y-91019380D01*
X137239333Y-91400333D01*
X137382190Y-91400333D01*
X137477428Y-91447952D01*
X137525047Y-91495571D01*
X137572666Y-91590809D01*
X137572666Y-91828904D01*
X137525047Y-91924142D01*
X137477428Y-91971761D01*
X137382190Y-92019380D01*
X137096476Y-92019380D01*
X137001238Y-91971761D01*
X136953619Y-91924142D01*
D12*
X107300000Y-65496000D02*
X107300000Y-86397000D01*
X100980000Y-65496000D02*
X100980000Y-86397000D01*
X107300000Y-65496000D02*
X100980000Y-65496000D01*
X101480000Y-65256000D02*
X100740000Y-65256000D01*
X101540000Y-65496000D02*
X101540000Y-86397000D01*
X100740000Y-65256000D02*
X100740000Y-65756000D01*
X107300000Y-86397000D02*
X100980000Y-86397000D01*
X106840000Y-65496000D02*
X106840000Y-86397000D01*
X129538000Y-66996000D02*
X130558000Y-66996000D01*
X127448000Y-72196000D02*
X128018000Y-72196000D01*
X127448000Y-66996000D02*
X128018000Y-66996000D01*
X127448000Y-72196000D02*
X127448000Y-66996000D01*
X132078000Y-66996000D02*
X132648000Y-66996000D01*
X132648000Y-72196000D02*
X132648000Y-66996000D01*
X129538000Y-72196000D02*
X130558000Y-72196000D01*
X132078000Y-72196000D02*
X132648000Y-72196000D01*
X128018000Y-73636000D02*
X128018000Y-72196000D01*
X139266000Y-54372000D02*
X139836000Y-54372000D01*
X131646000Y-59572000D02*
X132666000Y-59572000D01*
X139266000Y-59572000D02*
X139836000Y-59572000D01*
X139836000Y-59572000D02*
X139836000Y-54372000D01*
X131646000Y-54372000D02*
X132666000Y-54372000D01*
X136726000Y-59572000D02*
X137746000Y-59572000D01*
X134186000Y-54372000D02*
X135206000Y-54372000D01*
X129556000Y-59572000D02*
X130126000Y-59572000D01*
X130126000Y-61012000D02*
X130126000Y-59572000D01*
X134186000Y-59572000D02*
X135206000Y-59572000D01*
X129556000Y-59572000D02*
X129556000Y-54372000D01*
X136726000Y-54372000D02*
X137746000Y-54372000D01*
X129556000Y-54372000D02*
X130126000Y-54372000D01*
X113008000Y-98672000D02*
X113008000Y-99412000D01*
X113248000Y-98612000D02*
X134149000Y-98612000D01*
X113248000Y-92852000D02*
X113248000Y-99172000D01*
X113248000Y-93312000D02*
X134149000Y-93312000D01*
X134149000Y-92852000D02*
X134149000Y-99172000D01*
X113248000Y-99172000D02*
X134149000Y-99172000D01*
X113248000Y-92852000D02*
X134149000Y-92852000D01*
X113008000Y-99412000D02*
X113508000Y-99412000D01*
X136376000Y-99412000D02*
X136876000Y-99412000D01*
X136616000Y-99172000D02*
X157517000Y-99172000D01*
X136376000Y-98672000D02*
X136376000Y-99412000D01*
X136616000Y-92852000D02*
X136616000Y-99172000D01*
X136616000Y-92852000D02*
X157517000Y-92852000D01*
X157517000Y-92852000D02*
X157517000Y-99172000D01*
X136616000Y-93312000D02*
X157517000Y-93312000D01*
X136616000Y-98612000D02*
X157517000Y-98612000D01*
%LPC*%
D13*
X161500000Y-47500000D03*
X103500000Y-96500000D03*
X103500000Y-47500000D03*
D14*
X104140000Y-67056000D03*
D15*
X104140000Y-69596000D03*
X104140000Y-72136000D03*
X104140000Y-74676000D03*
X104140000Y-77216000D03*
X104140000Y-79756000D03*
X104140000Y-82296000D03*
X104140000Y-84836000D03*
D16*
X128778000Y-72121000D03*
X128778000Y-67071000D03*
X131318000Y-72121000D03*
X131318000Y-67071000D03*
D13*
X161500000Y-96500000D03*
D16*
X130886000Y-59497000D03*
X130886000Y-54447000D03*
X133426000Y-59497000D03*
X133426000Y-54447000D03*
X135966000Y-59497000D03*
X135966000Y-54447000D03*
X138506000Y-59497000D03*
X138506000Y-54447000D03*
D14*
X114808000Y-96012000D03*
D15*
X117348000Y-96012000D03*
X119888000Y-96012000D03*
X122428000Y-96012000D03*
X124968000Y-96012000D03*
X127508000Y-96012000D03*
X130048000Y-96012000D03*
X132588000Y-96012000D03*
D14*
X138176000Y-96012000D03*
D15*
X140716000Y-96012000D03*
X143256000Y-96012000D03*
X145796000Y-96012000D03*
X148336000Y-96012000D03*
X150876000Y-96012000D03*
X153416000Y-96012000D03*
X155956000Y-96012000D03*
D17*
X108370000Y-48770000D03*
D18*
X108370000Y-46230000D03*
X110910000Y-48770000D03*
X110910000Y-46230000D03*
X113450000Y-48770000D03*
X113450000Y-46230000D03*
X115990000Y-48770000D03*
X115990000Y-46230000D03*
X118530000Y-48770000D03*
X118530000Y-46230000D03*
X121070000Y-48770000D03*
X121070000Y-46230000D03*
X123610000Y-48770000D03*
X123610000Y-46230000D03*
X126150000Y-48770000D03*
X126150000Y-46230000D03*
X128690000Y-48770000D03*
X128690000Y-46230000D03*
X131230000Y-48770000D03*
X131230000Y-46230000D03*
X133770000Y-48770000D03*
X133770000Y-46230000D03*
X136310000Y-48770000D03*
X136310000Y-46230000D03*
X138850000Y-48770000D03*
X138850000Y-46230000D03*
X141390000Y-48770000D03*
X141390000Y-46230000D03*
X143930000Y-48770000D03*
X143930000Y-46230000D03*
X146470000Y-48770000D03*
X146470000Y-46230000D03*
X149010000Y-48770000D03*
X149010000Y-46230000D03*
X151550000Y-48770000D03*
X151550000Y-46230000D03*
X154090000Y-48770000D03*
X154090000Y-46230000D03*
X156630000Y-48770000D03*
X156630000Y-46230000D03*
D19*
X106740000Y-54514000D03*
X106740000Y-60294000D03*
D20*
X107270000Y-61724000D03*
D21*
X103090000Y-61724000D03*
D20*
X107270000Y-53084000D03*
D21*
X103090000Y-53084000D03*
M02*
