G04 #@! TF.GenerationSoftware,KiCad,Pcbnew,(6.0.6)*
G04 #@! TF.CreationDate,2022-08-21T21:59:20+02:00*
G04 #@! TF.ProjectId,Phoniebox,50686f6e-6965-4626-9f78-2e6b69636164,rev?*
G04 #@! TF.SameCoordinates,Original*
G04 #@! TF.FileFunction,Legend,Bot*
G04 #@! TF.FilePolarity,Positive*
%FSLAX46Y46*%
G04 Gerber Fmt 4.6, Leading zero omitted, Abs format (unit mm)*
G04 Created by KiCad (PCBNEW (6.0.6)) date 2022-08-21 21:59:20*
%MOMM*%
%LPD*%
G01*
G04 APERTURE LIST*
G04 Aperture macros list*
%AMRoundRect*
0 Rectangle with rounded corners*
0 $1 Rounding radius*
0 $2 $3 $4 $5 $6 $7 $8 $9 X,Y pos of 4 corners*
0 Add a 4 corners polygon primitive as box body*
4,1,4,$2,$3,$4,$5,$6,$7,$8,$9,$2,$3,0*
0 Add four circle primitives for the rounded corners*
1,1,$1+$1,$2,$3*
1,1,$1+$1,$4,$5*
1,1,$1+$1,$6,$7*
1,1,$1+$1,$8,$9*
0 Add four rect primitives between the rounded corners*
20,1,$1+$1,$2,$3,$4,$5,0*
20,1,$1+$1,$4,$5,$6,$7,0*
20,1,$1+$1,$6,$7,$8,$9,0*
20,1,$1+$1,$8,$9,$2,$3,0*%
G04 Aperture macros list end*
%ADD10C,0.150000*%
%ADD11C,0.120000*%
%ADD12C,2.700000*%
%ADD13R,2.200000X2.200000*%
%ADD14C,2.200000*%
%ADD15O,0.950000X1.250000*%
%ADD16O,1.550000X0.890000*%
%ADD17R,1.700000X1.700000*%
%ADD18O,1.700000X1.700000*%
%ADD19RoundRect,0.237500X0.237500X-0.300000X0.237500X0.300000X-0.237500X0.300000X-0.237500X-0.300000X0*%
%ADD20RoundRect,0.237500X0.300000X0.237500X-0.300000X0.237500X-0.300000X-0.237500X0.300000X-0.237500X0*%
%ADD21RoundRect,0.237500X-0.237500X0.250000X-0.237500X-0.250000X0.237500X-0.250000X0.237500X0.250000X0*%
%ADD22RoundRect,0.150000X-0.150000X0.587500X-0.150000X-0.587500X0.150000X-0.587500X0.150000X0.587500X0*%
%ADD23RoundRect,0.237500X-0.300000X-0.237500X0.300000X-0.237500X0.300000X0.237500X-0.300000X0.237500X0*%
%ADD24RoundRect,0.237500X-0.237500X0.300000X-0.237500X-0.300000X0.237500X-0.300000X0.237500X0.300000X0*%
%ADD25RoundRect,0.237500X0.250000X0.237500X-0.250000X0.237500X-0.250000X-0.237500X0.250000X-0.237500X0*%
%ADD26RoundRect,0.250000X-0.412500X-1.100000X0.412500X-1.100000X0.412500X1.100000X-0.412500X1.100000X0*%
%ADD27RoundRect,0.237500X0.237500X-0.250000X0.237500X0.250000X-0.237500X0.250000X-0.237500X-0.250000X0*%
%ADD28RoundRect,0.100000X-0.637500X-0.100000X0.637500X-0.100000X0.637500X0.100000X-0.637500X0.100000X0*%
%ADD29RoundRect,0.150000X-0.150000X0.850000X-0.150000X-0.850000X0.150000X-0.850000X0.150000X0.850000X0*%
%ADD30RoundRect,0.250000X0.412500X1.100000X-0.412500X1.100000X-0.412500X-1.100000X0.412500X-1.100000X0*%
%ADD31RoundRect,0.150000X-0.512500X-0.150000X0.512500X-0.150000X0.512500X0.150000X-0.512500X0.150000X0*%
%ADD32RoundRect,0.250000X-1.100000X0.412500X-1.100000X-0.412500X1.100000X-0.412500X1.100000X0.412500X0*%
%ADD33RoundRect,0.237500X-0.250000X-0.237500X0.250000X-0.237500X0.250000X0.237500X-0.250000X0.237500X0*%
G04 APERTURE END LIST*
D10*
X106937333Y-50684380D02*
X106937333Y-51398666D01*
X106984952Y-51541523D01*
X107080190Y-51636761D01*
X107223047Y-51684380D01*
X107318285Y-51684380D01*
X105937333Y-51684380D02*
X106508761Y-51684380D01*
X106223047Y-51684380D02*
X106223047Y-50684380D01*
X106318285Y-50827238D01*
X106413523Y-50922476D01*
X106508761Y-50970095D01*
X126265142Y-69353333D02*
X126312761Y-69305714D01*
X126360380Y-69162857D01*
X126360380Y-69067619D01*
X126312761Y-68924761D01*
X126217523Y-68829523D01*
X126122285Y-68781904D01*
X125931809Y-68734285D01*
X125788952Y-68734285D01*
X125598476Y-68781904D01*
X125503238Y-68829523D01*
X125408000Y-68924761D01*
X125360380Y-69067619D01*
X125360380Y-69162857D01*
X125408000Y-69305714D01*
X125455619Y-69353333D01*
X125360380Y-70210476D02*
X125360380Y-70020000D01*
X125408000Y-69924761D01*
X125455619Y-69877142D01*
X125598476Y-69781904D01*
X125788952Y-69734285D01*
X126169904Y-69734285D01*
X126265142Y-69781904D01*
X126312761Y-69829523D01*
X126360380Y-69924761D01*
X126360380Y-70115238D01*
X126312761Y-70210476D01*
X126265142Y-70258095D01*
X126169904Y-70305714D01*
X125931809Y-70305714D01*
X125836571Y-70258095D01*
X125788952Y-70210476D01*
X125741333Y-70115238D01*
X125741333Y-69924761D01*
X125788952Y-69829523D01*
X125836571Y-69781904D01*
X125931809Y-69734285D01*
X145219857Y-69877142D02*
X145267476Y-69924761D01*
X145410333Y-69972380D01*
X145505571Y-69972380D01*
X145648428Y-69924761D01*
X145743666Y-69829523D01*
X145791285Y-69734285D01*
X145838904Y-69543809D01*
X145838904Y-69400952D01*
X145791285Y-69210476D01*
X145743666Y-69115238D01*
X145648428Y-69020000D01*
X145505571Y-68972380D01*
X145410333Y-68972380D01*
X145267476Y-69020000D01*
X145219857Y-69067619D01*
X144838904Y-69067619D02*
X144791285Y-69020000D01*
X144696047Y-68972380D01*
X144457952Y-68972380D01*
X144362714Y-69020000D01*
X144315095Y-69067619D01*
X144267476Y-69162857D01*
X144267476Y-69258095D01*
X144315095Y-69400952D01*
X144886523Y-69972380D01*
X144267476Y-69972380D01*
X143934142Y-68972380D02*
X143267476Y-68972380D01*
X143696047Y-69972380D01*
X142631238Y-86353619D02*
X142726476Y-86306000D01*
X142821714Y-86210761D01*
X142964571Y-86067904D01*
X143059809Y-86020285D01*
X143155047Y-86020285D01*
X143107428Y-86258380D02*
X143202666Y-86210761D01*
X143297904Y-86115523D01*
X143345523Y-85925047D01*
X143345523Y-85591714D01*
X143297904Y-85401238D01*
X143202666Y-85306000D01*
X143107428Y-85258380D01*
X142916952Y-85258380D01*
X142821714Y-85306000D01*
X142726476Y-85401238D01*
X142678857Y-85591714D01*
X142678857Y-85925047D01*
X142726476Y-86115523D01*
X142821714Y-86210761D01*
X142916952Y-86258380D01*
X143107428Y-86258380D01*
X142345523Y-85258380D02*
X141726476Y-85258380D01*
X142059809Y-85639333D01*
X141916952Y-85639333D01*
X141821714Y-85686952D01*
X141774095Y-85734571D01*
X141726476Y-85829809D01*
X141726476Y-86067904D01*
X141774095Y-86163142D01*
X141821714Y-86210761D01*
X141916952Y-86258380D01*
X142202666Y-86258380D01*
X142297904Y-86210761D01*
X142345523Y-86163142D01*
X120169142Y-65797333D02*
X120216761Y-65749714D01*
X120264380Y-65606857D01*
X120264380Y-65511619D01*
X120216761Y-65368761D01*
X120121523Y-65273523D01*
X120026285Y-65225904D01*
X119835809Y-65178285D01*
X119692952Y-65178285D01*
X119502476Y-65225904D01*
X119407238Y-65273523D01*
X119312000Y-65368761D01*
X119264380Y-65511619D01*
X119264380Y-65606857D01*
X119312000Y-65749714D01*
X119359619Y-65797333D01*
X119264380Y-66702095D02*
X119264380Y-66225904D01*
X119740571Y-66178285D01*
X119692952Y-66225904D01*
X119645333Y-66321142D01*
X119645333Y-66559238D01*
X119692952Y-66654476D01*
X119740571Y-66702095D01*
X119835809Y-66749714D01*
X120073904Y-66749714D01*
X120169142Y-66702095D01*
X120216761Y-66654476D01*
X120264380Y-66559238D01*
X120264380Y-66321142D01*
X120216761Y-66225904D01*
X120169142Y-66178285D01*
X155856142Y-61257142D02*
X155903761Y-61209523D01*
X155951380Y-61066666D01*
X155951380Y-60971428D01*
X155903761Y-60828571D01*
X155808523Y-60733333D01*
X155713285Y-60685714D01*
X155522809Y-60638095D01*
X155379952Y-60638095D01*
X155189476Y-60685714D01*
X155094238Y-60733333D01*
X154999000Y-60828571D01*
X154951380Y-60971428D01*
X154951380Y-61066666D01*
X154999000Y-61209523D01*
X155046619Y-61257142D01*
X155951380Y-62209523D02*
X155951380Y-61638095D01*
X155951380Y-61923809D02*
X154951380Y-61923809D01*
X155094238Y-61828571D01*
X155189476Y-61733333D01*
X155237095Y-61638095D01*
X155951380Y-62685714D02*
X155951380Y-62876190D01*
X155903761Y-62971428D01*
X155856142Y-63019047D01*
X155713285Y-63114285D01*
X155522809Y-63161904D01*
X155141857Y-63161904D01*
X155046619Y-63114285D01*
X154999000Y-63066666D01*
X154951380Y-62971428D01*
X154951380Y-62780952D01*
X154999000Y-62685714D01*
X155046619Y-62638095D01*
X155141857Y-62590476D01*
X155379952Y-62590476D01*
X155475190Y-62638095D01*
X155522809Y-62685714D01*
X155570428Y-62780952D01*
X155570428Y-62971428D01*
X155522809Y-63066666D01*
X155475190Y-63114285D01*
X155379952Y-63161904D01*
X156665238Y-86358619D02*
X156760476Y-86311000D01*
X156855714Y-86215761D01*
X156998571Y-86072904D01*
X157093809Y-86025285D01*
X157189047Y-86025285D01*
X157141428Y-86263380D02*
X157236666Y-86215761D01*
X157331904Y-86120523D01*
X157379523Y-85930047D01*
X157379523Y-85596714D01*
X157331904Y-85406238D01*
X157236666Y-85311000D01*
X157141428Y-85263380D01*
X156950952Y-85263380D01*
X156855714Y-85311000D01*
X156760476Y-85406238D01*
X156712857Y-85596714D01*
X156712857Y-85930047D01*
X156760476Y-86120523D01*
X156855714Y-86215761D01*
X156950952Y-86263380D01*
X157141428Y-86263380D01*
X155855714Y-85263380D02*
X156046190Y-85263380D01*
X156141428Y-85311000D01*
X156189047Y-85358619D01*
X156284285Y-85501476D01*
X156331904Y-85691952D01*
X156331904Y-86072904D01*
X156284285Y-86168142D01*
X156236666Y-86215761D01*
X156141428Y-86263380D01*
X155950952Y-86263380D01*
X155855714Y-86215761D01*
X155808095Y-86168142D01*
X155760476Y-86072904D01*
X155760476Y-85834809D01*
X155808095Y-85739571D01*
X155855714Y-85691952D01*
X155950952Y-85644333D01*
X156141428Y-85644333D01*
X156236666Y-85691952D01*
X156284285Y-85739571D01*
X156331904Y-85834809D01*
X159308904Y-62495380D02*
X159308904Y-63304904D01*
X159261285Y-63400142D01*
X159213666Y-63447761D01*
X159118428Y-63495380D01*
X158927952Y-63495380D01*
X158832714Y-63447761D01*
X158785095Y-63400142D01*
X158737476Y-63304904D01*
X158737476Y-62495380D01*
X158356523Y-62495380D02*
X157737476Y-62495380D01*
X158070809Y-62876333D01*
X157927952Y-62876333D01*
X157832714Y-62923952D01*
X157785095Y-62971571D01*
X157737476Y-63066809D01*
X157737476Y-63304904D01*
X157785095Y-63400142D01*
X157832714Y-63447761D01*
X157927952Y-63495380D01*
X158213666Y-63495380D01*
X158308904Y-63447761D01*
X158356523Y-63400142D01*
X148068142Y-77767142D02*
X148115761Y-77719523D01*
X148163380Y-77576666D01*
X148163380Y-77481428D01*
X148115761Y-77338571D01*
X148020523Y-77243333D01*
X147925285Y-77195714D01*
X147734809Y-77148095D01*
X147591952Y-77148095D01*
X147401476Y-77195714D01*
X147306238Y-77243333D01*
X147211000Y-77338571D01*
X147163380Y-77481428D01*
X147163380Y-77576666D01*
X147211000Y-77719523D01*
X147258619Y-77767142D01*
X148163380Y-78719523D02*
X148163380Y-78148095D01*
X148163380Y-78433809D02*
X147163380Y-78433809D01*
X147306238Y-78338571D01*
X147401476Y-78243333D01*
X147449095Y-78148095D01*
X147163380Y-79052857D02*
X147163380Y-79719523D01*
X148163380Y-79290952D01*
X149498238Y-86323619D02*
X149593476Y-86276000D01*
X149688714Y-86180761D01*
X149831571Y-86037904D01*
X149926809Y-85990285D01*
X150022047Y-85990285D01*
X149974428Y-86228380D02*
X150069666Y-86180761D01*
X150164904Y-86085523D01*
X150212523Y-85895047D01*
X150212523Y-85561714D01*
X150164904Y-85371238D01*
X150069666Y-85276000D01*
X149974428Y-85228380D01*
X149783952Y-85228380D01*
X149688714Y-85276000D01*
X149593476Y-85371238D01*
X149545857Y-85561714D01*
X149545857Y-85895047D01*
X149593476Y-86085523D01*
X149688714Y-86180761D01*
X149783952Y-86228380D01*
X149974428Y-86228380D01*
X149164904Y-85323619D02*
X149117285Y-85276000D01*
X149022047Y-85228380D01*
X148783952Y-85228380D01*
X148688714Y-85276000D01*
X148641095Y-85323619D01*
X148593476Y-85418857D01*
X148593476Y-85514095D01*
X148641095Y-85656952D01*
X149212523Y-86228380D01*
X148593476Y-86228380D01*
X145942238Y-86323619D02*
X146037476Y-86276000D01*
X146132714Y-86180761D01*
X146275571Y-86037904D01*
X146370809Y-85990285D01*
X146466047Y-85990285D01*
X146418428Y-86228380D02*
X146513666Y-86180761D01*
X146608904Y-86085523D01*
X146656523Y-85895047D01*
X146656523Y-85561714D01*
X146608904Y-85371238D01*
X146513666Y-85276000D01*
X146418428Y-85228380D01*
X146227952Y-85228380D01*
X146132714Y-85276000D01*
X146037476Y-85371238D01*
X145989857Y-85561714D01*
X145989857Y-85895047D01*
X146037476Y-86085523D01*
X146132714Y-86180761D01*
X146227952Y-86228380D01*
X146418428Y-86228380D01*
X145085095Y-85228380D02*
X145561285Y-85228380D01*
X145608904Y-85704571D01*
X145561285Y-85656952D01*
X145466047Y-85609333D01*
X145227952Y-85609333D01*
X145132714Y-85656952D01*
X145085095Y-85704571D01*
X145037476Y-85799809D01*
X145037476Y-86037904D01*
X145085095Y-86133142D01*
X145132714Y-86180761D01*
X145227952Y-86228380D01*
X145466047Y-86228380D01*
X145561285Y-86180761D01*
X145608904Y-86133142D01*
X160586857Y-75973142D02*
X160634476Y-76020761D01*
X160777333Y-76068380D01*
X160872571Y-76068380D01*
X161015428Y-76020761D01*
X161110666Y-75925523D01*
X161158285Y-75830285D01*
X161205904Y-75639809D01*
X161205904Y-75496952D01*
X161158285Y-75306476D01*
X161110666Y-75211238D01*
X161015428Y-75116000D01*
X160872571Y-75068380D01*
X160777333Y-75068380D01*
X160634476Y-75116000D01*
X160586857Y-75163619D01*
X160205904Y-75163619D02*
X160158285Y-75116000D01*
X160063047Y-75068380D01*
X159824952Y-75068380D01*
X159729714Y-75116000D01*
X159682095Y-75163619D01*
X159634476Y-75258857D01*
X159634476Y-75354095D01*
X159682095Y-75496952D01*
X160253523Y-76068380D01*
X159634476Y-76068380D01*
X159301142Y-75068380D02*
X158682095Y-75068380D01*
X159015428Y-75449333D01*
X158872571Y-75449333D01*
X158777333Y-75496952D01*
X158729714Y-75544571D01*
X158682095Y-75639809D01*
X158682095Y-75877904D01*
X158729714Y-75973142D01*
X158777333Y-76020761D01*
X158872571Y-76068380D01*
X159158285Y-76068380D01*
X159253523Y-76020761D01*
X159301142Y-75973142D01*
X111332380Y-70663095D02*
X112141904Y-70663095D01*
X112237142Y-70710714D01*
X112284761Y-70758333D01*
X112332380Y-70853571D01*
X112332380Y-71044047D01*
X112284761Y-71139285D01*
X112237142Y-71186904D01*
X112141904Y-71234523D01*
X111332380Y-71234523D01*
X112332380Y-72234523D02*
X112332380Y-71663095D01*
X112332380Y-71948809D02*
X111332380Y-71948809D01*
X111475238Y-71853571D01*
X111570476Y-71758333D01*
X111618095Y-71663095D01*
X146966142Y-72433142D02*
X147013761Y-72385523D01*
X147061380Y-72242666D01*
X147061380Y-72147428D01*
X147013761Y-72004571D01*
X146918523Y-71909333D01*
X146823285Y-71861714D01*
X146632809Y-71814095D01*
X146489952Y-71814095D01*
X146299476Y-71861714D01*
X146204238Y-71909333D01*
X146109000Y-72004571D01*
X146061380Y-72147428D01*
X146061380Y-72242666D01*
X146109000Y-72385523D01*
X146156619Y-72433142D01*
X147061380Y-73385523D02*
X147061380Y-72814095D01*
X147061380Y-73099809D02*
X146061380Y-73099809D01*
X146204238Y-73004571D01*
X146299476Y-72909333D01*
X146347095Y-72814095D01*
X146489952Y-73956952D02*
X146442333Y-73861714D01*
X146394714Y-73814095D01*
X146299476Y-73766476D01*
X146251857Y-73766476D01*
X146156619Y-73814095D01*
X146109000Y-73861714D01*
X146061380Y-73956952D01*
X146061380Y-74147428D01*
X146109000Y-74242666D01*
X146156619Y-74290285D01*
X146251857Y-74337904D01*
X146299476Y-74337904D01*
X146394714Y-74290285D01*
X146442333Y-74242666D01*
X146489952Y-74147428D01*
X146489952Y-73956952D01*
X146537571Y-73861714D01*
X146585190Y-73814095D01*
X146680428Y-73766476D01*
X146870904Y-73766476D01*
X146966142Y-73814095D01*
X147013761Y-73861714D01*
X147061380Y-73956952D01*
X147061380Y-74147428D01*
X147013761Y-74242666D01*
X146966142Y-74290285D01*
X146870904Y-74337904D01*
X146680428Y-74337904D01*
X146585190Y-74290285D01*
X146537571Y-74242666D01*
X146489952Y-74147428D01*
X151313404Y-78992380D02*
X151313404Y-79801904D01*
X151265785Y-79897142D01*
X151218166Y-79944761D01*
X151122928Y-79992380D01*
X150932452Y-79992380D01*
X150837214Y-79944761D01*
X150789595Y-79897142D01*
X150741976Y-79801904D01*
X150741976Y-78992380D01*
X150313404Y-79087619D02*
X150265785Y-79040000D01*
X150170547Y-78992380D01*
X149932452Y-78992380D01*
X149837214Y-79040000D01*
X149789595Y-79087619D01*
X149741976Y-79182857D01*
X149741976Y-79278095D01*
X149789595Y-79420952D01*
X150361023Y-79992380D01*
X149741976Y-79992380D01*
X157339142Y-77767142D02*
X157386761Y-77719523D01*
X157434380Y-77576666D01*
X157434380Y-77481428D01*
X157386761Y-77338571D01*
X157291523Y-77243333D01*
X157196285Y-77195714D01*
X157005809Y-77148095D01*
X156862952Y-77148095D01*
X156672476Y-77195714D01*
X156577238Y-77243333D01*
X156482000Y-77338571D01*
X156434380Y-77481428D01*
X156434380Y-77576666D01*
X156482000Y-77719523D01*
X156529619Y-77767142D01*
X156529619Y-78148095D02*
X156482000Y-78195714D01*
X156434380Y-78290952D01*
X156434380Y-78529047D01*
X156482000Y-78624285D01*
X156529619Y-78671904D01*
X156624857Y-78719523D01*
X156720095Y-78719523D01*
X156862952Y-78671904D01*
X157434380Y-78100476D01*
X157434380Y-78719523D01*
X156529619Y-79100476D02*
X156482000Y-79148095D01*
X156434380Y-79243333D01*
X156434380Y-79481428D01*
X156482000Y-79576666D01*
X156529619Y-79624285D01*
X156624857Y-79671904D01*
X156720095Y-79671904D01*
X156862952Y-79624285D01*
X157434380Y-79052857D01*
X157434380Y-79671904D01*
X150649142Y-64559142D02*
X150696761Y-64511523D01*
X150744380Y-64368666D01*
X150744380Y-64273428D01*
X150696761Y-64130571D01*
X150601523Y-64035333D01*
X150506285Y-63987714D01*
X150315809Y-63940095D01*
X150172952Y-63940095D01*
X149982476Y-63987714D01*
X149887238Y-64035333D01*
X149792000Y-64130571D01*
X149744380Y-64273428D01*
X149744380Y-64368666D01*
X149792000Y-64511523D01*
X149839619Y-64559142D01*
X149839619Y-64940095D02*
X149792000Y-64987714D01*
X149744380Y-65082952D01*
X149744380Y-65321047D01*
X149792000Y-65416285D01*
X149839619Y-65463904D01*
X149934857Y-65511523D01*
X150030095Y-65511523D01*
X150172952Y-65463904D01*
X150744380Y-64892476D01*
X150744380Y-65511523D01*
X149744380Y-66416285D02*
X149744380Y-65940095D01*
X150220571Y-65892476D01*
X150172952Y-65940095D01*
X150125333Y-66035333D01*
X150125333Y-66273428D01*
X150172952Y-66368666D01*
X150220571Y-66416285D01*
X150315809Y-66463904D01*
X150553904Y-66463904D01*
X150649142Y-66416285D01*
X150696761Y-66368666D01*
X150744380Y-66273428D01*
X150744380Y-66035333D01*
X150696761Y-65940095D01*
X150649142Y-65892476D01*
X111342666Y-67337142D02*
X111390285Y-67384761D01*
X111533142Y-67432380D01*
X111628380Y-67432380D01*
X111771238Y-67384761D01*
X111866476Y-67289523D01*
X111914095Y-67194285D01*
X111961714Y-67003809D01*
X111961714Y-66860952D01*
X111914095Y-66670476D01*
X111866476Y-66575238D01*
X111771238Y-66480000D01*
X111628380Y-66432380D01*
X111533142Y-66432380D01*
X111390285Y-66480000D01*
X111342666Y-66527619D01*
X110485523Y-66765714D02*
X110485523Y-67432380D01*
X110723619Y-66384761D02*
X110961714Y-67099047D01*
X110342666Y-67099047D01*
X145219857Y-68448380D02*
X145553190Y-67972190D01*
X145791285Y-68448380D02*
X145791285Y-67448380D01*
X145410333Y-67448380D01*
X145315095Y-67496000D01*
X145267476Y-67543619D01*
X145219857Y-67638857D01*
X145219857Y-67781714D01*
X145267476Y-67876952D01*
X145315095Y-67924571D01*
X145410333Y-67972190D01*
X145791285Y-67972190D01*
X144838904Y-67543619D02*
X144791285Y-67496000D01*
X144696047Y-67448380D01*
X144457952Y-67448380D01*
X144362714Y-67496000D01*
X144315095Y-67543619D01*
X144267476Y-67638857D01*
X144267476Y-67734095D01*
X144315095Y-67876952D01*
X144886523Y-68448380D01*
X144267476Y-68448380D01*
X143886523Y-67543619D02*
X143838904Y-67496000D01*
X143743666Y-67448380D01*
X143505571Y-67448380D01*
X143410333Y-67496000D01*
X143362714Y-67543619D01*
X143315095Y-67638857D01*
X143315095Y-67734095D01*
X143362714Y-67876952D01*
X143934142Y-68448380D01*
X143315095Y-68448380D01*
X123026666Y-64797142D02*
X123074285Y-64844761D01*
X123217142Y-64892380D01*
X123312380Y-64892380D01*
X123455238Y-64844761D01*
X123550476Y-64749523D01*
X123598095Y-64654285D01*
X123645714Y-64463809D01*
X123645714Y-64320952D01*
X123598095Y-64130476D01*
X123550476Y-64035238D01*
X123455238Y-63940000D01*
X123312380Y-63892380D01*
X123217142Y-63892380D01*
X123074285Y-63940000D01*
X123026666Y-63987619D01*
X122645714Y-63987619D02*
X122598095Y-63940000D01*
X122502857Y-63892380D01*
X122264761Y-63892380D01*
X122169523Y-63940000D01*
X122121904Y-63987619D01*
X122074285Y-64082857D01*
X122074285Y-64178095D01*
X122121904Y-64320952D01*
X122693333Y-64892380D01*
X122074285Y-64892380D01*
X124836380Y-69353333D02*
X124360190Y-69020000D01*
X124836380Y-68781904D02*
X123836380Y-68781904D01*
X123836380Y-69162857D01*
X123884000Y-69258095D01*
X123931619Y-69305714D01*
X124026857Y-69353333D01*
X124169714Y-69353333D01*
X124264952Y-69305714D01*
X124312571Y-69258095D01*
X124360190Y-69162857D01*
X124360190Y-68781904D01*
X123836380Y-69686666D02*
X123836380Y-70305714D01*
X124217333Y-69972380D01*
X124217333Y-70115238D01*
X124264952Y-70210476D01*
X124312571Y-70258095D01*
X124407809Y-70305714D01*
X124645904Y-70305714D01*
X124741142Y-70258095D01*
X124788761Y-70210476D01*
X124836380Y-70115238D01*
X124836380Y-69829523D01*
X124788761Y-69734285D01*
X124741142Y-69686666D01*
X138830238Y-86323619D02*
X138925476Y-86276000D01*
X139020714Y-86180761D01*
X139163571Y-86037904D01*
X139258809Y-85990285D01*
X139354047Y-85990285D01*
X139306428Y-86228380D02*
X139401666Y-86180761D01*
X139496904Y-86085523D01*
X139544523Y-85895047D01*
X139544523Y-85561714D01*
X139496904Y-85371238D01*
X139401666Y-85276000D01*
X139306428Y-85228380D01*
X139115952Y-85228380D01*
X139020714Y-85276000D01*
X138925476Y-85371238D01*
X138877857Y-85561714D01*
X138877857Y-85895047D01*
X138925476Y-86085523D01*
X139020714Y-86180761D01*
X139115952Y-86228380D01*
X139306428Y-86228380D01*
X137925476Y-86228380D02*
X138496904Y-86228380D01*
X138211190Y-86228380D02*
X138211190Y-85228380D01*
X138306428Y-85371238D01*
X138401666Y-85466476D01*
X138496904Y-85514095D01*
X153054238Y-86323619D02*
X153149476Y-86276000D01*
X153244714Y-86180761D01*
X153387571Y-86037904D01*
X153482809Y-85990285D01*
X153578047Y-85990285D01*
X153530428Y-86228380D02*
X153625666Y-86180761D01*
X153720904Y-86085523D01*
X153768523Y-85895047D01*
X153768523Y-85561714D01*
X153720904Y-85371238D01*
X153625666Y-85276000D01*
X153530428Y-85228380D01*
X153339952Y-85228380D01*
X153244714Y-85276000D01*
X153149476Y-85371238D01*
X153101857Y-85561714D01*
X153101857Y-85895047D01*
X153149476Y-86085523D01*
X153244714Y-86180761D01*
X153339952Y-86228380D01*
X153530428Y-86228380D01*
X152244714Y-85561714D02*
X152244714Y-86228380D01*
X152482809Y-85180761D02*
X152720904Y-85895047D01*
X152101857Y-85895047D01*
X124169666Y-81561142D02*
X124217285Y-81608761D01*
X124360142Y-81656380D01*
X124455380Y-81656380D01*
X124598238Y-81608761D01*
X124693476Y-81513523D01*
X124741095Y-81418285D01*
X124788714Y-81227809D01*
X124788714Y-81084952D01*
X124741095Y-80894476D01*
X124693476Y-80799238D01*
X124598238Y-80704000D01*
X124455380Y-80656380D01*
X124360142Y-80656380D01*
X124217285Y-80704000D01*
X124169666Y-80751619D01*
X123836333Y-80656380D02*
X123217285Y-80656380D01*
X123550619Y-81037333D01*
X123407761Y-81037333D01*
X123312523Y-81084952D01*
X123264904Y-81132571D01*
X123217285Y-81227809D01*
X123217285Y-81465904D01*
X123264904Y-81561142D01*
X123312523Y-81608761D01*
X123407761Y-81656380D01*
X123693476Y-81656380D01*
X123788714Y-81608761D01*
X123836333Y-81561142D01*
X111342666Y-82577142D02*
X111390285Y-82624761D01*
X111533142Y-82672380D01*
X111628380Y-82672380D01*
X111771238Y-82624761D01*
X111866476Y-82529523D01*
X111914095Y-82434285D01*
X111961714Y-82243809D01*
X111961714Y-82100952D01*
X111914095Y-81910476D01*
X111866476Y-81815238D01*
X111771238Y-81720000D01*
X111628380Y-81672380D01*
X111533142Y-81672380D01*
X111390285Y-81720000D01*
X111342666Y-81767619D01*
X111009333Y-81672380D02*
X110342666Y-81672380D01*
X110771238Y-82672380D01*
X118740380Y-65797333D02*
X118264190Y-65464000D01*
X118740380Y-65225904D02*
X117740380Y-65225904D01*
X117740380Y-65606857D01*
X117788000Y-65702095D01*
X117835619Y-65749714D01*
X117930857Y-65797333D01*
X118073714Y-65797333D01*
X118168952Y-65749714D01*
X118216571Y-65702095D01*
X118264190Y-65606857D01*
X118264190Y-65225904D01*
X117740380Y-66702095D02*
X117740380Y-66225904D01*
X118216571Y-66178285D01*
X118168952Y-66225904D01*
X118121333Y-66321142D01*
X118121333Y-66559238D01*
X118168952Y-66654476D01*
X118216571Y-66702095D01*
X118311809Y-66749714D01*
X118549904Y-66749714D01*
X118645142Y-66702095D01*
X118692761Y-66654476D01*
X118740380Y-66559238D01*
X118740380Y-66321142D01*
X118692761Y-66225904D01*
X118645142Y-66178285D01*
X163469357Y-65416142D02*
X163516976Y-65463761D01*
X163659833Y-65511380D01*
X163755071Y-65511380D01*
X163897928Y-65463761D01*
X163993166Y-65368523D01*
X164040785Y-65273285D01*
X164088404Y-65082809D01*
X164088404Y-64939952D01*
X164040785Y-64749476D01*
X163993166Y-64654238D01*
X163897928Y-64559000D01*
X163755071Y-64511380D01*
X163659833Y-64511380D01*
X163516976Y-64559000D01*
X163469357Y-64606619D01*
X163088404Y-64606619D02*
X163040785Y-64559000D01*
X162945547Y-64511380D01*
X162707452Y-64511380D01*
X162612214Y-64559000D01*
X162564595Y-64606619D01*
X162516976Y-64701857D01*
X162516976Y-64797095D01*
X162564595Y-64939952D01*
X163136023Y-65511380D01*
X162516976Y-65511380D01*
X161659833Y-64511380D02*
X161850309Y-64511380D01*
X161945547Y-64559000D01*
X161993166Y-64606619D01*
X162088404Y-64749476D01*
X162136023Y-64939952D01*
X162136023Y-65320904D01*
X162088404Y-65416142D01*
X162040785Y-65463761D01*
X161945547Y-65511380D01*
X161755071Y-65511380D01*
X161659833Y-65463761D01*
X161612214Y-65416142D01*
X161564595Y-65320904D01*
X161564595Y-65082809D01*
X161612214Y-64987571D01*
X161659833Y-64939952D01*
X161755071Y-64892333D01*
X161945547Y-64892333D01*
X162040785Y-64939952D01*
X162088404Y-64987571D01*
X162136023Y-65082809D01*
X145219857Y-66924380D02*
X145553190Y-66448190D01*
X145791285Y-66924380D02*
X145791285Y-65924380D01*
X145410333Y-65924380D01*
X145315095Y-65972000D01*
X145267476Y-66019619D01*
X145219857Y-66114857D01*
X145219857Y-66257714D01*
X145267476Y-66352952D01*
X145315095Y-66400571D01*
X145410333Y-66448190D01*
X145791285Y-66448190D01*
X144838904Y-66019619D02*
X144791285Y-65972000D01*
X144696047Y-65924380D01*
X144457952Y-65924380D01*
X144362714Y-65972000D01*
X144315095Y-66019619D01*
X144267476Y-66114857D01*
X144267476Y-66210095D01*
X144315095Y-66352952D01*
X144886523Y-66924380D01*
X144267476Y-66924380D01*
X143934142Y-65924380D02*
X143315095Y-65924380D01*
X143648428Y-66305333D01*
X143505571Y-66305333D01*
X143410333Y-66352952D01*
X143362714Y-66400571D01*
X143315095Y-66495809D01*
X143315095Y-66733904D01*
X143362714Y-66829142D01*
X143410333Y-66876761D01*
X143505571Y-66924380D01*
X143791285Y-66924380D01*
X143886523Y-66876761D01*
X143934142Y-66829142D01*
X145219857Y-65305142D02*
X145267476Y-65352761D01*
X145410333Y-65400380D01*
X145505571Y-65400380D01*
X145648428Y-65352761D01*
X145743666Y-65257523D01*
X145791285Y-65162285D01*
X145838904Y-64971809D01*
X145838904Y-64828952D01*
X145791285Y-64638476D01*
X145743666Y-64543238D01*
X145648428Y-64448000D01*
X145505571Y-64400380D01*
X145410333Y-64400380D01*
X145267476Y-64448000D01*
X145219857Y-64495619D01*
X144838904Y-64495619D02*
X144791285Y-64448000D01*
X144696047Y-64400380D01*
X144457952Y-64400380D01*
X144362714Y-64448000D01*
X144315095Y-64495619D01*
X144267476Y-64590857D01*
X144267476Y-64686095D01*
X144315095Y-64828952D01*
X144886523Y-65400380D01*
X144267476Y-65400380D01*
X143696047Y-64828952D02*
X143791285Y-64781333D01*
X143838904Y-64733714D01*
X143886523Y-64638476D01*
X143886523Y-64590857D01*
X143838904Y-64495619D01*
X143791285Y-64448000D01*
X143696047Y-64400380D01*
X143505571Y-64400380D01*
X143410333Y-64448000D01*
X143362714Y-64495619D01*
X143315095Y-64590857D01*
X143315095Y-64638476D01*
X143362714Y-64733714D01*
X143410333Y-64781333D01*
X143505571Y-64828952D01*
X143696047Y-64828952D01*
X143791285Y-64876571D01*
X143838904Y-64924190D01*
X143886523Y-65019428D01*
X143886523Y-65209904D01*
X143838904Y-65305142D01*
X143791285Y-65352761D01*
X143696047Y-65400380D01*
X143505571Y-65400380D01*
X143410333Y-65352761D01*
X143362714Y-65305142D01*
X143315095Y-65209904D01*
X143315095Y-65019428D01*
X143362714Y-64924190D01*
X143410333Y-64876571D01*
X143505571Y-64828952D01*
X124169666Y-80132380D02*
X124503000Y-79656190D01*
X124741095Y-80132380D02*
X124741095Y-79132380D01*
X124360142Y-79132380D01*
X124264904Y-79180000D01*
X124217285Y-79227619D01*
X124169666Y-79322857D01*
X124169666Y-79465714D01*
X124217285Y-79560952D01*
X124264904Y-79608571D01*
X124360142Y-79656190D01*
X124741095Y-79656190D01*
X123312523Y-79465714D02*
X123312523Y-80132380D01*
X123550619Y-79084761D02*
X123788714Y-79799047D01*
X123169666Y-79799047D01*
D11*
X109640000Y-50100000D02*
X157960000Y-50100000D01*
X109640000Y-47500000D02*
X109640000Y-50100000D01*
X107040000Y-44900000D02*
X157960000Y-44900000D01*
X157960000Y-44900000D02*
X157960000Y-50100000D01*
X107040000Y-48770000D02*
X107040000Y-50100000D01*
X107040000Y-44900000D02*
X107040000Y-47500000D01*
X107040000Y-50100000D02*
X108370000Y-50100000D01*
X107040000Y-47500000D02*
X109640000Y-47500000D01*
X122350000Y-68650267D02*
X122350000Y-68357733D01*
X123370000Y-68650267D02*
X123370000Y-68357733D01*
X147898267Y-69010000D02*
X147605733Y-69010000D01*
X147898267Y-70030000D02*
X147605733Y-70030000D01*
X129957500Y-92125276D02*
X129957500Y-92634724D01*
X131002500Y-92125276D02*
X131002500Y-92634724D01*
X140096000Y-88316000D02*
X140096000Y-86641000D01*
X143216000Y-88316000D02*
X143216000Y-88966000D01*
X143216000Y-88316000D02*
X143216000Y-87666000D01*
X140096000Y-88316000D02*
X140096000Y-88966000D01*
X109505733Y-76126000D02*
X109798267Y-76126000D01*
X109505733Y-75106000D02*
X109798267Y-75106000D01*
X119302000Y-68357733D02*
X119302000Y-68650267D01*
X120322000Y-68357733D02*
X120322000Y-68650267D01*
X109906724Y-78141500D02*
X109397276Y-78141500D01*
X109906724Y-79186500D02*
X109397276Y-79186500D01*
X151612748Y-63260000D02*
X153035252Y-63260000D01*
X151612748Y-60540000D02*
X153035252Y-60540000D01*
X154320000Y-88316000D02*
X154320000Y-86641000D01*
X157440000Y-88316000D02*
X157440000Y-88966000D01*
X154320000Y-88316000D02*
X154320000Y-88966000D01*
X157440000Y-88316000D02*
X157440000Y-87666000D01*
X152817500Y-92125276D02*
X152817500Y-92634724D01*
X153862500Y-92125276D02*
X153862500Y-92634724D01*
X129478500Y-92634724D02*
X129478500Y-92125276D01*
X128433500Y-92634724D02*
X128433500Y-92125276D01*
X109906724Y-72045500D02*
X109397276Y-72045500D01*
X109906724Y-73090500D02*
X109397276Y-73090500D01*
X145197500Y-92125276D02*
X145197500Y-92634724D01*
X146242500Y-92125276D02*
X146242500Y-92634724D01*
X132526500Y-92634724D02*
X132526500Y-92125276D01*
X131481500Y-92634724D02*
X131481500Y-92125276D01*
X155372000Y-70873000D02*
X157572000Y-70873000D01*
X155372000Y-70873000D02*
X151772000Y-70873000D01*
X155372000Y-64103000D02*
X157572000Y-64103000D01*
X155372000Y-64103000D02*
X153172000Y-64103000D01*
X149786000Y-76993733D02*
X149786000Y-77286267D01*
X148766000Y-76993733D02*
X148766000Y-77286267D01*
X150328000Y-88316000D02*
X150328000Y-88966000D01*
X147208000Y-88316000D02*
X147208000Y-86641000D01*
X147208000Y-88316000D02*
X147208000Y-88966000D01*
X150328000Y-88316000D02*
X150328000Y-87666000D01*
X143652000Y-88316000D02*
X143652000Y-88966000D01*
X143652000Y-88316000D02*
X143652000Y-86641000D01*
X146772000Y-88316000D02*
X146772000Y-88966000D01*
X146772000Y-88316000D02*
X146772000Y-87666000D01*
X158216748Y-71716000D02*
X159639252Y-71716000D01*
X158216748Y-74436000D02*
X159639252Y-74436000D01*
X122840000Y-74600000D02*
X122840000Y-72650000D01*
X112720000Y-74600000D02*
X112720000Y-76550000D01*
X112720000Y-74600000D02*
X112720000Y-71100000D01*
X122840000Y-74600000D02*
X122840000Y-76550000D01*
X150495252Y-74436000D02*
X149072748Y-74436000D01*
X150495252Y-71716000D02*
X149072748Y-71716000D01*
X120334500Y-92634724D02*
X120334500Y-92125276D01*
X119289500Y-92634724D02*
X119289500Y-92125276D01*
X124530267Y-87806000D02*
X124237733Y-87806000D01*
X124530267Y-88826000D02*
X124237733Y-88826000D01*
X152324000Y-78700000D02*
X153124000Y-78700000D01*
X152324000Y-75580000D02*
X153124000Y-75580000D01*
X152324000Y-78700000D02*
X150524000Y-78700000D01*
X152324000Y-75580000D02*
X151524000Y-75580000D01*
X120974267Y-87806000D02*
X120681733Y-87806000D01*
X120974267Y-88826000D02*
X120681733Y-88826000D01*
X154862000Y-76993733D02*
X154862000Y-77286267D01*
X155882000Y-76993733D02*
X155882000Y-77286267D01*
X109906724Y-70521500D02*
X109397276Y-70521500D01*
X109906724Y-71566500D02*
X109397276Y-71566500D01*
X149782000Y-68865733D02*
X149782000Y-69158267D01*
X150802000Y-68865733D02*
X150802000Y-69158267D01*
X124906500Y-92125276D02*
X124906500Y-92634724D01*
X123861500Y-92125276D02*
X123861500Y-92634724D01*
X154502267Y-75110000D02*
X154209733Y-75110000D01*
X154502267Y-74090000D02*
X154209733Y-74090000D01*
X141162500Y-92125276D02*
X141162500Y-92634724D01*
X140117500Y-92125276D02*
X140117500Y-92634724D01*
X115443252Y-69864000D02*
X114020748Y-69864000D01*
X115443252Y-67144000D02*
X114020748Y-67144000D01*
X148006724Y-68518500D02*
X147497276Y-68518500D01*
X148006724Y-67473500D02*
X147497276Y-67473500D01*
X121990267Y-65454000D02*
X121697733Y-65454000D01*
X121990267Y-66474000D02*
X121697733Y-66474000D01*
X127793733Y-88826000D02*
X128086267Y-88826000D01*
X127793733Y-87806000D02*
X128086267Y-87806000D01*
X121858500Y-92125276D02*
X121858500Y-92634724D01*
X120813500Y-92125276D02*
X120813500Y-92634724D01*
X143702500Y-92125276D02*
X143702500Y-92634724D01*
X142657500Y-92125276D02*
X142657500Y-92634724D01*
X125385500Y-92634724D02*
X125385500Y-92125276D01*
X126430500Y-92634724D02*
X126430500Y-92125276D01*
X109505733Y-74602000D02*
X109798267Y-74602000D01*
X109505733Y-73582000D02*
X109798267Y-73582000D01*
X120813500Y-68249276D02*
X120813500Y-68758724D01*
X121858500Y-68249276D02*
X121858500Y-68758724D01*
X109505733Y-70030000D02*
X109798267Y-70030000D01*
X109505733Y-69010000D02*
X109798267Y-69010000D01*
X136540000Y-88316000D02*
X136540000Y-86641000D01*
X139660000Y-88316000D02*
X139660000Y-87666000D01*
X136540000Y-88316000D02*
X136540000Y-88966000D01*
X139660000Y-88316000D02*
X139660000Y-88966000D01*
X151322500Y-92125276D02*
X151322500Y-92634724D01*
X150277500Y-92125276D02*
X150277500Y-92634724D01*
X118810500Y-92125276D02*
X118810500Y-92634724D01*
X117765500Y-92125276D02*
X117765500Y-92634724D01*
X147737500Y-92125276D02*
X147737500Y-92634724D01*
X148782500Y-92125276D02*
X148782500Y-92634724D01*
X117418267Y-87806000D02*
X117125733Y-87806000D01*
X117418267Y-88826000D02*
X117125733Y-88826000D01*
X131349733Y-88826000D02*
X131642267Y-88826000D01*
X131349733Y-87806000D02*
X131642267Y-87806000D01*
X153884000Y-88316000D02*
X153884000Y-87666000D01*
X150764000Y-88316000D02*
X150764000Y-88966000D01*
X153884000Y-88316000D02*
X153884000Y-88966000D01*
X150764000Y-88316000D02*
X150764000Y-86641000D01*
X120974267Y-80694000D02*
X120681733Y-80694000D01*
X120974267Y-81714000D02*
X120681733Y-81714000D01*
X123382500Y-92634724D02*
X123382500Y-92125276D01*
X122337500Y-92634724D02*
X122337500Y-92125276D01*
X154209733Y-72570000D02*
X154502267Y-72570000D01*
X154209733Y-71550000D02*
X154502267Y-71550000D01*
X115404752Y-82056000D02*
X113982248Y-82056000D01*
X115404752Y-79336000D02*
X113982248Y-79336000D01*
X109505733Y-79678000D02*
X109798267Y-79678000D01*
X109505733Y-80698000D02*
X109798267Y-80698000D01*
X127954500Y-92125276D02*
X127954500Y-92634724D01*
X126909500Y-92125276D02*
X126909500Y-92634724D01*
X118810500Y-68758724D02*
X118810500Y-68249276D01*
X117765500Y-68758724D02*
X117765500Y-68249276D01*
X163844000Y-67792748D02*
X163844000Y-69215252D01*
X161124000Y-67792748D02*
X161124000Y-69215252D01*
X148006724Y-66994500D02*
X147497276Y-66994500D01*
X148006724Y-65949500D02*
X147497276Y-65949500D01*
X147605733Y-64438000D02*
X147898267Y-64438000D01*
X147605733Y-65458000D02*
X147898267Y-65458000D01*
X109906724Y-76617500D02*
X109397276Y-76617500D01*
X109906724Y-77662500D02*
X109397276Y-77662500D01*
X120573276Y-79157500D02*
X121082724Y-79157500D01*
X120573276Y-80202500D02*
X121082724Y-80202500D01*
%LPC*%
D12*
X161500000Y-47500000D03*
X103500000Y-96500000D03*
X103500000Y-47500000D03*
D13*
X104064000Y-66980000D03*
D14*
X104064000Y-69520000D03*
X104064000Y-72060000D03*
X104064000Y-74600000D03*
X104064000Y-77140000D03*
X104064000Y-79680000D03*
X104064000Y-82220000D03*
X104064000Y-84760000D03*
D15*
X104150972Y-59349958D03*
D16*
X101450972Y-60349958D03*
D15*
X104150972Y-54349958D03*
D16*
X101450972Y-53349958D03*
D12*
X161500000Y-96500000D03*
D13*
X114732000Y-95936000D03*
D14*
X117272000Y-95936000D03*
X119812000Y-95936000D03*
X122352000Y-95936000D03*
X124892000Y-95936000D03*
X127432000Y-95936000D03*
X129972000Y-95936000D03*
X132512000Y-95936000D03*
D13*
X138100000Y-95936000D03*
D14*
X140640000Y-95936000D03*
X143180000Y-95936000D03*
X145720000Y-95936000D03*
X148260000Y-95936000D03*
X150800000Y-95936000D03*
X153340000Y-95936000D03*
X155880000Y-95936000D03*
D17*
X108370000Y-48770000D03*
D18*
X108370000Y-46230000D03*
X110910000Y-48770000D03*
X110910000Y-46230000D03*
X113450000Y-48770000D03*
X113450000Y-46230000D03*
X115990000Y-48770000D03*
X115990000Y-46230000D03*
X118530000Y-48770000D03*
X118530000Y-46230000D03*
X121070000Y-48770000D03*
X121070000Y-46230000D03*
X123610000Y-48770000D03*
X123610000Y-46230000D03*
X126150000Y-48770000D03*
X126150000Y-46230000D03*
X128690000Y-48770000D03*
X128690000Y-46230000D03*
X131230000Y-48770000D03*
X131230000Y-46230000D03*
X133770000Y-48770000D03*
X133770000Y-46230000D03*
X136310000Y-48770000D03*
X136310000Y-46230000D03*
X138850000Y-48770000D03*
X138850000Y-46230000D03*
X141390000Y-48770000D03*
X141390000Y-46230000D03*
X143930000Y-48770000D03*
X143930000Y-46230000D03*
X146470000Y-48770000D03*
X146470000Y-46230000D03*
X149010000Y-48770000D03*
X149010000Y-46230000D03*
X151550000Y-48770000D03*
X151550000Y-46230000D03*
X154090000Y-48770000D03*
X154090000Y-46230000D03*
X156630000Y-48770000D03*
X156630000Y-46230000D03*
D19*
X122860000Y-69366500D03*
X122860000Y-67641500D03*
D20*
X148614500Y-69520000D03*
X146889500Y-69520000D03*
D21*
X130480000Y-91467500D03*
X130480000Y-93292500D03*
D22*
X140706000Y-87378500D03*
X142606000Y-87378500D03*
X141656000Y-89253500D03*
D23*
X108789500Y-75616000D03*
X110514500Y-75616000D03*
D24*
X119812000Y-67641500D03*
X119812000Y-69366500D03*
D25*
X110564500Y-78664000D03*
X108739500Y-78664000D03*
D26*
X150761500Y-61900000D03*
X153886500Y-61900000D03*
D22*
X154930000Y-87378500D03*
X156830000Y-87378500D03*
X155880000Y-89253500D03*
D21*
X153340000Y-91467500D03*
X153340000Y-93292500D03*
D27*
X128956000Y-93292500D03*
X128956000Y-91467500D03*
D25*
X110564500Y-72568000D03*
X108739500Y-72568000D03*
D21*
X145720000Y-91467500D03*
X145720000Y-93292500D03*
D27*
X132004000Y-93292500D03*
X132004000Y-91467500D03*
D28*
X152509500Y-70413000D03*
X152509500Y-69763000D03*
X152509500Y-69113000D03*
X152509500Y-68463000D03*
X152509500Y-67813000D03*
X152509500Y-67163000D03*
X152509500Y-66513000D03*
X152509500Y-65863000D03*
X152509500Y-65213000D03*
X152509500Y-64563000D03*
X158234500Y-64563000D03*
X158234500Y-65213000D03*
X158234500Y-65863000D03*
X158234500Y-66513000D03*
X158234500Y-67163000D03*
X158234500Y-67813000D03*
X158234500Y-68463000D03*
X158234500Y-69113000D03*
X158234500Y-69763000D03*
X158234500Y-70413000D03*
D24*
X149276000Y-76277500D03*
X149276000Y-78002500D03*
D22*
X147818000Y-87378500D03*
X149718000Y-87378500D03*
X148768000Y-89253500D03*
X144262000Y-87378500D03*
X146162000Y-87378500D03*
X145212000Y-89253500D03*
D26*
X157365500Y-73076000D03*
X160490500Y-73076000D03*
D29*
X113335000Y-72100000D03*
X114605000Y-72100000D03*
X115875000Y-72100000D03*
X117145000Y-72100000D03*
X118415000Y-72100000D03*
X119685000Y-72100000D03*
X120955000Y-72100000D03*
X122225000Y-72100000D03*
X122225000Y-77100000D03*
X120955000Y-77100000D03*
X119685000Y-77100000D03*
X118415000Y-77100000D03*
X117145000Y-77100000D03*
X115875000Y-77100000D03*
X114605000Y-77100000D03*
X113335000Y-77100000D03*
D30*
X151346500Y-73076000D03*
X148221500Y-73076000D03*
D27*
X119812000Y-93292500D03*
X119812000Y-91467500D03*
D20*
X125246500Y-88316000D03*
X123521500Y-88316000D03*
D31*
X151186500Y-78090000D03*
X151186500Y-77140000D03*
X151186500Y-76190000D03*
X153461500Y-76190000D03*
X153461500Y-78090000D03*
D20*
X121690500Y-88316000D03*
X119965500Y-88316000D03*
D24*
X155372000Y-76277500D03*
X155372000Y-78002500D03*
D25*
X110564500Y-71044000D03*
X108739500Y-71044000D03*
D24*
X150292000Y-68149500D03*
X150292000Y-69874500D03*
D21*
X124384000Y-91467500D03*
X124384000Y-93292500D03*
D20*
X155218500Y-74600000D03*
X153493500Y-74600000D03*
D21*
X140640000Y-91467500D03*
X140640000Y-93292500D03*
D30*
X116294500Y-68504000D03*
X113169500Y-68504000D03*
D25*
X148664500Y-67996000D03*
X146839500Y-67996000D03*
D20*
X122706500Y-65964000D03*
X120981500Y-65964000D03*
D23*
X127077500Y-88316000D03*
X128802500Y-88316000D03*
D21*
X121336000Y-91467500D03*
X121336000Y-93292500D03*
X143180000Y-91467500D03*
X143180000Y-93292500D03*
D27*
X125908000Y-93292500D03*
X125908000Y-91467500D03*
D23*
X108789500Y-74092000D03*
X110514500Y-74092000D03*
D21*
X121336000Y-67591500D03*
X121336000Y-69416500D03*
D23*
X108789500Y-69520000D03*
X110514500Y-69520000D03*
D22*
X137150000Y-87378500D03*
X139050000Y-87378500D03*
X138100000Y-89253500D03*
D21*
X150800000Y-91467500D03*
X150800000Y-93292500D03*
X118288000Y-91467500D03*
X118288000Y-93292500D03*
X148260000Y-91467500D03*
X148260000Y-93292500D03*
D20*
X118134500Y-88316000D03*
X116409500Y-88316000D03*
D23*
X130633500Y-88316000D03*
X132358500Y-88316000D03*
D22*
X151374000Y-87378500D03*
X153274000Y-87378500D03*
X152324000Y-89253500D03*
D20*
X121690500Y-81204000D03*
X119965500Y-81204000D03*
D27*
X122860000Y-93292500D03*
X122860000Y-91467500D03*
D23*
X153493500Y-72060000D03*
X155218500Y-72060000D03*
D30*
X116256000Y-80696000D03*
X113131000Y-80696000D03*
D23*
X108789500Y-80188000D03*
X110514500Y-80188000D03*
D21*
X127432000Y-91467500D03*
X127432000Y-93292500D03*
D27*
X118288000Y-69416500D03*
X118288000Y-67591500D03*
D32*
X162484000Y-66941500D03*
X162484000Y-70066500D03*
D25*
X148664500Y-66472000D03*
X146839500Y-66472000D03*
D23*
X146889500Y-64948000D03*
X148614500Y-64948000D03*
D25*
X110564500Y-77140000D03*
X108739500Y-77140000D03*
D33*
X119915500Y-79680000D03*
X121740500Y-79680000D03*
M02*
