G04 #@! TF.GenerationSoftware,KiCad,Pcbnew,(6.0.6)*
G04 #@! TF.CreationDate,2022-08-21T21:59:20+02:00*
G04 #@! TF.ProjectId,Phoniebox,50686f6e-6965-4626-9f78-2e6b69636164,rev?*
G04 #@! TF.SameCoordinates,Original*
G04 #@! TF.FileFunction,Legend,Top*
G04 #@! TF.FilePolarity,Positive*
%FSLAX46Y46*%
G04 Gerber Fmt 4.6, Leading zero omitted, Abs format (unit mm)*
G04 Created by KiCad (PCBNEW (6.0.6)) date 2022-08-21 21:59:20*
%MOMM*%
%LPD*%
G01*
G04 APERTURE LIST*
G04 Aperture macros list*
%AMRoundRect*
0 Rectangle with rounded corners*
0 $1 Rounding radius*
0 $2 $3 $4 $5 $6 $7 $8 $9 X,Y pos of 4 corners*
0 Add a 4 corners polygon primitive as box body*
4,1,4,$2,$3,$4,$5,$6,$7,$8,$9,$2,$3,0*
0 Add four circle primitives for the rounded corners*
1,1,$1+$1,$2,$3*
1,1,$1+$1,$4,$5*
1,1,$1+$1,$6,$7*
1,1,$1+$1,$8,$9*
0 Add four rect primitives between the rounded corners*
20,1,$1+$1,$2,$3,$4,$5,0*
20,1,$1+$1,$4,$5,$6,$7,0*
20,1,$1+$1,$6,$7,$8,$9,0*
20,1,$1+$1,$8,$9,$2,$3,0*%
G04 Aperture macros list end*
%ADD10C,0.150000*%
%ADD11C,0.120000*%
%ADD12RoundRect,0.237500X-0.237500X0.250000X-0.237500X-0.250000X0.237500X-0.250000X0.237500X0.250000X0*%
%ADD13C,2.700000*%
%ADD14RoundRect,0.100000X0.100000X-0.637500X0.100000X0.637500X-0.100000X0.637500X-0.100000X-0.637500X0*%
%ADD15RoundRect,0.150000X-0.587500X-0.150000X0.587500X-0.150000X0.587500X0.150000X-0.587500X0.150000X0*%
%ADD16RoundRect,0.237500X-0.250000X-0.237500X0.250000X-0.237500X0.250000X0.237500X-0.250000X0.237500X0*%
%ADD17RoundRect,0.237500X-0.237500X0.300000X-0.237500X-0.300000X0.237500X-0.300000X0.237500X0.300000X0*%
%ADD18R,2.200000X2.200000*%
%ADD19C,2.200000*%
%ADD20R,1.000000X3.150000*%
%ADD21R,1.350000X0.400000*%
%ADD22R,1.550000X1.200000*%
%ADD23O,0.950000X1.250000*%
%ADD24O,1.550000X0.890000*%
%ADD25R,1.550000X1.500000*%
%ADD26RoundRect,0.150000X0.150000X-0.587500X0.150000X0.587500X-0.150000X0.587500X-0.150000X-0.587500X0*%
%ADD27RoundRect,0.237500X0.237500X-0.250000X0.237500X0.250000X-0.237500X0.250000X-0.237500X-0.250000X0*%
%ADD28RoundRect,0.150000X0.587500X0.150000X-0.587500X0.150000X-0.587500X-0.150000X0.587500X-0.150000X0*%
%ADD29R,1.700000X1.700000*%
%ADD30O,1.700000X1.700000*%
G04 APERTURE END LIST*
D10*
X109088380Y-60002857D02*
X108612190Y-60336190D01*
X109088380Y-60574285D02*
X108088380Y-60574285D01*
X108088380Y-60193333D01*
X108136000Y-60098095D01*
X108183619Y-60050476D01*
X108278857Y-60002857D01*
X108421714Y-60002857D01*
X108516952Y-60050476D01*
X108564571Y-60098095D01*
X108612190Y-60193333D01*
X108612190Y-60574285D01*
X108183619Y-59621904D02*
X108136000Y-59574285D01*
X108088380Y-59479047D01*
X108088380Y-59240952D01*
X108136000Y-59145714D01*
X108183619Y-59098095D01*
X108278857Y-59050476D01*
X108374095Y-59050476D01*
X108516952Y-59098095D01*
X109088380Y-59669523D01*
X109088380Y-59050476D01*
X108088380Y-58193333D02*
X108088380Y-58383809D01*
X108136000Y-58479047D01*
X108183619Y-58526666D01*
X108326476Y-58621904D01*
X108516952Y-58669523D01*
X108897904Y-58669523D01*
X108993142Y-58621904D01*
X109040761Y-58574285D01*
X109088380Y-58479047D01*
X109088380Y-58288571D01*
X109040761Y-58193333D01*
X108993142Y-58145714D01*
X108897904Y-58098095D01*
X108659809Y-58098095D01*
X108564571Y-58145714D01*
X108516952Y-58193333D01*
X108469333Y-58288571D01*
X108469333Y-58479047D01*
X108516952Y-58574285D01*
X108564571Y-58621904D01*
X108659809Y-58669523D01*
X143140380Y-58089904D02*
X143949904Y-58089904D01*
X144045142Y-58042285D01*
X144092761Y-57994666D01*
X144140380Y-57899428D01*
X144140380Y-57708952D01*
X144092761Y-57613714D01*
X144045142Y-57566095D01*
X143949904Y-57518476D01*
X143140380Y-57518476D01*
X143473714Y-56613714D02*
X144140380Y-56613714D01*
X143092761Y-56851809D02*
X143807047Y-57089904D01*
X143807047Y-56470857D01*
X116629142Y-53716380D02*
X116295809Y-53240190D01*
X116057714Y-53716380D02*
X116057714Y-52716380D01*
X116438666Y-52716380D01*
X116533904Y-52764000D01*
X116581523Y-52811619D01*
X116629142Y-52906857D01*
X116629142Y-53049714D01*
X116581523Y-53144952D01*
X116533904Y-53192571D01*
X116438666Y-53240190D01*
X116057714Y-53240190D01*
X117010095Y-52811619D02*
X117057714Y-52764000D01*
X117152952Y-52716380D01*
X117391047Y-52716380D01*
X117486285Y-52764000D01*
X117533904Y-52811619D01*
X117581523Y-52906857D01*
X117581523Y-53002095D01*
X117533904Y-53144952D01*
X116962476Y-53716380D01*
X117581523Y-53716380D01*
X118486285Y-52716380D02*
X118010095Y-52716380D01*
X117962476Y-53192571D01*
X118010095Y-53144952D01*
X118105333Y-53097333D01*
X118343428Y-53097333D01*
X118438666Y-53144952D01*
X118486285Y-53192571D01*
X118533904Y-53287809D01*
X118533904Y-53525904D01*
X118486285Y-53621142D01*
X118438666Y-53668761D01*
X118343428Y-53716380D01*
X118105333Y-53716380D01*
X118010095Y-53668761D01*
X117962476Y-53621142D01*
X115144761Y-62447619D02*
X115049523Y-62400000D01*
X114954285Y-62304761D01*
X114811428Y-62161904D01*
X114716190Y-62114285D01*
X114620952Y-62114285D01*
X114668571Y-62352380D02*
X114573333Y-62304761D01*
X114478095Y-62209523D01*
X114430476Y-62019047D01*
X114430476Y-61685714D01*
X114478095Y-61495238D01*
X114573333Y-61400000D01*
X114668571Y-61352380D01*
X114859047Y-61352380D01*
X114954285Y-61400000D01*
X115049523Y-61495238D01*
X115097142Y-61685714D01*
X115097142Y-62019047D01*
X115049523Y-62209523D01*
X114954285Y-62304761D01*
X114859047Y-62352380D01*
X114668571Y-62352380D01*
X115668571Y-61780952D02*
X115573333Y-61733333D01*
X115525714Y-61685714D01*
X115478095Y-61590476D01*
X115478095Y-61542857D01*
X115525714Y-61447619D01*
X115573333Y-61400000D01*
X115668571Y-61352380D01*
X115859047Y-61352380D01*
X115954285Y-61400000D01*
X116001904Y-61447619D01*
X116049523Y-61542857D01*
X116049523Y-61590476D01*
X116001904Y-61685714D01*
X115954285Y-61733333D01*
X115859047Y-61780952D01*
X115668571Y-61780952D01*
X115573333Y-61828571D01*
X115525714Y-61876190D01*
X115478095Y-61971428D01*
X115478095Y-62161904D01*
X115525714Y-62257142D01*
X115573333Y-62304761D01*
X115668571Y-62352380D01*
X115859047Y-62352380D01*
X115954285Y-62304761D01*
X116001904Y-62257142D01*
X116049523Y-62161904D01*
X116049523Y-61971428D01*
X116001904Y-61876190D01*
X115954285Y-61828571D01*
X115859047Y-61780952D01*
X119677142Y-60828380D02*
X119343809Y-60352190D01*
X119105714Y-60828380D02*
X119105714Y-59828380D01*
X119486666Y-59828380D01*
X119581904Y-59876000D01*
X119629523Y-59923619D01*
X119677142Y-60018857D01*
X119677142Y-60161714D01*
X119629523Y-60256952D01*
X119581904Y-60304571D01*
X119486666Y-60352190D01*
X119105714Y-60352190D01*
X120058095Y-59923619D02*
X120105714Y-59876000D01*
X120200952Y-59828380D01*
X120439047Y-59828380D01*
X120534285Y-59876000D01*
X120581904Y-59923619D01*
X120629523Y-60018857D01*
X120629523Y-60114095D01*
X120581904Y-60256952D01*
X120010476Y-60828380D01*
X120629523Y-60828380D01*
X120962857Y-59828380D02*
X121629523Y-59828380D01*
X121200952Y-60828380D01*
X110517142Y-59748133D02*
X110564761Y-59795752D01*
X110612380Y-59938609D01*
X110612380Y-60033847D01*
X110564761Y-60176704D01*
X110469523Y-60271942D01*
X110374285Y-60319561D01*
X110183809Y-60367180D01*
X110040952Y-60367180D01*
X109850476Y-60319561D01*
X109755238Y-60271942D01*
X109660000Y-60176704D01*
X109612380Y-60033847D01*
X109612380Y-59938609D01*
X109660000Y-59795752D01*
X109707619Y-59748133D01*
X109707619Y-59367180D02*
X109660000Y-59319561D01*
X109612380Y-59224323D01*
X109612380Y-58986228D01*
X109660000Y-58890990D01*
X109707619Y-58843371D01*
X109802857Y-58795752D01*
X109898095Y-58795752D01*
X110040952Y-58843371D01*
X110612380Y-59414799D01*
X110612380Y-58795752D01*
X110612380Y-57843371D02*
X110612380Y-58414799D01*
X110612380Y-58129085D02*
X109612380Y-58129085D01*
X109755238Y-58224323D01*
X109850476Y-58319561D01*
X109898095Y-58414799D01*
X124836380Y-56446857D02*
X124360190Y-56780190D01*
X124836380Y-57018285D02*
X123836380Y-57018285D01*
X123836380Y-56637333D01*
X123884000Y-56542095D01*
X123931619Y-56494476D01*
X124026857Y-56446857D01*
X124169714Y-56446857D01*
X124264952Y-56494476D01*
X124312571Y-56542095D01*
X124360190Y-56637333D01*
X124360190Y-57018285D01*
X123931619Y-56065904D02*
X123884000Y-56018285D01*
X123836380Y-55923047D01*
X123836380Y-55684952D01*
X123884000Y-55589714D01*
X123931619Y-55542095D01*
X124026857Y-55494476D01*
X124122095Y-55494476D01*
X124264952Y-55542095D01*
X124836380Y-56113523D01*
X124836380Y-55494476D01*
X124264952Y-54923047D02*
X124217333Y-55018285D01*
X124169714Y-55065904D01*
X124074476Y-55113523D01*
X124026857Y-55113523D01*
X123931619Y-55065904D01*
X123884000Y-55018285D01*
X123836380Y-54923047D01*
X123836380Y-54732571D01*
X123884000Y-54637333D01*
X123931619Y-54589714D01*
X124026857Y-54542095D01*
X124074476Y-54542095D01*
X124169714Y-54589714D01*
X124217333Y-54637333D01*
X124264952Y-54732571D01*
X124264952Y-54923047D01*
X124312571Y-55018285D01*
X124360190Y-55065904D01*
X124455428Y-55113523D01*
X124645904Y-55113523D01*
X124741142Y-55065904D01*
X124788761Y-55018285D01*
X124836380Y-54923047D01*
X124836380Y-54732571D01*
X124788761Y-54637333D01*
X124741142Y-54589714D01*
X124645904Y-54542095D01*
X124455428Y-54542095D01*
X124360190Y-54589714D01*
X124312571Y-54637333D01*
X124264952Y-54732571D01*
X107676380Y-76203333D02*
X108390666Y-76203333D01*
X108533523Y-76250952D01*
X108628761Y-76346190D01*
X108676380Y-76489047D01*
X108676380Y-76584285D01*
X108009714Y-75298571D02*
X108676380Y-75298571D01*
X107628761Y-75536666D02*
X108343047Y-75774761D01*
X108343047Y-75155714D01*
X125824380Y-69853333D02*
X126538666Y-69853333D01*
X126681523Y-69900952D01*
X126776761Y-69996190D01*
X126824380Y-70139047D01*
X126824380Y-70234285D01*
X125824380Y-68900952D02*
X125824380Y-69377142D01*
X126300571Y-69424761D01*
X126252952Y-69377142D01*
X126205333Y-69281904D01*
X126205333Y-69043809D01*
X126252952Y-68948571D01*
X126300571Y-68900952D01*
X126395809Y-68853333D01*
X126633904Y-68853333D01*
X126729142Y-68900952D01*
X126776761Y-68948571D01*
X126824380Y-69043809D01*
X126824380Y-69281904D01*
X126776761Y-69377142D01*
X126729142Y-69424761D01*
X105703352Y-57183291D02*
X106417638Y-57183291D01*
X106560495Y-57230910D01*
X106655733Y-57326148D01*
X106703352Y-57469005D01*
X106703352Y-57564243D01*
X105703352Y-56802338D02*
X105703352Y-56135672D01*
X106703352Y-56564243D01*
X119073904Y-53716380D02*
X119073904Y-52716380D01*
X119312000Y-52716380D01*
X119454857Y-52764000D01*
X119550095Y-52859238D01*
X119597714Y-52954476D01*
X119645333Y-53144952D01*
X119645333Y-53287809D01*
X119597714Y-53478285D01*
X119550095Y-53573523D01*
X119454857Y-53668761D01*
X119312000Y-53716380D01*
X119073904Y-53716380D01*
X120597714Y-53716380D02*
X120026285Y-53716380D01*
X120312000Y-53716380D02*
X120312000Y-52716380D01*
X120216761Y-52859238D01*
X120121523Y-52954476D01*
X120026285Y-53002095D01*
X113581142Y-53716380D02*
X113247809Y-53240190D01*
X113009714Y-53716380D02*
X113009714Y-52716380D01*
X113390666Y-52716380D01*
X113485904Y-52764000D01*
X113533523Y-52811619D01*
X113581142Y-52906857D01*
X113581142Y-53049714D01*
X113533523Y-53144952D01*
X113485904Y-53192571D01*
X113390666Y-53240190D01*
X113009714Y-53240190D01*
X113962095Y-52811619D02*
X114009714Y-52764000D01*
X114104952Y-52716380D01*
X114343047Y-52716380D01*
X114438285Y-52764000D01*
X114485904Y-52811619D01*
X114533523Y-52906857D01*
X114533523Y-53002095D01*
X114485904Y-53144952D01*
X113914476Y-53716380D01*
X114533523Y-53716380D01*
X115390666Y-53049714D02*
X115390666Y-53716380D01*
X115152571Y-52668761D02*
X114914476Y-53383047D01*
X115533523Y-53383047D01*
X111080761Y-53811619D02*
X110985523Y-53764000D01*
X110890285Y-53668761D01*
X110747428Y-53525904D01*
X110652190Y-53478285D01*
X110556952Y-53478285D01*
X110604571Y-53716380D02*
X110509333Y-53668761D01*
X110414095Y-53573523D01*
X110366476Y-53383047D01*
X110366476Y-53049714D01*
X110414095Y-52859238D01*
X110509333Y-52764000D01*
X110604571Y-52716380D01*
X110795047Y-52716380D01*
X110890285Y-52764000D01*
X110985523Y-52859238D01*
X111033142Y-53049714D01*
X111033142Y-53383047D01*
X110985523Y-53573523D01*
X110890285Y-53668761D01*
X110795047Y-53716380D01*
X110604571Y-53716380D01*
X111366476Y-52716380D02*
X112033142Y-52716380D01*
X111604571Y-53716380D01*
X125824380Y-57138333D02*
X126538666Y-57138333D01*
X126681523Y-57185952D01*
X126776761Y-57281190D01*
X126824380Y-57424047D01*
X126824380Y-57519285D01*
X126252952Y-56519285D02*
X126205333Y-56614523D01*
X126157714Y-56662142D01*
X126062476Y-56709761D01*
X126014857Y-56709761D01*
X125919619Y-56662142D01*
X125872000Y-56614523D01*
X125824380Y-56519285D01*
X125824380Y-56328809D01*
X125872000Y-56233571D01*
X125919619Y-56185952D01*
X126014857Y-56138333D01*
X126062476Y-56138333D01*
X126157714Y-56185952D01*
X126205333Y-56233571D01*
X126252952Y-56328809D01*
X126252952Y-56519285D01*
X126300571Y-56614523D01*
X126348190Y-56662142D01*
X126443428Y-56709761D01*
X126633904Y-56709761D01*
X126729142Y-56662142D01*
X126776761Y-56614523D01*
X126824380Y-56519285D01*
X126824380Y-56328809D01*
X126776761Y-56233571D01*
X126729142Y-56185952D01*
X126633904Y-56138333D01*
X126443428Y-56138333D01*
X126348190Y-56185952D01*
X126300571Y-56233571D01*
X126252952Y-56328809D01*
X113763666Y-90943380D02*
X113763666Y-91657666D01*
X113716047Y-91800523D01*
X113620809Y-91895761D01*
X113477952Y-91943380D01*
X113382714Y-91943380D01*
X114192238Y-91038619D02*
X114239857Y-90991000D01*
X114335095Y-90943380D01*
X114573190Y-90943380D01*
X114668428Y-90991000D01*
X114716047Y-91038619D01*
X114763666Y-91133857D01*
X114763666Y-91229095D01*
X114716047Y-91371952D01*
X114144619Y-91943380D01*
X114763666Y-91943380D01*
X136496666Y-90943380D02*
X136496666Y-91657666D01*
X136449047Y-91800523D01*
X136353809Y-91895761D01*
X136210952Y-91943380D01*
X136115714Y-91943380D01*
X136877619Y-90943380D02*
X137496666Y-90943380D01*
X137163333Y-91324333D01*
X137306190Y-91324333D01*
X137401428Y-91371952D01*
X137449047Y-91419571D01*
X137496666Y-91514809D01*
X137496666Y-91752904D01*
X137449047Y-91848142D01*
X137401428Y-91895761D01*
X137306190Y-91943380D01*
X137020476Y-91943380D01*
X136925238Y-91895761D01*
X136877619Y-91848142D01*
D11*
X111161500Y-59105276D02*
X111161500Y-59614724D01*
X112206500Y-59105276D02*
X112206500Y-59614724D01*
X142758000Y-54788000D02*
X142758000Y-56988000D01*
X139538000Y-54788000D02*
X139538000Y-58388000D01*
X142758000Y-54788000D02*
X142758000Y-52588000D01*
X139538000Y-54788000D02*
X139538000Y-52588000D01*
X116749500Y-55549276D02*
X116749500Y-56058724D01*
X117794500Y-55549276D02*
X117794500Y-56058724D01*
X116256000Y-57800000D02*
X116906000Y-57800000D01*
X116256000Y-60920000D02*
X115606000Y-60920000D01*
X116256000Y-60920000D02*
X116906000Y-60920000D01*
X116256000Y-57800000D02*
X114581000Y-57800000D01*
X120065276Y-58329500D02*
X120574724Y-58329500D01*
X120065276Y-59374500D02*
X120574724Y-59374500D01*
X113718000Y-59213733D02*
X113718000Y-59506267D01*
X112698000Y-59213733D02*
X112698000Y-59506267D01*
X123382500Y-55549276D02*
X123382500Y-56058724D01*
X122337500Y-55549276D02*
X122337500Y-56058724D01*
X107224000Y-65420000D02*
X107224000Y-86321000D01*
X100904000Y-65420000D02*
X100904000Y-86321000D01*
X107224000Y-65420000D02*
X100904000Y-65420000D01*
X101404000Y-65180000D02*
X100664000Y-65180000D01*
X101464000Y-65420000D02*
X101464000Y-86321000D01*
X100664000Y-65180000D02*
X100664000Y-65680000D01*
X107224000Y-86321000D02*
X100904000Y-86321000D01*
X106764000Y-65420000D02*
X106764000Y-86321000D01*
X129462000Y-66920000D02*
X130482000Y-66920000D01*
X127372000Y-72120000D02*
X127942000Y-72120000D01*
X127372000Y-66920000D02*
X127942000Y-66920000D01*
X127372000Y-72120000D02*
X127372000Y-66920000D01*
X132002000Y-66920000D02*
X132572000Y-66920000D01*
X132572000Y-72120000D02*
X132572000Y-66920000D01*
X129462000Y-72120000D02*
X130482000Y-72120000D01*
X132002000Y-72120000D02*
X132572000Y-72120000D01*
X127942000Y-73560000D02*
X127942000Y-72120000D01*
X100460972Y-60609958D02*
X100060972Y-60609958D01*
X102430972Y-53089958D02*
X104410972Y-53089958D01*
X104410972Y-53089958D02*
X104410972Y-53509958D01*
X104640972Y-55089958D02*
X105090972Y-55089958D01*
X104410972Y-60609958D02*
X104410972Y-60189958D01*
X105090972Y-55539958D02*
X105090972Y-55089958D01*
X100060972Y-53089958D02*
X100460972Y-53089958D01*
X102430972Y-60609958D02*
X104410972Y-60609958D01*
X118760000Y-55804000D02*
X118760000Y-57479000D01*
X121880000Y-55804000D02*
X121880000Y-56454000D01*
X121880000Y-55804000D02*
X121880000Y-55154000D01*
X118760000Y-55804000D02*
X118760000Y-55154000D01*
X115225500Y-56058724D02*
X115225500Y-55549276D01*
X116270500Y-56058724D02*
X116270500Y-55549276D01*
X112700000Y-57364000D02*
X112050000Y-57364000D01*
X112700000Y-54244000D02*
X112050000Y-54244000D01*
X112700000Y-57364000D02*
X114375000Y-57364000D01*
X112700000Y-54244000D02*
X113350000Y-54244000D01*
X137082000Y-54205000D02*
X137652000Y-54205000D01*
X129462000Y-59405000D02*
X130482000Y-59405000D01*
X137082000Y-59405000D02*
X137652000Y-59405000D01*
X137652000Y-59405000D02*
X137652000Y-54205000D01*
X129462000Y-54205000D02*
X130482000Y-54205000D01*
X134542000Y-59405000D02*
X135562000Y-59405000D01*
X132002000Y-54205000D02*
X133022000Y-54205000D01*
X127372000Y-59405000D02*
X127942000Y-59405000D01*
X127942000Y-60845000D02*
X127942000Y-59405000D01*
X132002000Y-59405000D02*
X133022000Y-59405000D01*
X127372000Y-59405000D02*
X127372000Y-54205000D01*
X134542000Y-54205000D02*
X135562000Y-54205000D01*
X127372000Y-54205000D02*
X127942000Y-54205000D01*
X112932000Y-98596000D02*
X112932000Y-99336000D01*
X113172000Y-98536000D02*
X134073000Y-98536000D01*
X113172000Y-92776000D02*
X113172000Y-99096000D01*
X113172000Y-93236000D02*
X134073000Y-93236000D01*
X134073000Y-92776000D02*
X134073000Y-99096000D01*
X113172000Y-99096000D02*
X134073000Y-99096000D01*
X113172000Y-92776000D02*
X134073000Y-92776000D01*
X112932000Y-99336000D02*
X113432000Y-99336000D01*
X136300000Y-99336000D02*
X136800000Y-99336000D01*
X136540000Y-99096000D02*
X157441000Y-99096000D01*
X136300000Y-98596000D02*
X136300000Y-99336000D01*
X136540000Y-92776000D02*
X136540000Y-99096000D01*
X136540000Y-92776000D02*
X157441000Y-92776000D01*
X157441000Y-92776000D02*
X157441000Y-99096000D01*
X136540000Y-93236000D02*
X157441000Y-93236000D01*
X136540000Y-98536000D02*
X157441000Y-98536000D01*
%LPC*%
D12*
X111684000Y-58447500D03*
X111684000Y-60272500D03*
D13*
X161500000Y-47500000D03*
D14*
X140173000Y-57650500D03*
X140823000Y-57650500D03*
X141473000Y-57650500D03*
X142123000Y-57650500D03*
X142123000Y-51925500D03*
X141473000Y-51925500D03*
X140823000Y-51925500D03*
X140173000Y-51925500D03*
D12*
X117272000Y-54891500D03*
X117272000Y-56716500D03*
D15*
X115318500Y-58410000D03*
X115318500Y-60310000D03*
X117193500Y-59360000D03*
D16*
X119407500Y-58852000D03*
X121232500Y-58852000D03*
D13*
X103500000Y-96500000D03*
D17*
X113208000Y-58497500D03*
X113208000Y-60222500D03*
D13*
X103500000Y-47500000D03*
D12*
X122860000Y-54891500D03*
X122860000Y-56716500D03*
D18*
X104064000Y-66980000D03*
D19*
X104064000Y-69520000D03*
X104064000Y-72060000D03*
X104064000Y-74600000D03*
X104064000Y-77140000D03*
X104064000Y-79680000D03*
X104064000Y-82220000D03*
X104064000Y-84760000D03*
D20*
X128702000Y-72045000D03*
X128702000Y-66995000D03*
X131242000Y-72045000D03*
X131242000Y-66995000D03*
D21*
X104150972Y-55549958D03*
X104150972Y-56199958D03*
X104150972Y-56849958D03*
X104150972Y-57499958D03*
X104150972Y-58149958D03*
D22*
X101450972Y-53949958D03*
D23*
X104150972Y-59349958D03*
D24*
X101450972Y-60349958D03*
D25*
X101450972Y-57849958D03*
D23*
X104150972Y-54349958D03*
D25*
X101450972Y-55849958D03*
D24*
X101450972Y-53349958D03*
D22*
X101450972Y-59749958D03*
D13*
X161500000Y-96500000D03*
D26*
X119370000Y-56741500D03*
X121270000Y-56741500D03*
X120320000Y-54866500D03*
D27*
X115748000Y-56716500D03*
X115748000Y-54891500D03*
D28*
X113637500Y-56754000D03*
X113637500Y-54854000D03*
X111762500Y-55804000D03*
D20*
X128702000Y-59330000D03*
X128702000Y-54280000D03*
X131242000Y-59330000D03*
X131242000Y-54280000D03*
X133782000Y-59330000D03*
X133782000Y-54280000D03*
X136322000Y-59330000D03*
X136322000Y-54280000D03*
D18*
X114732000Y-95936000D03*
D19*
X117272000Y-95936000D03*
X119812000Y-95936000D03*
X122352000Y-95936000D03*
X124892000Y-95936000D03*
X127432000Y-95936000D03*
X129972000Y-95936000D03*
X132512000Y-95936000D03*
D18*
X138100000Y-95936000D03*
D19*
X140640000Y-95936000D03*
X143180000Y-95936000D03*
X145720000Y-95936000D03*
X148260000Y-95936000D03*
X150800000Y-95936000D03*
X153340000Y-95936000D03*
X155880000Y-95936000D03*
D29*
X108370000Y-48770000D03*
D30*
X108370000Y-46230000D03*
X110910000Y-48770000D03*
X110910000Y-46230000D03*
X113450000Y-48770000D03*
X113450000Y-46230000D03*
X115990000Y-48770000D03*
X115990000Y-46230000D03*
X118530000Y-48770000D03*
X118530000Y-46230000D03*
X121070000Y-48770000D03*
X121070000Y-46230000D03*
X123610000Y-48770000D03*
X123610000Y-46230000D03*
X126150000Y-48770000D03*
X126150000Y-46230000D03*
X128690000Y-48770000D03*
X128690000Y-46230000D03*
X131230000Y-48770000D03*
X131230000Y-46230000D03*
X133770000Y-48770000D03*
X133770000Y-46230000D03*
X136310000Y-48770000D03*
X136310000Y-46230000D03*
X138850000Y-48770000D03*
X138850000Y-46230000D03*
X141390000Y-48770000D03*
X141390000Y-46230000D03*
X143930000Y-48770000D03*
X143930000Y-46230000D03*
X146470000Y-48770000D03*
X146470000Y-46230000D03*
X149010000Y-48770000D03*
X149010000Y-46230000D03*
X151550000Y-48770000D03*
X151550000Y-46230000D03*
X154090000Y-48770000D03*
X154090000Y-46230000D03*
X156630000Y-48770000D03*
X156630000Y-46230000D03*
M02*
