M48
; DRILL file {KiCad (6.0.6)} date Wed Sep 28 22:29:51 2022
; FORMAT={-:-/ absolute / metric / decimal}
; #@! TF.CreationDate,2022-09-28T22:29:51+02:00
; #@! TF.GenerationSoftware,Kicad,Pcbnew,(6.0.6)
; #@! TF.FileFunction,Plated,1,2,PTH
FMAT,2
METRIC
; #@! TA.AperFunction,Plated,PTH,ViaDrill
T1C0.600
; #@! TA.AperFunction,Plated,PTH,ComponentDrill
T2C0.600
; #@! TA.AperFunction,Plated,PTH,ComponentDrill
T3C1.000
; #@! TA.AperFunction,Plated,PTH,ComponentDrill
T4C1.100
%
G90
G05
T1
X101.346Y-84.836
X104.521Y-90.551
X106.68Y-71.12
X106.68Y-78.74
X106.68Y-83.312
X107.188Y-67.056
X109.728Y-81.788
X110.236Y-68.072
X111.76Y-68.58
X111.823Y-80.772
X112.268Y-61.468
X112.268Y-62.992
X112.268Y-74.734
X112.776Y-65.024
X113.284Y-62.992
X114.808Y-82.804
X116.332Y-54.864
X116.332Y-89.916
X117.856Y-53.34
X117.856Y-62.992
X118.173Y-79.502
X118.364Y-56.896
X118.364Y-65.024
X118.364Y-82.804
X118.872Y-62.992
X119.38Y-66.04
X119.888Y-89.916
X120.396Y-86.868
X121.412Y-54.356
X122.936Y-89.916
X123.952Y-74.168
X123.952Y-76.708
X123.952Y-78.232
X123.952Y-86.868
X124.46Y-67.564
X124.968Y-71.628
X125.984Y-55.372
X125.984Y-66.548
X125.984Y-89.916
X126.492Y-74.168
X126.492Y-76.708
X126.492Y-80.264
X128.016Y-63.5
X128.524Y-56.896
X129.032Y-64.516
X129.032Y-76.708
X129.032Y-86.868
X129.032Y-89.916
X130.556Y-81.28
X131.064Y-64.516
X132.08Y-63.5
X132.08Y-89.916
X132.588Y-72.136
X132.588Y-86.868
X133.096Y-67.564
X134.62Y-60.452
X135.128Y-68.072
X135.636Y-81.788
X135.636Y-86.868
X135.712Y-61.976
X136.144Y-66.548
X136.144Y-73.152
X136.144Y-74.676
X139.192Y-89.408
X142.748Y-89.408
X143.332Y-56.464
X144.272Y-73.152
X144.78Y-66.548
X144.78Y-68.072
X144.78Y-74.676
X144.78Y-81.28
X146.304Y-72.136
X146.304Y-89.408
X148.336Y-80.772
X148.844Y-55.88
X148.844Y-63.5
X149.86Y-89.408
X153.416Y-89.408
X153.924Y-51.308
X153.924Y-59.436
X153.924Y-65.024
X154.432Y-69.596
X155.956Y-54.356
X156.972Y-65.024
X156.972Y-89.408
X159.004Y-61.976
X160.02Y-68.072
X160.02Y-70.104
X160.528Y-57.912
X160.528Y-90.424
X161.544Y-61.976
X162.052Y-52.451
X162.56Y-73.152
X163.068Y-77.089
T3
X108.37Y-46.23
X108.37Y-48.77
X110.91Y-46.23
X110.91Y-48.77
X113.45Y-46.23
X113.45Y-48.77
X115.99Y-46.23
X115.99Y-48.77
X118.53Y-46.23
X118.53Y-48.77
X121.07Y-46.23
X121.07Y-48.77
X123.61Y-46.23
X123.61Y-48.77
X126.15Y-46.23
X126.15Y-48.77
X128.69Y-46.23
X128.69Y-48.77
X131.23Y-46.23
X131.23Y-48.77
X133.77Y-46.23
X133.77Y-48.77
X136.31Y-46.23
X136.31Y-48.77
X138.85Y-46.23
X138.85Y-48.77
X141.39Y-46.23
X141.39Y-48.77
X143.93Y-46.23
X143.93Y-48.77
X146.47Y-46.23
X146.47Y-48.77
X149.01Y-46.23
X149.01Y-48.77
X151.55Y-46.23
X151.55Y-48.77
X154.09Y-46.23
X154.09Y-48.77
X156.63Y-46.23
X156.63Y-48.77
T4
X104.14Y-67.056
X104.14Y-69.596
X104.14Y-72.136
X104.14Y-74.676
X104.14Y-77.216
X104.14Y-79.756
X104.14Y-82.296
X104.14Y-84.836
X114.808Y-96.012
X117.348Y-96.012
X119.888Y-96.012
X122.428Y-96.012
X124.968Y-96.012
X127.508Y-96.012
X130.048Y-96.012
X132.588Y-96.012
X138.176Y-96.012
X140.716Y-96.012
X143.256Y-96.012
X145.796Y-96.012
X148.336Y-96.012
X150.876Y-96.012
X153.416Y-96.012
X155.956Y-96.012
T2
X102.79Y-53.084G85X103.39Y-53.084
G05
X102.79Y-61.724G85X103.39Y-61.724
G05
X106.72Y-53.084G85X107.82Y-53.084
G05
X106.72Y-61.724G85X107.82Y-61.724
G05
T0
M30
