G04 #@! TF.GenerationSoftware,KiCad,Pcbnew,(6.0.6)*
G04 #@! TF.CreationDate,2022-08-27T23:59:40+02:00*
G04 #@! TF.ProjectId,Phoniebox,50686f6e-6965-4626-9f78-2e6b69636164,rev?*
G04 #@! TF.SameCoordinates,Original*
G04 #@! TF.FileFunction,Soldermask,Top*
G04 #@! TF.FilePolarity,Negative*
%FSLAX46Y46*%
G04 Gerber Fmt 4.6, Leading zero omitted, Abs format (unit mm)*
G04 Created by KiCad (PCBNEW (6.0.6)) date 2022-08-27 23:59:40*
%MOMM*%
%LPD*%
G01*
G04 APERTURE LIST*
%ADD10C,2.700000*%
%ADD11R,2.200000X2.200000*%
%ADD12C,2.200000*%
%ADD13R,1.000000X3.150000*%
%ADD14R,1.350000X0.400000*%
%ADD15R,1.550000X1.200000*%
%ADD16O,0.950000X1.250000*%
%ADD17O,1.550000X0.890000*%
%ADD18R,1.550000X1.500000*%
%ADD19R,1.700000X1.700000*%
%ADD20O,1.700000X1.700000*%
G04 APERTURE END LIST*
D10*
X161500000Y-47500000D03*
X103500000Y-96500000D03*
X103500000Y-47500000D03*
D11*
X104064000Y-66980000D03*
D12*
X104064000Y-69520000D03*
X104064000Y-72060000D03*
X104064000Y-74600000D03*
X104064000Y-77140000D03*
X104064000Y-79680000D03*
X104064000Y-82220000D03*
X104064000Y-84760000D03*
D13*
X128702000Y-72045000D03*
X128702000Y-66995000D03*
X131242000Y-72045000D03*
X131242000Y-66995000D03*
D14*
X104150972Y-55549958D03*
X104150972Y-56199958D03*
X104150972Y-56849958D03*
X104150972Y-57499958D03*
X104150972Y-58149958D03*
D15*
X101450972Y-53949958D03*
D16*
X104150972Y-59349958D03*
D17*
X101450972Y-60349958D03*
D18*
X101450972Y-57849958D03*
D16*
X104150972Y-54349958D03*
D18*
X101450972Y-55849958D03*
D17*
X101450972Y-53349958D03*
D15*
X101450972Y-59749958D03*
D10*
X161500000Y-96500000D03*
D13*
X128702000Y-59330000D03*
X128702000Y-54280000D03*
X131242000Y-59330000D03*
X131242000Y-54280000D03*
X133782000Y-59330000D03*
X133782000Y-54280000D03*
X136322000Y-59330000D03*
X136322000Y-54280000D03*
D11*
X114732000Y-95936000D03*
D12*
X117272000Y-95936000D03*
X119812000Y-95936000D03*
X122352000Y-95936000D03*
X124892000Y-95936000D03*
X127432000Y-95936000D03*
X129972000Y-95936000D03*
X132512000Y-95936000D03*
D11*
X138100000Y-95936000D03*
D12*
X140640000Y-95936000D03*
X143180000Y-95936000D03*
X145720000Y-95936000D03*
X148260000Y-95936000D03*
X150800000Y-95936000D03*
X153340000Y-95936000D03*
X155880000Y-95936000D03*
D19*
X108370000Y-48770000D03*
D20*
X108370000Y-46230000D03*
X110910000Y-48770000D03*
X110910000Y-46230000D03*
X113450000Y-48770000D03*
X113450000Y-46230000D03*
X115990000Y-48770000D03*
X115990000Y-46230000D03*
X118530000Y-48770000D03*
X118530000Y-46230000D03*
X121070000Y-48770000D03*
X121070000Y-46230000D03*
X123610000Y-48770000D03*
X123610000Y-46230000D03*
X126150000Y-48770000D03*
X126150000Y-46230000D03*
X128690000Y-48770000D03*
X128690000Y-46230000D03*
X131230000Y-48770000D03*
X131230000Y-46230000D03*
X133770000Y-48770000D03*
X133770000Y-46230000D03*
X136310000Y-48770000D03*
X136310000Y-46230000D03*
X138850000Y-48770000D03*
X138850000Y-46230000D03*
X141390000Y-48770000D03*
X141390000Y-46230000D03*
X143930000Y-48770000D03*
X143930000Y-46230000D03*
X146470000Y-48770000D03*
X146470000Y-46230000D03*
X149010000Y-48770000D03*
X149010000Y-46230000D03*
X151550000Y-48770000D03*
X151550000Y-46230000D03*
X154090000Y-48770000D03*
X154090000Y-46230000D03*
X156630000Y-48770000D03*
X156630000Y-46230000D03*
M02*
