G04 #@! TF.GenerationSoftware,KiCad,Pcbnew,(6.0.6)*
G04 #@! TF.CreationDate,2022-08-27T23:59:40+02:00*
G04 #@! TF.ProjectId,Phoniebox,50686f6e-6965-4626-9f78-2e6b69636164,rev?*
G04 #@! TF.SameCoordinates,Original*
G04 #@! TF.FileFunction,Legend,Top*
G04 #@! TF.FilePolarity,Positive*
%FSLAX46Y46*%
G04 Gerber Fmt 4.6, Leading zero omitted, Abs format (unit mm)*
G04 Created by KiCad (PCBNEW (6.0.6)) date 2022-08-27 23:59:40*
%MOMM*%
%LPD*%
G01*
G04 APERTURE LIST*
%ADD10C,0.150000*%
%ADD11C,0.120000*%
%ADD12C,2.700000*%
%ADD13R,2.200000X2.200000*%
%ADD14C,2.200000*%
%ADD15R,1.000000X3.150000*%
%ADD16R,1.350000X0.400000*%
%ADD17R,1.550000X1.200000*%
%ADD18O,0.950000X1.250000*%
%ADD19O,1.550000X0.890000*%
%ADD20R,1.550000X1.500000*%
%ADD21R,1.700000X1.700000*%
%ADD22O,1.700000X1.700000*%
G04 APERTURE END LIST*
D10*
X107676380Y-76203333D02*
X108390666Y-76203333D01*
X108533523Y-76250952D01*
X108628761Y-76346190D01*
X108676380Y-76489047D01*
X108676380Y-76584285D01*
X108009714Y-75298571D02*
X108676380Y-75298571D01*
X107628761Y-75536666D02*
X108343047Y-75774761D01*
X108343047Y-75155714D01*
X125824380Y-69853333D02*
X126538666Y-69853333D01*
X126681523Y-69900952D01*
X126776761Y-69996190D01*
X126824380Y-70139047D01*
X126824380Y-70234285D01*
X125824380Y-68900952D02*
X125824380Y-69377142D01*
X126300571Y-69424761D01*
X126252952Y-69377142D01*
X126205333Y-69281904D01*
X126205333Y-69043809D01*
X126252952Y-68948571D01*
X126300571Y-68900952D01*
X126395809Y-68853333D01*
X126633904Y-68853333D01*
X126729142Y-68900952D01*
X126776761Y-68948571D01*
X126824380Y-69043809D01*
X126824380Y-69281904D01*
X126776761Y-69377142D01*
X126729142Y-69424761D01*
X105703352Y-57183291D02*
X106417638Y-57183291D01*
X106560495Y-57230910D01*
X106655733Y-57326148D01*
X106703352Y-57469005D01*
X106703352Y-57564243D01*
X105703352Y-56802338D02*
X105703352Y-56135672D01*
X106703352Y-56564243D01*
X125824380Y-57138333D02*
X126538666Y-57138333D01*
X126681523Y-57185952D01*
X126776761Y-57281190D01*
X126824380Y-57424047D01*
X126824380Y-57519285D01*
X126252952Y-56519285D02*
X126205333Y-56614523D01*
X126157714Y-56662142D01*
X126062476Y-56709761D01*
X126014857Y-56709761D01*
X125919619Y-56662142D01*
X125872000Y-56614523D01*
X125824380Y-56519285D01*
X125824380Y-56328809D01*
X125872000Y-56233571D01*
X125919619Y-56185952D01*
X126014857Y-56138333D01*
X126062476Y-56138333D01*
X126157714Y-56185952D01*
X126205333Y-56233571D01*
X126252952Y-56328809D01*
X126252952Y-56519285D01*
X126300571Y-56614523D01*
X126348190Y-56662142D01*
X126443428Y-56709761D01*
X126633904Y-56709761D01*
X126729142Y-56662142D01*
X126776761Y-56614523D01*
X126824380Y-56519285D01*
X126824380Y-56328809D01*
X126776761Y-56233571D01*
X126729142Y-56185952D01*
X126633904Y-56138333D01*
X126443428Y-56138333D01*
X126348190Y-56185952D01*
X126300571Y-56233571D01*
X126252952Y-56328809D01*
X113763666Y-90943380D02*
X113763666Y-91657666D01*
X113716047Y-91800523D01*
X113620809Y-91895761D01*
X113477952Y-91943380D01*
X113382714Y-91943380D01*
X114192238Y-91038619D02*
X114239857Y-90991000D01*
X114335095Y-90943380D01*
X114573190Y-90943380D01*
X114668428Y-90991000D01*
X114716047Y-91038619D01*
X114763666Y-91133857D01*
X114763666Y-91229095D01*
X114716047Y-91371952D01*
X114144619Y-91943380D01*
X114763666Y-91943380D01*
X136496666Y-90943380D02*
X136496666Y-91657666D01*
X136449047Y-91800523D01*
X136353809Y-91895761D01*
X136210952Y-91943380D01*
X136115714Y-91943380D01*
X136877619Y-90943380D02*
X137496666Y-90943380D01*
X137163333Y-91324333D01*
X137306190Y-91324333D01*
X137401428Y-91371952D01*
X137449047Y-91419571D01*
X137496666Y-91514809D01*
X137496666Y-91752904D01*
X137449047Y-91848142D01*
X137401428Y-91895761D01*
X137306190Y-91943380D01*
X137020476Y-91943380D01*
X136925238Y-91895761D01*
X136877619Y-91848142D01*
D11*
X107224000Y-65420000D02*
X107224000Y-86321000D01*
X100904000Y-65420000D02*
X100904000Y-86321000D01*
X107224000Y-65420000D02*
X100904000Y-65420000D01*
X101404000Y-65180000D02*
X100664000Y-65180000D01*
X101464000Y-65420000D02*
X101464000Y-86321000D01*
X100664000Y-65180000D02*
X100664000Y-65680000D01*
X107224000Y-86321000D02*
X100904000Y-86321000D01*
X106764000Y-65420000D02*
X106764000Y-86321000D01*
X129462000Y-66920000D02*
X130482000Y-66920000D01*
X127372000Y-72120000D02*
X127942000Y-72120000D01*
X127372000Y-66920000D02*
X127942000Y-66920000D01*
X127372000Y-72120000D02*
X127372000Y-66920000D01*
X132002000Y-66920000D02*
X132572000Y-66920000D01*
X132572000Y-72120000D02*
X132572000Y-66920000D01*
X129462000Y-72120000D02*
X130482000Y-72120000D01*
X132002000Y-72120000D02*
X132572000Y-72120000D01*
X127942000Y-73560000D02*
X127942000Y-72120000D01*
X100460972Y-60609958D02*
X100060972Y-60609958D01*
X102430972Y-53089958D02*
X104410972Y-53089958D01*
X104410972Y-53089958D02*
X104410972Y-53509958D01*
X104640972Y-55089958D02*
X105090972Y-55089958D01*
X104410972Y-60609958D02*
X104410972Y-60189958D01*
X105090972Y-55539958D02*
X105090972Y-55089958D01*
X100060972Y-53089958D02*
X100460972Y-53089958D01*
X102430972Y-60609958D02*
X104410972Y-60609958D01*
X137082000Y-54205000D02*
X137652000Y-54205000D01*
X129462000Y-59405000D02*
X130482000Y-59405000D01*
X137082000Y-59405000D02*
X137652000Y-59405000D01*
X137652000Y-59405000D02*
X137652000Y-54205000D01*
X129462000Y-54205000D02*
X130482000Y-54205000D01*
X134542000Y-59405000D02*
X135562000Y-59405000D01*
X132002000Y-54205000D02*
X133022000Y-54205000D01*
X127372000Y-59405000D02*
X127942000Y-59405000D01*
X127942000Y-60845000D02*
X127942000Y-59405000D01*
X132002000Y-59405000D02*
X133022000Y-59405000D01*
X127372000Y-59405000D02*
X127372000Y-54205000D01*
X134542000Y-54205000D02*
X135562000Y-54205000D01*
X127372000Y-54205000D02*
X127942000Y-54205000D01*
X112932000Y-98596000D02*
X112932000Y-99336000D01*
X113172000Y-98536000D02*
X134073000Y-98536000D01*
X113172000Y-92776000D02*
X113172000Y-99096000D01*
X113172000Y-93236000D02*
X134073000Y-93236000D01*
X134073000Y-92776000D02*
X134073000Y-99096000D01*
X113172000Y-99096000D02*
X134073000Y-99096000D01*
X113172000Y-92776000D02*
X134073000Y-92776000D01*
X112932000Y-99336000D02*
X113432000Y-99336000D01*
X136300000Y-99336000D02*
X136800000Y-99336000D01*
X136540000Y-99096000D02*
X157441000Y-99096000D01*
X136300000Y-98596000D02*
X136300000Y-99336000D01*
X136540000Y-92776000D02*
X136540000Y-99096000D01*
X136540000Y-92776000D02*
X157441000Y-92776000D01*
X157441000Y-92776000D02*
X157441000Y-99096000D01*
X136540000Y-93236000D02*
X157441000Y-93236000D01*
X136540000Y-98536000D02*
X157441000Y-98536000D01*
%LPC*%
D12*
X161500000Y-47500000D03*
X103500000Y-96500000D03*
X103500000Y-47500000D03*
D13*
X104064000Y-66980000D03*
D14*
X104064000Y-69520000D03*
X104064000Y-72060000D03*
X104064000Y-74600000D03*
X104064000Y-77140000D03*
X104064000Y-79680000D03*
X104064000Y-82220000D03*
X104064000Y-84760000D03*
D15*
X128702000Y-72045000D03*
X128702000Y-66995000D03*
X131242000Y-72045000D03*
X131242000Y-66995000D03*
D16*
X104150972Y-55549958D03*
X104150972Y-56199958D03*
X104150972Y-56849958D03*
X104150972Y-57499958D03*
X104150972Y-58149958D03*
D17*
X101450972Y-53949958D03*
D18*
X104150972Y-59349958D03*
D19*
X101450972Y-60349958D03*
D20*
X101450972Y-57849958D03*
D18*
X104150972Y-54349958D03*
D20*
X101450972Y-55849958D03*
D19*
X101450972Y-53349958D03*
D17*
X101450972Y-59749958D03*
D12*
X161500000Y-96500000D03*
D15*
X128702000Y-59330000D03*
X128702000Y-54280000D03*
X131242000Y-59330000D03*
X131242000Y-54280000D03*
X133782000Y-59330000D03*
X133782000Y-54280000D03*
X136322000Y-59330000D03*
X136322000Y-54280000D03*
D13*
X114732000Y-95936000D03*
D14*
X117272000Y-95936000D03*
X119812000Y-95936000D03*
X122352000Y-95936000D03*
X124892000Y-95936000D03*
X127432000Y-95936000D03*
X129972000Y-95936000D03*
X132512000Y-95936000D03*
D13*
X138100000Y-95936000D03*
D14*
X140640000Y-95936000D03*
X143180000Y-95936000D03*
X145720000Y-95936000D03*
X148260000Y-95936000D03*
X150800000Y-95936000D03*
X153340000Y-95936000D03*
X155880000Y-95936000D03*
D21*
X108370000Y-48770000D03*
D22*
X108370000Y-46230000D03*
X110910000Y-48770000D03*
X110910000Y-46230000D03*
X113450000Y-48770000D03*
X113450000Y-46230000D03*
X115990000Y-48770000D03*
X115990000Y-46230000D03*
X118530000Y-48770000D03*
X118530000Y-46230000D03*
X121070000Y-48770000D03*
X121070000Y-46230000D03*
X123610000Y-48770000D03*
X123610000Y-46230000D03*
X126150000Y-48770000D03*
X126150000Y-46230000D03*
X128690000Y-48770000D03*
X128690000Y-46230000D03*
X131230000Y-48770000D03*
X131230000Y-46230000D03*
X133770000Y-48770000D03*
X133770000Y-46230000D03*
X136310000Y-48770000D03*
X136310000Y-46230000D03*
X138850000Y-48770000D03*
X138850000Y-46230000D03*
X141390000Y-48770000D03*
X141390000Y-46230000D03*
X143930000Y-48770000D03*
X143930000Y-46230000D03*
X146470000Y-48770000D03*
X146470000Y-46230000D03*
X149010000Y-48770000D03*
X149010000Y-46230000D03*
X151550000Y-48770000D03*
X151550000Y-46230000D03*
X154090000Y-48770000D03*
X154090000Y-46230000D03*
X156630000Y-48770000D03*
X156630000Y-46230000D03*
M02*
