G04 #@! TF.GenerationSoftware,KiCad,Pcbnew,(6.0.6)*
G04 #@! TF.CreationDate,2022-10-22T01:16:13+02:00*
G04 #@! TF.ProjectId,Phoniebox,50686f6e-6965-4626-9f78-2e6b69636164,rev?*
G04 #@! TF.SameCoordinates,Original*
G04 #@! TF.FileFunction,Legend,Bot*
G04 #@! TF.FilePolarity,Positive*
%FSLAX46Y46*%
G04 Gerber Fmt 4.6, Leading zero omitted, Abs format (unit mm)*
G04 Created by KiCad (PCBNEW (6.0.6)) date 2022-10-22 01:16:13*
%MOMM*%
%LPD*%
G01*
G04 APERTURE LIST*
G04 Aperture macros list*
%AMRoundRect*
0 Rectangle with rounded corners*
0 $1 Rounding radius*
0 $2 $3 $4 $5 $6 $7 $8 $9 X,Y pos of 4 corners*
0 Add a 4 corners polygon primitive as box body*
4,1,4,$2,$3,$4,$5,$6,$7,$8,$9,$2,$3,0*
0 Add four circle primitives for the rounded corners*
1,1,$1+$1,$2,$3*
1,1,$1+$1,$4,$5*
1,1,$1+$1,$6,$7*
1,1,$1+$1,$8,$9*
0 Add four rect primitives between the rounded corners*
20,1,$1+$1,$2,$3,$4,$5,0*
20,1,$1+$1,$4,$5,$6,$7,0*
20,1,$1+$1,$6,$7,$8,$9,0*
20,1,$1+$1,$8,$9,$2,$3,0*%
G04 Aperture macros list end*
%ADD10C,0.150000*%
%ADD11C,0.120000*%
%ADD12C,2.700000*%
%ADD13R,2.200000X2.200000*%
%ADD14C,2.200000*%
%ADD15R,1.700000X1.700000*%
%ADD16O,1.700000X1.700000*%
%ADD17RoundRect,0.225000X-0.250000X0.225000X-0.250000X-0.225000X0.250000X-0.225000X0.250000X0.225000X0*%
%ADD18RoundRect,0.200000X-0.275000X0.200000X-0.275000X-0.200000X0.275000X-0.200000X0.275000X0.200000X0*%
%ADD19RoundRect,0.150000X-0.150000X0.587500X-0.150000X-0.587500X0.150000X-0.587500X0.150000X0.587500X0*%
%ADD20RoundRect,0.100000X0.637500X0.100000X-0.637500X0.100000X-0.637500X-0.100000X0.637500X-0.100000X0*%
%ADD21RoundRect,0.225000X-0.225000X-0.250000X0.225000X-0.250000X0.225000X0.250000X-0.225000X0.250000X0*%
%ADD22RoundRect,0.200000X0.200000X0.275000X-0.200000X0.275000X-0.200000X-0.275000X0.200000X-0.275000X0*%
%ADD23RoundRect,0.200000X0.275000X-0.200000X0.275000X0.200000X-0.275000X0.200000X-0.275000X-0.200000X0*%
%ADD24RoundRect,0.250000X0.475000X-0.250000X0.475000X0.250000X-0.475000X0.250000X-0.475000X-0.250000X0*%
%ADD25RoundRect,0.100000X-0.637500X-0.100000X0.637500X-0.100000X0.637500X0.100000X-0.637500X0.100000X0*%
%ADD26RoundRect,0.225000X0.250000X-0.225000X0.250000X0.225000X-0.250000X0.225000X-0.250000X-0.225000X0*%
%ADD27RoundRect,0.250000X-0.250000X-0.475000X0.250000X-0.475000X0.250000X0.475000X-0.250000X0.475000X0*%
%ADD28RoundRect,0.150000X-0.150000X0.850000X-0.150000X-0.850000X0.150000X-0.850000X0.150000X0.850000X0*%
%ADD29RoundRect,0.250000X0.250000X0.475000X-0.250000X0.475000X-0.250000X-0.475000X0.250000X-0.475000X0*%
%ADD30RoundRect,0.225000X0.225000X0.250000X-0.225000X0.250000X-0.225000X-0.250000X0.225000X-0.250000X0*%
%ADD31RoundRect,0.150000X0.512500X0.150000X-0.512500X0.150000X-0.512500X-0.150000X0.512500X-0.150000X0*%
%ADD32RoundRect,0.150000X0.587500X0.150000X-0.587500X0.150000X-0.587500X-0.150000X0.587500X-0.150000X0*%
%ADD33C,0.650000*%
%ADD34R,1.450000X0.600000*%
%ADD35R,1.450000X0.300000*%
%ADD36O,2.100000X1.000000*%
%ADD37O,1.600000X1.000000*%
%ADD38RoundRect,0.150000X-0.587500X-0.150000X0.587500X-0.150000X0.587500X0.150000X-0.587500X0.150000X0*%
%ADD39RoundRect,0.250000X-0.475000X0.250000X-0.475000X-0.250000X0.475000X-0.250000X0.475000X0.250000X0*%
%ADD40RoundRect,0.200000X-0.200000X-0.275000X0.200000X-0.275000X0.200000X0.275000X-0.200000X0.275000X0*%
G04 APERTURE END LIST*
D10*
X106937333Y-50684380D02*
X106937333Y-51398666D01*
X106984952Y-51541523D01*
X107080190Y-51636761D01*
X107223047Y-51684380D01*
X107318285Y-51684380D01*
X105937333Y-51684380D02*
X106508761Y-51684380D01*
X106223047Y-51684380D02*
X106223047Y-50684380D01*
X106318285Y-50827238D01*
X106413523Y-50922476D01*
X106508761Y-50970095D01*
X124309142Y-75017333D02*
X124356761Y-74969714D01*
X124404380Y-74826857D01*
X124404380Y-74731619D01*
X124356761Y-74588761D01*
X124261523Y-74493523D01*
X124166285Y-74445904D01*
X123975809Y-74398285D01*
X123832952Y-74398285D01*
X123642476Y-74445904D01*
X123547238Y-74493523D01*
X123452000Y-74588761D01*
X123404380Y-74731619D01*
X123404380Y-74826857D01*
X123452000Y-74969714D01*
X123499619Y-75017333D01*
X123404380Y-75874476D02*
X123404380Y-75684000D01*
X123452000Y-75588761D01*
X123499619Y-75541142D01*
X123642476Y-75445904D01*
X123832952Y-75398285D01*
X124213904Y-75398285D01*
X124309142Y-75445904D01*
X124356761Y-75493523D01*
X124404380Y-75588761D01*
X124404380Y-75779238D01*
X124356761Y-75874476D01*
X124309142Y-75922095D01*
X124213904Y-75969714D01*
X123975809Y-75969714D01*
X123880571Y-75922095D01*
X123832952Y-75874476D01*
X123785333Y-75779238D01*
X123785333Y-75588761D01*
X123832952Y-75493523D01*
X123880571Y-75445904D01*
X123975809Y-75398285D01*
X122372380Y-53205142D02*
X121896190Y-52871809D01*
X122372380Y-52633714D02*
X121372380Y-52633714D01*
X121372380Y-53014666D01*
X121420000Y-53109904D01*
X121467619Y-53157523D01*
X121562857Y-53205142D01*
X121705714Y-53205142D01*
X121800952Y-53157523D01*
X121848571Y-53109904D01*
X121896190Y-53014666D01*
X121896190Y-52633714D01*
X121467619Y-53586095D02*
X121420000Y-53633714D01*
X121372380Y-53728952D01*
X121372380Y-53967047D01*
X121420000Y-54062285D01*
X121467619Y-54109904D01*
X121562857Y-54157523D01*
X121658095Y-54157523D01*
X121800952Y-54109904D01*
X122372380Y-53538476D01*
X122372380Y-54157523D01*
X121372380Y-55014666D02*
X121372380Y-54824190D01*
X121420000Y-54728952D01*
X121467619Y-54681333D01*
X121610476Y-54586095D01*
X121800952Y-54538476D01*
X122181904Y-54538476D01*
X122277142Y-54586095D01*
X122324761Y-54633714D01*
X122372380Y-54728952D01*
X122372380Y-54919428D01*
X122324761Y-55014666D01*
X122277142Y-55062285D01*
X122181904Y-55109904D01*
X121943809Y-55109904D01*
X121848571Y-55062285D01*
X121800952Y-55014666D01*
X121753333Y-54919428D01*
X121753333Y-54728952D01*
X121800952Y-54633714D01*
X121848571Y-54586095D01*
X121943809Y-54538476D01*
X126341142Y-64889142D02*
X126388761Y-64841523D01*
X126436380Y-64698666D01*
X126436380Y-64603428D01*
X126388761Y-64460571D01*
X126293523Y-64365333D01*
X126198285Y-64317714D01*
X126007809Y-64270095D01*
X125864952Y-64270095D01*
X125674476Y-64317714D01*
X125579238Y-64365333D01*
X125484000Y-64460571D01*
X125436380Y-64603428D01*
X125436380Y-64698666D01*
X125484000Y-64841523D01*
X125531619Y-64889142D01*
X125531619Y-65270095D02*
X125484000Y-65317714D01*
X125436380Y-65412952D01*
X125436380Y-65651047D01*
X125484000Y-65746285D01*
X125531619Y-65793904D01*
X125626857Y-65841523D01*
X125722095Y-65841523D01*
X125864952Y-65793904D01*
X126436380Y-65222476D01*
X126436380Y-65841523D01*
X125436380Y-66174857D02*
X125436380Y-66841523D01*
X126436380Y-66412952D01*
X142335238Y-86399619D02*
X142430476Y-86352000D01*
X142525714Y-86256761D01*
X142668571Y-86113904D01*
X142763809Y-86066285D01*
X142859047Y-86066285D01*
X142811428Y-86304380D02*
X142906666Y-86256761D01*
X143001904Y-86161523D01*
X143049523Y-85971047D01*
X143049523Y-85637714D01*
X143001904Y-85447238D01*
X142906666Y-85352000D01*
X142811428Y-85304380D01*
X142620952Y-85304380D01*
X142525714Y-85352000D01*
X142430476Y-85447238D01*
X142382857Y-85637714D01*
X142382857Y-85971047D01*
X142430476Y-86161523D01*
X142525714Y-86256761D01*
X142620952Y-86304380D01*
X142811428Y-86304380D01*
X142049523Y-85304380D02*
X141430476Y-85304380D01*
X141763809Y-85685333D01*
X141620952Y-85685333D01*
X141525714Y-85732952D01*
X141478095Y-85780571D01*
X141430476Y-85875809D01*
X141430476Y-86113904D01*
X141478095Y-86209142D01*
X141525714Y-86256761D01*
X141620952Y-86304380D01*
X141906666Y-86304380D01*
X142001904Y-86256761D01*
X142049523Y-86209142D01*
X150113904Y-55840380D02*
X150113904Y-56649904D01*
X150066285Y-56745142D01*
X150018666Y-56792761D01*
X149923428Y-56840380D01*
X149732952Y-56840380D01*
X149637714Y-56792761D01*
X149590095Y-56745142D01*
X149542476Y-56649904D01*
X149542476Y-55840380D01*
X148637714Y-56173714D02*
X148637714Y-56840380D01*
X148875809Y-55792761D02*
X149113904Y-56507047D01*
X148494857Y-56507047D01*
X107194285Y-76049142D02*
X107232380Y-76096761D01*
X107346666Y-76144380D01*
X107422857Y-76144380D01*
X107537142Y-76096761D01*
X107613333Y-76001523D01*
X107651428Y-75906285D01*
X107689523Y-75715809D01*
X107689523Y-75572952D01*
X107651428Y-75382476D01*
X107613333Y-75287238D01*
X107537142Y-75192000D01*
X107422857Y-75144380D01*
X107346666Y-75144380D01*
X107232380Y-75192000D01*
X107194285Y-75239619D01*
X106432380Y-76144380D02*
X106889523Y-76144380D01*
X106660952Y-76144380D02*
X106660952Y-75144380D01*
X106737142Y-75287238D01*
X106813333Y-75382476D01*
X106889523Y-75430095D01*
X106127619Y-75239619D02*
X106089523Y-75192000D01*
X106013333Y-75144380D01*
X105822857Y-75144380D01*
X105746666Y-75192000D01*
X105708571Y-75239619D01*
X105670476Y-75334857D01*
X105670476Y-75430095D01*
X105708571Y-75572952D01*
X106165714Y-76144380D01*
X105670476Y-76144380D01*
X120245142Y-65873333D02*
X120292761Y-65825714D01*
X120340380Y-65682857D01*
X120340380Y-65587619D01*
X120292761Y-65444761D01*
X120197523Y-65349523D01*
X120102285Y-65301904D01*
X119911809Y-65254285D01*
X119768952Y-65254285D01*
X119578476Y-65301904D01*
X119483238Y-65349523D01*
X119388000Y-65444761D01*
X119340380Y-65587619D01*
X119340380Y-65682857D01*
X119388000Y-65825714D01*
X119435619Y-65873333D01*
X119340380Y-66778095D02*
X119340380Y-66301904D01*
X119816571Y-66254285D01*
X119768952Y-66301904D01*
X119721333Y-66397142D01*
X119721333Y-66635238D01*
X119768952Y-66730476D01*
X119816571Y-66778095D01*
X119911809Y-66825714D01*
X120149904Y-66825714D01*
X120245142Y-66778095D01*
X120292761Y-66730476D01*
X120340380Y-66635238D01*
X120340380Y-66397142D01*
X120292761Y-66301904D01*
X120245142Y-66254285D01*
X107346666Y-78668571D02*
X107613333Y-78668571D01*
X107613333Y-79192380D02*
X107613333Y-78192380D01*
X107232380Y-78192380D01*
X106660952Y-78668571D02*
X106546666Y-78716190D01*
X106508571Y-78763809D01*
X106470476Y-78859047D01*
X106470476Y-79001904D01*
X106508571Y-79097142D01*
X106546666Y-79144761D01*
X106622857Y-79192380D01*
X106927619Y-79192380D01*
X106927619Y-78192380D01*
X106660952Y-78192380D01*
X106584761Y-78240000D01*
X106546666Y-78287619D01*
X106508571Y-78382857D01*
X106508571Y-78478095D01*
X106546666Y-78573333D01*
X106584761Y-78620952D01*
X106660952Y-78668571D01*
X106927619Y-78668571D01*
X105784761Y-78525714D02*
X105784761Y-79192380D01*
X105975238Y-78144761D02*
X106165714Y-78859047D01*
X105670476Y-78859047D01*
X112720380Y-60317142D02*
X112244190Y-59983809D01*
X112720380Y-59745714D02*
X111720380Y-59745714D01*
X111720380Y-60126666D01*
X111768000Y-60221904D01*
X111815619Y-60269523D01*
X111910857Y-60317142D01*
X112053714Y-60317142D01*
X112148952Y-60269523D01*
X112196571Y-60221904D01*
X112244190Y-60126666D01*
X112244190Y-59745714D01*
X111720380Y-60650476D02*
X111720380Y-61269523D01*
X112101333Y-60936190D01*
X112101333Y-61079047D01*
X112148952Y-61174285D01*
X112196571Y-61221904D01*
X112291809Y-61269523D01*
X112529904Y-61269523D01*
X112625142Y-61221904D01*
X112672761Y-61174285D01*
X112720380Y-61079047D01*
X112720380Y-60793333D01*
X112672761Y-60698095D01*
X112625142Y-60650476D01*
X111720380Y-61888571D02*
X111720380Y-61983809D01*
X111768000Y-62079047D01*
X111815619Y-62126666D01*
X111910857Y-62174285D01*
X112101333Y-62221904D01*
X112339428Y-62221904D01*
X112529904Y-62174285D01*
X112625142Y-62126666D01*
X112672761Y-62079047D01*
X112720380Y-61983809D01*
X112720380Y-61888571D01*
X112672761Y-61793333D01*
X112625142Y-61745714D01*
X112529904Y-61698095D01*
X112339428Y-61650476D01*
X112101333Y-61650476D01*
X111910857Y-61698095D01*
X111815619Y-61745714D01*
X111768000Y-61793333D01*
X111720380Y-61888571D01*
X112720380Y-53681333D02*
X112244190Y-53348000D01*
X112720380Y-53109904D02*
X111720380Y-53109904D01*
X111720380Y-53490857D01*
X111768000Y-53586095D01*
X111815619Y-53633714D01*
X111910857Y-53681333D01*
X112053714Y-53681333D01*
X112148952Y-53633714D01*
X112196571Y-53586095D01*
X112244190Y-53490857D01*
X112244190Y-53109904D01*
X111815619Y-54062285D02*
X111768000Y-54109904D01*
X111720380Y-54205142D01*
X111720380Y-54443238D01*
X111768000Y-54538476D01*
X111815619Y-54586095D01*
X111910857Y-54633714D01*
X112006095Y-54633714D01*
X112148952Y-54586095D01*
X112720380Y-54014666D01*
X112720380Y-54633714D01*
X128373142Y-64889142D02*
X128420761Y-64841523D01*
X128468380Y-64698666D01*
X128468380Y-64603428D01*
X128420761Y-64460571D01*
X128325523Y-64365333D01*
X128230285Y-64317714D01*
X128039809Y-64270095D01*
X127896952Y-64270095D01*
X127706476Y-64317714D01*
X127611238Y-64365333D01*
X127516000Y-64460571D01*
X127468380Y-64603428D01*
X127468380Y-64698666D01*
X127516000Y-64841523D01*
X127563619Y-64889142D01*
X128468380Y-65841523D02*
X128468380Y-65270095D01*
X128468380Y-65555809D02*
X127468380Y-65555809D01*
X127611238Y-65460571D01*
X127706476Y-65365333D01*
X127754095Y-65270095D01*
X128468380Y-66317714D02*
X128468380Y-66508190D01*
X128420761Y-66603428D01*
X128373142Y-66651047D01*
X128230285Y-66746285D01*
X128039809Y-66793904D01*
X127658857Y-66793904D01*
X127563619Y-66746285D01*
X127516000Y-66698666D01*
X127468380Y-66603428D01*
X127468380Y-66412952D01*
X127516000Y-66317714D01*
X127563619Y-66270095D01*
X127658857Y-66222476D01*
X127896952Y-66222476D01*
X127992190Y-66270095D01*
X128039809Y-66317714D01*
X128087428Y-66412952D01*
X128087428Y-66603428D01*
X128039809Y-66698666D01*
X127992190Y-66746285D01*
X127896952Y-66793904D01*
X156559238Y-86434619D02*
X156654476Y-86387000D01*
X156749714Y-86291761D01*
X156892571Y-86148904D01*
X156987809Y-86101285D01*
X157083047Y-86101285D01*
X157035428Y-86339380D02*
X157130666Y-86291761D01*
X157225904Y-86196523D01*
X157273523Y-86006047D01*
X157273523Y-85672714D01*
X157225904Y-85482238D01*
X157130666Y-85387000D01*
X157035428Y-85339380D01*
X156844952Y-85339380D01*
X156749714Y-85387000D01*
X156654476Y-85482238D01*
X156606857Y-85672714D01*
X156606857Y-86006047D01*
X156654476Y-86196523D01*
X156749714Y-86291761D01*
X156844952Y-86339380D01*
X157035428Y-86339380D01*
X155749714Y-85339380D02*
X155940190Y-85339380D01*
X156035428Y-85387000D01*
X156083047Y-85434619D01*
X156178285Y-85577476D01*
X156225904Y-85767952D01*
X156225904Y-86148904D01*
X156178285Y-86244142D01*
X156130666Y-86291761D01*
X156035428Y-86339380D01*
X155844952Y-86339380D01*
X155749714Y-86291761D01*
X155702095Y-86244142D01*
X155654476Y-86148904D01*
X155654476Y-85910809D01*
X155702095Y-85815571D01*
X155749714Y-85767952D01*
X155844952Y-85720333D01*
X156035428Y-85720333D01*
X156130666Y-85767952D01*
X156178285Y-85815571D01*
X156225904Y-85910809D01*
X155392380Y-91813142D02*
X154916190Y-91479809D01*
X155392380Y-91241714D02*
X154392380Y-91241714D01*
X154392380Y-91622666D01*
X154440000Y-91717904D01*
X154487619Y-91765523D01*
X154582857Y-91813142D01*
X154725714Y-91813142D01*
X154820952Y-91765523D01*
X154868571Y-91717904D01*
X154916190Y-91622666D01*
X154916190Y-91241714D01*
X155392380Y-92765523D02*
X155392380Y-92194095D01*
X155392380Y-92479809D02*
X154392380Y-92479809D01*
X154535238Y-92384571D01*
X154630476Y-92289333D01*
X154678095Y-92194095D01*
X155392380Y-93241714D02*
X155392380Y-93432190D01*
X155344761Y-93527428D01*
X155297142Y-93575047D01*
X155154285Y-93670285D01*
X154963809Y-93717904D01*
X154582857Y-93717904D01*
X154487619Y-93670285D01*
X154440000Y-93622666D01*
X154392380Y-93527428D01*
X154392380Y-93336952D01*
X154440000Y-93241714D01*
X154487619Y-93194095D01*
X154582857Y-93146476D01*
X154820952Y-93146476D01*
X154916190Y-93194095D01*
X154963809Y-93241714D01*
X155011428Y-93336952D01*
X155011428Y-93527428D01*
X154963809Y-93622666D01*
X154916190Y-93670285D01*
X154820952Y-93717904D01*
X107346666Y-72572571D02*
X107613333Y-72572571D01*
X107613333Y-73096380D02*
X107613333Y-72096380D01*
X107232380Y-72096380D01*
X106660952Y-72572571D02*
X106546666Y-72620190D01*
X106508571Y-72667809D01*
X106470476Y-72763047D01*
X106470476Y-72905904D01*
X106508571Y-73001142D01*
X106546666Y-73048761D01*
X106622857Y-73096380D01*
X106927619Y-73096380D01*
X106927619Y-72096380D01*
X106660952Y-72096380D01*
X106584761Y-72144000D01*
X106546666Y-72191619D01*
X106508571Y-72286857D01*
X106508571Y-72382095D01*
X106546666Y-72477333D01*
X106584761Y-72524952D01*
X106660952Y-72572571D01*
X106927619Y-72572571D01*
X106165714Y-72191619D02*
X106127619Y-72144000D01*
X106051428Y-72096380D01*
X105860952Y-72096380D01*
X105784761Y-72144000D01*
X105746666Y-72191619D01*
X105708571Y-72286857D01*
X105708571Y-72382095D01*
X105746666Y-72524952D01*
X106203809Y-73096380D01*
X105708571Y-73096380D01*
X133962380Y-91813142D02*
X133486190Y-91479809D01*
X133962380Y-91241714D02*
X132962380Y-91241714D01*
X132962380Y-91622666D01*
X133010000Y-91717904D01*
X133057619Y-91765523D01*
X133152857Y-91813142D01*
X133295714Y-91813142D01*
X133390952Y-91765523D01*
X133438571Y-91717904D01*
X133486190Y-91622666D01*
X133486190Y-91241714D01*
X133057619Y-92194095D02*
X133010000Y-92241714D01*
X132962380Y-92336952D01*
X132962380Y-92575047D01*
X133010000Y-92670285D01*
X133057619Y-92717904D01*
X133152857Y-92765523D01*
X133248095Y-92765523D01*
X133390952Y-92717904D01*
X133962380Y-92146476D01*
X133962380Y-92765523D01*
X132962380Y-93384571D02*
X132962380Y-93479809D01*
X133010000Y-93575047D01*
X133057619Y-93622666D01*
X133152857Y-93670285D01*
X133343333Y-93717904D01*
X133581428Y-93717904D01*
X133771904Y-93670285D01*
X133867142Y-93622666D01*
X133914761Y-93575047D01*
X133962380Y-93479809D01*
X133962380Y-93384571D01*
X133914761Y-93289333D01*
X133867142Y-93241714D01*
X133771904Y-93194095D01*
X133581428Y-93146476D01*
X133343333Y-93146476D01*
X133152857Y-93194095D01*
X133057619Y-93241714D01*
X133010000Y-93289333D01*
X132962380Y-93384571D01*
X135885811Y-66635380D02*
X135885811Y-67444904D01*
X135838192Y-67540142D01*
X135790573Y-67587761D01*
X135695335Y-67635380D01*
X135504859Y-67635380D01*
X135409621Y-67587761D01*
X135362002Y-67540142D01*
X135314383Y-67444904D01*
X135314383Y-66635380D01*
X134933430Y-66635380D02*
X134314383Y-66635380D01*
X134647716Y-67016333D01*
X134504859Y-67016333D01*
X134409621Y-67063952D01*
X134362002Y-67111571D01*
X134314383Y-67206809D01*
X134314383Y-67444904D01*
X134362002Y-67540142D01*
X134409621Y-67587761D01*
X134504859Y-67635380D01*
X134790573Y-67635380D01*
X134885811Y-67587761D01*
X134933430Y-67540142D01*
X138529049Y-78605142D02*
X138576668Y-78557523D01*
X138624287Y-78414666D01*
X138624287Y-78319428D01*
X138576668Y-78176571D01*
X138481430Y-78081333D01*
X138386192Y-78033714D01*
X138195716Y-77986095D01*
X138052859Y-77986095D01*
X137862383Y-78033714D01*
X137767145Y-78081333D01*
X137671907Y-78176571D01*
X137624287Y-78319428D01*
X137624287Y-78414666D01*
X137671907Y-78557523D01*
X137719526Y-78605142D01*
X138624287Y-79557523D02*
X138624287Y-78986095D01*
X138624287Y-79271809D02*
X137624287Y-79271809D01*
X137767145Y-79176571D01*
X137862383Y-79081333D01*
X137910002Y-78986095D01*
X137624287Y-79890857D02*
X137624287Y-80557523D01*
X138624287Y-80128952D01*
X149447238Y-86399619D02*
X149542476Y-86352000D01*
X149637714Y-86256761D01*
X149780571Y-86113904D01*
X149875809Y-86066285D01*
X149971047Y-86066285D01*
X149923428Y-86304380D02*
X150018666Y-86256761D01*
X150113904Y-86161523D01*
X150161523Y-85971047D01*
X150161523Y-85637714D01*
X150113904Y-85447238D01*
X150018666Y-85352000D01*
X149923428Y-85304380D01*
X149732952Y-85304380D01*
X149637714Y-85352000D01*
X149542476Y-85447238D01*
X149494857Y-85637714D01*
X149494857Y-85971047D01*
X149542476Y-86161523D01*
X149637714Y-86256761D01*
X149732952Y-86304380D01*
X149923428Y-86304380D01*
X149113904Y-85399619D02*
X149066285Y-85352000D01*
X148971047Y-85304380D01*
X148732952Y-85304380D01*
X148637714Y-85352000D01*
X148590095Y-85399619D01*
X148542476Y-85494857D01*
X148542476Y-85590095D01*
X148590095Y-85732952D01*
X149161523Y-86304380D01*
X148542476Y-86304380D01*
X145891238Y-86399619D02*
X145986476Y-86352000D01*
X146081714Y-86256761D01*
X146224571Y-86113904D01*
X146319809Y-86066285D01*
X146415047Y-86066285D01*
X146367428Y-86304380D02*
X146462666Y-86256761D01*
X146557904Y-86161523D01*
X146605523Y-85971047D01*
X146605523Y-85637714D01*
X146557904Y-85447238D01*
X146462666Y-85352000D01*
X146367428Y-85304380D01*
X146176952Y-85304380D01*
X146081714Y-85352000D01*
X145986476Y-85447238D01*
X145938857Y-85637714D01*
X145938857Y-85971047D01*
X145986476Y-86161523D01*
X146081714Y-86256761D01*
X146176952Y-86304380D01*
X146367428Y-86304380D01*
X145034095Y-85304380D02*
X145510285Y-85304380D01*
X145557904Y-85780571D01*
X145510285Y-85732952D01*
X145415047Y-85685333D01*
X145176952Y-85685333D01*
X145081714Y-85732952D01*
X145034095Y-85780571D01*
X144986476Y-85875809D01*
X144986476Y-86113904D01*
X145034095Y-86209142D01*
X145081714Y-86256761D01*
X145176952Y-86304380D01*
X145415047Y-86304380D01*
X145510285Y-86256761D01*
X145557904Y-86209142D01*
X139834857Y-77573142D02*
X139882476Y-77620761D01*
X140025333Y-77668380D01*
X140120571Y-77668380D01*
X140263428Y-77620761D01*
X140358666Y-77525523D01*
X140406285Y-77430285D01*
X140453904Y-77239809D01*
X140453904Y-77096952D01*
X140406285Y-76906476D01*
X140358666Y-76811238D01*
X140263428Y-76716000D01*
X140120571Y-76668380D01*
X140025333Y-76668380D01*
X139882476Y-76716000D01*
X139834857Y-76763619D01*
X139453904Y-76763619D02*
X139406285Y-76716000D01*
X139311047Y-76668380D01*
X139072952Y-76668380D01*
X138977714Y-76716000D01*
X138930095Y-76763619D01*
X138882476Y-76858857D01*
X138882476Y-76954095D01*
X138930095Y-77096952D01*
X139501523Y-77668380D01*
X138882476Y-77668380D01*
X138549142Y-76668380D02*
X137930095Y-76668380D01*
X138263428Y-77049333D01*
X138120571Y-77049333D01*
X138025333Y-77096952D01*
X137977714Y-77144571D01*
X137930095Y-77239809D01*
X137930095Y-77477904D01*
X137977714Y-77573142D01*
X138025333Y-77620761D01*
X138120571Y-77668380D01*
X138406285Y-77668380D01*
X138501523Y-77620761D01*
X138549142Y-77573142D01*
X121372380Y-73914095D02*
X122181904Y-73914095D01*
X122277142Y-73961714D01*
X122324761Y-74009333D01*
X122372380Y-74104571D01*
X122372380Y-74295047D01*
X122324761Y-74390285D01*
X122277142Y-74437904D01*
X122181904Y-74485523D01*
X121372380Y-74485523D01*
X122372380Y-75485523D02*
X122372380Y-74914095D01*
X122372380Y-75199809D02*
X121372380Y-75199809D01*
X121515238Y-75104571D01*
X121610476Y-75009333D01*
X121658095Y-74914095D01*
X126849142Y-75557142D02*
X126896761Y-75509523D01*
X126944380Y-75366666D01*
X126944380Y-75271428D01*
X126896761Y-75128571D01*
X126801523Y-75033333D01*
X126706285Y-74985714D01*
X126515809Y-74938095D01*
X126372952Y-74938095D01*
X126182476Y-74985714D01*
X126087238Y-75033333D01*
X125992000Y-75128571D01*
X125944380Y-75271428D01*
X125944380Y-75366666D01*
X125992000Y-75509523D01*
X126039619Y-75557142D01*
X126944380Y-76509523D02*
X126944380Y-75938095D01*
X126944380Y-76223809D02*
X125944380Y-76223809D01*
X126087238Y-76128571D01*
X126182476Y-76033333D01*
X126230095Y-75938095D01*
X126372952Y-77080952D02*
X126325333Y-76985714D01*
X126277714Y-76938095D01*
X126182476Y-76890476D01*
X126134857Y-76890476D01*
X126039619Y-76938095D01*
X125992000Y-76985714D01*
X125944380Y-77080952D01*
X125944380Y-77271428D01*
X125992000Y-77366666D01*
X126039619Y-77414285D01*
X126134857Y-77461904D01*
X126182476Y-77461904D01*
X126277714Y-77414285D01*
X126325333Y-77366666D01*
X126372952Y-77271428D01*
X126372952Y-77080952D01*
X126420571Y-76985714D01*
X126468190Y-76938095D01*
X126563428Y-76890476D01*
X126753904Y-76890476D01*
X126849142Y-76938095D01*
X126896761Y-76985714D01*
X126944380Y-77080952D01*
X126944380Y-77271428D01*
X126896761Y-77366666D01*
X126849142Y-77414285D01*
X126753904Y-77461904D01*
X126563428Y-77461904D01*
X126468190Y-77414285D01*
X126420571Y-77366666D01*
X126372952Y-77271428D01*
X123578857Y-87225142D02*
X123626476Y-87272761D01*
X123769333Y-87320380D01*
X123864571Y-87320380D01*
X124007428Y-87272761D01*
X124102666Y-87177523D01*
X124150285Y-87082285D01*
X124197904Y-86891809D01*
X124197904Y-86748952D01*
X124150285Y-86558476D01*
X124102666Y-86463238D01*
X124007428Y-86368000D01*
X123864571Y-86320380D01*
X123769333Y-86320380D01*
X123626476Y-86368000D01*
X123578857Y-86415619D01*
X122626476Y-87320380D02*
X123197904Y-87320380D01*
X122912190Y-87320380D02*
X122912190Y-86320380D01*
X123007428Y-86463238D01*
X123102666Y-86558476D01*
X123197904Y-86606095D01*
X121769333Y-86653714D02*
X121769333Y-87320380D01*
X122007428Y-86272761D02*
X122245523Y-86987047D01*
X121626476Y-86987047D01*
X135377811Y-81240380D02*
X135377811Y-82049904D01*
X135330192Y-82145142D01*
X135282573Y-82192761D01*
X135187335Y-82240380D01*
X134996859Y-82240380D01*
X134901621Y-82192761D01*
X134854002Y-82145142D01*
X134806383Y-82049904D01*
X134806383Y-81240380D01*
X134377811Y-81335619D02*
X134330192Y-81288000D01*
X134234954Y-81240380D01*
X133996859Y-81240380D01*
X133901621Y-81288000D01*
X133854002Y-81335619D01*
X133806383Y-81430857D01*
X133806383Y-81526095D01*
X133854002Y-81668952D01*
X134425430Y-82240380D01*
X133806383Y-82240380D01*
X119038666Y-87225142D02*
X119086285Y-87272761D01*
X119229142Y-87320380D01*
X119324380Y-87320380D01*
X119467238Y-87272761D01*
X119562476Y-87177523D01*
X119610095Y-87082285D01*
X119657714Y-86891809D01*
X119657714Y-86748952D01*
X119610095Y-86558476D01*
X119562476Y-86463238D01*
X119467238Y-86368000D01*
X119324380Y-86320380D01*
X119229142Y-86320380D01*
X119086285Y-86368000D01*
X119038666Y-86415619D01*
X118562476Y-87320380D02*
X118372000Y-87320380D01*
X118276761Y-87272761D01*
X118229142Y-87225142D01*
X118133904Y-87082285D01*
X118086285Y-86891809D01*
X118086285Y-86510857D01*
X118133904Y-86415619D01*
X118181523Y-86368000D01*
X118276761Y-86320380D01*
X118467238Y-86320380D01*
X118562476Y-86368000D01*
X118610095Y-86415619D01*
X118657714Y-86510857D01*
X118657714Y-86748952D01*
X118610095Y-86844190D01*
X118562476Y-86891809D01*
X118467238Y-86939428D01*
X118276761Y-86939428D01*
X118181523Y-86891809D01*
X118133904Y-86844190D01*
X118086285Y-86748952D01*
X129385049Y-78605142D02*
X129432668Y-78557523D01*
X129480287Y-78414666D01*
X129480287Y-78319428D01*
X129432668Y-78176571D01*
X129337430Y-78081333D01*
X129242192Y-78033714D01*
X129051716Y-77986095D01*
X128908859Y-77986095D01*
X128718383Y-78033714D01*
X128623145Y-78081333D01*
X128527907Y-78176571D01*
X128480287Y-78319428D01*
X128480287Y-78414666D01*
X128527907Y-78557523D01*
X128575526Y-78605142D01*
X128575526Y-78986095D02*
X128527907Y-79033714D01*
X128480287Y-79128952D01*
X128480287Y-79367047D01*
X128527907Y-79462285D01*
X128575526Y-79509904D01*
X128670764Y-79557523D01*
X128766002Y-79557523D01*
X128908859Y-79509904D01*
X129480287Y-78938476D01*
X129480287Y-79557523D01*
X128575526Y-79938476D02*
X128527907Y-79986095D01*
X128480287Y-80081333D01*
X128480287Y-80319428D01*
X128527907Y-80414666D01*
X128575526Y-80462285D01*
X128670764Y-80509904D01*
X128766002Y-80509904D01*
X128908859Y-80462285D01*
X129480287Y-79890857D01*
X129480287Y-80509904D01*
X107346666Y-71048571D02*
X107613333Y-71048571D01*
X107613333Y-71572380D02*
X107613333Y-70572380D01*
X107232380Y-70572380D01*
X106660952Y-71048571D02*
X106546666Y-71096190D01*
X106508571Y-71143809D01*
X106470476Y-71239047D01*
X106470476Y-71381904D01*
X106508571Y-71477142D01*
X106546666Y-71524761D01*
X106622857Y-71572380D01*
X106927619Y-71572380D01*
X106927619Y-70572380D01*
X106660952Y-70572380D01*
X106584761Y-70620000D01*
X106546666Y-70667619D01*
X106508571Y-70762857D01*
X106508571Y-70858095D01*
X106546666Y-70953333D01*
X106584761Y-71000952D01*
X106660952Y-71048571D01*
X106927619Y-71048571D01*
X105708571Y-71572380D02*
X106165714Y-71572380D01*
X105937142Y-71572380D02*
X105937142Y-70572380D01*
X106013333Y-70715238D01*
X106089523Y-70810476D01*
X106165714Y-70858095D01*
X126845049Y-72509142D02*
X126892668Y-72461523D01*
X126940287Y-72318666D01*
X126940287Y-72223428D01*
X126892668Y-72080571D01*
X126797430Y-71985333D01*
X126702192Y-71937714D01*
X126511716Y-71890095D01*
X126368859Y-71890095D01*
X126178383Y-71937714D01*
X126083145Y-71985333D01*
X125987907Y-72080571D01*
X125940287Y-72223428D01*
X125940287Y-72318666D01*
X125987907Y-72461523D01*
X126035526Y-72509142D01*
X126035526Y-72890095D02*
X125987907Y-72937714D01*
X125940287Y-73032952D01*
X125940287Y-73271047D01*
X125987907Y-73366285D01*
X126035526Y-73413904D01*
X126130764Y-73461523D01*
X126226002Y-73461523D01*
X126368859Y-73413904D01*
X126940287Y-72842476D01*
X126940287Y-73461523D01*
X125940287Y-74366285D02*
X125940287Y-73890095D01*
X126416478Y-73842476D01*
X126368859Y-73890095D01*
X126321240Y-73985333D01*
X126321240Y-74223428D01*
X126368859Y-74318666D01*
X126416478Y-74366285D01*
X126511716Y-74413904D01*
X126749811Y-74413904D01*
X126845049Y-74366285D01*
X126892668Y-74318666D01*
X126940287Y-74223428D01*
X126940287Y-73985333D01*
X126892668Y-73890095D01*
X126845049Y-73842476D01*
X122372380Y-62857142D02*
X121896190Y-62523809D01*
X122372380Y-62285714D02*
X121372380Y-62285714D01*
X121372380Y-62666666D01*
X121420000Y-62761904D01*
X121467619Y-62809523D01*
X121562857Y-62857142D01*
X121705714Y-62857142D01*
X121800952Y-62809523D01*
X121848571Y-62761904D01*
X121896190Y-62666666D01*
X121896190Y-62285714D01*
X121467619Y-63238095D02*
X121420000Y-63285714D01*
X121372380Y-63380952D01*
X121372380Y-63619047D01*
X121420000Y-63714285D01*
X121467619Y-63761904D01*
X121562857Y-63809523D01*
X121658095Y-63809523D01*
X121800952Y-63761904D01*
X122372380Y-63190476D01*
X122372380Y-63809523D01*
X121372380Y-64714285D02*
X121372380Y-64238095D01*
X121848571Y-64190476D01*
X121800952Y-64238095D01*
X121753333Y-64333333D01*
X121753333Y-64571428D01*
X121800952Y-64666666D01*
X121848571Y-64714285D01*
X121943809Y-64761904D01*
X122181904Y-64761904D01*
X122277142Y-64714285D01*
X122324761Y-64666666D01*
X122372380Y-64571428D01*
X122372380Y-64333333D01*
X122324761Y-64238095D01*
X122277142Y-64190476D01*
X114395238Y-56427619D02*
X114490476Y-56380000D01*
X114585714Y-56284761D01*
X114728571Y-56141904D01*
X114823809Y-56094285D01*
X114919047Y-56094285D01*
X114871428Y-56332380D02*
X114966666Y-56284761D01*
X115061904Y-56189523D01*
X115109523Y-55999047D01*
X115109523Y-55665714D01*
X115061904Y-55475238D01*
X114966666Y-55380000D01*
X114871428Y-55332380D01*
X114680952Y-55332380D01*
X114585714Y-55380000D01*
X114490476Y-55475238D01*
X114442857Y-55665714D01*
X114442857Y-55999047D01*
X114490476Y-56189523D01*
X114585714Y-56284761D01*
X114680952Y-56332380D01*
X114871428Y-56332380D01*
X113871428Y-55760952D02*
X113966666Y-55713333D01*
X114014285Y-55665714D01*
X114061904Y-55570476D01*
X114061904Y-55522857D01*
X114014285Y-55427619D01*
X113966666Y-55380000D01*
X113871428Y-55332380D01*
X113680952Y-55332380D01*
X113585714Y-55380000D01*
X113538095Y-55427619D01*
X113490476Y-55522857D01*
X113490476Y-55570476D01*
X113538095Y-55665714D01*
X113585714Y-55713333D01*
X113680952Y-55760952D01*
X113871428Y-55760952D01*
X113966666Y-55808571D01*
X114014285Y-55856190D01*
X114061904Y-55951428D01*
X114061904Y-56141904D01*
X114014285Y-56237142D01*
X113966666Y-56284761D01*
X113871428Y-56332380D01*
X113680952Y-56332380D01*
X113585714Y-56284761D01*
X113538095Y-56237142D01*
X113490476Y-56141904D01*
X113490476Y-55951428D01*
X113538095Y-55856190D01*
X113585714Y-55808571D01*
X113680952Y-55760952D01*
X132210764Y-83669142D02*
X132258383Y-83716761D01*
X132401240Y-83764380D01*
X132496478Y-83764380D01*
X132639335Y-83716761D01*
X132734573Y-83621523D01*
X132782192Y-83526285D01*
X132829811Y-83335809D01*
X132829811Y-83192952D01*
X132782192Y-83002476D01*
X132734573Y-82907238D01*
X132639335Y-82812000D01*
X132496478Y-82764380D01*
X132401240Y-82764380D01*
X132258383Y-82812000D01*
X132210764Y-82859619D01*
X131829811Y-82859619D02*
X131782192Y-82812000D01*
X131686954Y-82764380D01*
X131448859Y-82764380D01*
X131353621Y-82812000D01*
X131306002Y-82859619D01*
X131258383Y-82954857D01*
X131258383Y-83050095D01*
X131306002Y-83192952D01*
X131877430Y-83764380D01*
X131258383Y-83764380D01*
X130639335Y-82764380D02*
X130544097Y-82764380D01*
X130448859Y-82812000D01*
X130401240Y-82859619D01*
X130353621Y-82954857D01*
X130306002Y-83145333D01*
X130306002Y-83383428D01*
X130353621Y-83573904D01*
X130401240Y-83669142D01*
X130448859Y-83716761D01*
X130544097Y-83764380D01*
X130639335Y-83764380D01*
X130734573Y-83716761D01*
X130782192Y-83669142D01*
X130829811Y-83573904D01*
X130877430Y-83383428D01*
X130877430Y-83145333D01*
X130829811Y-82954857D01*
X130782192Y-82859619D01*
X130734573Y-82812000D01*
X130639335Y-82764380D01*
X139644380Y-91813142D02*
X139168190Y-91479809D01*
X139644380Y-91241714D02*
X138644380Y-91241714D01*
X138644380Y-91622666D01*
X138692000Y-91717904D01*
X138739619Y-91765523D01*
X138834857Y-91813142D01*
X138977714Y-91813142D01*
X139072952Y-91765523D01*
X139120571Y-91717904D01*
X139168190Y-91622666D01*
X139168190Y-91241714D01*
X139644380Y-92765523D02*
X139644380Y-92194095D01*
X139644380Y-92479809D02*
X138644380Y-92479809D01*
X138787238Y-92384571D01*
X138882476Y-92289333D01*
X138930095Y-92194095D01*
X138977714Y-93622666D02*
X139644380Y-93622666D01*
X138596761Y-93384571D02*
X139311047Y-93146476D01*
X139311047Y-93765523D01*
X115990666Y-68273142D02*
X116038285Y-68320761D01*
X116181142Y-68368380D01*
X116276380Y-68368380D01*
X116419238Y-68320761D01*
X116514476Y-68225523D01*
X116562095Y-68130285D01*
X116609714Y-67939809D01*
X116609714Y-67796952D01*
X116562095Y-67606476D01*
X116514476Y-67511238D01*
X116419238Y-67416000D01*
X116276380Y-67368380D01*
X116181142Y-67368380D01*
X116038285Y-67416000D01*
X115990666Y-67463619D01*
X115133523Y-67701714D02*
X115133523Y-68368380D01*
X115371619Y-67320761D02*
X115609714Y-68035047D01*
X114990666Y-68035047D01*
X124912380Y-64889142D02*
X124436190Y-64555809D01*
X124912380Y-64317714D02*
X123912380Y-64317714D01*
X123912380Y-64698666D01*
X123960000Y-64793904D01*
X124007619Y-64841523D01*
X124102857Y-64889142D01*
X124245714Y-64889142D01*
X124340952Y-64841523D01*
X124388571Y-64793904D01*
X124436190Y-64698666D01*
X124436190Y-64317714D01*
X124007619Y-65270095D02*
X123960000Y-65317714D01*
X123912380Y-65412952D01*
X123912380Y-65651047D01*
X123960000Y-65746285D01*
X124007619Y-65793904D01*
X124102857Y-65841523D01*
X124198095Y-65841523D01*
X124340952Y-65793904D01*
X124912380Y-65222476D01*
X124912380Y-65841523D01*
X124007619Y-66222476D02*
X123960000Y-66270095D01*
X123912380Y-66365333D01*
X123912380Y-66603428D01*
X123960000Y-66698666D01*
X124007619Y-66746285D01*
X124102857Y-66793904D01*
X124198095Y-66793904D01*
X124340952Y-66746285D01*
X124912380Y-66174857D01*
X124912380Y-66793904D01*
X123293142Y-65873333D02*
X123340761Y-65825714D01*
X123388380Y-65682857D01*
X123388380Y-65587619D01*
X123340761Y-65444761D01*
X123245523Y-65349523D01*
X123150285Y-65301904D01*
X122959809Y-65254285D01*
X122816952Y-65254285D01*
X122626476Y-65301904D01*
X122531238Y-65349523D01*
X122436000Y-65444761D01*
X122388380Y-65587619D01*
X122388380Y-65682857D01*
X122436000Y-65825714D01*
X122483619Y-65873333D01*
X122483619Y-66254285D02*
X122436000Y-66301904D01*
X122388380Y-66397142D01*
X122388380Y-66635238D01*
X122436000Y-66730476D01*
X122483619Y-66778095D01*
X122578857Y-66825714D01*
X122674095Y-66825714D01*
X122816952Y-66778095D01*
X123388380Y-66206666D01*
X123388380Y-66825714D01*
X124594857Y-63444380D02*
X124928190Y-62968190D01*
X125166285Y-63444380D02*
X125166285Y-62444380D01*
X124785333Y-62444380D01*
X124690095Y-62492000D01*
X124642476Y-62539619D01*
X124594857Y-62634857D01*
X124594857Y-62777714D01*
X124642476Y-62872952D01*
X124690095Y-62920571D01*
X124785333Y-62968190D01*
X125166285Y-62968190D01*
X124213904Y-62539619D02*
X124166285Y-62492000D01*
X124071047Y-62444380D01*
X123832952Y-62444380D01*
X123737714Y-62492000D01*
X123690095Y-62539619D01*
X123642476Y-62634857D01*
X123642476Y-62730095D01*
X123690095Y-62872952D01*
X124261523Y-63444380D01*
X123642476Y-63444380D01*
X123309142Y-62444380D02*
X122642476Y-62444380D01*
X123071047Y-63444380D01*
X120753142Y-53205142D02*
X120800761Y-53157523D01*
X120848380Y-53014666D01*
X120848380Y-52919428D01*
X120800761Y-52776571D01*
X120705523Y-52681333D01*
X120610285Y-52633714D01*
X120419809Y-52586095D01*
X120276952Y-52586095D01*
X120086476Y-52633714D01*
X119991238Y-52681333D01*
X119896000Y-52776571D01*
X119848380Y-52919428D01*
X119848380Y-53014666D01*
X119896000Y-53157523D01*
X119943619Y-53205142D01*
X119943619Y-53586095D02*
X119896000Y-53633714D01*
X119848380Y-53728952D01*
X119848380Y-53967047D01*
X119896000Y-54062285D01*
X119943619Y-54109904D01*
X120038857Y-54157523D01*
X120134095Y-54157523D01*
X120276952Y-54109904D01*
X120848380Y-53538476D01*
X120848380Y-54157523D01*
X120848380Y-55109904D02*
X120848380Y-54538476D01*
X120848380Y-54824190D02*
X119848380Y-54824190D01*
X119991238Y-54728952D01*
X120086476Y-54633714D01*
X120134095Y-54538476D01*
X127642857Y-87225142D02*
X127690476Y-87272761D01*
X127833333Y-87320380D01*
X127928571Y-87320380D01*
X128071428Y-87272761D01*
X128166666Y-87177523D01*
X128214285Y-87082285D01*
X128261904Y-86891809D01*
X128261904Y-86748952D01*
X128214285Y-86558476D01*
X128166666Y-86463238D01*
X128071428Y-86368000D01*
X127928571Y-86320380D01*
X127833333Y-86320380D01*
X127690476Y-86368000D01*
X127642857Y-86415619D01*
X126690476Y-87320380D02*
X127261904Y-87320380D01*
X126976190Y-87320380D02*
X126976190Y-86320380D01*
X127071428Y-86463238D01*
X127166666Y-86558476D01*
X127261904Y-86606095D01*
X125785714Y-86320380D02*
X126261904Y-86320380D01*
X126309523Y-86796571D01*
X126261904Y-86748952D01*
X126166666Y-86701333D01*
X125928571Y-86701333D01*
X125833333Y-86748952D01*
X125785714Y-86796571D01*
X125738095Y-86891809D01*
X125738095Y-87129904D01*
X125785714Y-87225142D01*
X125833333Y-87272761D01*
X125928571Y-87320380D01*
X126166666Y-87320380D01*
X126261904Y-87272761D01*
X126309523Y-87225142D01*
X123896380Y-53205142D02*
X123420190Y-52871809D01*
X123896380Y-52633714D02*
X122896380Y-52633714D01*
X122896380Y-53014666D01*
X122944000Y-53109904D01*
X122991619Y-53157523D01*
X123086857Y-53205142D01*
X123229714Y-53205142D01*
X123324952Y-53157523D01*
X123372571Y-53109904D01*
X123420190Y-53014666D01*
X123420190Y-52633714D01*
X122991619Y-53586095D02*
X122944000Y-53633714D01*
X122896380Y-53728952D01*
X122896380Y-53967047D01*
X122944000Y-54062285D01*
X122991619Y-54109904D01*
X123086857Y-54157523D01*
X123182095Y-54157523D01*
X123324952Y-54109904D01*
X123896380Y-53538476D01*
X123896380Y-54157523D01*
X123324952Y-54728952D02*
X123277333Y-54633714D01*
X123229714Y-54586095D01*
X123134476Y-54538476D01*
X123086857Y-54538476D01*
X122991619Y-54586095D01*
X122944000Y-54633714D01*
X122896380Y-54728952D01*
X122896380Y-54919428D01*
X122944000Y-55014666D01*
X122991619Y-55062285D01*
X123086857Y-55109904D01*
X123134476Y-55109904D01*
X123229714Y-55062285D01*
X123277333Y-55014666D01*
X123324952Y-54919428D01*
X123324952Y-54728952D01*
X123372571Y-54633714D01*
X123420190Y-54586095D01*
X123515428Y-54538476D01*
X123705904Y-54538476D01*
X123801142Y-54586095D01*
X123848761Y-54633714D01*
X123896380Y-54728952D01*
X123896380Y-54919428D01*
X123848761Y-55014666D01*
X123801142Y-55062285D01*
X123705904Y-55109904D01*
X123515428Y-55109904D01*
X123420190Y-55062285D01*
X123372571Y-55014666D01*
X123324952Y-54919428D01*
X103592380Y-57070666D02*
X104306666Y-57070666D01*
X104449523Y-57023047D01*
X104544761Y-56927809D01*
X104592380Y-56784952D01*
X104592380Y-56689714D01*
X103592380Y-57451619D02*
X103592380Y-58118285D01*
X104592380Y-57689714D01*
X107194285Y-74525142D02*
X107232380Y-74572761D01*
X107346666Y-74620380D01*
X107422857Y-74620380D01*
X107537142Y-74572761D01*
X107613333Y-74477523D01*
X107651428Y-74382285D01*
X107689523Y-74191809D01*
X107689523Y-74048952D01*
X107651428Y-73858476D01*
X107613333Y-73763238D01*
X107537142Y-73668000D01*
X107422857Y-73620380D01*
X107346666Y-73620380D01*
X107232380Y-73668000D01*
X107194285Y-73715619D01*
X106432380Y-74620380D02*
X106889523Y-74620380D01*
X106660952Y-74620380D02*
X106660952Y-73620380D01*
X106737142Y-73763238D01*
X106813333Y-73858476D01*
X106889523Y-73906095D01*
X105670476Y-74620380D02*
X106127619Y-74620380D01*
X105899047Y-74620380D02*
X105899047Y-73620380D01*
X105975238Y-73763238D01*
X106051428Y-73858476D01*
X106127619Y-73906095D01*
X121864380Y-65873333D02*
X121388190Y-65540000D01*
X121864380Y-65301904D02*
X120864380Y-65301904D01*
X120864380Y-65682857D01*
X120912000Y-65778095D01*
X120959619Y-65825714D01*
X121054857Y-65873333D01*
X121197714Y-65873333D01*
X121292952Y-65825714D01*
X121340571Y-65778095D01*
X121388190Y-65682857D01*
X121388190Y-65301904D01*
X120864380Y-66206666D02*
X120864380Y-66825714D01*
X121245333Y-66492380D01*
X121245333Y-66635238D01*
X121292952Y-66730476D01*
X121340571Y-66778095D01*
X121435809Y-66825714D01*
X121673904Y-66825714D01*
X121769142Y-66778095D01*
X121816761Y-66730476D01*
X121864380Y-66635238D01*
X121864380Y-66349523D01*
X121816761Y-66254285D01*
X121769142Y-66206666D01*
X107194285Y-69953142D02*
X107232380Y-70000761D01*
X107346666Y-70048380D01*
X107422857Y-70048380D01*
X107537142Y-70000761D01*
X107613333Y-69905523D01*
X107651428Y-69810285D01*
X107689523Y-69619809D01*
X107689523Y-69476952D01*
X107651428Y-69286476D01*
X107613333Y-69191238D01*
X107537142Y-69096000D01*
X107422857Y-69048380D01*
X107346666Y-69048380D01*
X107232380Y-69096000D01*
X107194285Y-69143619D01*
X106432380Y-70048380D02*
X106889523Y-70048380D01*
X106660952Y-70048380D02*
X106660952Y-69048380D01*
X106737142Y-69191238D01*
X106813333Y-69286476D01*
X106889523Y-69334095D01*
X105937142Y-69048380D02*
X105860952Y-69048380D01*
X105784761Y-69096000D01*
X105746666Y-69143619D01*
X105708571Y-69238857D01*
X105670476Y-69429333D01*
X105670476Y-69667428D01*
X105708571Y-69857904D01*
X105746666Y-69953142D01*
X105784761Y-70000761D01*
X105860952Y-70048380D01*
X105937142Y-70048380D01*
X106013333Y-70000761D01*
X106051428Y-69953142D01*
X106089523Y-69857904D01*
X106127619Y-69667428D01*
X106127619Y-69429333D01*
X106089523Y-69238857D01*
X106051428Y-69143619D01*
X106013333Y-69096000D01*
X105937142Y-69048380D01*
X138779238Y-86399619D02*
X138874476Y-86352000D01*
X138969714Y-86256761D01*
X139112571Y-86113904D01*
X139207809Y-86066285D01*
X139303047Y-86066285D01*
X139255428Y-86304380D02*
X139350666Y-86256761D01*
X139445904Y-86161523D01*
X139493523Y-85971047D01*
X139493523Y-85637714D01*
X139445904Y-85447238D01*
X139350666Y-85352000D01*
X139255428Y-85304380D01*
X139064952Y-85304380D01*
X138969714Y-85352000D01*
X138874476Y-85447238D01*
X138826857Y-85637714D01*
X138826857Y-85971047D01*
X138874476Y-86161523D01*
X138969714Y-86256761D01*
X139064952Y-86304380D01*
X139255428Y-86304380D01*
X137874476Y-86304380D02*
X138445904Y-86304380D01*
X138160190Y-86304380D02*
X138160190Y-85304380D01*
X138255428Y-85447238D01*
X138350666Y-85542476D01*
X138445904Y-85590095D01*
X117292380Y-92289333D02*
X116816190Y-91956000D01*
X117292380Y-91717904D02*
X116292380Y-91717904D01*
X116292380Y-92098857D01*
X116340000Y-92194095D01*
X116387619Y-92241714D01*
X116482857Y-92289333D01*
X116625714Y-92289333D01*
X116720952Y-92241714D01*
X116768571Y-92194095D01*
X116816190Y-92098857D01*
X116816190Y-91717904D01*
X116292380Y-92622666D02*
X116292380Y-93289333D01*
X117292380Y-92860761D01*
X115990666Y-87225142D02*
X116038285Y-87272761D01*
X116181142Y-87320380D01*
X116276380Y-87320380D01*
X116419238Y-87272761D01*
X116514476Y-87177523D01*
X116562095Y-87082285D01*
X116609714Y-86891809D01*
X116609714Y-86748952D01*
X116562095Y-86558476D01*
X116514476Y-86463238D01*
X116419238Y-86368000D01*
X116276380Y-86320380D01*
X116181142Y-86320380D01*
X116038285Y-86368000D01*
X115990666Y-86415619D01*
X115419238Y-86748952D02*
X115514476Y-86701333D01*
X115562095Y-86653714D01*
X115609714Y-86558476D01*
X115609714Y-86510857D01*
X115562095Y-86415619D01*
X115514476Y-86368000D01*
X115419238Y-86320380D01*
X115228761Y-86320380D01*
X115133523Y-86368000D01*
X115085904Y-86415619D01*
X115038285Y-86510857D01*
X115038285Y-86558476D01*
X115085904Y-86653714D01*
X115133523Y-86701333D01*
X115228761Y-86748952D01*
X115419238Y-86748952D01*
X115514476Y-86796571D01*
X115562095Y-86844190D01*
X115609714Y-86939428D01*
X115609714Y-87129904D01*
X115562095Y-87225142D01*
X115514476Y-87272761D01*
X115419238Y-87320380D01*
X115228761Y-87320380D01*
X115133523Y-87272761D01*
X115085904Y-87225142D01*
X115038285Y-87129904D01*
X115038285Y-86939428D01*
X115085904Y-86844190D01*
X115133523Y-86796571D01*
X115228761Y-86748952D01*
X131706857Y-87225142D02*
X131754476Y-87272761D01*
X131897333Y-87320380D01*
X131992571Y-87320380D01*
X132135428Y-87272761D01*
X132230666Y-87177523D01*
X132278285Y-87082285D01*
X132325904Y-86891809D01*
X132325904Y-86748952D01*
X132278285Y-86558476D01*
X132230666Y-86463238D01*
X132135428Y-86368000D01*
X131992571Y-86320380D01*
X131897333Y-86320380D01*
X131754476Y-86368000D01*
X131706857Y-86415619D01*
X130754476Y-87320380D02*
X131325904Y-87320380D01*
X131040190Y-87320380D02*
X131040190Y-86320380D01*
X131135428Y-86463238D01*
X131230666Y-86558476D01*
X131325904Y-86606095D01*
X129897333Y-86320380D02*
X130087809Y-86320380D01*
X130183047Y-86368000D01*
X130230666Y-86415619D01*
X130325904Y-86558476D01*
X130373523Y-86748952D01*
X130373523Y-87129904D01*
X130325904Y-87225142D01*
X130278285Y-87272761D01*
X130183047Y-87320380D01*
X129992571Y-87320380D01*
X129897333Y-87272761D01*
X129849714Y-87225142D01*
X129802095Y-87129904D01*
X129802095Y-86891809D01*
X129849714Y-86796571D01*
X129897333Y-86748952D01*
X129992571Y-86701333D01*
X130183047Y-86701333D01*
X130278285Y-86748952D01*
X130325904Y-86796571D01*
X130373523Y-86891809D01*
X153003238Y-86399619D02*
X153098476Y-86352000D01*
X153193714Y-86256761D01*
X153336571Y-86113904D01*
X153431809Y-86066285D01*
X153527047Y-86066285D01*
X153479428Y-86304380D02*
X153574666Y-86256761D01*
X153669904Y-86161523D01*
X153717523Y-85971047D01*
X153717523Y-85637714D01*
X153669904Y-85447238D01*
X153574666Y-85352000D01*
X153479428Y-85304380D01*
X153288952Y-85304380D01*
X153193714Y-85352000D01*
X153098476Y-85447238D01*
X153050857Y-85637714D01*
X153050857Y-85971047D01*
X153098476Y-86161523D01*
X153193714Y-86256761D01*
X153288952Y-86304380D01*
X153479428Y-86304380D01*
X152193714Y-85637714D02*
X152193714Y-86304380D01*
X152431809Y-85256761D02*
X152669904Y-85971047D01*
X152050857Y-85971047D01*
X122785142Y-82637333D02*
X122832761Y-82589714D01*
X122880380Y-82446857D01*
X122880380Y-82351619D01*
X122832761Y-82208761D01*
X122737523Y-82113523D01*
X122642285Y-82065904D01*
X122451809Y-82018285D01*
X122308952Y-82018285D01*
X122118476Y-82065904D01*
X122023238Y-82113523D01*
X121928000Y-82208761D01*
X121880380Y-82351619D01*
X121880380Y-82446857D01*
X121928000Y-82589714D01*
X121975619Y-82637333D01*
X121880380Y-82970666D02*
X121880380Y-83589714D01*
X122261333Y-83256380D01*
X122261333Y-83399238D01*
X122308952Y-83494476D01*
X122356571Y-83542095D01*
X122451809Y-83589714D01*
X122689904Y-83589714D01*
X122785142Y-83542095D01*
X122832761Y-83494476D01*
X122880380Y-83399238D01*
X122880380Y-83113523D01*
X122832761Y-83018285D01*
X122785142Y-82970666D01*
X130278095Y-59888380D02*
X130278095Y-58888380D01*
X130040000Y-58888380D01*
X129897142Y-58936000D01*
X129801904Y-59031238D01*
X129754285Y-59126476D01*
X129706666Y-59316952D01*
X129706666Y-59459809D01*
X129754285Y-59650285D01*
X129801904Y-59745523D01*
X129897142Y-59840761D01*
X130040000Y-59888380D01*
X130278095Y-59888380D01*
X128754285Y-59888380D02*
X129325714Y-59888380D01*
X129040000Y-59888380D02*
X129040000Y-58888380D01*
X129135238Y-59031238D01*
X129230476Y-59126476D01*
X129325714Y-59174095D01*
X133086184Y-74525142D02*
X133133803Y-74572761D01*
X133276660Y-74620380D01*
X133371898Y-74620380D01*
X133514755Y-74572761D01*
X133609993Y-74477523D01*
X133657612Y-74382285D01*
X133705231Y-74191809D01*
X133705231Y-74048952D01*
X133657612Y-73858476D01*
X133609993Y-73763238D01*
X133514755Y-73668000D01*
X133371898Y-73620380D01*
X133276660Y-73620380D01*
X133133803Y-73668000D01*
X133086184Y-73715619D01*
X132705231Y-73715619D02*
X132657612Y-73668000D01*
X132562374Y-73620380D01*
X132324279Y-73620380D01*
X132229041Y-73668000D01*
X132181422Y-73715619D01*
X132133803Y-73810857D01*
X132133803Y-73906095D01*
X132181422Y-74048952D01*
X132752850Y-74620380D01*
X132133803Y-74620380D01*
X131276660Y-73953714D02*
X131276660Y-74620380D01*
X131514755Y-73572761D02*
X131752850Y-74287047D01*
X131133803Y-74287047D01*
X120848380Y-62857142D02*
X120372190Y-62523809D01*
X120848380Y-62285714D02*
X119848380Y-62285714D01*
X119848380Y-62666666D01*
X119896000Y-62761904D01*
X119943619Y-62809523D01*
X120038857Y-62857142D01*
X120181714Y-62857142D01*
X120276952Y-62809523D01*
X120324571Y-62761904D01*
X120372190Y-62666666D01*
X120372190Y-62285714D01*
X119943619Y-63238095D02*
X119896000Y-63285714D01*
X119848380Y-63380952D01*
X119848380Y-63619047D01*
X119896000Y-63714285D01*
X119943619Y-63761904D01*
X120038857Y-63809523D01*
X120134095Y-63809523D01*
X120276952Y-63761904D01*
X120848380Y-63190476D01*
X120848380Y-63809523D01*
X120181714Y-64666666D02*
X120848380Y-64666666D01*
X119800761Y-64428571D02*
X120515047Y-64190476D01*
X120515047Y-64809523D01*
X115990666Y-82145142D02*
X116038285Y-82192761D01*
X116181142Y-82240380D01*
X116276380Y-82240380D01*
X116419238Y-82192761D01*
X116514476Y-82097523D01*
X116562095Y-82002285D01*
X116609714Y-81811809D01*
X116609714Y-81668952D01*
X116562095Y-81478476D01*
X116514476Y-81383238D01*
X116419238Y-81288000D01*
X116276380Y-81240380D01*
X116181142Y-81240380D01*
X116038285Y-81288000D01*
X115990666Y-81335619D01*
X115657333Y-81240380D02*
X114990666Y-81240380D01*
X115419238Y-82240380D01*
X107194285Y-80621142D02*
X107232380Y-80668761D01*
X107346666Y-80716380D01*
X107422857Y-80716380D01*
X107537142Y-80668761D01*
X107613333Y-80573523D01*
X107651428Y-80478285D01*
X107689523Y-80287809D01*
X107689523Y-80144952D01*
X107651428Y-79954476D01*
X107613333Y-79859238D01*
X107537142Y-79764000D01*
X107422857Y-79716380D01*
X107346666Y-79716380D01*
X107232380Y-79764000D01*
X107194285Y-79811619D01*
X106432380Y-80716380D02*
X106889523Y-80716380D01*
X106660952Y-80716380D02*
X106660952Y-79716380D01*
X106737142Y-79859238D01*
X106813333Y-79954476D01*
X106889523Y-80002095D01*
X106165714Y-79716380D02*
X105670476Y-79716380D01*
X105937142Y-80097333D01*
X105822857Y-80097333D01*
X105746666Y-80144952D01*
X105708571Y-80192571D01*
X105670476Y-80287809D01*
X105670476Y-80525904D01*
X105708571Y-80621142D01*
X105746666Y-80668761D01*
X105822857Y-80716380D01*
X106051428Y-80716380D01*
X106127619Y-80668761D01*
X106165714Y-80621142D01*
X114395238Y-59983619D02*
X114490476Y-59936000D01*
X114585714Y-59840761D01*
X114728571Y-59697904D01*
X114823809Y-59650285D01*
X114919047Y-59650285D01*
X114871428Y-59888380D02*
X114966666Y-59840761D01*
X115061904Y-59745523D01*
X115109523Y-59555047D01*
X115109523Y-59221714D01*
X115061904Y-59031238D01*
X114966666Y-58936000D01*
X114871428Y-58888380D01*
X114680952Y-58888380D01*
X114585714Y-58936000D01*
X114490476Y-59031238D01*
X114442857Y-59221714D01*
X114442857Y-59555047D01*
X114490476Y-59745523D01*
X114585714Y-59840761D01*
X114680952Y-59888380D01*
X114871428Y-59888380D01*
X114109523Y-58888380D02*
X113442857Y-58888380D01*
X113871428Y-59888380D01*
X118816380Y-65873333D02*
X118340190Y-65540000D01*
X118816380Y-65301904D02*
X117816380Y-65301904D01*
X117816380Y-65682857D01*
X117864000Y-65778095D01*
X117911619Y-65825714D01*
X118006857Y-65873333D01*
X118149714Y-65873333D01*
X118244952Y-65825714D01*
X118292571Y-65778095D01*
X118340190Y-65682857D01*
X118340190Y-65301904D01*
X117816380Y-66778095D02*
X117816380Y-66301904D01*
X118292571Y-66254285D01*
X118244952Y-66301904D01*
X118197333Y-66397142D01*
X118197333Y-66635238D01*
X118244952Y-66730476D01*
X118292571Y-66778095D01*
X118387809Y-66825714D01*
X118625904Y-66825714D01*
X118721142Y-66778095D01*
X118768761Y-66730476D01*
X118816380Y-66635238D01*
X118816380Y-66397142D01*
X118768761Y-66301904D01*
X118721142Y-66254285D01*
X141073142Y-73525142D02*
X141120761Y-73477523D01*
X141168380Y-73334666D01*
X141168380Y-73239428D01*
X141120761Y-73096571D01*
X141025523Y-73001333D01*
X140930285Y-72953714D01*
X140739809Y-72906095D01*
X140596952Y-72906095D01*
X140406476Y-72953714D01*
X140311238Y-73001333D01*
X140216000Y-73096571D01*
X140168380Y-73239428D01*
X140168380Y-73334666D01*
X140216000Y-73477523D01*
X140263619Y-73525142D01*
X140263619Y-73906095D02*
X140216000Y-73953714D01*
X140168380Y-74048952D01*
X140168380Y-74287047D01*
X140216000Y-74382285D01*
X140263619Y-74429904D01*
X140358857Y-74477523D01*
X140454095Y-74477523D01*
X140596952Y-74429904D01*
X141168380Y-73858476D01*
X141168380Y-74477523D01*
X140168380Y-75334666D02*
X140168380Y-75144190D01*
X140216000Y-75048952D01*
X140263619Y-75001333D01*
X140406476Y-74906095D01*
X140596952Y-74858476D01*
X140977904Y-74858476D01*
X141073142Y-74906095D01*
X141120761Y-74953714D01*
X141168380Y-75048952D01*
X141168380Y-75239428D01*
X141120761Y-75334666D01*
X141073142Y-75382285D01*
X140977904Y-75429904D01*
X140739809Y-75429904D01*
X140644571Y-75382285D01*
X140596952Y-75334666D01*
X140549333Y-75239428D01*
X140549333Y-75048952D01*
X140596952Y-74953714D01*
X140644571Y-74906095D01*
X140739809Y-74858476D01*
X117990857Y-53284380D02*
X118324190Y-52808190D01*
X118562285Y-53284380D02*
X118562285Y-52284380D01*
X118181333Y-52284380D01*
X118086095Y-52332000D01*
X118038476Y-52379619D01*
X117990857Y-52474857D01*
X117990857Y-52617714D01*
X118038476Y-52712952D01*
X118086095Y-52760571D01*
X118181333Y-52808190D01*
X118562285Y-52808190D01*
X117609904Y-52379619D02*
X117562285Y-52332000D01*
X117467047Y-52284380D01*
X117228952Y-52284380D01*
X117133714Y-52332000D01*
X117086095Y-52379619D01*
X117038476Y-52474857D01*
X117038476Y-52570095D01*
X117086095Y-52712952D01*
X117657523Y-53284380D01*
X117038476Y-53284380D01*
X116562285Y-53284380D02*
X116371809Y-53284380D01*
X116276571Y-53236761D01*
X116228952Y-53189142D01*
X116133714Y-53046285D01*
X116086095Y-52855809D01*
X116086095Y-52474857D01*
X116133714Y-52379619D01*
X116181333Y-52332000D01*
X116276571Y-52284380D01*
X116467047Y-52284380D01*
X116562285Y-52332000D01*
X116609904Y-52379619D01*
X116657523Y-52474857D01*
X116657523Y-52712952D01*
X116609904Y-52808190D01*
X116562285Y-52855809D01*
X116467047Y-52903428D01*
X116276571Y-52903428D01*
X116181333Y-52855809D01*
X116133714Y-52808190D01*
X116086095Y-52712952D01*
X124404380Y-82669142D02*
X123928190Y-82335809D01*
X124404380Y-82097714D02*
X123404380Y-82097714D01*
X123404380Y-82478666D01*
X123452000Y-82573904D01*
X123499619Y-82621523D01*
X123594857Y-82669142D01*
X123737714Y-82669142D01*
X123832952Y-82621523D01*
X123880571Y-82573904D01*
X123928190Y-82478666D01*
X123928190Y-82097714D01*
X123499619Y-83050095D02*
X123452000Y-83097714D01*
X123404380Y-83192952D01*
X123404380Y-83431047D01*
X123452000Y-83526285D01*
X123499619Y-83573904D01*
X123594857Y-83621523D01*
X123690095Y-83621523D01*
X123832952Y-83573904D01*
X124404380Y-83002476D01*
X124404380Y-83621523D01*
X123404380Y-83954857D02*
X123404380Y-84573904D01*
X123785333Y-84240571D01*
X123785333Y-84383428D01*
X123832952Y-84478666D01*
X123880571Y-84526285D01*
X123975809Y-84573904D01*
X124213904Y-84573904D01*
X124309142Y-84526285D01*
X124356761Y-84478666D01*
X124404380Y-84383428D01*
X124404380Y-84097714D01*
X124356761Y-84002476D01*
X124309142Y-83954857D01*
X125833142Y-82669142D02*
X125880761Y-82621523D01*
X125928380Y-82478666D01*
X125928380Y-82383428D01*
X125880761Y-82240571D01*
X125785523Y-82145333D01*
X125690285Y-82097714D01*
X125499809Y-82050095D01*
X125356952Y-82050095D01*
X125166476Y-82097714D01*
X125071238Y-82145333D01*
X124976000Y-82240571D01*
X124928380Y-82383428D01*
X124928380Y-82478666D01*
X124976000Y-82621523D01*
X125023619Y-82669142D01*
X125023619Y-83050095D02*
X124976000Y-83097714D01*
X124928380Y-83192952D01*
X124928380Y-83431047D01*
X124976000Y-83526285D01*
X125023619Y-83573904D01*
X125118857Y-83621523D01*
X125214095Y-83621523D01*
X125356952Y-83573904D01*
X125928380Y-83002476D01*
X125928380Y-83621523D01*
X125356952Y-84192952D02*
X125309333Y-84097714D01*
X125261714Y-84050095D01*
X125166476Y-84002476D01*
X125118857Y-84002476D01*
X125023619Y-84050095D01*
X124976000Y-84097714D01*
X124928380Y-84192952D01*
X124928380Y-84383428D01*
X124976000Y-84478666D01*
X125023619Y-84526285D01*
X125118857Y-84573904D01*
X125166476Y-84573904D01*
X125261714Y-84526285D01*
X125309333Y-84478666D01*
X125356952Y-84383428D01*
X125356952Y-84192952D01*
X125404571Y-84097714D01*
X125452190Y-84050095D01*
X125547428Y-84002476D01*
X125737904Y-84002476D01*
X125833142Y-84050095D01*
X125880761Y-84097714D01*
X125928380Y-84192952D01*
X125928380Y-84383428D01*
X125880761Y-84478666D01*
X125833142Y-84526285D01*
X125737904Y-84573904D01*
X125547428Y-84573904D01*
X125452190Y-84526285D01*
X125404571Y-84478666D01*
X125356952Y-84383428D01*
X112720380Y-57237333D02*
X112244190Y-56904000D01*
X112720380Y-56665904D02*
X111720380Y-56665904D01*
X111720380Y-57046857D01*
X111768000Y-57142095D01*
X111815619Y-57189714D01*
X111910857Y-57237333D01*
X112053714Y-57237333D01*
X112148952Y-57189714D01*
X112196571Y-57142095D01*
X112244190Y-57046857D01*
X112244190Y-56665904D01*
X112720380Y-58189714D02*
X112720380Y-57618285D01*
X112720380Y-57904000D02*
X111720380Y-57904000D01*
X111863238Y-57808761D01*
X111958476Y-57713523D01*
X112006095Y-57618285D01*
X107346666Y-77144571D02*
X107613333Y-77144571D01*
X107613333Y-77668380D02*
X107613333Y-76668380D01*
X107232380Y-76668380D01*
X106660952Y-77144571D02*
X106546666Y-77192190D01*
X106508571Y-77239809D01*
X106470476Y-77335047D01*
X106470476Y-77477904D01*
X106508571Y-77573142D01*
X106546666Y-77620761D01*
X106622857Y-77668380D01*
X106927619Y-77668380D01*
X106927619Y-76668380D01*
X106660952Y-76668380D01*
X106584761Y-76716000D01*
X106546666Y-76763619D01*
X106508571Y-76858857D01*
X106508571Y-76954095D01*
X106546666Y-77049333D01*
X106584761Y-77096952D01*
X106660952Y-77144571D01*
X106927619Y-77144571D01*
X106203809Y-76668380D02*
X105708571Y-76668380D01*
X105975238Y-77049333D01*
X105860952Y-77049333D01*
X105784761Y-77096952D01*
X105746666Y-77144571D01*
X105708571Y-77239809D01*
X105708571Y-77477904D01*
X105746666Y-77573142D01*
X105784761Y-77620761D01*
X105860952Y-77668380D01*
X106089523Y-77668380D01*
X106165714Y-77620761D01*
X106203809Y-77573142D01*
X121356380Y-82637333D02*
X120880190Y-82304000D01*
X121356380Y-82065904D02*
X120356380Y-82065904D01*
X120356380Y-82446857D01*
X120404000Y-82542095D01*
X120451619Y-82589714D01*
X120546857Y-82637333D01*
X120689714Y-82637333D01*
X120784952Y-82589714D01*
X120832571Y-82542095D01*
X120880190Y-82446857D01*
X120880190Y-82065904D01*
X120689714Y-83494476D02*
X121356380Y-83494476D01*
X120308761Y-83256380D02*
X121023047Y-83018285D01*
X121023047Y-83637333D01*
D11*
X109640000Y-50100000D02*
X157960000Y-50100000D01*
X109640000Y-47500000D02*
X109640000Y-50100000D01*
X107040000Y-44900000D02*
X157960000Y-44900000D01*
X157960000Y-44900000D02*
X157960000Y-50100000D01*
X107040000Y-48770000D02*
X107040000Y-50100000D01*
X107040000Y-44900000D02*
X107040000Y-47500000D01*
X107040000Y-50100000D02*
X108370000Y-50100000D01*
X107040000Y-47500000D02*
X109640000Y-47500000D01*
X124970000Y-71995420D02*
X124970000Y-72276580D01*
X123950000Y-71995420D02*
X123950000Y-72276580D01*
X121397500Y-56658742D02*
X121397500Y-57133258D01*
X122442500Y-56658742D02*
X122442500Y-57133258D01*
X126494000Y-68439420D02*
X126494000Y-68720580D01*
X125474000Y-68439420D02*
X125474000Y-68720580D01*
X131078500Y-92218742D02*
X131078500Y-92693258D01*
X130033500Y-92218742D02*
X130033500Y-92693258D01*
X140172000Y-88392000D02*
X140172000Y-86717000D01*
X143292000Y-88392000D02*
X143292000Y-89042000D01*
X143292000Y-88392000D02*
X143292000Y-87742000D01*
X140172000Y-88392000D02*
X140172000Y-89042000D01*
X146304000Y-55458000D02*
X148504000Y-55458000D01*
X146304000Y-52238000D02*
X149904000Y-52238000D01*
X146304000Y-55458000D02*
X144104000Y-55458000D01*
X146304000Y-52238000D02*
X144104000Y-52238000D01*
X109587420Y-75182000D02*
X109868580Y-75182000D01*
X109587420Y-76202000D02*
X109868580Y-76202000D01*
X120398000Y-68439420D02*
X120398000Y-68720580D01*
X119378000Y-68439420D02*
X119378000Y-68720580D01*
X109965258Y-78217500D02*
X109490742Y-78217500D01*
X109965258Y-79262500D02*
X109490742Y-79262500D01*
X110221500Y-60722742D02*
X110221500Y-61197258D01*
X111266500Y-60722742D02*
X111266500Y-61197258D01*
X110221500Y-54085258D02*
X110221500Y-53610742D01*
X111266500Y-54085258D02*
X111266500Y-53610742D01*
X128751000Y-68841252D02*
X128751000Y-68318748D01*
X127281000Y-68841252D02*
X127281000Y-68318748D01*
X154396000Y-88392000D02*
X154396000Y-86717000D01*
X157516000Y-88392000D02*
X157516000Y-89042000D01*
X154396000Y-88392000D02*
X154396000Y-89042000D01*
X157516000Y-88392000D02*
X157516000Y-87742000D01*
X152893500Y-92218742D02*
X152893500Y-92693258D01*
X153938500Y-92218742D02*
X153938500Y-92693258D01*
X129554500Y-92693258D02*
X129554500Y-92218742D01*
X128509500Y-92693258D02*
X128509500Y-92218742D01*
X109965258Y-73166500D02*
X109490742Y-73166500D01*
X109965258Y-72121500D02*
X109490742Y-72121500D01*
X146318500Y-92218742D02*
X146318500Y-92693258D01*
X145273500Y-92218742D02*
X145273500Y-92693258D01*
X132602500Y-92693258D02*
X132602500Y-92218742D01*
X131557500Y-92693258D02*
X131557500Y-92218742D01*
X133091907Y-75013000D02*
X135291907Y-75013000D01*
X133091907Y-75013000D02*
X129491907Y-75013000D01*
X133091907Y-68243000D02*
X135291907Y-68243000D01*
X133091907Y-68243000D02*
X130891907Y-68243000D01*
X136137907Y-79388580D02*
X136137907Y-79107420D01*
X137157907Y-79388580D02*
X137157907Y-79107420D01*
X150404000Y-88392000D02*
X150404000Y-89042000D01*
X147284000Y-88392000D02*
X147284000Y-86717000D01*
X147284000Y-88392000D02*
X147284000Y-89042000D01*
X150404000Y-88392000D02*
X150404000Y-87742000D01*
X143728000Y-88392000D02*
X143728000Y-89042000D01*
X143728000Y-88392000D02*
X143728000Y-86717000D01*
X146848000Y-88392000D02*
X146848000Y-89042000D01*
X146848000Y-88392000D02*
X146848000Y-87742000D01*
X135878655Y-76935000D02*
X136401159Y-76935000D01*
X135878655Y-75465000D02*
X136401159Y-75465000D01*
X122916000Y-74676000D02*
X122916000Y-72726000D01*
X112796000Y-74676000D02*
X112796000Y-76626000D01*
X112796000Y-74676000D02*
X112796000Y-71176000D01*
X122916000Y-74676000D02*
X122916000Y-76626000D01*
X129289159Y-76935000D02*
X128766655Y-76935000D01*
X129289159Y-75465000D02*
X128766655Y-75465000D01*
X120410500Y-92693258D02*
X120410500Y-92218742D01*
X119365500Y-92693258D02*
X119365500Y-92218742D01*
X124600580Y-87882000D02*
X124319420Y-87882000D01*
X124600580Y-88902000D02*
X124319420Y-88902000D01*
X133599907Y-77688000D02*
X132799907Y-77688000D01*
X133599907Y-80808000D02*
X132799907Y-80808000D01*
X133599907Y-77688000D02*
X135399907Y-77688000D01*
X133599907Y-80808000D02*
X134399907Y-80808000D01*
X121044580Y-87882000D02*
X120763420Y-87882000D01*
X121044580Y-88902000D02*
X120763420Y-88902000D01*
X130041907Y-79388580D02*
X130041907Y-79107420D01*
X131061907Y-79388580D02*
X131061907Y-79107420D01*
X109965258Y-71642500D02*
X109490742Y-71642500D01*
X109965258Y-70597500D02*
X109490742Y-70597500D01*
X127501907Y-73011420D02*
X127501907Y-73292580D01*
X128521907Y-73011420D02*
X128521907Y-73292580D01*
X124982500Y-92218742D02*
X124982500Y-92693258D01*
X123937500Y-92218742D02*
X123937500Y-92693258D01*
X121397500Y-60689258D02*
X121397500Y-60214742D01*
X122442500Y-60689258D02*
X122442500Y-60214742D01*
X117348000Y-55336000D02*
X116698000Y-55336000D01*
X117348000Y-58456000D02*
X117998000Y-58456000D01*
X117348000Y-58456000D02*
X116698000Y-58456000D01*
X117348000Y-55336000D02*
X119023000Y-55336000D01*
X131427327Y-81278000D02*
X131708487Y-81278000D01*
X131427327Y-82298000D02*
X131708487Y-82298000D01*
X140193500Y-92218742D02*
X140193500Y-92693258D01*
X141238500Y-92218742D02*
X141238500Y-92693258D01*
X116085252Y-68861000D02*
X115562748Y-68861000D01*
X116085252Y-70331000D02*
X115562748Y-70331000D01*
X123937500Y-68817258D02*
X123937500Y-68342742D01*
X124982500Y-68817258D02*
X124982500Y-68342742D01*
X122426000Y-68439420D02*
X122426000Y-68720580D01*
X123446000Y-68439420D02*
X123446000Y-68720580D01*
X123966500Y-60689258D02*
X123966500Y-60214742D01*
X122921500Y-60689258D02*
X122921500Y-60214742D01*
X119886000Y-56755420D02*
X119886000Y-57036580D01*
X120906000Y-56755420D02*
X120906000Y-57036580D01*
X127875420Y-88902000D02*
X128156580Y-88902000D01*
X127875420Y-87882000D02*
X128156580Y-87882000D01*
X122921500Y-56658742D02*
X122921500Y-57133258D01*
X123966500Y-56658742D02*
X123966500Y-57133258D01*
X121934500Y-92218742D02*
X121934500Y-92693258D01*
X120889500Y-92218742D02*
X120889500Y-92693258D01*
X106040000Y-62104000D02*
X104040000Y-62104000D01*
X106040000Y-52704000D02*
X104040000Y-52704000D01*
X100240000Y-62104000D02*
X100240000Y-52704000D01*
X102140000Y-62104000D02*
X100240000Y-62104000D01*
X102140000Y-52704000D02*
X100240000Y-52704000D01*
X142733500Y-92218742D02*
X142733500Y-92693258D01*
X143778500Y-92218742D02*
X143778500Y-92693258D01*
X126506500Y-92693258D02*
X126506500Y-92218742D01*
X125461500Y-92693258D02*
X125461500Y-92218742D01*
X109587420Y-74678000D02*
X109868580Y-74678000D01*
X109587420Y-73658000D02*
X109868580Y-73658000D01*
X120889500Y-68342742D02*
X120889500Y-68817258D01*
X121934500Y-68342742D02*
X121934500Y-68817258D01*
X109587420Y-69086000D02*
X109868580Y-69086000D01*
X109587420Y-70106000D02*
X109868580Y-70106000D01*
X136616000Y-88392000D02*
X136616000Y-86717000D01*
X139736000Y-88392000D02*
X139736000Y-87742000D01*
X136616000Y-88392000D02*
X136616000Y-89042000D01*
X139736000Y-88392000D02*
X139736000Y-89042000D01*
X151398500Y-92218742D02*
X151398500Y-92693258D01*
X150353500Y-92218742D02*
X150353500Y-92693258D01*
X117841500Y-92218742D02*
X117841500Y-92693258D01*
X118886500Y-92218742D02*
X118886500Y-92693258D01*
X147813500Y-92218742D02*
X147813500Y-92693258D01*
X148858500Y-92218742D02*
X148858500Y-92693258D01*
X117488580Y-88902000D02*
X117207420Y-88902000D01*
X117488580Y-87882000D02*
X117207420Y-87882000D01*
X131431420Y-87882000D02*
X131712580Y-87882000D01*
X131431420Y-88902000D02*
X131712580Y-88902000D01*
X153960000Y-88392000D02*
X153960000Y-87742000D01*
X150840000Y-88392000D02*
X150840000Y-89042000D01*
X153960000Y-88392000D02*
X153960000Y-89042000D01*
X150840000Y-88392000D02*
X150840000Y-86717000D01*
X121918000Y-80404580D02*
X121918000Y-80123420D01*
X122938000Y-80404580D02*
X122938000Y-80123420D01*
X126492000Y-59980000D02*
X124817000Y-59980000D01*
X126492000Y-56860000D02*
X125842000Y-56860000D01*
X126492000Y-56860000D02*
X127142000Y-56860000D01*
X126492000Y-59980000D02*
X127142000Y-59980000D01*
X122413500Y-92693258D02*
X122413500Y-92218742D01*
X123458500Y-92693258D02*
X123458500Y-92218742D01*
X132443327Y-76710000D02*
X132724487Y-76710000D01*
X132443327Y-75690000D02*
X132724487Y-75690000D01*
X120918500Y-60214742D02*
X120918500Y-60689258D01*
X119873500Y-60214742D02*
X119873500Y-60689258D01*
X116085252Y-79021000D02*
X115562748Y-79021000D01*
X116085252Y-80491000D02*
X115562748Y-80491000D01*
X109587420Y-80774000D02*
X109868580Y-80774000D01*
X109587420Y-79754000D02*
X109868580Y-79754000D01*
X128030500Y-92218742D02*
X128030500Y-92693258D01*
X126985500Y-92218742D02*
X126985500Y-92693258D01*
X117348000Y-58892000D02*
X116698000Y-58892000D01*
X117348000Y-62012000D02*
X116698000Y-62012000D01*
X117348000Y-58892000D02*
X119023000Y-58892000D01*
X117348000Y-62012000D02*
X117998000Y-62012000D01*
X118886500Y-68817258D02*
X118886500Y-68342742D01*
X117841500Y-68817258D02*
X117841500Y-68342742D01*
X137944907Y-72890748D02*
X137944907Y-73413252D01*
X139414907Y-72890748D02*
X139414907Y-73413252D01*
X117110742Y-53833500D02*
X117585258Y-53833500D01*
X117110742Y-54878500D02*
X117585258Y-54878500D01*
X124474500Y-80026742D02*
X124474500Y-80501258D01*
X123429500Y-80026742D02*
X123429500Y-80501258D01*
X125986000Y-80404580D02*
X125986000Y-80123420D01*
X124966000Y-80404580D02*
X124966000Y-80123420D01*
X111266500Y-57641258D02*
X111266500Y-57166742D01*
X110221500Y-57641258D02*
X110221500Y-57166742D01*
X109965258Y-76693500D02*
X109490742Y-76693500D01*
X109965258Y-77738500D02*
X109490742Y-77738500D01*
X120381500Y-80501258D02*
X120381500Y-80026742D01*
X121426500Y-80501258D02*
X121426500Y-80026742D01*
%LPC*%
D12*
X161500000Y-47500000D03*
X103500000Y-96500000D03*
X103500000Y-47500000D03*
D13*
X104140000Y-67056000D03*
D14*
X104140000Y-69596000D03*
X104140000Y-72136000D03*
X104140000Y-74676000D03*
X104140000Y-77216000D03*
X104140000Y-79756000D03*
X104140000Y-82296000D03*
X104140000Y-84836000D03*
D12*
X161500000Y-96500000D03*
D13*
X114808000Y-96012000D03*
D14*
X117348000Y-96012000D03*
X119888000Y-96012000D03*
X122428000Y-96012000D03*
X124968000Y-96012000D03*
X127508000Y-96012000D03*
X130048000Y-96012000D03*
X132588000Y-96012000D03*
D13*
X138176000Y-96012000D03*
D14*
X140716000Y-96012000D03*
X143256000Y-96012000D03*
X145796000Y-96012000D03*
X148336000Y-96012000D03*
X150876000Y-96012000D03*
X153416000Y-96012000D03*
X155956000Y-96012000D03*
D15*
X108370000Y-48770000D03*
D16*
X108370000Y-46230000D03*
X110910000Y-48770000D03*
X110910000Y-46230000D03*
X113450000Y-48770000D03*
X113450000Y-46230000D03*
X115990000Y-48770000D03*
X115990000Y-46230000D03*
X118530000Y-48770000D03*
X118530000Y-46230000D03*
X121070000Y-48770000D03*
X121070000Y-46230000D03*
X123610000Y-48770000D03*
X123610000Y-46230000D03*
X126150000Y-48770000D03*
X126150000Y-46230000D03*
X128690000Y-48770000D03*
X128690000Y-46230000D03*
X131230000Y-48770000D03*
X131230000Y-46230000D03*
X133770000Y-48770000D03*
X133770000Y-46230000D03*
X136310000Y-48770000D03*
X136310000Y-46230000D03*
X138850000Y-48770000D03*
X138850000Y-46230000D03*
X141390000Y-48770000D03*
X141390000Y-46230000D03*
X143930000Y-48770000D03*
X143930000Y-46230000D03*
X146470000Y-48770000D03*
X146470000Y-46230000D03*
X149010000Y-48770000D03*
X149010000Y-46230000D03*
X151550000Y-48770000D03*
X151550000Y-46230000D03*
X154090000Y-48770000D03*
X154090000Y-46230000D03*
X156630000Y-48770000D03*
X156630000Y-46230000D03*
D17*
X124460000Y-71361000D03*
X124460000Y-72911000D03*
D18*
X121920000Y-56071000D03*
X121920000Y-57721000D03*
D17*
X125984000Y-67805000D03*
X125984000Y-69355000D03*
D18*
X130556000Y-91631000D03*
X130556000Y-93281000D03*
D19*
X140782000Y-87454500D03*
X142682000Y-87454500D03*
X141732000Y-89329500D03*
D20*
X149166500Y-52873000D03*
X149166500Y-53523000D03*
X149166500Y-54173000D03*
X149166500Y-54823000D03*
X143441500Y-54823000D03*
X143441500Y-54173000D03*
X143441500Y-53523000D03*
X143441500Y-52873000D03*
D21*
X108953000Y-75692000D03*
X110503000Y-75692000D03*
D17*
X119888000Y-67805000D03*
X119888000Y-69355000D03*
D22*
X110553000Y-78740000D03*
X108903000Y-78740000D03*
D18*
X110744000Y-60135000D03*
X110744000Y-61785000D03*
D23*
X110744000Y-54673000D03*
X110744000Y-53023000D03*
D24*
X128016000Y-69530000D03*
X128016000Y-67630000D03*
D19*
X155006000Y-87454500D03*
X156906000Y-87454500D03*
X155956000Y-89329500D03*
D18*
X153416000Y-91631000D03*
X153416000Y-93281000D03*
D23*
X129032000Y-93281000D03*
X129032000Y-91631000D03*
D22*
X110553000Y-72644000D03*
X108903000Y-72644000D03*
D18*
X145796000Y-91631000D03*
X145796000Y-93281000D03*
D23*
X132080000Y-93281000D03*
X132080000Y-91631000D03*
D25*
X130229407Y-74553000D03*
X130229407Y-73903000D03*
X130229407Y-73253000D03*
X130229407Y-72603000D03*
X130229407Y-71953000D03*
X130229407Y-71303000D03*
X130229407Y-70653000D03*
X130229407Y-70003000D03*
X130229407Y-69353000D03*
X130229407Y-68703000D03*
X135954407Y-68703000D03*
X135954407Y-69353000D03*
X135954407Y-70003000D03*
X135954407Y-70653000D03*
X135954407Y-71303000D03*
X135954407Y-71953000D03*
X135954407Y-72603000D03*
X135954407Y-73253000D03*
X135954407Y-73903000D03*
X135954407Y-74553000D03*
D26*
X136647907Y-80023000D03*
X136647907Y-78473000D03*
D19*
X147894000Y-87454500D03*
X149794000Y-87454500D03*
X148844000Y-89329500D03*
X144338000Y-87454500D03*
X146238000Y-87454500D03*
X145288000Y-89329500D03*
D27*
X135189907Y-76200000D03*
X137089907Y-76200000D03*
D28*
X113411000Y-72176000D03*
X114681000Y-72176000D03*
X115951000Y-72176000D03*
X117221000Y-72176000D03*
X118491000Y-72176000D03*
X119761000Y-72176000D03*
X121031000Y-72176000D03*
X122301000Y-72176000D03*
X122301000Y-77176000D03*
X121031000Y-77176000D03*
X119761000Y-77176000D03*
X118491000Y-77176000D03*
X117221000Y-77176000D03*
X115951000Y-77176000D03*
X114681000Y-77176000D03*
X113411000Y-77176000D03*
D29*
X129977907Y-76200000D03*
X128077907Y-76200000D03*
D23*
X119888000Y-93281000D03*
X119888000Y-91631000D03*
D30*
X125235000Y-88392000D03*
X123685000Y-88392000D03*
D31*
X134737407Y-78298000D03*
X134737407Y-79248000D03*
X134737407Y-80198000D03*
X132462407Y-80198000D03*
X132462407Y-78298000D03*
D30*
X121679000Y-88392000D03*
X120129000Y-88392000D03*
D26*
X130551907Y-80023000D03*
X130551907Y-78473000D03*
D22*
X110553000Y-71120000D03*
X108903000Y-71120000D03*
D17*
X128011907Y-72377000D03*
X128011907Y-73927000D03*
D18*
X124460000Y-91631000D03*
X124460000Y-93281000D03*
D23*
X121920000Y-61277000D03*
X121920000Y-59627000D03*
D32*
X118285500Y-55946000D03*
X118285500Y-57846000D03*
X116410500Y-56896000D03*
D21*
X130792907Y-81788000D03*
X132342907Y-81788000D03*
D18*
X140716000Y-91631000D03*
X140716000Y-93281000D03*
D29*
X116774000Y-69596000D03*
X114874000Y-69596000D03*
D23*
X124460000Y-69405000D03*
X124460000Y-67755000D03*
D17*
X122936000Y-67805000D03*
X122936000Y-69355000D03*
D23*
X123444000Y-61277000D03*
X123444000Y-59627000D03*
D17*
X120396000Y-56121000D03*
X120396000Y-57671000D03*
D21*
X127241000Y-88392000D03*
X128791000Y-88392000D03*
D18*
X123444000Y-56071000D03*
X123444000Y-57721000D03*
X121412000Y-91631000D03*
X121412000Y-93281000D03*
D33*
X106740000Y-54514000D03*
X106740000Y-60294000D03*
D34*
X108185000Y-60654000D03*
X108185000Y-59854000D03*
D35*
X108185000Y-58654000D03*
X108185000Y-57654000D03*
X108185000Y-57154000D03*
X108185000Y-56154000D03*
D34*
X108185000Y-54954000D03*
X108185000Y-54154000D03*
X108185000Y-54154000D03*
X108185000Y-54954000D03*
D35*
X108185000Y-55654000D03*
X108185000Y-56654000D03*
X108185000Y-58154000D03*
X108185000Y-59154000D03*
D34*
X108185000Y-59854000D03*
X108185000Y-60654000D03*
D36*
X107270000Y-61724000D03*
D37*
X103090000Y-61724000D03*
D36*
X107270000Y-53084000D03*
D37*
X103090000Y-53084000D03*
D18*
X143256000Y-91631000D03*
X143256000Y-93281000D03*
D23*
X125984000Y-93281000D03*
X125984000Y-91631000D03*
D21*
X108953000Y-74168000D03*
X110503000Y-74168000D03*
D18*
X121412000Y-67755000D03*
X121412000Y-69405000D03*
D21*
X108953000Y-69596000D03*
X110503000Y-69596000D03*
D19*
X137226000Y-87454500D03*
X139126000Y-87454500D03*
X138176000Y-89329500D03*
D18*
X150876000Y-91631000D03*
X150876000Y-93281000D03*
X118364000Y-91631000D03*
X118364000Y-93281000D03*
X148336000Y-91631000D03*
X148336000Y-93281000D03*
D30*
X118123000Y-88392000D03*
X116573000Y-88392000D03*
D21*
X130797000Y-88392000D03*
X132347000Y-88392000D03*
D19*
X151450000Y-87454500D03*
X153350000Y-87454500D03*
X152400000Y-89329500D03*
D26*
X122428000Y-81039000D03*
X122428000Y-79489000D03*
D38*
X125554500Y-59370000D03*
X125554500Y-57470000D03*
X127429500Y-58420000D03*
D23*
X122936000Y-93281000D03*
X122936000Y-91631000D03*
D21*
X131808907Y-76200000D03*
X133358907Y-76200000D03*
D18*
X120396000Y-59627000D03*
X120396000Y-61277000D03*
D29*
X116774000Y-79756000D03*
X114874000Y-79756000D03*
D21*
X108953000Y-80264000D03*
X110503000Y-80264000D03*
D18*
X127508000Y-91631000D03*
X127508000Y-93281000D03*
D32*
X118285500Y-59502000D03*
X118285500Y-61402000D03*
X116410500Y-60452000D03*
D23*
X118364000Y-69405000D03*
X118364000Y-67755000D03*
D39*
X138679907Y-72202000D03*
X138679907Y-74102000D03*
D40*
X116523000Y-54356000D03*
X118173000Y-54356000D03*
D18*
X123952000Y-79439000D03*
X123952000Y-81089000D03*
D26*
X125476000Y-81039000D03*
X125476000Y-79489000D03*
D23*
X110744000Y-58229000D03*
X110744000Y-56579000D03*
D22*
X110553000Y-77216000D03*
X108903000Y-77216000D03*
D23*
X120904000Y-81089000D03*
X120904000Y-79439000D03*
M02*
