G04 #@! TF.GenerationSoftware,KiCad,Pcbnew,(6.0.6)*
G04 #@! TF.CreationDate,2022-10-01T15:18:15+02:00*
G04 #@! TF.ProjectId,Phoniebox,50686f6e-6965-4626-9f78-2e6b69636164,rev?*
G04 #@! TF.SameCoordinates,Original*
G04 #@! TF.FileFunction,Soldermask,Top*
G04 #@! TF.FilePolarity,Negative*
%FSLAX46Y46*%
G04 Gerber Fmt 4.6, Leading zero omitted, Abs format (unit mm)*
G04 Created by KiCad (PCBNEW (6.0.6)) date 2022-10-01 15:18:15*
%MOMM*%
%LPD*%
G01*
G04 APERTURE LIST*
%ADD10R,2.200000X2.200000*%
%ADD11C,2.200000*%
%ADD12R,1.000000X2.510000*%
%ADD13C,2.700000*%
%ADD14R,1.700000X1.700000*%
%ADD15O,1.700000X1.700000*%
%ADD16O,1.600000X1.000000*%
%ADD17O,2.100000X1.000000*%
%ADD18C,0.650000*%
G04 APERTURE END LIST*
D10*
X104140000Y-67056000D03*
D11*
X104140000Y-69596000D03*
X104140000Y-72136000D03*
X104140000Y-74676000D03*
X104140000Y-77216000D03*
X104140000Y-79756000D03*
X104140000Y-82296000D03*
X104140000Y-84836000D03*
D12*
X130810000Y-66171000D03*
X133350000Y-62861000D03*
X135890000Y-66171000D03*
X138430000Y-62861000D03*
X130810000Y-58043000D03*
X133350000Y-54733000D03*
X135890000Y-58043000D03*
X138430000Y-54733000D03*
X140970000Y-58043000D03*
X143510000Y-54733000D03*
X146050000Y-58043000D03*
X148590000Y-54733000D03*
D13*
X161500000Y-47500000D03*
X103500000Y-96500000D03*
X103500000Y-47500000D03*
X161500000Y-96500000D03*
D10*
X114808000Y-96012000D03*
D11*
X117348000Y-96012000D03*
X119888000Y-96012000D03*
X122428000Y-96012000D03*
X124968000Y-96012000D03*
X127508000Y-96012000D03*
X130048000Y-96012000D03*
X132588000Y-96012000D03*
D10*
X138176000Y-96012000D03*
D11*
X140716000Y-96012000D03*
X143256000Y-96012000D03*
X145796000Y-96012000D03*
X148336000Y-96012000D03*
X150876000Y-96012000D03*
X153416000Y-96012000D03*
X155956000Y-96012000D03*
D14*
X108370000Y-48770000D03*
D15*
X108370000Y-46230000D03*
X110910000Y-48770000D03*
X110910000Y-46230000D03*
X113450000Y-48770000D03*
X113450000Y-46230000D03*
X115990000Y-48770000D03*
X115990000Y-46230000D03*
X118530000Y-48770000D03*
X118530000Y-46230000D03*
X121070000Y-48770000D03*
X121070000Y-46230000D03*
X123610000Y-48770000D03*
X123610000Y-46230000D03*
X126150000Y-48770000D03*
X126150000Y-46230000D03*
X128690000Y-48770000D03*
X128690000Y-46230000D03*
X131230000Y-48770000D03*
X131230000Y-46230000D03*
X133770000Y-48770000D03*
X133770000Y-46230000D03*
X136310000Y-48770000D03*
X136310000Y-46230000D03*
X138850000Y-48770000D03*
X138850000Y-46230000D03*
X141390000Y-48770000D03*
X141390000Y-46230000D03*
X143930000Y-48770000D03*
X143930000Y-46230000D03*
X146470000Y-48770000D03*
X146470000Y-46230000D03*
X149010000Y-48770000D03*
X149010000Y-46230000D03*
X151550000Y-48770000D03*
X151550000Y-46230000D03*
X154090000Y-48770000D03*
X154090000Y-46230000D03*
X156630000Y-48770000D03*
X156630000Y-46230000D03*
D16*
X103090000Y-53084000D03*
D17*
X107270000Y-53084000D03*
D16*
X103090000Y-61724000D03*
D17*
X107270000Y-61724000D03*
D18*
X106740000Y-60294000D03*
X106740000Y-54514000D03*
M02*
