%FSLAX45Y45*%
G04 Gerber Fmt 4.5, Leading zero omitted, Abs format (unit mm)*
G04 Created by KiCad (PCBNEW (6.0.6)) date 2022-10-22 01:16:24*
%MOMM*%
%LPD*%
G01*
G04 APERTURE LIST*
%TA.AperFunction,Profile*%
%ADD10C,0.100000*%
%TD*%
%ADD11C,0.200000*%
%ADD12C,0.065000*%
%ADD13C,0.270000*%
G04 APERTURE END LIST*
D10*
X16200000Y-4350000D02*
X10300000Y-4350000D01*
X10000000Y-9700000D02*
G75*
G03*
X10300000Y-10000000I300000J0D01*
G01*
X16500000Y-9700000D02*
X16500000Y-4650000D01*
X10300000Y-4350000D02*
G75*
G03*
X10000000Y-4650000I0J-300000D01*
G01*
X10000000Y-4650000D02*
X10000000Y-9700000D01*
X16200000Y-10000000D02*
G75*
G03*
X16500000Y-9700000I0J300000D01*
G01*
X16500000Y-4650000D02*
G75*
G03*
X16200000Y-4350000I-300000J0D01*
G01*
X10300000Y-10000000D02*
X16200000Y-10000000D01*
D11*
D12*
X10641500Y-5418900D02*
X10706500Y-5483900D01*
X10706500Y-5418900D02*
X10641500Y-5483900D01*
X10641500Y-5996900D02*
X10706500Y-6061900D01*
X10706500Y-5996900D02*
X10641500Y-6061900D01*
D13*
X10485000Y-4750000D02*
G75*
G03*
X10485000Y-4750000I-135000J0D01*
G01*
X10485000Y-9650000D02*
G75*
G03*
X10485000Y-9650000I-135000J0D01*
G01*
X16285000Y-4750000D02*
G75*
G03*
X16285000Y-4750000I-135000J0D01*
G01*
X16285000Y-9650000D02*
G75*
G03*
X16285000Y-9650000I-135000J0D01*
G01*
D11*
X10252619Y-10315476D02*
X10252619Y-10115476D01*
X10300238Y-10115476D01*
X10328810Y-10125000D01*
X10347857Y-10144048D01*
X10357381Y-10163095D01*
X10366905Y-10201190D01*
X10366905Y-10229762D01*
X10357381Y-10267857D01*
X10347857Y-10286905D01*
X10328810Y-10305952D01*
X10300238Y-10315476D01*
X10252619Y-10315476D01*
X10452619Y-10315476D02*
X10452619Y-10182143D01*
X10452619Y-10220238D02*
X10462143Y-10201190D01*
X10471667Y-10191667D01*
X10490714Y-10182143D01*
X10509762Y-10182143D01*
X10576429Y-10315476D02*
X10576429Y-10182143D01*
X10576429Y-10115476D02*
X10566905Y-10125000D01*
X10576429Y-10134524D01*
X10585952Y-10125000D01*
X10576429Y-10115476D01*
X10576429Y-10134524D01*
X10700238Y-10315476D02*
X10681190Y-10305952D01*
X10671667Y-10286905D01*
X10671667Y-10115476D01*
X10805000Y-10315476D02*
X10785952Y-10305952D01*
X10776429Y-10286905D01*
X10776429Y-10115476D01*
X11033571Y-10315476D02*
X11033571Y-10115476D01*
X11100238Y-10258333D01*
X11166905Y-10115476D01*
X11166905Y-10315476D01*
X11347857Y-10315476D02*
X11347857Y-10210714D01*
X11338333Y-10191667D01*
X11319286Y-10182143D01*
X11281190Y-10182143D01*
X11262143Y-10191667D01*
X11347857Y-10305952D02*
X11328809Y-10315476D01*
X11281190Y-10315476D01*
X11262143Y-10305952D01*
X11252619Y-10286905D01*
X11252619Y-10267857D01*
X11262143Y-10248810D01*
X11281190Y-10239286D01*
X11328809Y-10239286D01*
X11347857Y-10229762D01*
X11443095Y-10182143D02*
X11443095Y-10382143D01*
X11443095Y-10191667D02*
X11462143Y-10182143D01*
X11500238Y-10182143D01*
X11519286Y-10191667D01*
X11528809Y-10201190D01*
X11538333Y-10220238D01*
X11538333Y-10277381D01*
X11528809Y-10296429D01*
X11519286Y-10305952D01*
X11500238Y-10315476D01*
X11462143Y-10315476D01*
X11443095Y-10305952D01*
X11624048Y-10296429D02*
X11633571Y-10305952D01*
X11624048Y-10315476D01*
X11614524Y-10305952D01*
X11624048Y-10296429D01*
X11624048Y-10315476D01*
X11624048Y-10191667D02*
X11633571Y-10201190D01*
X11624048Y-10210714D01*
X11614524Y-10201190D01*
X11624048Y-10191667D01*
X11624048Y-10210714D01*
D12*
X9930000Y-10612500D02*
X9995000Y-10677500D01*
X9995000Y-10612500D02*
X9930000Y-10677500D01*
D11*
X10290714Y-10535476D02*
X10309762Y-10535476D01*
X10328810Y-10545000D01*
X10338333Y-10554524D01*
X10347857Y-10573571D01*
X10357381Y-10611667D01*
X10357381Y-10659286D01*
X10347857Y-10697381D01*
X10338333Y-10716429D01*
X10328810Y-10725952D01*
X10309762Y-10735476D01*
X10290714Y-10735476D01*
X10271667Y-10725952D01*
X10262143Y-10716429D01*
X10252619Y-10697381D01*
X10243095Y-10659286D01*
X10243095Y-10611667D01*
X10252619Y-10573571D01*
X10262143Y-10554524D01*
X10271667Y-10545000D01*
X10290714Y-10535476D01*
X10443095Y-10716429D02*
X10452619Y-10725952D01*
X10443095Y-10735476D01*
X10433571Y-10725952D01*
X10443095Y-10716429D01*
X10443095Y-10735476D01*
X10624048Y-10535476D02*
X10585952Y-10535476D01*
X10566905Y-10545000D01*
X10557381Y-10554524D01*
X10538333Y-10583095D01*
X10528810Y-10621190D01*
X10528810Y-10697381D01*
X10538333Y-10716429D01*
X10547857Y-10725952D01*
X10566905Y-10735476D01*
X10605000Y-10735476D01*
X10624048Y-10725952D01*
X10633571Y-10716429D01*
X10643095Y-10697381D01*
X10643095Y-10649762D01*
X10633571Y-10630714D01*
X10624048Y-10621190D01*
X10605000Y-10611667D01*
X10566905Y-10611667D01*
X10547857Y-10621190D01*
X10538333Y-10630714D01*
X10528810Y-10649762D01*
X10824048Y-10535476D02*
X10728810Y-10535476D01*
X10719286Y-10630714D01*
X10728810Y-10621190D01*
X10747857Y-10611667D01*
X10795476Y-10611667D01*
X10814524Y-10621190D01*
X10824048Y-10630714D01*
X10833571Y-10649762D01*
X10833571Y-10697381D01*
X10824048Y-10716429D01*
X10814524Y-10725952D01*
X10795476Y-10735476D01*
X10747857Y-10735476D01*
X10728810Y-10725952D01*
X10719286Y-10716429D01*
X10957381Y-10535476D02*
X10976429Y-10535476D01*
X10995476Y-10545000D01*
X11005000Y-10554524D01*
X11014524Y-10573571D01*
X11024048Y-10611667D01*
X11024048Y-10659286D01*
X11014524Y-10697381D01*
X11005000Y-10716429D01*
X10995476Y-10725952D01*
X10976429Y-10735476D01*
X10957381Y-10735476D01*
X10938333Y-10725952D01*
X10928810Y-10716429D01*
X10919286Y-10697381D01*
X10909762Y-10659286D01*
X10909762Y-10611667D01*
X10919286Y-10573571D01*
X10928810Y-10554524D01*
X10938333Y-10545000D01*
X10957381Y-10535476D01*
X11109762Y-10735476D02*
X11109762Y-10602143D01*
X11109762Y-10621190D02*
X11119286Y-10611667D01*
X11138333Y-10602143D01*
X11166905Y-10602143D01*
X11185952Y-10611667D01*
X11195476Y-10630714D01*
X11195476Y-10735476D01*
X11195476Y-10630714D02*
X11205000Y-10611667D01*
X11224048Y-10602143D01*
X11252619Y-10602143D01*
X11271667Y-10611667D01*
X11281190Y-10630714D01*
X11281190Y-10735476D01*
X11376428Y-10735476D02*
X11376428Y-10602143D01*
X11376428Y-10621190D02*
X11385952Y-10611667D01*
X11405000Y-10602143D01*
X11433571Y-10602143D01*
X11452619Y-10611667D01*
X11462143Y-10630714D01*
X11462143Y-10735476D01*
X11462143Y-10630714D02*
X11471667Y-10611667D01*
X11490714Y-10602143D01*
X11519286Y-10602143D01*
X11538333Y-10611667D01*
X11547857Y-10630714D01*
X11547857Y-10735476D01*
X11938333Y-10525952D02*
X11766905Y-10783095D01*
X12195476Y-10535476D02*
X12214524Y-10535476D01*
X12233571Y-10545000D01*
X12243095Y-10554524D01*
X12252619Y-10573571D01*
X12262143Y-10611667D01*
X12262143Y-10659286D01*
X12252619Y-10697381D01*
X12243095Y-10716429D01*
X12233571Y-10725952D01*
X12214524Y-10735476D01*
X12195476Y-10735476D01*
X12176428Y-10725952D01*
X12166905Y-10716429D01*
X12157381Y-10697381D01*
X12147857Y-10659286D01*
X12147857Y-10611667D01*
X12157381Y-10573571D01*
X12166905Y-10554524D01*
X12176428Y-10545000D01*
X12195476Y-10535476D01*
X12347857Y-10716429D02*
X12357381Y-10725952D01*
X12347857Y-10735476D01*
X12338333Y-10725952D01*
X12347857Y-10716429D01*
X12347857Y-10735476D01*
X12481190Y-10535476D02*
X12500238Y-10535476D01*
X12519286Y-10545000D01*
X12528809Y-10554524D01*
X12538333Y-10573571D01*
X12547857Y-10611667D01*
X12547857Y-10659286D01*
X12538333Y-10697381D01*
X12528809Y-10716429D01*
X12519286Y-10725952D01*
X12500238Y-10735476D01*
X12481190Y-10735476D01*
X12462143Y-10725952D01*
X12452619Y-10716429D01*
X12443095Y-10697381D01*
X12433571Y-10659286D01*
X12433571Y-10611667D01*
X12443095Y-10573571D01*
X12452619Y-10554524D01*
X12462143Y-10545000D01*
X12481190Y-10535476D01*
X12624048Y-10554524D02*
X12633571Y-10545000D01*
X12652619Y-10535476D01*
X12700238Y-10535476D01*
X12719286Y-10545000D01*
X12728809Y-10554524D01*
X12738333Y-10573571D01*
X12738333Y-10592619D01*
X12728809Y-10621190D01*
X12614524Y-10735476D01*
X12738333Y-10735476D01*
X12919286Y-10535476D02*
X12824048Y-10535476D01*
X12814524Y-10630714D01*
X12824048Y-10621190D01*
X12843095Y-10611667D01*
X12890714Y-10611667D01*
X12909762Y-10621190D01*
X12919286Y-10630714D01*
X12928809Y-10649762D01*
X12928809Y-10697381D01*
X12919286Y-10716429D01*
X12909762Y-10725952D01*
X12890714Y-10735476D01*
X12843095Y-10735476D01*
X12824048Y-10725952D01*
X12814524Y-10716429D01*
X13100238Y-10535476D02*
X13062143Y-10535476D01*
X13043095Y-10545000D01*
X13033571Y-10554524D01*
X13014524Y-10583095D01*
X13005000Y-10621190D01*
X13005000Y-10697381D01*
X13014524Y-10716429D01*
X13024048Y-10725952D01*
X13043095Y-10735476D01*
X13081190Y-10735476D01*
X13100238Y-10725952D01*
X13109762Y-10716429D01*
X13119286Y-10697381D01*
X13119286Y-10649762D01*
X13109762Y-10630714D01*
X13100238Y-10621190D01*
X13081190Y-10611667D01*
X13043095Y-10611667D01*
X13024048Y-10621190D01*
X13014524Y-10630714D01*
X13005000Y-10649762D01*
X13195476Y-10535476D02*
X13195476Y-10573571D01*
X13271667Y-10535476D02*
X13271667Y-10573571D01*
X13566905Y-10811667D02*
X13557381Y-10802143D01*
X13538333Y-10773571D01*
X13528809Y-10754524D01*
X13519286Y-10725952D01*
X13509762Y-10678333D01*
X13509762Y-10640238D01*
X13519286Y-10592619D01*
X13528809Y-10564048D01*
X13538333Y-10545000D01*
X13557381Y-10516429D01*
X13566905Y-10506905D01*
X13633571Y-10554524D02*
X13643095Y-10545000D01*
X13662143Y-10535476D01*
X13709762Y-10535476D01*
X13728809Y-10545000D01*
X13738333Y-10554524D01*
X13747857Y-10573571D01*
X13747857Y-10592619D01*
X13738333Y-10621190D01*
X13624048Y-10735476D01*
X13747857Y-10735476D01*
X13985952Y-10735476D02*
X13985952Y-10535476D01*
X14071667Y-10735476D02*
X14071667Y-10630714D01*
X14062143Y-10611667D01*
X14043095Y-10602143D01*
X14014524Y-10602143D01*
X13995476Y-10611667D01*
X13985952Y-10621190D01*
X14195476Y-10735476D02*
X14176428Y-10725952D01*
X14166905Y-10716429D01*
X14157381Y-10697381D01*
X14157381Y-10640238D01*
X14166905Y-10621190D01*
X14176428Y-10611667D01*
X14195476Y-10602143D01*
X14224048Y-10602143D01*
X14243095Y-10611667D01*
X14252619Y-10621190D01*
X14262143Y-10640238D01*
X14262143Y-10697381D01*
X14252619Y-10716429D01*
X14243095Y-10725952D01*
X14224048Y-10735476D01*
X14195476Y-10735476D01*
X14376428Y-10735476D02*
X14357381Y-10725952D01*
X14347857Y-10706905D01*
X14347857Y-10535476D01*
X14528809Y-10725952D02*
X14509762Y-10735476D01*
X14471667Y-10735476D01*
X14452619Y-10725952D01*
X14443095Y-10706905D01*
X14443095Y-10630714D01*
X14452619Y-10611667D01*
X14471667Y-10602143D01*
X14509762Y-10602143D01*
X14528809Y-10611667D01*
X14538333Y-10630714D01*
X14538333Y-10649762D01*
X14443095Y-10668810D01*
X14614524Y-10725952D02*
X14633571Y-10735476D01*
X14671667Y-10735476D01*
X14690714Y-10725952D01*
X14700238Y-10706905D01*
X14700238Y-10697381D01*
X14690714Y-10678333D01*
X14671667Y-10668810D01*
X14643095Y-10668810D01*
X14624048Y-10659286D01*
X14614524Y-10640238D01*
X14614524Y-10630714D01*
X14624048Y-10611667D01*
X14643095Y-10602143D01*
X14671667Y-10602143D01*
X14690714Y-10611667D01*
X14766905Y-10811667D02*
X14776428Y-10802143D01*
X14795476Y-10773571D01*
X14805000Y-10754524D01*
X14814524Y-10725952D01*
X14824048Y-10678333D01*
X14824048Y-10640238D01*
X14814524Y-10592619D01*
X14805000Y-10564048D01*
X14795476Y-10545000D01*
X14776428Y-10516429D01*
X14766905Y-10506905D01*
X15128809Y-10811667D02*
X15119286Y-10802143D01*
X15100238Y-10773571D01*
X15090714Y-10754524D01*
X15081190Y-10725952D01*
X15071667Y-10678333D01*
X15071667Y-10640238D01*
X15081190Y-10592619D01*
X15090714Y-10564048D01*
X15100238Y-10545000D01*
X15119286Y-10516429D01*
X15128809Y-10506905D01*
X15205000Y-10602143D02*
X15205000Y-10735476D01*
X15205000Y-10621190D02*
X15214524Y-10611667D01*
X15233571Y-10602143D01*
X15262143Y-10602143D01*
X15281190Y-10611667D01*
X15290714Y-10630714D01*
X15290714Y-10735476D01*
X15414524Y-10735476D02*
X15395476Y-10725952D01*
X15385952Y-10716429D01*
X15376428Y-10697381D01*
X15376428Y-10640238D01*
X15385952Y-10621190D01*
X15395476Y-10611667D01*
X15414524Y-10602143D01*
X15443095Y-10602143D01*
X15462143Y-10611667D01*
X15471667Y-10621190D01*
X15481190Y-10640238D01*
X15481190Y-10697381D01*
X15471667Y-10716429D01*
X15462143Y-10725952D01*
X15443095Y-10735476D01*
X15414524Y-10735476D01*
X15538333Y-10602143D02*
X15614524Y-10602143D01*
X15566905Y-10535476D02*
X15566905Y-10706905D01*
X15576428Y-10725952D01*
X15595476Y-10735476D01*
X15614524Y-10735476D01*
X15833571Y-10602143D02*
X15833571Y-10802143D01*
X15833571Y-10611667D02*
X15852619Y-10602143D01*
X15890714Y-10602143D01*
X15909762Y-10611667D01*
X15919286Y-10621190D01*
X15928809Y-10640238D01*
X15928809Y-10697381D01*
X15919286Y-10716429D01*
X15909762Y-10725952D01*
X15890714Y-10735476D01*
X15852619Y-10735476D01*
X15833571Y-10725952D01*
X16043095Y-10735476D02*
X16024048Y-10725952D01*
X16014524Y-10706905D01*
X16014524Y-10535476D01*
X16205000Y-10735476D02*
X16205000Y-10630714D01*
X16195476Y-10611667D01*
X16176428Y-10602143D01*
X16138333Y-10602143D01*
X16119286Y-10611667D01*
X16205000Y-10725952D02*
X16185952Y-10735476D01*
X16138333Y-10735476D01*
X16119286Y-10725952D01*
X16109762Y-10706905D01*
X16109762Y-10687857D01*
X16119286Y-10668810D01*
X16138333Y-10659286D01*
X16185952Y-10659286D01*
X16205000Y-10649762D01*
X16271667Y-10602143D02*
X16347857Y-10602143D01*
X16300238Y-10535476D02*
X16300238Y-10706905D01*
X16309762Y-10725952D01*
X16328809Y-10735476D01*
X16347857Y-10735476D01*
X16490714Y-10725952D02*
X16471667Y-10735476D01*
X16433571Y-10735476D01*
X16414524Y-10725952D01*
X16405000Y-10706905D01*
X16405000Y-10630714D01*
X16414524Y-10611667D01*
X16433571Y-10602143D01*
X16471667Y-10602143D01*
X16490714Y-10611667D01*
X16500238Y-10630714D01*
X16500238Y-10649762D01*
X16405000Y-10668810D01*
X16671667Y-10735476D02*
X16671667Y-10535476D01*
X16671667Y-10725952D02*
X16652619Y-10735476D01*
X16614524Y-10735476D01*
X16595476Y-10725952D01*
X16585952Y-10716429D01*
X16576428Y-10697381D01*
X16576428Y-10640238D01*
X16585952Y-10621190D01*
X16595476Y-10611667D01*
X16614524Y-10602143D01*
X16652619Y-10602143D01*
X16671667Y-10611667D01*
X16747857Y-10811667D02*
X16757381Y-10802143D01*
X16776428Y-10773571D01*
X16785952Y-10754524D01*
X16795476Y-10725952D01*
X16805000Y-10678333D01*
X16805000Y-10640238D01*
X16795476Y-10592619D01*
X16785952Y-10564048D01*
X16776428Y-10545000D01*
X16757381Y-10516429D01*
X16747857Y-10506905D01*
X9995000Y-10909000D02*
G75*
G03*
X9995000Y-10909000I-100000J0D01*
G01*
X10243095Y-10818524D02*
X10252619Y-10809000D01*
X10271667Y-10799476D01*
X10319286Y-10799476D01*
X10338333Y-10809000D01*
X10347857Y-10818524D01*
X10357381Y-10837571D01*
X10357381Y-10856619D01*
X10347857Y-10885190D01*
X10233571Y-10999476D01*
X10357381Y-10999476D01*
X10443095Y-10980429D02*
X10452619Y-10989952D01*
X10443095Y-10999476D01*
X10433571Y-10989952D01*
X10443095Y-10980429D01*
X10443095Y-10999476D01*
X10519286Y-10799476D02*
X10652619Y-10799476D01*
X10566905Y-10999476D01*
X10766905Y-10799476D02*
X10785952Y-10799476D01*
X10805000Y-10809000D01*
X10814524Y-10818524D01*
X10824048Y-10837571D01*
X10833571Y-10875667D01*
X10833571Y-10923286D01*
X10824048Y-10961381D01*
X10814524Y-10980429D01*
X10805000Y-10989952D01*
X10785952Y-10999476D01*
X10766905Y-10999476D01*
X10747857Y-10989952D01*
X10738333Y-10980429D01*
X10728810Y-10961381D01*
X10719286Y-10923286D01*
X10719286Y-10875667D01*
X10728810Y-10837571D01*
X10738333Y-10818524D01*
X10747857Y-10809000D01*
X10766905Y-10799476D01*
X10957381Y-10799476D02*
X10976429Y-10799476D01*
X10995476Y-10809000D01*
X11005000Y-10818524D01*
X11014524Y-10837571D01*
X11024048Y-10875667D01*
X11024048Y-10923286D01*
X11014524Y-10961381D01*
X11005000Y-10980429D01*
X10995476Y-10989952D01*
X10976429Y-10999476D01*
X10957381Y-10999476D01*
X10938333Y-10989952D01*
X10928810Y-10980429D01*
X10919286Y-10961381D01*
X10909762Y-10923286D01*
X10909762Y-10875667D01*
X10919286Y-10837571D01*
X10928810Y-10818524D01*
X10938333Y-10809000D01*
X10957381Y-10799476D01*
X11109762Y-10999476D02*
X11109762Y-10866143D01*
X11109762Y-10885190D02*
X11119286Y-10875667D01*
X11138333Y-10866143D01*
X11166905Y-10866143D01*
X11185952Y-10875667D01*
X11195476Y-10894714D01*
X11195476Y-10999476D01*
X11195476Y-10894714D02*
X11205000Y-10875667D01*
X11224048Y-10866143D01*
X11252619Y-10866143D01*
X11271667Y-10875667D01*
X11281190Y-10894714D01*
X11281190Y-10999476D01*
X11376428Y-10999476D02*
X11376428Y-10866143D01*
X11376428Y-10885190D02*
X11385952Y-10875667D01*
X11405000Y-10866143D01*
X11433571Y-10866143D01*
X11452619Y-10875667D01*
X11462143Y-10894714D01*
X11462143Y-10999476D01*
X11462143Y-10894714D02*
X11471667Y-10875667D01*
X11490714Y-10866143D01*
X11519286Y-10866143D01*
X11538333Y-10875667D01*
X11547857Y-10894714D01*
X11547857Y-10999476D01*
X11938333Y-10789952D02*
X11766905Y-11047095D01*
X12195476Y-10799476D02*
X12214524Y-10799476D01*
X12233571Y-10809000D01*
X12243095Y-10818524D01*
X12252619Y-10837571D01*
X12262143Y-10875667D01*
X12262143Y-10923286D01*
X12252619Y-10961381D01*
X12243095Y-10980429D01*
X12233571Y-10989952D01*
X12214524Y-10999476D01*
X12195476Y-10999476D01*
X12176428Y-10989952D01*
X12166905Y-10980429D01*
X12157381Y-10961381D01*
X12147857Y-10923286D01*
X12147857Y-10875667D01*
X12157381Y-10837571D01*
X12166905Y-10818524D01*
X12176428Y-10809000D01*
X12195476Y-10799476D01*
X12347857Y-10980429D02*
X12357381Y-10989952D01*
X12347857Y-10999476D01*
X12338333Y-10989952D01*
X12347857Y-10980429D01*
X12347857Y-10999476D01*
X12547857Y-10999476D02*
X12433571Y-10999476D01*
X12490714Y-10999476D02*
X12490714Y-10799476D01*
X12471667Y-10828048D01*
X12452619Y-10847095D01*
X12433571Y-10856619D01*
X12671667Y-10799476D02*
X12690714Y-10799476D01*
X12709762Y-10809000D01*
X12719286Y-10818524D01*
X12728809Y-10837571D01*
X12738333Y-10875667D01*
X12738333Y-10923286D01*
X12728809Y-10961381D01*
X12719286Y-10980429D01*
X12709762Y-10989952D01*
X12690714Y-10999476D01*
X12671667Y-10999476D01*
X12652619Y-10989952D01*
X12643095Y-10980429D01*
X12633571Y-10961381D01*
X12624048Y-10923286D01*
X12624048Y-10875667D01*
X12633571Y-10837571D01*
X12643095Y-10818524D01*
X12652619Y-10809000D01*
X12671667Y-10799476D01*
X12909762Y-10799476D02*
X12871667Y-10799476D01*
X12852619Y-10809000D01*
X12843095Y-10818524D01*
X12824048Y-10847095D01*
X12814524Y-10885190D01*
X12814524Y-10961381D01*
X12824048Y-10980429D01*
X12833571Y-10989952D01*
X12852619Y-10999476D01*
X12890714Y-10999476D01*
X12909762Y-10989952D01*
X12919286Y-10980429D01*
X12928809Y-10961381D01*
X12928809Y-10913762D01*
X12919286Y-10894714D01*
X12909762Y-10885190D01*
X12890714Y-10875667D01*
X12852619Y-10875667D01*
X12833571Y-10885190D01*
X12824048Y-10894714D01*
X12814524Y-10913762D01*
X12995476Y-10799476D02*
X13119286Y-10799476D01*
X13052619Y-10875667D01*
X13081190Y-10875667D01*
X13100238Y-10885190D01*
X13109762Y-10894714D01*
X13119286Y-10913762D01*
X13119286Y-10961381D01*
X13109762Y-10980429D01*
X13100238Y-10989952D01*
X13081190Y-10999476D01*
X13024048Y-10999476D01*
X13005000Y-10989952D01*
X12995476Y-10980429D01*
X13195476Y-10799476D02*
X13195476Y-10837571D01*
X13271667Y-10799476D02*
X13271667Y-10837571D01*
X13566905Y-11075667D02*
X13557381Y-11066143D01*
X13538333Y-11037571D01*
X13528809Y-11018524D01*
X13519286Y-10989952D01*
X13509762Y-10942333D01*
X13509762Y-10904238D01*
X13519286Y-10856619D01*
X13528809Y-10828048D01*
X13538333Y-10809000D01*
X13557381Y-10780429D01*
X13566905Y-10770905D01*
X13728809Y-10866143D02*
X13728809Y-10999476D01*
X13681190Y-10789952D02*
X13633571Y-10932810D01*
X13757381Y-10932810D01*
X13985952Y-10999476D02*
X13985952Y-10799476D01*
X14071667Y-10999476D02*
X14071667Y-10894714D01*
X14062143Y-10875667D01*
X14043095Y-10866143D01*
X14014524Y-10866143D01*
X13995476Y-10875667D01*
X13985952Y-10885190D01*
X14195476Y-10999476D02*
X14176428Y-10989952D01*
X14166905Y-10980429D01*
X14157381Y-10961381D01*
X14157381Y-10904238D01*
X14166905Y-10885190D01*
X14176428Y-10875667D01*
X14195476Y-10866143D01*
X14224048Y-10866143D01*
X14243095Y-10875667D01*
X14252619Y-10885190D01*
X14262143Y-10904238D01*
X14262143Y-10961381D01*
X14252619Y-10980429D01*
X14243095Y-10989952D01*
X14224048Y-10999476D01*
X14195476Y-10999476D01*
X14376428Y-10999476D02*
X14357381Y-10989952D01*
X14347857Y-10970905D01*
X14347857Y-10799476D01*
X14528809Y-10989952D02*
X14509762Y-10999476D01*
X14471667Y-10999476D01*
X14452619Y-10989952D01*
X14443095Y-10970905D01*
X14443095Y-10894714D01*
X14452619Y-10875667D01*
X14471667Y-10866143D01*
X14509762Y-10866143D01*
X14528809Y-10875667D01*
X14538333Y-10894714D01*
X14538333Y-10913762D01*
X14443095Y-10932810D01*
X14614524Y-10989952D02*
X14633571Y-10999476D01*
X14671667Y-10999476D01*
X14690714Y-10989952D01*
X14700238Y-10970905D01*
X14700238Y-10961381D01*
X14690714Y-10942333D01*
X14671667Y-10932810D01*
X14643095Y-10932810D01*
X14624048Y-10923286D01*
X14614524Y-10904238D01*
X14614524Y-10894714D01*
X14624048Y-10875667D01*
X14643095Y-10866143D01*
X14671667Y-10866143D01*
X14690714Y-10875667D01*
X14766905Y-11075667D02*
X14776428Y-11066143D01*
X14795476Y-11037571D01*
X14805000Y-11018524D01*
X14814524Y-10989952D01*
X14824048Y-10942333D01*
X14824048Y-10904238D01*
X14814524Y-10856619D01*
X14805000Y-10828048D01*
X14795476Y-10809000D01*
X14776428Y-10780429D01*
X14766905Y-10770905D01*
X15128809Y-11075667D02*
X15119286Y-11066143D01*
X15100238Y-11037571D01*
X15090714Y-11018524D01*
X15081190Y-10989952D01*
X15071667Y-10942333D01*
X15071667Y-10904238D01*
X15081190Y-10856619D01*
X15090714Y-10828048D01*
X15100238Y-10809000D01*
X15119286Y-10780429D01*
X15128809Y-10770905D01*
X15205000Y-10866143D02*
X15205000Y-10999476D01*
X15205000Y-10885190D02*
X15214524Y-10875667D01*
X15233571Y-10866143D01*
X15262143Y-10866143D01*
X15281190Y-10875667D01*
X15290714Y-10894714D01*
X15290714Y-10999476D01*
X15414524Y-10999476D02*
X15395476Y-10989952D01*
X15385952Y-10980429D01*
X15376428Y-10961381D01*
X15376428Y-10904238D01*
X15385952Y-10885190D01*
X15395476Y-10875667D01*
X15414524Y-10866143D01*
X15443095Y-10866143D01*
X15462143Y-10875667D01*
X15471667Y-10885190D01*
X15481190Y-10904238D01*
X15481190Y-10961381D01*
X15471667Y-10980429D01*
X15462143Y-10989952D01*
X15443095Y-10999476D01*
X15414524Y-10999476D01*
X15538333Y-10866143D02*
X15614524Y-10866143D01*
X15566905Y-10799476D02*
X15566905Y-10970905D01*
X15576428Y-10989952D01*
X15595476Y-10999476D01*
X15614524Y-10999476D01*
X15833571Y-10866143D02*
X15833571Y-11066143D01*
X15833571Y-10875667D02*
X15852619Y-10866143D01*
X15890714Y-10866143D01*
X15909762Y-10875667D01*
X15919286Y-10885190D01*
X15928809Y-10904238D01*
X15928809Y-10961381D01*
X15919286Y-10980429D01*
X15909762Y-10989952D01*
X15890714Y-10999476D01*
X15852619Y-10999476D01*
X15833571Y-10989952D01*
X16043095Y-10999476D02*
X16024048Y-10989952D01*
X16014524Y-10970905D01*
X16014524Y-10799476D01*
X16205000Y-10999476D02*
X16205000Y-10894714D01*
X16195476Y-10875667D01*
X16176428Y-10866143D01*
X16138333Y-10866143D01*
X16119286Y-10875667D01*
X16205000Y-10989952D02*
X16185952Y-10999476D01*
X16138333Y-10999476D01*
X16119286Y-10989952D01*
X16109762Y-10970905D01*
X16109762Y-10951857D01*
X16119286Y-10932810D01*
X16138333Y-10923286D01*
X16185952Y-10923286D01*
X16205000Y-10913762D01*
X16271667Y-10866143D02*
X16347857Y-10866143D01*
X16300238Y-10799476D02*
X16300238Y-10970905D01*
X16309762Y-10989952D01*
X16328809Y-10999476D01*
X16347857Y-10999476D01*
X16490714Y-10989952D02*
X16471667Y-10999476D01*
X16433571Y-10999476D01*
X16414524Y-10989952D01*
X16405000Y-10970905D01*
X16405000Y-10894714D01*
X16414524Y-10875667D01*
X16433571Y-10866143D01*
X16471667Y-10866143D01*
X16490714Y-10875667D01*
X16500238Y-10894714D01*
X16500238Y-10913762D01*
X16405000Y-10932810D01*
X16671667Y-10999476D02*
X16671667Y-10799476D01*
X16671667Y-10989952D02*
X16652619Y-10999476D01*
X16614524Y-10999476D01*
X16595476Y-10989952D01*
X16585952Y-10980429D01*
X16576428Y-10961381D01*
X16576428Y-10904238D01*
X16585952Y-10885190D01*
X16595476Y-10875667D01*
X16614524Y-10866143D01*
X16652619Y-10866143D01*
X16671667Y-10875667D01*
X16747857Y-11075667D02*
X16757381Y-11066143D01*
X16776428Y-11037571D01*
X16785952Y-11018524D01*
X16795476Y-10989952D01*
X16805000Y-10942333D01*
X16805000Y-10904238D01*
X16795476Y-10856619D01*
X16785952Y-10828048D01*
X16776428Y-10809000D01*
X16757381Y-10780429D01*
X16747857Y-10770905D01*
M02*
