%FSLAX45Y45*%
G04 Gerber Fmt 4.5, Leading zero omitted, Abs format (unit mm)*
G04 Created by KiCad (PCBNEW (6.0.6)) date 2022-10-01 16:28:04*
%MOMM*%
%LPD*%
G01*
G04 APERTURE LIST*
%TA.AperFunction,Profile*%
%ADD10C,0.100000*%
%TD*%
%ADD11C,0.200000*%
%ADD12C,0.060000*%
%ADD13C,0.070000*%
%ADD14C,0.100000*%
%ADD15C,0.110000*%
G04 APERTURE END LIST*
D10*
X16200000Y-4350000D02*
X10300000Y-4350000D01*
X10000000Y-9700000D02*
G75*
G03*
X10300000Y-10000000I300000J0D01*
G01*
X16500000Y-9700000D02*
X16500000Y-4650000D01*
X10300000Y-4350000D02*
G75*
G03*
X10000000Y-4650000I0J-300000D01*
G01*
X10000000Y-4650000D02*
X10000000Y-9700000D01*
X16200000Y-10000000D02*
G75*
G03*
X16500000Y-9700000I0J300000D01*
G01*
X16500000Y-4650000D02*
G75*
G03*
X16200000Y-4350000I-300000J0D01*
G01*
X10300000Y-10000000D02*
X16200000Y-10000000D01*
D11*
D12*
X10104600Y-8453600D02*
X10164600Y-8513600D01*
X10164600Y-8453600D02*
X10104600Y-8513600D01*
X10422100Y-9025100D02*
X10482100Y-9085100D01*
X10482100Y-9025100D02*
X10422100Y-9085100D01*
X10638000Y-7082000D02*
X10698000Y-7142000D01*
X10698000Y-7082000D02*
X10638000Y-7142000D01*
X10638000Y-7844000D02*
X10698000Y-7904000D01*
X10698000Y-7844000D02*
X10638000Y-7904000D01*
X10638000Y-8301200D02*
X10698000Y-8361200D01*
X10698000Y-8301200D02*
X10638000Y-8361200D01*
X10688800Y-6675600D02*
X10748800Y-6735600D01*
X10748800Y-6675600D02*
X10688800Y-6735600D01*
X10942800Y-8199600D02*
X11002800Y-8259600D01*
X11002800Y-8199600D02*
X10942800Y-8259600D01*
X10993600Y-6777200D02*
X11053600Y-6837200D01*
X11053600Y-6777200D02*
X10993600Y-6837200D01*
X11183996Y-7437600D02*
X11243996Y-7497600D01*
X11243996Y-7437600D02*
X11183996Y-7497600D01*
X11196800Y-6116800D02*
X11256800Y-6176800D01*
X11256800Y-6116800D02*
X11196800Y-6176800D01*
X11196800Y-6269200D02*
X11256800Y-6329200D01*
X11256800Y-6269200D02*
X11196800Y-6329200D01*
X11247600Y-6472400D02*
X11307600Y-6532400D01*
X11307600Y-6472400D02*
X11247600Y-6532400D01*
X11247600Y-6929600D02*
X11307600Y-6989600D01*
X11307600Y-6929600D02*
X11247600Y-6989600D01*
X11298400Y-6269200D02*
X11358400Y-6329200D01*
X11358400Y-6269200D02*
X11298400Y-6329200D01*
X11298400Y-7945600D02*
X11358400Y-8005600D01*
X11358400Y-7945600D02*
X11298400Y-8005600D01*
X11501600Y-8199600D02*
X11561600Y-8259600D01*
X11561600Y-8199600D02*
X11501600Y-8259600D01*
X11603200Y-5456400D02*
X11663200Y-5516400D01*
X11663200Y-5456400D02*
X11603200Y-5516400D01*
X11603200Y-8961600D02*
X11663200Y-9021600D01*
X11663200Y-8961600D02*
X11603200Y-9021600D01*
X11704800Y-4999200D02*
X11764800Y-5059200D01*
X11764800Y-4999200D02*
X11704800Y-5059200D01*
X11704800Y-6574000D02*
X11764800Y-6634000D01*
X11764800Y-6574000D02*
X11704800Y-6634000D01*
X11755600Y-5304000D02*
X11815600Y-5364000D01*
X11815600Y-5304000D02*
X11755600Y-5364000D01*
X11755600Y-6269200D02*
X11815600Y-6329200D01*
X11815600Y-6269200D02*
X11755600Y-6329200D01*
X11806400Y-5659600D02*
X11866400Y-5719600D01*
X11866400Y-5659600D02*
X11806400Y-5719600D01*
X11806400Y-7386800D02*
X11866400Y-7446800D01*
X11866400Y-7386800D02*
X11806400Y-7446800D01*
X11806400Y-7496750D02*
X11866400Y-7556750D01*
X11866400Y-7496750D02*
X11806400Y-7556750D01*
X11806400Y-8199600D02*
X11866400Y-8259600D01*
X11866400Y-8199600D02*
X11806400Y-8259600D01*
X11857200Y-6269200D02*
X11917200Y-6329200D01*
X11917200Y-6269200D02*
X11857200Y-6329200D01*
X11857200Y-6574000D02*
X11917200Y-6634000D01*
X11917200Y-6574000D02*
X11857200Y-6634000D01*
X11908000Y-7894800D02*
X11968000Y-7954800D01*
X11968000Y-7894800D02*
X11908000Y-7954800D01*
X11958800Y-4999200D02*
X12018800Y-5059200D01*
X12018800Y-4999200D02*
X11958800Y-5059200D01*
X11958800Y-6624800D02*
X12018800Y-6684800D01*
X12018800Y-6624800D02*
X11958800Y-6684800D01*
X11958800Y-8961600D02*
X12018800Y-9021600D01*
X12018800Y-8961600D02*
X11958800Y-9021600D01*
X12009600Y-6269200D02*
X12069600Y-6329200D01*
X12069600Y-6269200D02*
X12009600Y-6329200D01*
X12009600Y-8656800D02*
X12069600Y-8716800D01*
X12069600Y-8656800D02*
X12009600Y-8716800D01*
X12060400Y-6523200D02*
X12120400Y-6583200D01*
X12120400Y-6523200D02*
X12060400Y-6583200D01*
X12111200Y-5405600D02*
X12171200Y-5465600D01*
X12171200Y-5405600D02*
X12111200Y-5465600D01*
X12159802Y-6271398D02*
X12219802Y-6331398D01*
X12219802Y-6271398D02*
X12159802Y-6331398D01*
X12263600Y-8961600D02*
X12323600Y-9021600D01*
X12323600Y-8961600D02*
X12263600Y-9021600D01*
X12365200Y-8656800D02*
X12425200Y-8716800D01*
X12425200Y-8656800D02*
X12365200Y-8716800D01*
X12416000Y-7386800D02*
X12476000Y-7446800D01*
X12476000Y-7386800D02*
X12416000Y-7446800D01*
X12517600Y-7793200D02*
X12577600Y-7853200D01*
X12577600Y-7793200D02*
X12517600Y-7853200D01*
X12568400Y-5507200D02*
X12628400Y-5567200D01*
X12628400Y-5507200D02*
X12568400Y-5567200D01*
X12568400Y-7590000D02*
X12628400Y-7650000D01*
X12628400Y-7590000D02*
X12568400Y-7650000D01*
X12568400Y-8961600D02*
X12628400Y-9021600D01*
X12628400Y-8961600D02*
X12568400Y-9021600D01*
X12619200Y-6624800D02*
X12679200Y-6684800D01*
X12679200Y-6624800D02*
X12619200Y-6684800D01*
X12873200Y-8047200D02*
X12933200Y-8107200D01*
X12933200Y-8047200D02*
X12873200Y-8107200D01*
X12873200Y-8656800D02*
X12933200Y-8716800D01*
X12933200Y-8656800D02*
X12873200Y-8716800D01*
X12873200Y-8961600D02*
X12933200Y-9021600D01*
X12933200Y-8961600D02*
X12873200Y-9021600D01*
X12924000Y-5659600D02*
X12984000Y-5719600D01*
X12984000Y-5659600D02*
X12924000Y-5719600D01*
X13126791Y-6878800D02*
X13186791Y-6938800D01*
X13186791Y-6878800D02*
X13126791Y-6938800D01*
X13178000Y-8961600D02*
X13238000Y-9021600D01*
X13238000Y-8961600D02*
X13178000Y-9021600D01*
X13228391Y-7234400D02*
X13288391Y-7294400D01*
X13288391Y-7234400D02*
X13228391Y-7294400D01*
X13228800Y-8656800D02*
X13288800Y-8716800D01*
X13288800Y-8656800D02*
X13228800Y-8716800D01*
X13279600Y-5812000D02*
X13339600Y-5872000D01*
X13339600Y-5812000D02*
X13279600Y-5872000D01*
X13279600Y-6472400D02*
X13339600Y-6532400D01*
X13339600Y-6472400D02*
X13279600Y-6532400D01*
X13431591Y-6878800D02*
X13491591Y-6938800D01*
X13491591Y-6878800D02*
X13431591Y-6938800D01*
X13432000Y-5405600D02*
X13492000Y-5465600D01*
X13492000Y-5405600D02*
X13432000Y-5465600D01*
X13432000Y-5812000D02*
X13492000Y-5872000D01*
X13492000Y-5812000D02*
X13432000Y-5872000D01*
X13533600Y-8199600D02*
X13593600Y-8259600D01*
X13593600Y-8199600D02*
X13533600Y-8259600D01*
X13533600Y-8656800D02*
X13593600Y-8716800D01*
X13593600Y-8656800D02*
X13533600Y-8716800D01*
X13686000Y-5761200D02*
X13746000Y-5821200D01*
X13746000Y-5761200D02*
X13686000Y-5821200D01*
X13838400Y-7539200D02*
X13898400Y-7599200D01*
X13898400Y-7539200D02*
X13838400Y-7599200D01*
X13889200Y-8910800D02*
X13949200Y-8970800D01*
X13949200Y-8910800D02*
X13889200Y-8970800D01*
X13940000Y-5812000D02*
X14000000Y-5872000D01*
X14000000Y-5812000D02*
X13940000Y-5872000D01*
X13940000Y-6066000D02*
X14000000Y-6126000D01*
X14000000Y-6066000D02*
X13940000Y-6126000D01*
X14041600Y-6370800D02*
X14101600Y-6430800D01*
X14101600Y-6370800D02*
X14041600Y-6430800D01*
X14041600Y-7183600D02*
X14101600Y-7243600D01*
X14101600Y-7183600D02*
X14041600Y-7243600D01*
X14244800Y-8910800D02*
X14304800Y-8970800D01*
X14304800Y-8910800D02*
X14244800Y-8970800D01*
X14295600Y-5050000D02*
X14355600Y-5110000D01*
X14355600Y-5050000D02*
X14295600Y-5110000D01*
X14397200Y-7539200D02*
X14457200Y-7599200D01*
X14457200Y-7539200D02*
X14397200Y-7599200D01*
X14498800Y-6929600D02*
X14558800Y-6989600D01*
X14558800Y-6929600D02*
X14498800Y-6989600D01*
X14600400Y-8910800D02*
X14660400Y-8970800D01*
X14660400Y-8910800D02*
X14600400Y-8970800D01*
X14702000Y-7234400D02*
X14762000Y-7294400D01*
X14762000Y-7234400D02*
X14702000Y-7294400D01*
X14905200Y-5100800D02*
X14965200Y-5160800D01*
X14965200Y-5100800D02*
X14905200Y-5160800D01*
X14956000Y-6370800D02*
X15016000Y-6430800D01*
X15016000Y-6370800D02*
X14956000Y-6430800D01*
X14956000Y-8910800D02*
X15016000Y-8970800D01*
X15016000Y-8910800D02*
X14956000Y-8970800D01*
X15210000Y-7031200D02*
X15270000Y-7091200D01*
X15270000Y-7031200D02*
X15210000Y-7091200D01*
X15311600Y-6929600D02*
X15371600Y-6989600D01*
X15371600Y-6929600D02*
X15311600Y-6989600D01*
X15311600Y-8910800D02*
X15371600Y-8970800D01*
X15371600Y-8910800D02*
X15311600Y-8970800D01*
X15362400Y-5100800D02*
X15422400Y-5160800D01*
X15422400Y-5100800D02*
X15362400Y-5160800D01*
X15667200Y-8910800D02*
X15727200Y-8970800D01*
X15727200Y-8910800D02*
X15667200Y-8970800D01*
X15718000Y-5100800D02*
X15778000Y-5160800D01*
X15778000Y-5100800D02*
X15718000Y-5160800D01*
X16022800Y-9012400D02*
X16082800Y-9072400D01*
X16082800Y-9012400D02*
X16022800Y-9072400D01*
X16073600Y-6929600D02*
X16133600Y-6989600D01*
X16133600Y-6929600D02*
X16073600Y-6989600D01*
X16124400Y-7031200D02*
X16184400Y-7091200D01*
X16184400Y-7031200D02*
X16124400Y-7091200D01*
X16175200Y-5215100D02*
X16235200Y-5275100D01*
X16235200Y-5215100D02*
X16175200Y-5275100D01*
X16276800Y-5964400D02*
X16336800Y-6024400D01*
X16336800Y-5964400D02*
X16276800Y-6024400D01*
X16276800Y-7437600D02*
X16336800Y-7497600D01*
X16336800Y-7437600D02*
X16276800Y-7497600D01*
X10339000Y-5308400D02*
G75*
G03*
X10339000Y-5308400I-30000J0D01*
G01*
D11*
X10279000Y-5338400D02*
X10339000Y-5338400D01*
X10279000Y-5278400D02*
X10339000Y-5278400D01*
X10339000Y-5338400D02*
G75*
G03*
X10339000Y-5278400I0J30000D01*
G01*
X10279000Y-5278400D02*
G75*
G03*
X10279000Y-5338400I0J-30000D01*
G01*
D12*
X10339000Y-6172400D02*
G75*
G03*
X10339000Y-6172400I-30000J0D01*
G01*
D11*
X10279000Y-6202400D02*
X10339000Y-6202400D01*
X10279000Y-6142400D02*
X10339000Y-6142400D01*
X10339000Y-6202400D02*
G75*
G03*
X10339000Y-6142400I0J30000D01*
G01*
X10279000Y-6142400D02*
G75*
G03*
X10279000Y-6202400I0J-30000D01*
G01*
D12*
X10757000Y-5308400D02*
G75*
G03*
X10757000Y-5308400I-30000J0D01*
G01*
D11*
X10672000Y-5338400D02*
X10782000Y-5338400D01*
X10672000Y-5278400D02*
X10782000Y-5278400D01*
X10782000Y-5338400D02*
G75*
G03*
X10782000Y-5278400I0J30000D01*
G01*
X10672000Y-5278400D02*
G75*
G03*
X10672000Y-5338400I0J-30000D01*
G01*
D12*
X10757000Y-6172400D02*
G75*
G03*
X10757000Y-6172400I-30000J0D01*
G01*
D11*
X10672000Y-6202400D02*
X10782000Y-6202400D01*
X10672000Y-6142400D02*
X10782000Y-6142400D01*
X10782000Y-6202400D02*
G75*
G03*
X10782000Y-6142400I0J30000D01*
G01*
X10672000Y-6142400D02*
G75*
G03*
X10672000Y-6202400I0J-30000D01*
G01*
D13*
X12852400Y-8194600D02*
X12852400Y-8264600D01*
X12817400Y-8229600D02*
X12887400Y-8229600D01*
X13360400Y-8194600D02*
X13360400Y-8264600D01*
X13325400Y-8229600D02*
X13395400Y-8229600D01*
D14*
X10872356Y-4658356D02*
X10872356Y-4587644D01*
X10801644Y-4587644D01*
X10801644Y-4658356D01*
X10872356Y-4658356D01*
X10872356Y-4912356D02*
X10872356Y-4841644D01*
X10801644Y-4841644D01*
X10801644Y-4912356D01*
X10872356Y-4912356D01*
X11126356Y-4658356D02*
X11126356Y-4587644D01*
X11055644Y-4587644D01*
X11055644Y-4658356D01*
X11126356Y-4658356D01*
X11126356Y-4912356D02*
X11126356Y-4841644D01*
X11055644Y-4841644D01*
X11055644Y-4912356D01*
X11126356Y-4912356D01*
X11380356Y-4658356D02*
X11380356Y-4587644D01*
X11309644Y-4587644D01*
X11309644Y-4658356D01*
X11380356Y-4658356D01*
X11380356Y-4912356D02*
X11380356Y-4841644D01*
X11309644Y-4841644D01*
X11309644Y-4912356D01*
X11380356Y-4912356D01*
X11634356Y-4658356D02*
X11634356Y-4587644D01*
X11563644Y-4587644D01*
X11563644Y-4658356D01*
X11634356Y-4658356D01*
X11634356Y-4912356D02*
X11634356Y-4841644D01*
X11563644Y-4841644D01*
X11563644Y-4912356D01*
X11634356Y-4912356D01*
X11888356Y-4658356D02*
X11888356Y-4587644D01*
X11817644Y-4587644D01*
X11817644Y-4658356D01*
X11888356Y-4658356D01*
X11888356Y-4912356D02*
X11888356Y-4841644D01*
X11817644Y-4841644D01*
X11817644Y-4912356D01*
X11888356Y-4912356D01*
X12142356Y-4658356D02*
X12142356Y-4587644D01*
X12071644Y-4587644D01*
X12071644Y-4658356D01*
X12142356Y-4658356D01*
X12142356Y-4912356D02*
X12142356Y-4841644D01*
X12071644Y-4841644D01*
X12071644Y-4912356D01*
X12142356Y-4912356D01*
X12396356Y-4658356D02*
X12396356Y-4587644D01*
X12325644Y-4587644D01*
X12325644Y-4658356D01*
X12396356Y-4658356D01*
X12396356Y-4912356D02*
X12396356Y-4841644D01*
X12325644Y-4841644D01*
X12325644Y-4912356D01*
X12396356Y-4912356D01*
X12650356Y-4658356D02*
X12650356Y-4587644D01*
X12579644Y-4587644D01*
X12579644Y-4658356D01*
X12650356Y-4658356D01*
X12650356Y-4912356D02*
X12650356Y-4841644D01*
X12579644Y-4841644D01*
X12579644Y-4912356D01*
X12650356Y-4912356D01*
X12904356Y-4658356D02*
X12904356Y-4587644D01*
X12833644Y-4587644D01*
X12833644Y-4658356D01*
X12904356Y-4658356D01*
X12904356Y-4912356D02*
X12904356Y-4841644D01*
X12833644Y-4841644D01*
X12833644Y-4912356D01*
X12904356Y-4912356D01*
X13158356Y-4658356D02*
X13158356Y-4587644D01*
X13087644Y-4587644D01*
X13087644Y-4658356D01*
X13158356Y-4658356D01*
X13158356Y-4912356D02*
X13158356Y-4841644D01*
X13087644Y-4841644D01*
X13087644Y-4912356D01*
X13158356Y-4912356D01*
X13412356Y-4658356D02*
X13412356Y-4587644D01*
X13341644Y-4587644D01*
X13341644Y-4658356D01*
X13412356Y-4658356D01*
X13412356Y-4912356D02*
X13412356Y-4841644D01*
X13341644Y-4841644D01*
X13341644Y-4912356D01*
X13412356Y-4912356D01*
X13666356Y-4658356D02*
X13666356Y-4587644D01*
X13595644Y-4587644D01*
X13595644Y-4658356D01*
X13666356Y-4658356D01*
X13666356Y-4912356D02*
X13666356Y-4841644D01*
X13595644Y-4841644D01*
X13595644Y-4912356D01*
X13666356Y-4912356D01*
X13920356Y-4658356D02*
X13920356Y-4587644D01*
X13849644Y-4587644D01*
X13849644Y-4658356D01*
X13920356Y-4658356D01*
X13920356Y-4912356D02*
X13920356Y-4841644D01*
X13849644Y-4841644D01*
X13849644Y-4912356D01*
X13920356Y-4912356D01*
X14174356Y-4658356D02*
X14174356Y-4587644D01*
X14103644Y-4587644D01*
X14103644Y-4658356D01*
X14174356Y-4658356D01*
X14174356Y-4912356D02*
X14174356Y-4841644D01*
X14103644Y-4841644D01*
X14103644Y-4912356D01*
X14174356Y-4912356D01*
X14428356Y-4658356D02*
X14428356Y-4587644D01*
X14357644Y-4587644D01*
X14357644Y-4658356D01*
X14428356Y-4658356D01*
X14428356Y-4912356D02*
X14428356Y-4841644D01*
X14357644Y-4841644D01*
X14357644Y-4912356D01*
X14428356Y-4912356D01*
X14682356Y-4658356D02*
X14682356Y-4587644D01*
X14611644Y-4587644D01*
X14611644Y-4658356D01*
X14682356Y-4658356D01*
X14682356Y-4912356D02*
X14682356Y-4841644D01*
X14611644Y-4841644D01*
X14611644Y-4912356D01*
X14682356Y-4912356D01*
X14936356Y-4658356D02*
X14936356Y-4587644D01*
X14865644Y-4587644D01*
X14865644Y-4658356D01*
X14936356Y-4658356D01*
X14936356Y-4912356D02*
X14936356Y-4841644D01*
X14865644Y-4841644D01*
X14865644Y-4912356D01*
X14936356Y-4912356D01*
X15190356Y-4658356D02*
X15190356Y-4587644D01*
X15119644Y-4587644D01*
X15119644Y-4658356D01*
X15190356Y-4658356D01*
X15190356Y-4912356D02*
X15190356Y-4841644D01*
X15119644Y-4841644D01*
X15119644Y-4912356D01*
X15190356Y-4912356D01*
X15444356Y-4658356D02*
X15444356Y-4587644D01*
X15373644Y-4587644D01*
X15373644Y-4658356D01*
X15444356Y-4658356D01*
X15444356Y-4912356D02*
X15444356Y-4841644D01*
X15373644Y-4841644D01*
X15373644Y-4912356D01*
X15444356Y-4912356D01*
X15698356Y-4658356D02*
X15698356Y-4587644D01*
X15627644Y-4587644D01*
X15627644Y-4658356D01*
X15698356Y-4658356D01*
X15698356Y-4912356D02*
X15698356Y-4841644D01*
X15627644Y-4841644D01*
X15627644Y-4912356D01*
X15698356Y-4912356D01*
D15*
X10414000Y-6760600D02*
X10469000Y-6705600D01*
X10414000Y-6650600D01*
X10359000Y-6705600D01*
X10414000Y-6760600D01*
X10414000Y-7014600D02*
X10469000Y-6959600D01*
X10414000Y-6904600D01*
X10359000Y-6959600D01*
X10414000Y-7014600D01*
X10414000Y-7268600D02*
X10469000Y-7213600D01*
X10414000Y-7158600D01*
X10359000Y-7213600D01*
X10414000Y-7268600D01*
X10414000Y-7522600D02*
X10469000Y-7467600D01*
X10414000Y-7412600D01*
X10359000Y-7467600D01*
X10414000Y-7522600D01*
X10414000Y-7776600D02*
X10469000Y-7721600D01*
X10414000Y-7666600D01*
X10359000Y-7721600D01*
X10414000Y-7776600D01*
X10414000Y-8030600D02*
X10469000Y-7975600D01*
X10414000Y-7920600D01*
X10359000Y-7975600D01*
X10414000Y-8030600D01*
X10414000Y-8284600D02*
X10469000Y-8229600D01*
X10414000Y-8174600D01*
X10359000Y-8229600D01*
X10414000Y-8284600D01*
X10414000Y-8538600D02*
X10469000Y-8483600D01*
X10414000Y-8428600D01*
X10359000Y-8483600D01*
X10414000Y-8538600D01*
X11480800Y-9656200D02*
X11535800Y-9601200D01*
X11480800Y-9546200D01*
X11425800Y-9601200D01*
X11480800Y-9656200D01*
X11734800Y-9656200D02*
X11789800Y-9601200D01*
X11734800Y-9546200D01*
X11679800Y-9601200D01*
X11734800Y-9656200D01*
X11988800Y-9656200D02*
X12043800Y-9601200D01*
X11988800Y-9546200D01*
X11933800Y-9601200D01*
X11988800Y-9656200D01*
X12242800Y-9656200D02*
X12297800Y-9601200D01*
X12242800Y-9546200D01*
X12187800Y-9601200D01*
X12242800Y-9656200D01*
X12496800Y-9656200D02*
X12551800Y-9601200D01*
X12496800Y-9546200D01*
X12441800Y-9601200D01*
X12496800Y-9656200D01*
X12750800Y-9656200D02*
X12805800Y-9601200D01*
X12750800Y-9546200D01*
X12695800Y-9601200D01*
X12750800Y-9656200D01*
X13004800Y-9656200D02*
X13059800Y-9601200D01*
X13004800Y-9546200D01*
X12949800Y-9601200D01*
X13004800Y-9656200D01*
X13258800Y-9656200D02*
X13313800Y-9601200D01*
X13258800Y-9546200D01*
X13203800Y-9601200D01*
X13258800Y-9656200D01*
X13817600Y-9656200D02*
X13872600Y-9601200D01*
X13817600Y-9546200D01*
X13762600Y-9601200D01*
X13817600Y-9656200D01*
X14071600Y-9656200D02*
X14126600Y-9601200D01*
X14071600Y-9546200D01*
X14016600Y-9601200D01*
X14071600Y-9656200D01*
X14325600Y-9656200D02*
X14380600Y-9601200D01*
X14325600Y-9546200D01*
X14270600Y-9601200D01*
X14325600Y-9656200D01*
X14579600Y-9656200D02*
X14634600Y-9601200D01*
X14579600Y-9546200D01*
X14524600Y-9601200D01*
X14579600Y-9656200D01*
X14833600Y-9656200D02*
X14888600Y-9601200D01*
X14833600Y-9546200D01*
X14778600Y-9601200D01*
X14833600Y-9656200D01*
X15087600Y-9656200D02*
X15142600Y-9601200D01*
X15087600Y-9546200D01*
X15032600Y-9601200D01*
X15087600Y-9656200D01*
X15341600Y-9656200D02*
X15396600Y-9601200D01*
X15341600Y-9546200D01*
X15286600Y-9601200D01*
X15341600Y-9656200D01*
X15595600Y-9656200D02*
X15650600Y-9601200D01*
X15595600Y-9546200D01*
X15540600Y-9601200D01*
X15595600Y-9656200D01*
D11*
X10252619Y-10315476D02*
X10252619Y-10115476D01*
X10300238Y-10115476D01*
X10328810Y-10125000D01*
X10347857Y-10144048D01*
X10357381Y-10163095D01*
X10366905Y-10201190D01*
X10366905Y-10229762D01*
X10357381Y-10267857D01*
X10347857Y-10286905D01*
X10328810Y-10305952D01*
X10300238Y-10315476D01*
X10252619Y-10315476D01*
X10452619Y-10315476D02*
X10452619Y-10182143D01*
X10452619Y-10220238D02*
X10462143Y-10201190D01*
X10471667Y-10191667D01*
X10490714Y-10182143D01*
X10509762Y-10182143D01*
X10576429Y-10315476D02*
X10576429Y-10182143D01*
X10576429Y-10115476D02*
X10566905Y-10125000D01*
X10576429Y-10134524D01*
X10585952Y-10125000D01*
X10576429Y-10115476D01*
X10576429Y-10134524D01*
X10700238Y-10315476D02*
X10681190Y-10305952D01*
X10671667Y-10286905D01*
X10671667Y-10115476D01*
X10805000Y-10315476D02*
X10785952Y-10305952D01*
X10776429Y-10286905D01*
X10776429Y-10115476D01*
X11033571Y-10315476D02*
X11033571Y-10115476D01*
X11100238Y-10258333D01*
X11166905Y-10115476D01*
X11166905Y-10315476D01*
X11347857Y-10315476D02*
X11347857Y-10210714D01*
X11338333Y-10191667D01*
X11319286Y-10182143D01*
X11281190Y-10182143D01*
X11262143Y-10191667D01*
X11347857Y-10305952D02*
X11328809Y-10315476D01*
X11281190Y-10315476D01*
X11262143Y-10305952D01*
X11252619Y-10286905D01*
X11252619Y-10267857D01*
X11262143Y-10248810D01*
X11281190Y-10239286D01*
X11328809Y-10239286D01*
X11347857Y-10229762D01*
X11443095Y-10182143D02*
X11443095Y-10382143D01*
X11443095Y-10191667D02*
X11462143Y-10182143D01*
X11500238Y-10182143D01*
X11519286Y-10191667D01*
X11528809Y-10201190D01*
X11538333Y-10220238D01*
X11538333Y-10277381D01*
X11528809Y-10296429D01*
X11519286Y-10305952D01*
X11500238Y-10315476D01*
X11462143Y-10315476D01*
X11443095Y-10305952D01*
X11624048Y-10296429D02*
X11633571Y-10305952D01*
X11624048Y-10315476D01*
X11614524Y-10305952D01*
X11624048Y-10296429D01*
X11624048Y-10315476D01*
X11624048Y-10191667D02*
X11633571Y-10201190D01*
X11624048Y-10210714D01*
X11614524Y-10201190D01*
X11624048Y-10191667D01*
X11624048Y-10210714D01*
D12*
X9935000Y-10615000D02*
X9995000Y-10675000D01*
X9995000Y-10615000D02*
X9935000Y-10675000D01*
D11*
X10290714Y-10535476D02*
X10309762Y-10535476D01*
X10328810Y-10545000D01*
X10338333Y-10554524D01*
X10347857Y-10573571D01*
X10357381Y-10611667D01*
X10357381Y-10659286D01*
X10347857Y-10697381D01*
X10338333Y-10716429D01*
X10328810Y-10725952D01*
X10309762Y-10735476D01*
X10290714Y-10735476D01*
X10271667Y-10725952D01*
X10262143Y-10716429D01*
X10252619Y-10697381D01*
X10243095Y-10659286D01*
X10243095Y-10611667D01*
X10252619Y-10573571D01*
X10262143Y-10554524D01*
X10271667Y-10545000D01*
X10290714Y-10535476D01*
X10443095Y-10716429D02*
X10452619Y-10725952D01*
X10443095Y-10735476D01*
X10433571Y-10725952D01*
X10443095Y-10716429D01*
X10443095Y-10735476D01*
X10624048Y-10535476D02*
X10585952Y-10535476D01*
X10566905Y-10545000D01*
X10557381Y-10554524D01*
X10538333Y-10583095D01*
X10528810Y-10621190D01*
X10528810Y-10697381D01*
X10538333Y-10716429D01*
X10547857Y-10725952D01*
X10566905Y-10735476D01*
X10605000Y-10735476D01*
X10624048Y-10725952D01*
X10633571Y-10716429D01*
X10643095Y-10697381D01*
X10643095Y-10649762D01*
X10633571Y-10630714D01*
X10624048Y-10621190D01*
X10605000Y-10611667D01*
X10566905Y-10611667D01*
X10547857Y-10621190D01*
X10538333Y-10630714D01*
X10528810Y-10649762D01*
X10766905Y-10535476D02*
X10785952Y-10535476D01*
X10805000Y-10545000D01*
X10814524Y-10554524D01*
X10824048Y-10573571D01*
X10833571Y-10611667D01*
X10833571Y-10659286D01*
X10824048Y-10697381D01*
X10814524Y-10716429D01*
X10805000Y-10725952D01*
X10785952Y-10735476D01*
X10766905Y-10735476D01*
X10747857Y-10725952D01*
X10738333Y-10716429D01*
X10728810Y-10697381D01*
X10719286Y-10659286D01*
X10719286Y-10611667D01*
X10728810Y-10573571D01*
X10738333Y-10554524D01*
X10747857Y-10545000D01*
X10766905Y-10535476D01*
X10957381Y-10535476D02*
X10976429Y-10535476D01*
X10995476Y-10545000D01*
X11005000Y-10554524D01*
X11014524Y-10573571D01*
X11024048Y-10611667D01*
X11024048Y-10659286D01*
X11014524Y-10697381D01*
X11005000Y-10716429D01*
X10995476Y-10725952D01*
X10976429Y-10735476D01*
X10957381Y-10735476D01*
X10938333Y-10725952D01*
X10928810Y-10716429D01*
X10919286Y-10697381D01*
X10909762Y-10659286D01*
X10909762Y-10611667D01*
X10919286Y-10573571D01*
X10928810Y-10554524D01*
X10938333Y-10545000D01*
X10957381Y-10535476D01*
X11109762Y-10735476D02*
X11109762Y-10602143D01*
X11109762Y-10621190D02*
X11119286Y-10611667D01*
X11138333Y-10602143D01*
X11166905Y-10602143D01*
X11185952Y-10611667D01*
X11195476Y-10630714D01*
X11195476Y-10735476D01*
X11195476Y-10630714D02*
X11205000Y-10611667D01*
X11224048Y-10602143D01*
X11252619Y-10602143D01*
X11271667Y-10611667D01*
X11281190Y-10630714D01*
X11281190Y-10735476D01*
X11376428Y-10735476D02*
X11376428Y-10602143D01*
X11376428Y-10621190D02*
X11385952Y-10611667D01*
X11405000Y-10602143D01*
X11433571Y-10602143D01*
X11452619Y-10611667D01*
X11462143Y-10630714D01*
X11462143Y-10735476D01*
X11462143Y-10630714D02*
X11471667Y-10611667D01*
X11490714Y-10602143D01*
X11519286Y-10602143D01*
X11538333Y-10611667D01*
X11547857Y-10630714D01*
X11547857Y-10735476D01*
X11938333Y-10525952D02*
X11766905Y-10783095D01*
X12195476Y-10535476D02*
X12214524Y-10535476D01*
X12233571Y-10545000D01*
X12243095Y-10554524D01*
X12252619Y-10573571D01*
X12262143Y-10611667D01*
X12262143Y-10659286D01*
X12252619Y-10697381D01*
X12243095Y-10716429D01*
X12233571Y-10725952D01*
X12214524Y-10735476D01*
X12195476Y-10735476D01*
X12176428Y-10725952D01*
X12166905Y-10716429D01*
X12157381Y-10697381D01*
X12147857Y-10659286D01*
X12147857Y-10611667D01*
X12157381Y-10573571D01*
X12166905Y-10554524D01*
X12176428Y-10545000D01*
X12195476Y-10535476D01*
X12347857Y-10716429D02*
X12357381Y-10725952D01*
X12347857Y-10735476D01*
X12338333Y-10725952D01*
X12347857Y-10716429D01*
X12347857Y-10735476D01*
X12481190Y-10535476D02*
X12500238Y-10535476D01*
X12519286Y-10545000D01*
X12528809Y-10554524D01*
X12538333Y-10573571D01*
X12547857Y-10611667D01*
X12547857Y-10659286D01*
X12538333Y-10697381D01*
X12528809Y-10716429D01*
X12519286Y-10725952D01*
X12500238Y-10735476D01*
X12481190Y-10735476D01*
X12462143Y-10725952D01*
X12452619Y-10716429D01*
X12443095Y-10697381D01*
X12433571Y-10659286D01*
X12433571Y-10611667D01*
X12443095Y-10573571D01*
X12452619Y-10554524D01*
X12462143Y-10545000D01*
X12481190Y-10535476D01*
X12624048Y-10554524D02*
X12633571Y-10545000D01*
X12652619Y-10535476D01*
X12700238Y-10535476D01*
X12719286Y-10545000D01*
X12728809Y-10554524D01*
X12738333Y-10573571D01*
X12738333Y-10592619D01*
X12728809Y-10621190D01*
X12614524Y-10735476D01*
X12738333Y-10735476D01*
X12805000Y-10535476D02*
X12928809Y-10535476D01*
X12862143Y-10611667D01*
X12890714Y-10611667D01*
X12909762Y-10621190D01*
X12919286Y-10630714D01*
X12928809Y-10649762D01*
X12928809Y-10697381D01*
X12919286Y-10716429D01*
X12909762Y-10725952D01*
X12890714Y-10735476D01*
X12833571Y-10735476D01*
X12814524Y-10725952D01*
X12805000Y-10716429D01*
X13100238Y-10535476D02*
X13062143Y-10535476D01*
X13043095Y-10545000D01*
X13033571Y-10554524D01*
X13014524Y-10583095D01*
X13005000Y-10621190D01*
X13005000Y-10697381D01*
X13014524Y-10716429D01*
X13024048Y-10725952D01*
X13043095Y-10735476D01*
X13081190Y-10735476D01*
X13100238Y-10725952D01*
X13109762Y-10716429D01*
X13119286Y-10697381D01*
X13119286Y-10649762D01*
X13109762Y-10630714D01*
X13100238Y-10621190D01*
X13081190Y-10611667D01*
X13043095Y-10611667D01*
X13024048Y-10621190D01*
X13014524Y-10630714D01*
X13005000Y-10649762D01*
X13195476Y-10535476D02*
X13195476Y-10573571D01*
X13271667Y-10535476D02*
X13271667Y-10573571D01*
X13566905Y-10811667D02*
X13557381Y-10802143D01*
X13538333Y-10773571D01*
X13528809Y-10754524D01*
X13519286Y-10725952D01*
X13509762Y-10678333D01*
X13509762Y-10640238D01*
X13519286Y-10592619D01*
X13528809Y-10564048D01*
X13538333Y-10545000D01*
X13557381Y-10516429D01*
X13566905Y-10506905D01*
X13671667Y-10621190D02*
X13652619Y-10611667D01*
X13643095Y-10602143D01*
X13633571Y-10583095D01*
X13633571Y-10573571D01*
X13643095Y-10554524D01*
X13652619Y-10545000D01*
X13671667Y-10535476D01*
X13709762Y-10535476D01*
X13728809Y-10545000D01*
X13738333Y-10554524D01*
X13747857Y-10573571D01*
X13747857Y-10583095D01*
X13738333Y-10602143D01*
X13728809Y-10611667D01*
X13709762Y-10621190D01*
X13671667Y-10621190D01*
X13652619Y-10630714D01*
X13643095Y-10640238D01*
X13633571Y-10659286D01*
X13633571Y-10697381D01*
X13643095Y-10716429D01*
X13652619Y-10725952D01*
X13671667Y-10735476D01*
X13709762Y-10735476D01*
X13728809Y-10725952D01*
X13738333Y-10716429D01*
X13747857Y-10697381D01*
X13747857Y-10659286D01*
X13738333Y-10640238D01*
X13728809Y-10630714D01*
X13709762Y-10621190D01*
X13862143Y-10621190D02*
X13843095Y-10611667D01*
X13833571Y-10602143D01*
X13824048Y-10583095D01*
X13824048Y-10573571D01*
X13833571Y-10554524D01*
X13843095Y-10545000D01*
X13862143Y-10535476D01*
X13900238Y-10535476D01*
X13919286Y-10545000D01*
X13928809Y-10554524D01*
X13938333Y-10573571D01*
X13938333Y-10583095D01*
X13928809Y-10602143D01*
X13919286Y-10611667D01*
X13900238Y-10621190D01*
X13862143Y-10621190D01*
X13843095Y-10630714D01*
X13833571Y-10640238D01*
X13824048Y-10659286D01*
X13824048Y-10697381D01*
X13833571Y-10716429D01*
X13843095Y-10725952D01*
X13862143Y-10735476D01*
X13900238Y-10735476D01*
X13919286Y-10725952D01*
X13928809Y-10716429D01*
X13938333Y-10697381D01*
X13938333Y-10659286D01*
X13928809Y-10640238D01*
X13919286Y-10630714D01*
X13900238Y-10621190D01*
X14176428Y-10735476D02*
X14176428Y-10535476D01*
X14262143Y-10735476D02*
X14262143Y-10630714D01*
X14252619Y-10611667D01*
X14233571Y-10602143D01*
X14205000Y-10602143D01*
X14185952Y-10611667D01*
X14176428Y-10621190D01*
X14385952Y-10735476D02*
X14366905Y-10725952D01*
X14357381Y-10716429D01*
X14347857Y-10697381D01*
X14347857Y-10640238D01*
X14357381Y-10621190D01*
X14366905Y-10611667D01*
X14385952Y-10602143D01*
X14414524Y-10602143D01*
X14433571Y-10611667D01*
X14443095Y-10621190D01*
X14452619Y-10640238D01*
X14452619Y-10697381D01*
X14443095Y-10716429D01*
X14433571Y-10725952D01*
X14414524Y-10735476D01*
X14385952Y-10735476D01*
X14566905Y-10735476D02*
X14547857Y-10725952D01*
X14538333Y-10706905D01*
X14538333Y-10535476D01*
X14719286Y-10725952D02*
X14700238Y-10735476D01*
X14662143Y-10735476D01*
X14643095Y-10725952D01*
X14633571Y-10706905D01*
X14633571Y-10630714D01*
X14643095Y-10611667D01*
X14662143Y-10602143D01*
X14700238Y-10602143D01*
X14719286Y-10611667D01*
X14728809Y-10630714D01*
X14728809Y-10649762D01*
X14633571Y-10668810D01*
X14805000Y-10725952D02*
X14824048Y-10735476D01*
X14862143Y-10735476D01*
X14881190Y-10725952D01*
X14890714Y-10706905D01*
X14890714Y-10697381D01*
X14881190Y-10678333D01*
X14862143Y-10668810D01*
X14833571Y-10668810D01*
X14814524Y-10659286D01*
X14805000Y-10640238D01*
X14805000Y-10630714D01*
X14814524Y-10611667D01*
X14833571Y-10602143D01*
X14862143Y-10602143D01*
X14881190Y-10611667D01*
X14957381Y-10811667D02*
X14966905Y-10802143D01*
X14985952Y-10773571D01*
X14995476Y-10754524D01*
X15005000Y-10725952D01*
X15014524Y-10678333D01*
X15014524Y-10640238D01*
X15005000Y-10592619D01*
X14995476Y-10564048D01*
X14985952Y-10545000D01*
X14966905Y-10516429D01*
X14957381Y-10506905D01*
D12*
X9995000Y-10909000D02*
G75*
G03*
X9995000Y-10909000I-30000J0D01*
G01*
D11*
X10290714Y-10799476D02*
X10309762Y-10799476D01*
X10328810Y-10809000D01*
X10338333Y-10818524D01*
X10347857Y-10837571D01*
X10357381Y-10875667D01*
X10357381Y-10923286D01*
X10347857Y-10961381D01*
X10338333Y-10980429D01*
X10328810Y-10989952D01*
X10309762Y-10999476D01*
X10290714Y-10999476D01*
X10271667Y-10989952D01*
X10262143Y-10980429D01*
X10252619Y-10961381D01*
X10243095Y-10923286D01*
X10243095Y-10875667D01*
X10252619Y-10837571D01*
X10262143Y-10818524D01*
X10271667Y-10809000D01*
X10290714Y-10799476D01*
X10443095Y-10980429D02*
X10452619Y-10989952D01*
X10443095Y-10999476D01*
X10433571Y-10989952D01*
X10443095Y-10980429D01*
X10443095Y-10999476D01*
X10624048Y-10799476D02*
X10585952Y-10799476D01*
X10566905Y-10809000D01*
X10557381Y-10818524D01*
X10538333Y-10847095D01*
X10528810Y-10885190D01*
X10528810Y-10961381D01*
X10538333Y-10980429D01*
X10547857Y-10989952D01*
X10566905Y-10999476D01*
X10605000Y-10999476D01*
X10624048Y-10989952D01*
X10633571Y-10980429D01*
X10643095Y-10961381D01*
X10643095Y-10913762D01*
X10633571Y-10894714D01*
X10624048Y-10885190D01*
X10605000Y-10875667D01*
X10566905Y-10875667D01*
X10547857Y-10885190D01*
X10538333Y-10894714D01*
X10528810Y-10913762D01*
X10766905Y-10799476D02*
X10785952Y-10799476D01*
X10805000Y-10809000D01*
X10814524Y-10818524D01*
X10824048Y-10837571D01*
X10833571Y-10875667D01*
X10833571Y-10923286D01*
X10824048Y-10961381D01*
X10814524Y-10980429D01*
X10805000Y-10989952D01*
X10785952Y-10999476D01*
X10766905Y-10999476D01*
X10747857Y-10989952D01*
X10738333Y-10980429D01*
X10728810Y-10961381D01*
X10719286Y-10923286D01*
X10719286Y-10875667D01*
X10728810Y-10837571D01*
X10738333Y-10818524D01*
X10747857Y-10809000D01*
X10766905Y-10799476D01*
X10957381Y-10799476D02*
X10976429Y-10799476D01*
X10995476Y-10809000D01*
X11005000Y-10818524D01*
X11014524Y-10837571D01*
X11024048Y-10875667D01*
X11024048Y-10923286D01*
X11014524Y-10961381D01*
X11005000Y-10980429D01*
X10995476Y-10989952D01*
X10976429Y-10999476D01*
X10957381Y-10999476D01*
X10938333Y-10989952D01*
X10928810Y-10980429D01*
X10919286Y-10961381D01*
X10909762Y-10923286D01*
X10909762Y-10875667D01*
X10919286Y-10837571D01*
X10928810Y-10818524D01*
X10938333Y-10809000D01*
X10957381Y-10799476D01*
X11109762Y-10999476D02*
X11109762Y-10866143D01*
X11109762Y-10885190D02*
X11119286Y-10875667D01*
X11138333Y-10866143D01*
X11166905Y-10866143D01*
X11185952Y-10875667D01*
X11195476Y-10894714D01*
X11195476Y-10999476D01*
X11195476Y-10894714D02*
X11205000Y-10875667D01*
X11224048Y-10866143D01*
X11252619Y-10866143D01*
X11271667Y-10875667D01*
X11281190Y-10894714D01*
X11281190Y-10999476D01*
X11376428Y-10999476D02*
X11376428Y-10866143D01*
X11376428Y-10885190D02*
X11385952Y-10875667D01*
X11405000Y-10866143D01*
X11433571Y-10866143D01*
X11452619Y-10875667D01*
X11462143Y-10894714D01*
X11462143Y-10999476D01*
X11462143Y-10894714D02*
X11471667Y-10875667D01*
X11490714Y-10866143D01*
X11519286Y-10866143D01*
X11538333Y-10875667D01*
X11547857Y-10894714D01*
X11547857Y-10999476D01*
X11938333Y-10789952D02*
X11766905Y-11047095D01*
X12195476Y-10799476D02*
X12214524Y-10799476D01*
X12233571Y-10809000D01*
X12243095Y-10818524D01*
X12252619Y-10837571D01*
X12262143Y-10875667D01*
X12262143Y-10923286D01*
X12252619Y-10961381D01*
X12243095Y-10980429D01*
X12233571Y-10989952D01*
X12214524Y-10999476D01*
X12195476Y-10999476D01*
X12176428Y-10989952D01*
X12166905Y-10980429D01*
X12157381Y-10961381D01*
X12147857Y-10923286D01*
X12147857Y-10875667D01*
X12157381Y-10837571D01*
X12166905Y-10818524D01*
X12176428Y-10809000D01*
X12195476Y-10799476D01*
X12347857Y-10980429D02*
X12357381Y-10989952D01*
X12347857Y-10999476D01*
X12338333Y-10989952D01*
X12347857Y-10980429D01*
X12347857Y-10999476D01*
X12481190Y-10799476D02*
X12500238Y-10799476D01*
X12519286Y-10809000D01*
X12528809Y-10818524D01*
X12538333Y-10837571D01*
X12547857Y-10875667D01*
X12547857Y-10923286D01*
X12538333Y-10961381D01*
X12528809Y-10980429D01*
X12519286Y-10989952D01*
X12500238Y-10999476D01*
X12481190Y-10999476D01*
X12462143Y-10989952D01*
X12452619Y-10980429D01*
X12443095Y-10961381D01*
X12433571Y-10923286D01*
X12433571Y-10875667D01*
X12443095Y-10837571D01*
X12452619Y-10818524D01*
X12462143Y-10809000D01*
X12481190Y-10799476D01*
X12624048Y-10818524D02*
X12633571Y-10809000D01*
X12652619Y-10799476D01*
X12700238Y-10799476D01*
X12719286Y-10809000D01*
X12728809Y-10818524D01*
X12738333Y-10837571D01*
X12738333Y-10856619D01*
X12728809Y-10885190D01*
X12614524Y-10999476D01*
X12738333Y-10999476D01*
X12805000Y-10799476D02*
X12928809Y-10799476D01*
X12862143Y-10875667D01*
X12890714Y-10875667D01*
X12909762Y-10885190D01*
X12919286Y-10894714D01*
X12928809Y-10913762D01*
X12928809Y-10961381D01*
X12919286Y-10980429D01*
X12909762Y-10989952D01*
X12890714Y-10999476D01*
X12833571Y-10999476D01*
X12814524Y-10989952D01*
X12805000Y-10980429D01*
X13100238Y-10799476D02*
X13062143Y-10799476D01*
X13043095Y-10809000D01*
X13033571Y-10818524D01*
X13014524Y-10847095D01*
X13005000Y-10885190D01*
X13005000Y-10961381D01*
X13014524Y-10980429D01*
X13024048Y-10989952D01*
X13043095Y-10999476D01*
X13081190Y-10999476D01*
X13100238Y-10989952D01*
X13109762Y-10980429D01*
X13119286Y-10961381D01*
X13119286Y-10913762D01*
X13109762Y-10894714D01*
X13100238Y-10885190D01*
X13081190Y-10875667D01*
X13043095Y-10875667D01*
X13024048Y-10885190D01*
X13014524Y-10894714D01*
X13005000Y-10913762D01*
X13195476Y-10799476D02*
X13195476Y-10837571D01*
X13271667Y-10799476D02*
X13271667Y-10837571D01*
X13566905Y-11075667D02*
X13557381Y-11066143D01*
X13538333Y-11037571D01*
X13528809Y-11018524D01*
X13519286Y-10989952D01*
X13509762Y-10942333D01*
X13509762Y-10904238D01*
X13519286Y-10856619D01*
X13528809Y-10828048D01*
X13538333Y-10809000D01*
X13557381Y-10780429D01*
X13566905Y-10770905D01*
X13681190Y-10799476D02*
X13700238Y-10799476D01*
X13719286Y-10809000D01*
X13728809Y-10818524D01*
X13738333Y-10837571D01*
X13747857Y-10875667D01*
X13747857Y-10923286D01*
X13738333Y-10961381D01*
X13728809Y-10980429D01*
X13719286Y-10989952D01*
X13700238Y-10999476D01*
X13681190Y-10999476D01*
X13662143Y-10989952D01*
X13652619Y-10980429D01*
X13643095Y-10961381D01*
X13633571Y-10923286D01*
X13633571Y-10875667D01*
X13643095Y-10837571D01*
X13652619Y-10818524D01*
X13662143Y-10809000D01*
X13681190Y-10799476D01*
X13985952Y-10999476D02*
X13985952Y-10799476D01*
X14071667Y-10999476D02*
X14071667Y-10894714D01*
X14062143Y-10875667D01*
X14043095Y-10866143D01*
X14014524Y-10866143D01*
X13995476Y-10875667D01*
X13985952Y-10885190D01*
X14195476Y-10999476D02*
X14176428Y-10989952D01*
X14166905Y-10980429D01*
X14157381Y-10961381D01*
X14157381Y-10904238D01*
X14166905Y-10885190D01*
X14176428Y-10875667D01*
X14195476Y-10866143D01*
X14224048Y-10866143D01*
X14243095Y-10875667D01*
X14252619Y-10885190D01*
X14262143Y-10904238D01*
X14262143Y-10961381D01*
X14252619Y-10980429D01*
X14243095Y-10989952D01*
X14224048Y-10999476D01*
X14195476Y-10999476D01*
X14376428Y-10999476D02*
X14357381Y-10989952D01*
X14347857Y-10970905D01*
X14347857Y-10799476D01*
X14528809Y-10989952D02*
X14509762Y-10999476D01*
X14471667Y-10999476D01*
X14452619Y-10989952D01*
X14443095Y-10970905D01*
X14443095Y-10894714D01*
X14452619Y-10875667D01*
X14471667Y-10866143D01*
X14509762Y-10866143D01*
X14528809Y-10875667D01*
X14538333Y-10894714D01*
X14538333Y-10913762D01*
X14443095Y-10932810D01*
X14614524Y-10989952D02*
X14633571Y-10999476D01*
X14671667Y-10999476D01*
X14690714Y-10989952D01*
X14700238Y-10970905D01*
X14700238Y-10961381D01*
X14690714Y-10942333D01*
X14671667Y-10932810D01*
X14643095Y-10932810D01*
X14624048Y-10923286D01*
X14614524Y-10904238D01*
X14614524Y-10894714D01*
X14624048Y-10875667D01*
X14643095Y-10866143D01*
X14671667Y-10866143D01*
X14690714Y-10875667D01*
X14938333Y-10923286D02*
X15090714Y-10923286D01*
X15014524Y-10999476D02*
X15014524Y-10847095D01*
X15424048Y-10866143D02*
X15424048Y-10999476D01*
X15376428Y-10789952D02*
X15328809Y-10932810D01*
X15452619Y-10932810D01*
X15671667Y-10989952D02*
X15690714Y-10999476D01*
X15728809Y-10999476D01*
X15747857Y-10989952D01*
X15757381Y-10970905D01*
X15757381Y-10961381D01*
X15747857Y-10942333D01*
X15728809Y-10932810D01*
X15700238Y-10932810D01*
X15681190Y-10923286D01*
X15671667Y-10904238D01*
X15671667Y-10894714D01*
X15681190Y-10875667D01*
X15700238Y-10866143D01*
X15728809Y-10866143D01*
X15747857Y-10875667D01*
X15871667Y-10999476D02*
X15852619Y-10989952D01*
X15843095Y-10970905D01*
X15843095Y-10799476D01*
X15976428Y-10999476D02*
X15957381Y-10989952D01*
X15947857Y-10980429D01*
X15938333Y-10961381D01*
X15938333Y-10904238D01*
X15947857Y-10885190D01*
X15957381Y-10875667D01*
X15976428Y-10866143D01*
X16005000Y-10866143D01*
X16024048Y-10875667D01*
X16033571Y-10885190D01*
X16043095Y-10904238D01*
X16043095Y-10961381D01*
X16033571Y-10980429D01*
X16024048Y-10989952D01*
X16005000Y-10999476D01*
X15976428Y-10999476D01*
X16100238Y-10866143D02*
X16176428Y-10866143D01*
X16128809Y-10799476D02*
X16128809Y-10970905D01*
X16138333Y-10989952D01*
X16157381Y-10999476D01*
X16176428Y-10999476D01*
X16233571Y-10989952D02*
X16252619Y-10999476D01*
X16290714Y-10999476D01*
X16309762Y-10989952D01*
X16319286Y-10970905D01*
X16319286Y-10961381D01*
X16309762Y-10942333D01*
X16290714Y-10932810D01*
X16262143Y-10932810D01*
X16243095Y-10923286D01*
X16233571Y-10904238D01*
X16233571Y-10894714D01*
X16243095Y-10875667D01*
X16262143Y-10866143D01*
X16290714Y-10866143D01*
X16309762Y-10875667D01*
X16385952Y-11075667D02*
X16395476Y-11066143D01*
X16414524Y-11037571D01*
X16424048Y-11018524D01*
X16433571Y-10989952D01*
X16443095Y-10942333D01*
X16443095Y-10904238D01*
X16433571Y-10856619D01*
X16424048Y-10828048D01*
X16414524Y-10809000D01*
X16395476Y-10780429D01*
X16385952Y-10770905D01*
D13*
X9960000Y-11138000D02*
X9960000Y-11208000D01*
X9925000Y-11173000D02*
X9995000Y-11173000D01*
D11*
X10290714Y-11063476D02*
X10309762Y-11063476D01*
X10328810Y-11073000D01*
X10338333Y-11082524D01*
X10347857Y-11101571D01*
X10357381Y-11139667D01*
X10357381Y-11187286D01*
X10347857Y-11225381D01*
X10338333Y-11244428D01*
X10328810Y-11253952D01*
X10309762Y-11263476D01*
X10290714Y-11263476D01*
X10271667Y-11253952D01*
X10262143Y-11244428D01*
X10252619Y-11225381D01*
X10243095Y-11187286D01*
X10243095Y-11139667D01*
X10252619Y-11101571D01*
X10262143Y-11082524D01*
X10271667Y-11073000D01*
X10290714Y-11063476D01*
X10443095Y-11244428D02*
X10452619Y-11253952D01*
X10443095Y-11263476D01*
X10433571Y-11253952D01*
X10443095Y-11244428D01*
X10443095Y-11263476D01*
X10519286Y-11063476D02*
X10652619Y-11063476D01*
X10566905Y-11263476D01*
X10766905Y-11063476D02*
X10785952Y-11063476D01*
X10805000Y-11073000D01*
X10814524Y-11082524D01*
X10824048Y-11101571D01*
X10833571Y-11139667D01*
X10833571Y-11187286D01*
X10824048Y-11225381D01*
X10814524Y-11244428D01*
X10805000Y-11253952D01*
X10785952Y-11263476D01*
X10766905Y-11263476D01*
X10747857Y-11253952D01*
X10738333Y-11244428D01*
X10728810Y-11225381D01*
X10719286Y-11187286D01*
X10719286Y-11139667D01*
X10728810Y-11101571D01*
X10738333Y-11082524D01*
X10747857Y-11073000D01*
X10766905Y-11063476D01*
X10957381Y-11063476D02*
X10976429Y-11063476D01*
X10995476Y-11073000D01*
X11005000Y-11082524D01*
X11014524Y-11101571D01*
X11024048Y-11139667D01*
X11024048Y-11187286D01*
X11014524Y-11225381D01*
X11005000Y-11244428D01*
X10995476Y-11253952D01*
X10976429Y-11263476D01*
X10957381Y-11263476D01*
X10938333Y-11253952D01*
X10928810Y-11244428D01*
X10919286Y-11225381D01*
X10909762Y-11187286D01*
X10909762Y-11139667D01*
X10919286Y-11101571D01*
X10928810Y-11082524D01*
X10938333Y-11073000D01*
X10957381Y-11063476D01*
X11109762Y-11263476D02*
X11109762Y-11130143D01*
X11109762Y-11149190D02*
X11119286Y-11139667D01*
X11138333Y-11130143D01*
X11166905Y-11130143D01*
X11185952Y-11139667D01*
X11195476Y-11158714D01*
X11195476Y-11263476D01*
X11195476Y-11158714D02*
X11205000Y-11139667D01*
X11224048Y-11130143D01*
X11252619Y-11130143D01*
X11271667Y-11139667D01*
X11281190Y-11158714D01*
X11281190Y-11263476D01*
X11376428Y-11263476D02*
X11376428Y-11130143D01*
X11376428Y-11149190D02*
X11385952Y-11139667D01*
X11405000Y-11130143D01*
X11433571Y-11130143D01*
X11452619Y-11139667D01*
X11462143Y-11158714D01*
X11462143Y-11263476D01*
X11462143Y-11158714D02*
X11471667Y-11139667D01*
X11490714Y-11130143D01*
X11519286Y-11130143D01*
X11538333Y-11139667D01*
X11547857Y-11158714D01*
X11547857Y-11263476D01*
X11938333Y-11053952D02*
X11766905Y-11311095D01*
X12195476Y-11063476D02*
X12214524Y-11063476D01*
X12233571Y-11073000D01*
X12243095Y-11082524D01*
X12252619Y-11101571D01*
X12262143Y-11139667D01*
X12262143Y-11187286D01*
X12252619Y-11225381D01*
X12243095Y-11244428D01*
X12233571Y-11253952D01*
X12214524Y-11263476D01*
X12195476Y-11263476D01*
X12176428Y-11253952D01*
X12166905Y-11244428D01*
X12157381Y-11225381D01*
X12147857Y-11187286D01*
X12147857Y-11139667D01*
X12157381Y-11101571D01*
X12166905Y-11082524D01*
X12176428Y-11073000D01*
X12195476Y-11063476D01*
X12347857Y-11244428D02*
X12357381Y-11253952D01*
X12347857Y-11263476D01*
X12338333Y-11253952D01*
X12347857Y-11244428D01*
X12347857Y-11263476D01*
X12481190Y-11063476D02*
X12500238Y-11063476D01*
X12519286Y-11073000D01*
X12528809Y-11082524D01*
X12538333Y-11101571D01*
X12547857Y-11139667D01*
X12547857Y-11187286D01*
X12538333Y-11225381D01*
X12528809Y-11244428D01*
X12519286Y-11253952D01*
X12500238Y-11263476D01*
X12481190Y-11263476D01*
X12462143Y-11253952D01*
X12452619Y-11244428D01*
X12443095Y-11225381D01*
X12433571Y-11187286D01*
X12433571Y-11139667D01*
X12443095Y-11101571D01*
X12452619Y-11082524D01*
X12462143Y-11073000D01*
X12481190Y-11063476D01*
X12624048Y-11082524D02*
X12633571Y-11073000D01*
X12652619Y-11063476D01*
X12700238Y-11063476D01*
X12719286Y-11073000D01*
X12728809Y-11082524D01*
X12738333Y-11101571D01*
X12738333Y-11120619D01*
X12728809Y-11149190D01*
X12614524Y-11263476D01*
X12738333Y-11263476D01*
X12805000Y-11063476D02*
X12938333Y-11063476D01*
X12852619Y-11263476D01*
X13100238Y-11063476D02*
X13062143Y-11063476D01*
X13043095Y-11073000D01*
X13033571Y-11082524D01*
X13014524Y-11111095D01*
X13005000Y-11149190D01*
X13005000Y-11225381D01*
X13014524Y-11244428D01*
X13024048Y-11253952D01*
X13043095Y-11263476D01*
X13081190Y-11263476D01*
X13100238Y-11253952D01*
X13109762Y-11244428D01*
X13119286Y-11225381D01*
X13119286Y-11177762D01*
X13109762Y-11158714D01*
X13100238Y-11149190D01*
X13081190Y-11139667D01*
X13043095Y-11139667D01*
X13024048Y-11149190D01*
X13014524Y-11158714D01*
X13005000Y-11177762D01*
X13195476Y-11063476D02*
X13195476Y-11101571D01*
X13271667Y-11063476D02*
X13271667Y-11101571D01*
X13566905Y-11339667D02*
X13557381Y-11330143D01*
X13538333Y-11301571D01*
X13528809Y-11282524D01*
X13519286Y-11253952D01*
X13509762Y-11206333D01*
X13509762Y-11168238D01*
X13519286Y-11120619D01*
X13528809Y-11092048D01*
X13538333Y-11073000D01*
X13557381Y-11044429D01*
X13566905Y-11034905D01*
X13633571Y-11082524D02*
X13643095Y-11073000D01*
X13662143Y-11063476D01*
X13709762Y-11063476D01*
X13728809Y-11073000D01*
X13738333Y-11082524D01*
X13747857Y-11101571D01*
X13747857Y-11120619D01*
X13738333Y-11149190D01*
X13624048Y-11263476D01*
X13747857Y-11263476D01*
X13985952Y-11263476D02*
X13985952Y-11063476D01*
X14071667Y-11263476D02*
X14071667Y-11158714D01*
X14062143Y-11139667D01*
X14043095Y-11130143D01*
X14014524Y-11130143D01*
X13995476Y-11139667D01*
X13985952Y-11149190D01*
X14195476Y-11263476D02*
X14176428Y-11253952D01*
X14166905Y-11244428D01*
X14157381Y-11225381D01*
X14157381Y-11168238D01*
X14166905Y-11149190D01*
X14176428Y-11139667D01*
X14195476Y-11130143D01*
X14224048Y-11130143D01*
X14243095Y-11139667D01*
X14252619Y-11149190D01*
X14262143Y-11168238D01*
X14262143Y-11225381D01*
X14252619Y-11244428D01*
X14243095Y-11253952D01*
X14224048Y-11263476D01*
X14195476Y-11263476D01*
X14376428Y-11263476D02*
X14357381Y-11253952D01*
X14347857Y-11234905D01*
X14347857Y-11063476D01*
X14528809Y-11253952D02*
X14509762Y-11263476D01*
X14471667Y-11263476D01*
X14452619Y-11253952D01*
X14443095Y-11234905D01*
X14443095Y-11158714D01*
X14452619Y-11139667D01*
X14471667Y-11130143D01*
X14509762Y-11130143D01*
X14528809Y-11139667D01*
X14538333Y-11158714D01*
X14538333Y-11177762D01*
X14443095Y-11196809D01*
X14614524Y-11253952D02*
X14633571Y-11263476D01*
X14671667Y-11263476D01*
X14690714Y-11253952D01*
X14700238Y-11234905D01*
X14700238Y-11225381D01*
X14690714Y-11206333D01*
X14671667Y-11196809D01*
X14643095Y-11196809D01*
X14624048Y-11187286D01*
X14614524Y-11168238D01*
X14614524Y-11158714D01*
X14624048Y-11139667D01*
X14643095Y-11130143D01*
X14671667Y-11130143D01*
X14690714Y-11139667D01*
X14766905Y-11339667D02*
X14776428Y-11330143D01*
X14795476Y-11301571D01*
X14805000Y-11282524D01*
X14814524Y-11253952D01*
X14824048Y-11206333D01*
X14824048Y-11168238D01*
X14814524Y-11120619D01*
X14805000Y-11092048D01*
X14795476Y-11073000D01*
X14776428Y-11044429D01*
X14766905Y-11034905D01*
D14*
X9980356Y-11472356D02*
X9980356Y-11401644D01*
X9909644Y-11401644D01*
X9909644Y-11472356D01*
X9980356Y-11472356D01*
D11*
X10357381Y-11527476D02*
X10243095Y-11527476D01*
X10300238Y-11527476D02*
X10300238Y-11327476D01*
X10281190Y-11356048D01*
X10262143Y-11375095D01*
X10243095Y-11384619D01*
X10443095Y-11508428D02*
X10452619Y-11517952D01*
X10443095Y-11527476D01*
X10433571Y-11517952D01*
X10443095Y-11508428D01*
X10443095Y-11527476D01*
X10576429Y-11327476D02*
X10595476Y-11327476D01*
X10614524Y-11337000D01*
X10624048Y-11346524D01*
X10633571Y-11365571D01*
X10643095Y-11403667D01*
X10643095Y-11451286D01*
X10633571Y-11489381D01*
X10624048Y-11508428D01*
X10614524Y-11517952D01*
X10595476Y-11527476D01*
X10576429Y-11527476D01*
X10557381Y-11517952D01*
X10547857Y-11508428D01*
X10538333Y-11489381D01*
X10528810Y-11451286D01*
X10528810Y-11403667D01*
X10538333Y-11365571D01*
X10547857Y-11346524D01*
X10557381Y-11337000D01*
X10576429Y-11327476D01*
X10766905Y-11327476D02*
X10785952Y-11327476D01*
X10805000Y-11337000D01*
X10814524Y-11346524D01*
X10824048Y-11365571D01*
X10833571Y-11403667D01*
X10833571Y-11451286D01*
X10824048Y-11489381D01*
X10814524Y-11508428D01*
X10805000Y-11517952D01*
X10785952Y-11527476D01*
X10766905Y-11527476D01*
X10747857Y-11517952D01*
X10738333Y-11508428D01*
X10728810Y-11489381D01*
X10719286Y-11451286D01*
X10719286Y-11403667D01*
X10728810Y-11365571D01*
X10738333Y-11346524D01*
X10747857Y-11337000D01*
X10766905Y-11327476D01*
X10957381Y-11327476D02*
X10976429Y-11327476D01*
X10995476Y-11337000D01*
X11005000Y-11346524D01*
X11014524Y-11365571D01*
X11024048Y-11403667D01*
X11024048Y-11451286D01*
X11014524Y-11489381D01*
X11005000Y-11508428D01*
X10995476Y-11517952D01*
X10976429Y-11527476D01*
X10957381Y-11527476D01*
X10938333Y-11517952D01*
X10928810Y-11508428D01*
X10919286Y-11489381D01*
X10909762Y-11451286D01*
X10909762Y-11403667D01*
X10919286Y-11365571D01*
X10928810Y-11346524D01*
X10938333Y-11337000D01*
X10957381Y-11327476D01*
X11109762Y-11527476D02*
X11109762Y-11394143D01*
X11109762Y-11413190D02*
X11119286Y-11403667D01*
X11138333Y-11394143D01*
X11166905Y-11394143D01*
X11185952Y-11403667D01*
X11195476Y-11422714D01*
X11195476Y-11527476D01*
X11195476Y-11422714D02*
X11205000Y-11403667D01*
X11224048Y-11394143D01*
X11252619Y-11394143D01*
X11271667Y-11403667D01*
X11281190Y-11422714D01*
X11281190Y-11527476D01*
X11376428Y-11527476D02*
X11376428Y-11394143D01*
X11376428Y-11413190D02*
X11385952Y-11403667D01*
X11405000Y-11394143D01*
X11433571Y-11394143D01*
X11452619Y-11403667D01*
X11462143Y-11422714D01*
X11462143Y-11527476D01*
X11462143Y-11422714D02*
X11471667Y-11403667D01*
X11490714Y-11394143D01*
X11519286Y-11394143D01*
X11538333Y-11403667D01*
X11547857Y-11422714D01*
X11547857Y-11527476D01*
X11938333Y-11317952D02*
X11766905Y-11575095D01*
X12195476Y-11327476D02*
X12214524Y-11327476D01*
X12233571Y-11337000D01*
X12243095Y-11346524D01*
X12252619Y-11365571D01*
X12262143Y-11403667D01*
X12262143Y-11451286D01*
X12252619Y-11489381D01*
X12243095Y-11508428D01*
X12233571Y-11517952D01*
X12214524Y-11527476D01*
X12195476Y-11527476D01*
X12176428Y-11517952D01*
X12166905Y-11508428D01*
X12157381Y-11489381D01*
X12147857Y-11451286D01*
X12147857Y-11403667D01*
X12157381Y-11365571D01*
X12166905Y-11346524D01*
X12176428Y-11337000D01*
X12195476Y-11327476D01*
X12347857Y-11508428D02*
X12357381Y-11517952D01*
X12347857Y-11527476D01*
X12338333Y-11517952D01*
X12347857Y-11508428D01*
X12347857Y-11527476D01*
X12481190Y-11327476D02*
X12500238Y-11327476D01*
X12519286Y-11337000D01*
X12528809Y-11346524D01*
X12538333Y-11365571D01*
X12547857Y-11403667D01*
X12547857Y-11451286D01*
X12538333Y-11489381D01*
X12528809Y-11508428D01*
X12519286Y-11517952D01*
X12500238Y-11527476D01*
X12481190Y-11527476D01*
X12462143Y-11517952D01*
X12452619Y-11508428D01*
X12443095Y-11489381D01*
X12433571Y-11451286D01*
X12433571Y-11403667D01*
X12443095Y-11365571D01*
X12452619Y-11346524D01*
X12462143Y-11337000D01*
X12481190Y-11327476D01*
X12614524Y-11327476D02*
X12738333Y-11327476D01*
X12671667Y-11403667D01*
X12700238Y-11403667D01*
X12719286Y-11413190D01*
X12728809Y-11422714D01*
X12738333Y-11441762D01*
X12738333Y-11489381D01*
X12728809Y-11508428D01*
X12719286Y-11517952D01*
X12700238Y-11527476D01*
X12643095Y-11527476D01*
X12624048Y-11517952D01*
X12614524Y-11508428D01*
X12833571Y-11527476D02*
X12871667Y-11527476D01*
X12890714Y-11517952D01*
X12900238Y-11508428D01*
X12919286Y-11479857D01*
X12928809Y-11441762D01*
X12928809Y-11365571D01*
X12919286Y-11346524D01*
X12909762Y-11337000D01*
X12890714Y-11327476D01*
X12852619Y-11327476D01*
X12833571Y-11337000D01*
X12824048Y-11346524D01*
X12814524Y-11365571D01*
X12814524Y-11413190D01*
X12824048Y-11432238D01*
X12833571Y-11441762D01*
X12852619Y-11451286D01*
X12890714Y-11451286D01*
X12909762Y-11441762D01*
X12919286Y-11432238D01*
X12928809Y-11413190D01*
X13100238Y-11394143D02*
X13100238Y-11527476D01*
X13052619Y-11317952D02*
X13005000Y-11460809D01*
X13128809Y-11460809D01*
X13195476Y-11327476D02*
X13195476Y-11365571D01*
X13271667Y-11327476D02*
X13271667Y-11365571D01*
X13566905Y-11603667D02*
X13557381Y-11594143D01*
X13538333Y-11565571D01*
X13528809Y-11546524D01*
X13519286Y-11517952D01*
X13509762Y-11470333D01*
X13509762Y-11432238D01*
X13519286Y-11384619D01*
X13528809Y-11356048D01*
X13538333Y-11337000D01*
X13557381Y-11308428D01*
X13566905Y-11298905D01*
X13728809Y-11394143D02*
X13728809Y-11527476D01*
X13681190Y-11317952D02*
X13633571Y-11460809D01*
X13757381Y-11460809D01*
X13871667Y-11327476D02*
X13890714Y-11327476D01*
X13909762Y-11337000D01*
X13919286Y-11346524D01*
X13928809Y-11365571D01*
X13938333Y-11403667D01*
X13938333Y-11451286D01*
X13928809Y-11489381D01*
X13919286Y-11508428D01*
X13909762Y-11517952D01*
X13890714Y-11527476D01*
X13871667Y-11527476D01*
X13852619Y-11517952D01*
X13843095Y-11508428D01*
X13833571Y-11489381D01*
X13824048Y-11451286D01*
X13824048Y-11403667D01*
X13833571Y-11365571D01*
X13843095Y-11346524D01*
X13852619Y-11337000D01*
X13871667Y-11327476D01*
X14176428Y-11527476D02*
X14176428Y-11327476D01*
X14262143Y-11527476D02*
X14262143Y-11422714D01*
X14252619Y-11403667D01*
X14233571Y-11394143D01*
X14205000Y-11394143D01*
X14185952Y-11403667D01*
X14176428Y-11413190D01*
X14385952Y-11527476D02*
X14366905Y-11517952D01*
X14357381Y-11508428D01*
X14347857Y-11489381D01*
X14347857Y-11432238D01*
X14357381Y-11413190D01*
X14366905Y-11403667D01*
X14385952Y-11394143D01*
X14414524Y-11394143D01*
X14433571Y-11403667D01*
X14443095Y-11413190D01*
X14452619Y-11432238D01*
X14452619Y-11489381D01*
X14443095Y-11508428D01*
X14433571Y-11517952D01*
X14414524Y-11527476D01*
X14385952Y-11527476D01*
X14566905Y-11527476D02*
X14547857Y-11517952D01*
X14538333Y-11498905D01*
X14538333Y-11327476D01*
X14719286Y-11517952D02*
X14700238Y-11527476D01*
X14662143Y-11527476D01*
X14643095Y-11517952D01*
X14633571Y-11498905D01*
X14633571Y-11422714D01*
X14643095Y-11403667D01*
X14662143Y-11394143D01*
X14700238Y-11394143D01*
X14719286Y-11403667D01*
X14728809Y-11422714D01*
X14728809Y-11441762D01*
X14633571Y-11460809D01*
X14805000Y-11517952D02*
X14824048Y-11527476D01*
X14862143Y-11527476D01*
X14881190Y-11517952D01*
X14890714Y-11498905D01*
X14890714Y-11489381D01*
X14881190Y-11470333D01*
X14862143Y-11460809D01*
X14833571Y-11460809D01*
X14814524Y-11451286D01*
X14805000Y-11432238D01*
X14805000Y-11422714D01*
X14814524Y-11403667D01*
X14833571Y-11394143D01*
X14862143Y-11394143D01*
X14881190Y-11403667D01*
X14957381Y-11603667D02*
X14966905Y-11594143D01*
X14985952Y-11565571D01*
X14995476Y-11546524D01*
X15005000Y-11517952D01*
X15014524Y-11470333D01*
X15014524Y-11432238D01*
X15005000Y-11384619D01*
X14995476Y-11356048D01*
X14985952Y-11337000D01*
X14966905Y-11308428D01*
X14957381Y-11298905D01*
D15*
X9940000Y-11756000D02*
X9995000Y-11701000D01*
X9940000Y-11646000D01*
X9885000Y-11701000D01*
X9940000Y-11756000D01*
D11*
X10357381Y-11791476D02*
X10243095Y-11791476D01*
X10300238Y-11791476D02*
X10300238Y-11591476D01*
X10281190Y-11620048D01*
X10262143Y-11639095D01*
X10243095Y-11648619D01*
X10443095Y-11772428D02*
X10452619Y-11781952D01*
X10443095Y-11791476D01*
X10433571Y-11781952D01*
X10443095Y-11772428D01*
X10443095Y-11791476D01*
X10643095Y-11791476D02*
X10528810Y-11791476D01*
X10585952Y-11791476D02*
X10585952Y-11591476D01*
X10566905Y-11620048D01*
X10547857Y-11639095D01*
X10528810Y-11648619D01*
X10766905Y-11591476D02*
X10785952Y-11591476D01*
X10805000Y-11601000D01*
X10814524Y-11610524D01*
X10824048Y-11629571D01*
X10833571Y-11667667D01*
X10833571Y-11715286D01*
X10824048Y-11753381D01*
X10814524Y-11772428D01*
X10805000Y-11781952D01*
X10785952Y-11791476D01*
X10766905Y-11791476D01*
X10747857Y-11781952D01*
X10738333Y-11772428D01*
X10728810Y-11753381D01*
X10719286Y-11715286D01*
X10719286Y-11667667D01*
X10728810Y-11629571D01*
X10738333Y-11610524D01*
X10747857Y-11601000D01*
X10766905Y-11591476D01*
X10957381Y-11591476D02*
X10976429Y-11591476D01*
X10995476Y-11601000D01*
X11005000Y-11610524D01*
X11014524Y-11629571D01*
X11024048Y-11667667D01*
X11024048Y-11715286D01*
X11014524Y-11753381D01*
X11005000Y-11772428D01*
X10995476Y-11781952D01*
X10976429Y-11791476D01*
X10957381Y-11791476D01*
X10938333Y-11781952D01*
X10928810Y-11772428D01*
X10919286Y-11753381D01*
X10909762Y-11715286D01*
X10909762Y-11667667D01*
X10919286Y-11629571D01*
X10928810Y-11610524D01*
X10938333Y-11601000D01*
X10957381Y-11591476D01*
X11109762Y-11791476D02*
X11109762Y-11658143D01*
X11109762Y-11677190D02*
X11119286Y-11667667D01*
X11138333Y-11658143D01*
X11166905Y-11658143D01*
X11185952Y-11667667D01*
X11195476Y-11686714D01*
X11195476Y-11791476D01*
X11195476Y-11686714D02*
X11205000Y-11667667D01*
X11224048Y-11658143D01*
X11252619Y-11658143D01*
X11271667Y-11667667D01*
X11281190Y-11686714D01*
X11281190Y-11791476D01*
X11376428Y-11791476D02*
X11376428Y-11658143D01*
X11376428Y-11677190D02*
X11385952Y-11667667D01*
X11405000Y-11658143D01*
X11433571Y-11658143D01*
X11452619Y-11667667D01*
X11462143Y-11686714D01*
X11462143Y-11791476D01*
X11462143Y-11686714D02*
X11471667Y-11667667D01*
X11490714Y-11658143D01*
X11519286Y-11658143D01*
X11538333Y-11667667D01*
X11547857Y-11686714D01*
X11547857Y-11791476D01*
X11938333Y-11581952D02*
X11766905Y-11839095D01*
X12195476Y-11591476D02*
X12214524Y-11591476D01*
X12233571Y-11601000D01*
X12243095Y-11610524D01*
X12252619Y-11629571D01*
X12262143Y-11667667D01*
X12262143Y-11715286D01*
X12252619Y-11753381D01*
X12243095Y-11772428D01*
X12233571Y-11781952D01*
X12214524Y-11791476D01*
X12195476Y-11791476D01*
X12176428Y-11781952D01*
X12166905Y-11772428D01*
X12157381Y-11753381D01*
X12147857Y-11715286D01*
X12147857Y-11667667D01*
X12157381Y-11629571D01*
X12166905Y-11610524D01*
X12176428Y-11601000D01*
X12195476Y-11591476D01*
X12347857Y-11772428D02*
X12357381Y-11781952D01*
X12347857Y-11791476D01*
X12338333Y-11781952D01*
X12347857Y-11772428D01*
X12347857Y-11791476D01*
X12481190Y-11591476D02*
X12500238Y-11591476D01*
X12519286Y-11601000D01*
X12528809Y-11610524D01*
X12538333Y-11629571D01*
X12547857Y-11667667D01*
X12547857Y-11715286D01*
X12538333Y-11753381D01*
X12528809Y-11772428D01*
X12519286Y-11781952D01*
X12500238Y-11791476D01*
X12481190Y-11791476D01*
X12462143Y-11781952D01*
X12452619Y-11772428D01*
X12443095Y-11753381D01*
X12433571Y-11715286D01*
X12433571Y-11667667D01*
X12443095Y-11629571D01*
X12452619Y-11610524D01*
X12462143Y-11601000D01*
X12481190Y-11591476D01*
X12719286Y-11658143D02*
X12719286Y-11791476D01*
X12671667Y-11581952D02*
X12624048Y-11724809D01*
X12747857Y-11724809D01*
X12805000Y-11591476D02*
X12928809Y-11591476D01*
X12862143Y-11667667D01*
X12890714Y-11667667D01*
X12909762Y-11677190D01*
X12919286Y-11686714D01*
X12928809Y-11705762D01*
X12928809Y-11753381D01*
X12919286Y-11772428D01*
X12909762Y-11781952D01*
X12890714Y-11791476D01*
X12833571Y-11791476D01*
X12814524Y-11781952D01*
X12805000Y-11772428D01*
X12995476Y-11591476D02*
X13119286Y-11591476D01*
X13052619Y-11667667D01*
X13081190Y-11667667D01*
X13100238Y-11677190D01*
X13109762Y-11686714D01*
X13119286Y-11705762D01*
X13119286Y-11753381D01*
X13109762Y-11772428D01*
X13100238Y-11781952D01*
X13081190Y-11791476D01*
X13024048Y-11791476D01*
X13005000Y-11781952D01*
X12995476Y-11772428D01*
X13195476Y-11591476D02*
X13195476Y-11629571D01*
X13271667Y-11591476D02*
X13271667Y-11629571D01*
X13566905Y-11867667D02*
X13557381Y-11858143D01*
X13538333Y-11829571D01*
X13528809Y-11810524D01*
X13519286Y-11781952D01*
X13509762Y-11734333D01*
X13509762Y-11696238D01*
X13519286Y-11648619D01*
X13528809Y-11620048D01*
X13538333Y-11601000D01*
X13557381Y-11572428D01*
X13566905Y-11562905D01*
X13633571Y-11610524D02*
X13643095Y-11601000D01*
X13662143Y-11591476D01*
X13709762Y-11591476D01*
X13728809Y-11601000D01*
X13738333Y-11610524D01*
X13747857Y-11629571D01*
X13747857Y-11648619D01*
X13738333Y-11677190D01*
X13624048Y-11791476D01*
X13747857Y-11791476D01*
X13919286Y-11658143D02*
X13919286Y-11791476D01*
X13871667Y-11581952D02*
X13824048Y-11724809D01*
X13947857Y-11724809D01*
X14176428Y-11791476D02*
X14176428Y-11591476D01*
X14262143Y-11791476D02*
X14262143Y-11686714D01*
X14252619Y-11667667D01*
X14233571Y-11658143D01*
X14205000Y-11658143D01*
X14185952Y-11667667D01*
X14176428Y-11677190D01*
X14385952Y-11791476D02*
X14366905Y-11781952D01*
X14357381Y-11772428D01*
X14347857Y-11753381D01*
X14347857Y-11696238D01*
X14357381Y-11677190D01*
X14366905Y-11667667D01*
X14385952Y-11658143D01*
X14414524Y-11658143D01*
X14433571Y-11667667D01*
X14443095Y-11677190D01*
X14452619Y-11696238D01*
X14452619Y-11753381D01*
X14443095Y-11772428D01*
X14433571Y-11781952D01*
X14414524Y-11791476D01*
X14385952Y-11791476D01*
X14566905Y-11791476D02*
X14547857Y-11781952D01*
X14538333Y-11762905D01*
X14538333Y-11591476D01*
X14719286Y-11781952D02*
X14700238Y-11791476D01*
X14662143Y-11791476D01*
X14643095Y-11781952D01*
X14633571Y-11762905D01*
X14633571Y-11686714D01*
X14643095Y-11667667D01*
X14662143Y-11658143D01*
X14700238Y-11658143D01*
X14719286Y-11667667D01*
X14728809Y-11686714D01*
X14728809Y-11705762D01*
X14633571Y-11724809D01*
X14805000Y-11781952D02*
X14824048Y-11791476D01*
X14862143Y-11791476D01*
X14881190Y-11781952D01*
X14890714Y-11762905D01*
X14890714Y-11753381D01*
X14881190Y-11734333D01*
X14862143Y-11724809D01*
X14833571Y-11724809D01*
X14814524Y-11715286D01*
X14805000Y-11696238D01*
X14805000Y-11686714D01*
X14814524Y-11667667D01*
X14833571Y-11658143D01*
X14862143Y-11658143D01*
X14881190Y-11667667D01*
X14957381Y-11867667D02*
X14966905Y-11858143D01*
X14985952Y-11829571D01*
X14995476Y-11810524D01*
X15005000Y-11781952D01*
X15014524Y-11734333D01*
X15014524Y-11696238D01*
X15005000Y-11648619D01*
X14995476Y-11620048D01*
X14985952Y-11601000D01*
X14966905Y-11572428D01*
X14957381Y-11562905D01*
M02*
