M48
; DRILL file {KiCad (6.0.6)} date Sat Oct  1 15:18:21 2022
; FORMAT={-:-/ absolute / metric / decimal}
; #@! TF.CreationDate,2022-10-01T15:18:21+02:00
; #@! TF.GenerationSoftware,Kicad,Pcbnew,(6.0.6)
; #@! TF.FileFunction,Plated,1,2,PTH
FMAT,2
METRIC
; #@! TA.AperFunction,Plated,PTH,ViaDrill
T1C0.600
; #@! TA.AperFunction,Plated,PTH,ComponentDrill
T2C0.600
; #@! TA.AperFunction,Plated,PTH,ComponentDrill
T3C1.000
; #@! TA.AperFunction,Plated,PTH,ComponentDrill
T4C1.100
%
G90
G05
T1
X101.346Y-84.836
X104.521Y-90.551
X106.68Y-71.12
X106.68Y-78.74
X106.68Y-83.312
X107.188Y-67.056
X109.728Y-82.296
X110.236Y-68.072
X112.14Y-74.676
X112.268Y-61.468
X112.268Y-62.992
X112.776Y-65.024
X112.776Y-69.596
X113.284Y-62.992
X113.284Y-79.756
X115.316Y-82.296
X116.332Y-54.864
X116.332Y-89.916
X117.348Y-50.292
X117.348Y-66.04
X117.856Y-53.34
X117.856Y-62.992
X118.364Y-56.896
X118.364Y-74.168
X118.364Y-75.268
X118.364Y-82.296
X118.872Y-62.992
X118.872Y-66.04
X119.38Y-79.248
X119.888Y-50.292
X119.888Y-66.548
X119.888Y-89.916
X120.396Y-62.992
X120.396Y-86.868
X120.904Y-65.532
X121.412Y-54.356
X121.898Y-63.014
X122.936Y-89.916
X123.952Y-86.868
X124.46Y-74.168
X125.476Y-78.232
X125.984Y-55.372
X125.984Y-89.916
X127.0Y-76.2
X127.508Y-66.548
X128.524Y-80.264
X129.032Y-86.868
X129.032Y-89.916
X129.54Y-56.896
X131.064Y-69.088
X132.08Y-72.644
X132.08Y-89.916
X132.588Y-86.868
X133.096Y-58.42
X133.096Y-65.024
X134.112Y-69.088
X134.62Y-54.356
X134.62Y-58.42
X135.636Y-82.296
X135.636Y-86.868
X137.16Y-57.912
X137.16Y-76.2
X139.192Y-89.408
X139.7Y-58.42
X139.7Y-60.96
X140.716Y-64.008
X140.716Y-68.072
X142.748Y-89.408
X143.256Y-50.8
X144.272Y-79.248
X145.288Y-69.596
X146.304Y-89.408
X147.32Y-72.644
X149.352Y-51.308
X149.86Y-64.008
X149.86Y-89.408
X151.892Y-70.612
X152.908Y-69.596
X153.416Y-89.408
X153.924Y-51.308
X156.972Y-89.408
X157.48Y-51.308
X160.528Y-90.424
X161.036Y-69.596
X161.544Y-70.612
X162.052Y-52.451
X163.068Y-59.944
X163.068Y-74.676
T3
X108.37Y-46.23
X108.37Y-48.77
X110.91Y-46.23
X110.91Y-48.77
X113.45Y-46.23
X113.45Y-48.77
X115.99Y-46.23
X115.99Y-48.77
X118.53Y-46.23
X118.53Y-48.77
X121.07Y-46.23
X121.07Y-48.77
X123.61Y-46.23
X123.61Y-48.77
X126.15Y-46.23
X126.15Y-48.77
X128.69Y-46.23
X128.69Y-48.77
X131.23Y-46.23
X131.23Y-48.77
X133.77Y-46.23
X133.77Y-48.77
X136.31Y-46.23
X136.31Y-48.77
X138.85Y-46.23
X138.85Y-48.77
X141.39Y-46.23
X141.39Y-48.77
X143.93Y-46.23
X143.93Y-48.77
X146.47Y-46.23
X146.47Y-48.77
X149.01Y-46.23
X149.01Y-48.77
X151.55Y-46.23
X151.55Y-48.77
X154.09Y-46.23
X154.09Y-48.77
X156.63Y-46.23
X156.63Y-48.77
T4
X104.14Y-67.056
X104.14Y-69.596
X104.14Y-72.136
X104.14Y-74.676
X104.14Y-77.216
X104.14Y-79.756
X104.14Y-82.296
X104.14Y-84.836
X114.808Y-96.012
X117.348Y-96.012
X119.888Y-96.012
X122.428Y-96.012
X124.968Y-96.012
X127.508Y-96.012
X130.048Y-96.012
X132.588Y-96.012
X138.176Y-96.012
X140.716Y-96.012
X143.256Y-96.012
X145.796Y-96.012
X148.336Y-96.012
X150.876Y-96.012
X153.416Y-96.012
X155.956Y-96.012
T2
X102.79Y-53.084G85X103.39Y-53.084
G05
X102.79Y-61.724G85X103.39Y-61.724
G05
X106.72Y-53.084G85X107.82Y-53.084
G05
X106.72Y-61.724G85X107.82Y-61.724
G05
T0
M30
