G04 #@! TF.GenerationSoftware,KiCad,Pcbnew,(6.0.6)*
G04 #@! TF.CreationDate,2022-10-22T01:16:13+02:00*
G04 #@! TF.ProjectId,Phoniebox,50686f6e-6965-4626-9f78-2e6b69636164,rev?*
G04 #@! TF.SameCoordinates,Original*
G04 #@! TF.FileFunction,Legend,Top*
G04 #@! TF.FilePolarity,Positive*
%FSLAX46Y46*%
G04 Gerber Fmt 4.6, Leading zero omitted, Abs format (unit mm)*
G04 Created by KiCad (PCBNEW (6.0.6)) date 2022-10-22 01:16:13*
%MOMM*%
%LPD*%
G01*
G04 APERTURE LIST*
%ADD10C,0.150000*%
%ADD11C,0.300000*%
%ADD12C,0.200000*%
%ADD13C,0.120000*%
%ADD14C,2.700000*%
%ADD15R,2.200000X2.200000*%
%ADD16C,2.200000*%
%ADD17R,1.000000X2.510000*%
%ADD18R,1.700000X1.700000*%
%ADD19O,1.700000X1.700000*%
%ADD20C,0.650000*%
%ADD21O,2.100000X1.000000*%
%ADD22O,1.600000X1.000000*%
G04 APERTURE END LIST*
D10*
X133104000Y-71784595D02*
X133056380Y-71879833D01*
X133056380Y-72022690D01*
X133104000Y-72165547D01*
X133199238Y-72260785D01*
X133294476Y-72308404D01*
X133484952Y-72356023D01*
X133627809Y-72356023D01*
X133818285Y-72308404D01*
X133913523Y-72260785D01*
X134008761Y-72165547D01*
X134056380Y-72022690D01*
X134056380Y-71927452D01*
X134008761Y-71784595D01*
X133961142Y-71736976D01*
X133627809Y-71736976D01*
X133627809Y-71927452D01*
X134056380Y-71308404D02*
X133056380Y-71308404D01*
X134056380Y-70736976D01*
X133056380Y-70736976D01*
X134056380Y-70260785D02*
X133056380Y-70260785D01*
X133056380Y-70022690D01*
X133104000Y-69879833D01*
X133199238Y-69784595D01*
X133294476Y-69736976D01*
X133484952Y-69689357D01*
X133627809Y-69689357D01*
X133818285Y-69736976D01*
X133913523Y-69784595D01*
X134008761Y-69879833D01*
X134056380Y-70022690D01*
X134056380Y-70260785D01*
D11*
X116431142Y-80342857D02*
X116502571Y-80128571D01*
X116502571Y-79771428D01*
X116431142Y-79628571D01*
X116359714Y-79557142D01*
X116216857Y-79485714D01*
X116074000Y-79485714D01*
X115931142Y-79557142D01*
X115859714Y-79628571D01*
X115788285Y-79771428D01*
X115716857Y-80057142D01*
X115645428Y-80200000D01*
X115574000Y-80271428D01*
X115431142Y-80342857D01*
X115288285Y-80342857D01*
X115145428Y-80271428D01*
X115074000Y-80200000D01*
X115002571Y-80057142D01*
X115002571Y-79700000D01*
X115074000Y-79485714D01*
X115502571Y-78842857D02*
X117002571Y-78842857D01*
X115574000Y-78842857D02*
X115502571Y-78700000D01*
X115502571Y-78414285D01*
X115574000Y-78271428D01*
X115645428Y-78200000D01*
X115788285Y-78128571D01*
X116216857Y-78128571D01*
X116359714Y-78200000D01*
X116431142Y-78271428D01*
X116502571Y-78414285D01*
X116502571Y-78700000D01*
X116431142Y-78842857D01*
X116431142Y-76914285D02*
X116502571Y-77057142D01*
X116502571Y-77342857D01*
X116431142Y-77485714D01*
X116288285Y-77557142D01*
X115716857Y-77557142D01*
X115574000Y-77485714D01*
X115502571Y-77342857D01*
X115502571Y-77057142D01*
X115574000Y-76914285D01*
X115716857Y-76842857D01*
X115859714Y-76842857D01*
X116002571Y-77557142D01*
X116502571Y-75557142D02*
X115716857Y-75557142D01*
X115574000Y-75628571D01*
X115502571Y-75771428D01*
X115502571Y-76057142D01*
X115574000Y-76200000D01*
X116431142Y-75557142D02*
X116502571Y-75700000D01*
X116502571Y-76057142D01*
X116431142Y-76200000D01*
X116288285Y-76271428D01*
X116145428Y-76271428D01*
X116002571Y-76200000D01*
X115931142Y-76057142D01*
X115931142Y-75700000D01*
X115859714Y-75557142D01*
X116502571Y-74842857D02*
X115002571Y-74842857D01*
X115931142Y-74700000D02*
X116502571Y-74271428D01*
X115502571Y-74271428D02*
X116074000Y-74842857D01*
X116431142Y-73057142D02*
X116502571Y-73200000D01*
X116502571Y-73485714D01*
X116431142Y-73628571D01*
X116288285Y-73700000D01*
X115716857Y-73700000D01*
X115574000Y-73628571D01*
X115502571Y-73485714D01*
X115502571Y-73200000D01*
X115574000Y-73057142D01*
X115716857Y-72985714D01*
X115859714Y-72985714D01*
X116002571Y-73700000D01*
X116502571Y-72342857D02*
X115502571Y-72342857D01*
X115788285Y-72342857D02*
X115645428Y-72271428D01*
X115574000Y-72200000D01*
X115502571Y-72057142D01*
X115502571Y-71914285D01*
D10*
X119388000Y-91088595D02*
X119340380Y-91183833D01*
X119340380Y-91326690D01*
X119388000Y-91469547D01*
X119483238Y-91564785D01*
X119578476Y-91612404D01*
X119768952Y-91660023D01*
X119911809Y-91660023D01*
X120102285Y-91612404D01*
X120197523Y-91564785D01*
X120292761Y-91469547D01*
X120340380Y-91326690D01*
X120340380Y-91231452D01*
X120292761Y-91088595D01*
X120245142Y-91040976D01*
X119911809Y-91040976D01*
X119911809Y-91231452D01*
X120340380Y-90612404D02*
X119340380Y-90612404D01*
X119340380Y-90231452D01*
X119388000Y-90136214D01*
X119435619Y-90088595D01*
X119530857Y-90040976D01*
X119673714Y-90040976D01*
X119768952Y-90088595D01*
X119816571Y-90136214D01*
X119864190Y-90231452D01*
X119864190Y-90612404D01*
X120340380Y-89612404D02*
X119340380Y-89612404D01*
X119340380Y-88945738D02*
X119340380Y-88755261D01*
X119388000Y-88660023D01*
X119483238Y-88564785D01*
X119673714Y-88517166D01*
X120007047Y-88517166D01*
X120197523Y-88564785D01*
X120292761Y-88660023D01*
X120340380Y-88755261D01*
X120340380Y-88945738D01*
X120292761Y-89040976D01*
X120197523Y-89136214D01*
X120007047Y-89183833D01*
X119673714Y-89183833D01*
X119483238Y-89136214D01*
X119388000Y-89040976D01*
X119340380Y-88945738D01*
X119435619Y-87374309D02*
X119388000Y-87326690D01*
X119340380Y-87231452D01*
X119340380Y-86993357D01*
X119388000Y-86898119D01*
X119435619Y-86850500D01*
X119530857Y-86802880D01*
X119626095Y-86802880D01*
X119768952Y-86850500D01*
X120340380Y-87421928D01*
X120340380Y-86802880D01*
X119340380Y-86469547D02*
X119340380Y-85802880D01*
X120340380Y-86231452D01*
X121928000Y-91088595D02*
X121880380Y-91183833D01*
X121880380Y-91326690D01*
X121928000Y-91469547D01*
X122023238Y-91564785D01*
X122118476Y-91612404D01*
X122308952Y-91660023D01*
X122451809Y-91660023D01*
X122642285Y-91612404D01*
X122737523Y-91564785D01*
X122832761Y-91469547D01*
X122880380Y-91326690D01*
X122880380Y-91231452D01*
X122832761Y-91088595D01*
X122785142Y-91040976D01*
X122451809Y-91040976D01*
X122451809Y-91231452D01*
X122880380Y-90612404D02*
X121880380Y-90612404D01*
X121880380Y-90231452D01*
X121928000Y-90136214D01*
X121975619Y-90088595D01*
X122070857Y-90040976D01*
X122213714Y-90040976D01*
X122308952Y-90088595D01*
X122356571Y-90136214D01*
X122404190Y-90231452D01*
X122404190Y-90612404D01*
X122880380Y-89612404D02*
X121880380Y-89612404D01*
X121880380Y-88945738D02*
X121880380Y-88755261D01*
X121928000Y-88660023D01*
X122023238Y-88564785D01*
X122213714Y-88517166D01*
X122547047Y-88517166D01*
X122737523Y-88564785D01*
X122832761Y-88660023D01*
X122880380Y-88755261D01*
X122880380Y-88945738D01*
X122832761Y-89040976D01*
X122737523Y-89136214D01*
X122547047Y-89183833D01*
X122213714Y-89183833D01*
X122023238Y-89136214D01*
X121928000Y-89040976D01*
X121880380Y-88945738D01*
X121975619Y-87374309D02*
X121928000Y-87326690D01*
X121880380Y-87231452D01*
X121880380Y-86993357D01*
X121928000Y-86898119D01*
X121975619Y-86850500D01*
X122070857Y-86802880D01*
X122166095Y-86802880D01*
X122308952Y-86850500D01*
X122880380Y-87421928D01*
X122880380Y-86802880D01*
X121975619Y-86421928D02*
X121928000Y-86374309D01*
X121880380Y-86279071D01*
X121880380Y-86040976D01*
X121928000Y-85945738D01*
X121975619Y-85898119D01*
X122070857Y-85850500D01*
X122166095Y-85850500D01*
X122308952Y-85898119D01*
X122880380Y-86469547D01*
X122880380Y-85850500D01*
X138628380Y-52496404D02*
X137628380Y-52496404D01*
X138628380Y-51448785D02*
X138152190Y-51782119D01*
X138628380Y-52020214D02*
X137628380Y-52020214D01*
X137628380Y-51639261D01*
X137676000Y-51544023D01*
X137723619Y-51496404D01*
X137818857Y-51448785D01*
X137961714Y-51448785D01*
X138056952Y-51496404D01*
X138104571Y-51544023D01*
X138152190Y-51639261D01*
X138152190Y-52020214D01*
X138723619Y-50353547D02*
X138676000Y-50448785D01*
X138580761Y-50544023D01*
X138437904Y-50686880D01*
X138390285Y-50782119D01*
X138390285Y-50877357D01*
X138628380Y-50829738D02*
X138580761Y-50924976D01*
X138485523Y-51020214D01*
X138295047Y-51067833D01*
X137961714Y-51067833D01*
X137771238Y-51020214D01*
X137676000Y-50924976D01*
X137628380Y-50829738D01*
X137628380Y-50639261D01*
X137676000Y-50544023D01*
X137771238Y-50448785D01*
X137961714Y-50401166D01*
X138295047Y-50401166D01*
X138485523Y-50448785D01*
X138580761Y-50544023D01*
X138628380Y-50639261D01*
X138628380Y-50829738D01*
X108491976Y-77620761D02*
X108634833Y-77668380D01*
X108872928Y-77668380D01*
X108968166Y-77620761D01*
X109015785Y-77573142D01*
X109063404Y-77477904D01*
X109063404Y-77382666D01*
X109015785Y-77287428D01*
X108968166Y-77239809D01*
X108872928Y-77192190D01*
X108682452Y-77144571D01*
X108587214Y-77096952D01*
X108539595Y-77049333D01*
X108491976Y-76954095D01*
X108491976Y-76858857D01*
X108539595Y-76763619D01*
X108587214Y-76716000D01*
X108682452Y-76668380D01*
X108920547Y-76668380D01*
X109063404Y-76716000D01*
X109491976Y-77001714D02*
X109491976Y-78001714D01*
X109491976Y-77049333D02*
X109587214Y-77001714D01*
X109777690Y-77001714D01*
X109872928Y-77049333D01*
X109920547Y-77096952D01*
X109968166Y-77192190D01*
X109968166Y-77477904D01*
X109920547Y-77573142D01*
X109872928Y-77620761D01*
X109777690Y-77668380D01*
X109587214Y-77668380D01*
X109491976Y-77620761D01*
X110396738Y-77668380D02*
X110396738Y-76668380D01*
X110491976Y-77287428D02*
X110777690Y-77668380D01*
X110777690Y-77001714D02*
X110396738Y-77382666D01*
X112539595Y-77668380D02*
X112206261Y-77192190D01*
X111968166Y-77668380D02*
X111968166Y-76668380D01*
X112349119Y-76668380D01*
X112444357Y-76716000D01*
X112491976Y-76763619D01*
X112539595Y-76858857D01*
X112539595Y-77001714D01*
X112491976Y-77096952D01*
X112444357Y-77144571D01*
X112349119Y-77192190D01*
X111968166Y-77192190D01*
X112968166Y-77287428D02*
X113730071Y-77287428D01*
X130008380Y-53099642D02*
X130008380Y-52480595D01*
X130389333Y-52813928D01*
X130389333Y-52671071D01*
X130436952Y-52575833D01*
X130484571Y-52528214D01*
X130579809Y-52480595D01*
X130817904Y-52480595D01*
X130913142Y-52528214D01*
X130960761Y-52575833D01*
X131008380Y-52671071D01*
X131008380Y-52956785D01*
X130960761Y-53052023D01*
X130913142Y-53099642D01*
X130008380Y-52194880D02*
X131008380Y-51861547D01*
X130008380Y-51528214D01*
X130008380Y-51290119D02*
X130008380Y-50671071D01*
X130389333Y-51004404D01*
X130389333Y-50861547D01*
X130436952Y-50766309D01*
X130484571Y-50718690D01*
X130579809Y-50671071D01*
X130817904Y-50671071D01*
X130913142Y-50718690D01*
X130960761Y-50766309D01*
X131008380Y-50861547D01*
X131008380Y-51147261D01*
X130960761Y-51242500D01*
X130913142Y-51290119D01*
X141168380Y-91136214D02*
X141168380Y-91612404D01*
X140168380Y-91612404D01*
X140644571Y-90802880D02*
X140644571Y-90469547D01*
X141168380Y-90326690D02*
X141168380Y-90802880D01*
X140168380Y-90802880D01*
X140168380Y-90326690D01*
X141168380Y-89898119D02*
X140168380Y-89898119D01*
X140168380Y-89660023D01*
X140216000Y-89517166D01*
X140311238Y-89421928D01*
X140406476Y-89374309D01*
X140596952Y-89326690D01*
X140739809Y-89326690D01*
X140930285Y-89374309D01*
X141025523Y-89421928D01*
X141120761Y-89517166D01*
X141168380Y-89660023D01*
X141168380Y-89898119D01*
X140168380Y-88231452D02*
X140168380Y-87612404D01*
X140549333Y-87945738D01*
X140549333Y-87802880D01*
X140596952Y-87707642D01*
X140644571Y-87660023D01*
X140739809Y-87612404D01*
X140977904Y-87612404D01*
X141073142Y-87660023D01*
X141120761Y-87707642D01*
X141168380Y-87802880D01*
X141168380Y-88088595D01*
X141120761Y-88183833D01*
X141073142Y-88231452D01*
X141168380Y-87183833D02*
X140168380Y-87183833D01*
X140168380Y-86802880D01*
X140216000Y-86707642D01*
X140263619Y-86660023D01*
X140358857Y-86612404D01*
X140501714Y-86612404D01*
X140596952Y-86660023D01*
X140644571Y-86707642D01*
X140692190Y-86802880D01*
X140692190Y-87183833D01*
X140168380Y-86279071D02*
X140168380Y-85660023D01*
X140549333Y-85993357D01*
X140549333Y-85850500D01*
X140596952Y-85755261D01*
X140644571Y-85707642D01*
X140739809Y-85660023D01*
X140977904Y-85660023D01*
X141073142Y-85707642D01*
X141120761Y-85755261D01*
X141168380Y-85850500D01*
X141168380Y-86136214D01*
X141120761Y-86231452D01*
X141073142Y-86279071D01*
X143660761Y-52544023D02*
X143708380Y-52401166D01*
X143708380Y-52163071D01*
X143660761Y-52067833D01*
X143613142Y-52020214D01*
X143517904Y-51972595D01*
X143422666Y-51972595D01*
X143327428Y-52020214D01*
X143279809Y-52067833D01*
X143232190Y-52163071D01*
X143184571Y-52353547D01*
X143136952Y-52448785D01*
X143089333Y-52496404D01*
X142994095Y-52544023D01*
X142898857Y-52544023D01*
X142803619Y-52496404D01*
X142756000Y-52448785D01*
X142708380Y-52353547D01*
X142708380Y-52115452D01*
X142756000Y-51972595D01*
X143708380Y-51544023D02*
X142708380Y-51544023D01*
X142708380Y-51305928D01*
X142756000Y-51163071D01*
X142851238Y-51067833D01*
X142946476Y-51020214D01*
X143136952Y-50972595D01*
X143279809Y-50972595D01*
X143470285Y-51020214D01*
X143565523Y-51067833D01*
X143660761Y-51163071D01*
X143708380Y-51305928D01*
X143708380Y-51544023D01*
X142708380Y-50353547D02*
X142708380Y-50163071D01*
X142756000Y-50067833D01*
X142851238Y-49972595D01*
X143041714Y-49924976D01*
X143375047Y-49924976D01*
X143565523Y-49972595D01*
X143660761Y-50067833D01*
X143708380Y-50163071D01*
X143708380Y-50353547D01*
X143660761Y-50448785D01*
X143565523Y-50544023D01*
X143375047Y-50591642D01*
X143041714Y-50591642D01*
X142851238Y-50544023D01*
X142756000Y-50448785D01*
X142708380Y-50353547D01*
X109063404Y-66556000D02*
X108968166Y-66508380D01*
X108825309Y-66508380D01*
X108682452Y-66556000D01*
X108587214Y-66651238D01*
X108539595Y-66746476D01*
X108491976Y-66936952D01*
X108491976Y-67079809D01*
X108539595Y-67270285D01*
X108587214Y-67365523D01*
X108682452Y-67460761D01*
X108825309Y-67508380D01*
X108920547Y-67508380D01*
X109063404Y-67460761D01*
X109111023Y-67413142D01*
X109111023Y-67079809D01*
X108920547Y-67079809D01*
X109539595Y-67508380D02*
X109539595Y-66508380D01*
X110111023Y-67508380D01*
X110111023Y-66508380D01*
X110587214Y-67508380D02*
X110587214Y-66508380D01*
X110825309Y-66508380D01*
X110968166Y-66556000D01*
X111063404Y-66651238D01*
X111111023Y-66746476D01*
X111158642Y-66936952D01*
X111158642Y-67079809D01*
X111111023Y-67270285D01*
X111063404Y-67365523D01*
X110968166Y-67460761D01*
X110825309Y-67508380D01*
X110587214Y-67508380D01*
X127008000Y-91088595D02*
X126960380Y-91183833D01*
X126960380Y-91326690D01*
X127008000Y-91469547D01*
X127103238Y-91564785D01*
X127198476Y-91612404D01*
X127388952Y-91660023D01*
X127531809Y-91660023D01*
X127722285Y-91612404D01*
X127817523Y-91564785D01*
X127912761Y-91469547D01*
X127960380Y-91326690D01*
X127960380Y-91231452D01*
X127912761Y-91088595D01*
X127865142Y-91040976D01*
X127531809Y-91040976D01*
X127531809Y-91231452D01*
X127960380Y-90612404D02*
X126960380Y-90612404D01*
X126960380Y-90231452D01*
X127008000Y-90136214D01*
X127055619Y-90088595D01*
X127150857Y-90040976D01*
X127293714Y-90040976D01*
X127388952Y-90088595D01*
X127436571Y-90136214D01*
X127484190Y-90231452D01*
X127484190Y-90612404D01*
X127960380Y-89612404D02*
X126960380Y-89612404D01*
X126960380Y-88945738D02*
X126960380Y-88755261D01*
X127008000Y-88660023D01*
X127103238Y-88564785D01*
X127293714Y-88517166D01*
X127627047Y-88517166D01*
X127817523Y-88564785D01*
X127912761Y-88660023D01*
X127960380Y-88755261D01*
X127960380Y-88945738D01*
X127912761Y-89040976D01*
X127817523Y-89136214D01*
X127627047Y-89183833D01*
X127293714Y-89183833D01*
X127103238Y-89136214D01*
X127008000Y-89040976D01*
X126960380Y-88945738D01*
X126960380Y-86850500D02*
X126960380Y-87326690D01*
X127436571Y-87374309D01*
X127388952Y-87326690D01*
X127341333Y-87231452D01*
X127341333Y-86993357D01*
X127388952Y-86898119D01*
X127436571Y-86850500D01*
X127531809Y-86802880D01*
X127769904Y-86802880D01*
X127865142Y-86850500D01*
X127912761Y-86898119D01*
X127960380Y-86993357D01*
X127960380Y-87231452D01*
X127912761Y-87326690D01*
X127865142Y-87374309D01*
X132088000Y-91088595D02*
X132040380Y-91183833D01*
X132040380Y-91326690D01*
X132088000Y-91469547D01*
X132183238Y-91564785D01*
X132278476Y-91612404D01*
X132468952Y-91660023D01*
X132611809Y-91660023D01*
X132802285Y-91612404D01*
X132897523Y-91564785D01*
X132992761Y-91469547D01*
X133040380Y-91326690D01*
X133040380Y-91231452D01*
X132992761Y-91088595D01*
X132945142Y-91040976D01*
X132611809Y-91040976D01*
X132611809Y-91231452D01*
X133040380Y-90612404D02*
X132040380Y-90612404D01*
X133040380Y-90040976D01*
X132040380Y-90040976D01*
X133040380Y-89564785D02*
X132040380Y-89564785D01*
X132040380Y-89326690D01*
X132088000Y-89183833D01*
X132183238Y-89088595D01*
X132278476Y-89040976D01*
X132468952Y-88993357D01*
X132611809Y-88993357D01*
X132802285Y-89040976D01*
X132897523Y-89088595D01*
X132992761Y-89183833D01*
X133040380Y-89326690D01*
X133040380Y-89564785D01*
X108491976Y-70000761D02*
X108634833Y-70048380D01*
X108872928Y-70048380D01*
X108968166Y-70000761D01*
X109015785Y-69953142D01*
X109063404Y-69857904D01*
X109063404Y-69762666D01*
X109015785Y-69667428D01*
X108968166Y-69619809D01*
X108872928Y-69572190D01*
X108682452Y-69524571D01*
X108587214Y-69476952D01*
X108539595Y-69429333D01*
X108491976Y-69334095D01*
X108491976Y-69238857D01*
X108539595Y-69143619D01*
X108587214Y-69096000D01*
X108682452Y-69048380D01*
X108920547Y-69048380D01*
X109063404Y-69096000D01*
X109491976Y-69381714D02*
X109491976Y-70381714D01*
X109491976Y-69429333D02*
X109587214Y-69381714D01*
X109777690Y-69381714D01*
X109872928Y-69429333D01*
X109920547Y-69476952D01*
X109968166Y-69572190D01*
X109968166Y-69857904D01*
X109920547Y-69953142D01*
X109872928Y-70000761D01*
X109777690Y-70048380D01*
X109587214Y-70048380D01*
X109491976Y-70000761D01*
X110396738Y-70048380D02*
X110396738Y-69048380D01*
X110491976Y-69667428D02*
X110777690Y-70048380D01*
X110777690Y-69381714D02*
X110396738Y-69762666D01*
X112444357Y-70048380D02*
X111968166Y-70048380D01*
X111968166Y-69048380D01*
X112777690Y-69667428D02*
X113539595Y-69667428D01*
X113158642Y-70048380D02*
X113158642Y-69286476D01*
D11*
X142807714Y-65194571D02*
X142807714Y-63694571D01*
X143450571Y-63837428D02*
X143522000Y-63766000D01*
X143664857Y-63694571D01*
X144022000Y-63694571D01*
X144164857Y-63766000D01*
X144236285Y-63837428D01*
X144307714Y-63980285D01*
X144307714Y-64123142D01*
X144236285Y-64337428D01*
X143379142Y-65194571D01*
X144307714Y-65194571D01*
X145807714Y-65051714D02*
X145736285Y-65123142D01*
X145522000Y-65194571D01*
X145379142Y-65194571D01*
X145164857Y-65123142D01*
X145022000Y-64980285D01*
X144950571Y-64837428D01*
X144879142Y-64551714D01*
X144879142Y-64337428D01*
X144950571Y-64051714D01*
X145022000Y-63908857D01*
X145164857Y-63766000D01*
X145379142Y-63694571D01*
X145522000Y-63694571D01*
X145736285Y-63766000D01*
X145807714Y-63837428D01*
D10*
X117800380Y-91612404D02*
X116800380Y-91612404D01*
X116800380Y-91231452D01*
X116848000Y-91136214D01*
X116895619Y-91088595D01*
X116990857Y-91040976D01*
X117133714Y-91040976D01*
X117228952Y-91088595D01*
X117276571Y-91136214D01*
X117324190Y-91231452D01*
X117324190Y-91612404D01*
X117800380Y-90469547D02*
X117752761Y-90564785D01*
X117705142Y-90612404D01*
X117609904Y-90660023D01*
X117324190Y-90660023D01*
X117228952Y-90612404D01*
X117181333Y-90564785D01*
X117133714Y-90469547D01*
X117133714Y-90326690D01*
X117181333Y-90231452D01*
X117228952Y-90183833D01*
X117324190Y-90136214D01*
X117609904Y-90136214D01*
X117705142Y-90183833D01*
X117752761Y-90231452D01*
X117800380Y-90326690D01*
X117800380Y-90469547D01*
X117133714Y-89802880D02*
X117800380Y-89612404D01*
X117324190Y-89421928D01*
X117800380Y-89231452D01*
X117133714Y-89040976D01*
X117752761Y-88279071D02*
X117800380Y-88374309D01*
X117800380Y-88564785D01*
X117752761Y-88660023D01*
X117657523Y-88707642D01*
X117276571Y-88707642D01*
X117181333Y-88660023D01*
X117133714Y-88564785D01*
X117133714Y-88374309D01*
X117181333Y-88279071D01*
X117276571Y-88231452D01*
X117371809Y-88231452D01*
X117467047Y-88707642D01*
X117800380Y-87802880D02*
X117133714Y-87802880D01*
X117324190Y-87802880D02*
X117228952Y-87755261D01*
X117181333Y-87707642D01*
X117133714Y-87612404D01*
X117133714Y-87517166D01*
X130008380Y-72403642D02*
X130008380Y-71784595D01*
X130389333Y-72117928D01*
X130389333Y-71975071D01*
X130436952Y-71879833D01*
X130484571Y-71832214D01*
X130579809Y-71784595D01*
X130817904Y-71784595D01*
X130913142Y-71832214D01*
X130960761Y-71879833D01*
X131008380Y-71975071D01*
X131008380Y-72260785D01*
X130960761Y-72356023D01*
X130913142Y-72403642D01*
X130008380Y-71498880D02*
X131008380Y-71165547D01*
X130008380Y-70832214D01*
X130008380Y-70594119D02*
X130008380Y-69975071D01*
X130389333Y-70308404D01*
X130389333Y-70165547D01*
X130436952Y-70070309D01*
X130484571Y-70022690D01*
X130579809Y-69975071D01*
X130817904Y-69975071D01*
X130913142Y-70022690D01*
X130960761Y-70070309D01*
X131008380Y-70165547D01*
X131008380Y-70451261D01*
X130960761Y-70546500D01*
X130913142Y-70594119D01*
X108491976Y-72540761D02*
X108634833Y-72588380D01*
X108872928Y-72588380D01*
X108968166Y-72540761D01*
X109015785Y-72493142D01*
X109063404Y-72397904D01*
X109063404Y-72302666D01*
X109015785Y-72207428D01*
X108968166Y-72159809D01*
X108872928Y-72112190D01*
X108682452Y-72064571D01*
X108587214Y-72016952D01*
X108539595Y-71969333D01*
X108491976Y-71874095D01*
X108491976Y-71778857D01*
X108539595Y-71683619D01*
X108587214Y-71636000D01*
X108682452Y-71588380D01*
X108920547Y-71588380D01*
X109063404Y-71636000D01*
X109491976Y-71921714D02*
X109491976Y-72921714D01*
X109491976Y-71969333D02*
X109587214Y-71921714D01*
X109777690Y-71921714D01*
X109872928Y-71969333D01*
X109920547Y-72016952D01*
X109968166Y-72112190D01*
X109968166Y-72397904D01*
X109920547Y-72493142D01*
X109872928Y-72540761D01*
X109777690Y-72588380D01*
X109587214Y-72588380D01*
X109491976Y-72540761D01*
X110396738Y-72588380D02*
X110396738Y-71588380D01*
X110491976Y-72207428D02*
X110777690Y-72588380D01*
X110777690Y-71921714D02*
X110396738Y-72302666D01*
X112444357Y-72588380D02*
X111968166Y-72588380D01*
X111968166Y-71588380D01*
X112777690Y-72207428D02*
X113539595Y-72207428D01*
X142756000Y-91088595D02*
X142708380Y-91183833D01*
X142708380Y-91326690D01*
X142756000Y-91469547D01*
X142851238Y-91564785D01*
X142946476Y-91612404D01*
X143136952Y-91660023D01*
X143279809Y-91660023D01*
X143470285Y-91612404D01*
X143565523Y-91564785D01*
X143660761Y-91469547D01*
X143708380Y-91326690D01*
X143708380Y-91231452D01*
X143660761Y-91088595D01*
X143613142Y-91040976D01*
X143279809Y-91040976D01*
X143279809Y-91231452D01*
X143708380Y-90612404D02*
X142708380Y-90612404D01*
X142708380Y-90231452D01*
X142756000Y-90136214D01*
X142803619Y-90088595D01*
X142898857Y-90040976D01*
X143041714Y-90040976D01*
X143136952Y-90088595D01*
X143184571Y-90136214D01*
X143232190Y-90231452D01*
X143232190Y-90612404D01*
X143708380Y-89612404D02*
X142708380Y-89612404D01*
X142708380Y-88945738D02*
X142708380Y-88755261D01*
X142756000Y-88660023D01*
X142851238Y-88564785D01*
X143041714Y-88517166D01*
X143375047Y-88517166D01*
X143565523Y-88564785D01*
X143660761Y-88660023D01*
X143708380Y-88755261D01*
X143708380Y-88945738D01*
X143660761Y-89040976D01*
X143565523Y-89136214D01*
X143375047Y-89183833D01*
X143041714Y-89183833D01*
X142851238Y-89136214D01*
X142756000Y-89040976D01*
X142708380Y-88945738D01*
X142708380Y-86898119D02*
X142708380Y-87088595D01*
X142756000Y-87183833D01*
X142803619Y-87231452D01*
X142946476Y-87326690D01*
X143136952Y-87374309D01*
X143517904Y-87374309D01*
X143613142Y-87326690D01*
X143660761Y-87279071D01*
X143708380Y-87183833D01*
X143708380Y-86993357D01*
X143660761Y-86898119D01*
X143613142Y-86850500D01*
X143517904Y-86802880D01*
X143279809Y-86802880D01*
X143184571Y-86850500D01*
X143136952Y-86898119D01*
X143089333Y-86993357D01*
X143089333Y-87183833D01*
X143136952Y-87279071D01*
X143184571Y-87326690D01*
X143279809Y-87374309D01*
X135136000Y-51972595D02*
X135088380Y-52067833D01*
X135088380Y-52210690D01*
X135136000Y-52353547D01*
X135231238Y-52448785D01*
X135326476Y-52496404D01*
X135516952Y-52544023D01*
X135659809Y-52544023D01*
X135850285Y-52496404D01*
X135945523Y-52448785D01*
X136040761Y-52353547D01*
X136088380Y-52210690D01*
X136088380Y-52115452D01*
X136040761Y-51972595D01*
X135993142Y-51924976D01*
X135659809Y-51924976D01*
X135659809Y-52115452D01*
X136088380Y-51496404D02*
X135088380Y-51496404D01*
X136088380Y-50924976D01*
X135088380Y-50924976D01*
X136088380Y-50448785D02*
X135088380Y-50448785D01*
X135088380Y-50210690D01*
X135136000Y-50067833D01*
X135231238Y-49972595D01*
X135326476Y-49924976D01*
X135516952Y-49877357D01*
X135659809Y-49877357D01*
X135850285Y-49924976D01*
X135945523Y-49972595D01*
X136040761Y-50067833D01*
X136088380Y-50210690D01*
X136088380Y-50448785D01*
D11*
X102235428Y-57964820D02*
X102449714Y-58036249D01*
X102806857Y-58036249D01*
X102949714Y-57964820D01*
X103021142Y-57893392D01*
X103092571Y-57750535D01*
X103092571Y-57607678D01*
X103021142Y-57464820D01*
X102949714Y-57393392D01*
X102806857Y-57321963D01*
X102521142Y-57250535D01*
X102378285Y-57179106D01*
X102306857Y-57107678D01*
X102235428Y-56964820D01*
X102235428Y-56821963D01*
X102306857Y-56679106D01*
X102378285Y-56607678D01*
X102521142Y-56536249D01*
X102878285Y-56536249D01*
X103092571Y-56607678D01*
X104378285Y-57036249D02*
X104378285Y-58036249D01*
X103735428Y-57036249D02*
X103735428Y-57821963D01*
X103806857Y-57964820D01*
X103949714Y-58036249D01*
X104164000Y-58036249D01*
X104306857Y-57964820D01*
X104378285Y-57893392D01*
X105092571Y-57036249D02*
X105092571Y-58536249D01*
X105092571Y-57107678D02*
X105235428Y-57036249D01*
X105521142Y-57036249D01*
X105664000Y-57107678D01*
X105735428Y-57179106D01*
X105806857Y-57321963D01*
X105806857Y-57750535D01*
X105735428Y-57893392D01*
X105664000Y-57964820D01*
X105521142Y-58036249D01*
X105235428Y-58036249D01*
X105092571Y-57964820D01*
X106449714Y-57036249D02*
X106449714Y-58536249D01*
X106449714Y-57107678D02*
X106592571Y-57036249D01*
X106878285Y-57036249D01*
X107021142Y-57107678D01*
X107092571Y-57179106D01*
X107164000Y-57321963D01*
X107164000Y-57750535D01*
X107092571Y-57893392D01*
X107021142Y-57964820D01*
X106878285Y-58036249D01*
X106592571Y-58036249D01*
X106449714Y-57964820D01*
X108021142Y-58036249D02*
X107878285Y-57964820D01*
X107806857Y-57821963D01*
X107806857Y-56536249D01*
X108449714Y-57036249D02*
X108806857Y-58036249D01*
X109164000Y-57036249D02*
X108806857Y-58036249D01*
X108664000Y-58393392D01*
X108592571Y-58464820D01*
X108449714Y-58536249D01*
D10*
X108491976Y-80160761D02*
X108634833Y-80208380D01*
X108872928Y-80208380D01*
X108968166Y-80160761D01*
X109015785Y-80113142D01*
X109063404Y-80017904D01*
X109063404Y-79922666D01*
X109015785Y-79827428D01*
X108968166Y-79779809D01*
X108872928Y-79732190D01*
X108682452Y-79684571D01*
X108587214Y-79636952D01*
X108539595Y-79589333D01*
X108491976Y-79494095D01*
X108491976Y-79398857D01*
X108539595Y-79303619D01*
X108587214Y-79256000D01*
X108682452Y-79208380D01*
X108920547Y-79208380D01*
X109063404Y-79256000D01*
X109491976Y-79541714D02*
X109491976Y-80541714D01*
X109491976Y-79589333D02*
X109587214Y-79541714D01*
X109777690Y-79541714D01*
X109872928Y-79589333D01*
X109920547Y-79636952D01*
X109968166Y-79732190D01*
X109968166Y-80017904D01*
X109920547Y-80113142D01*
X109872928Y-80160761D01*
X109777690Y-80208380D01*
X109587214Y-80208380D01*
X109491976Y-80160761D01*
X110396738Y-80208380D02*
X110396738Y-79208380D01*
X110491976Y-79827428D02*
X110777690Y-80208380D01*
X110777690Y-79541714D02*
X110396738Y-79922666D01*
X112539595Y-80208380D02*
X112206261Y-79732190D01*
X111968166Y-80208380D02*
X111968166Y-79208380D01*
X112349119Y-79208380D01*
X112444357Y-79256000D01*
X112491976Y-79303619D01*
X112539595Y-79398857D01*
X112539595Y-79541714D01*
X112491976Y-79636952D01*
X112444357Y-79684571D01*
X112349119Y-79732190D01*
X111968166Y-79732190D01*
X112968166Y-79827428D02*
X113730071Y-79827428D01*
X113349119Y-80208380D02*
X113349119Y-79446476D01*
D11*
X153019428Y-57066571D02*
X152519428Y-56352285D01*
X152162285Y-57066571D02*
X152162285Y-55566571D01*
X152733714Y-55566571D01*
X152876571Y-55638000D01*
X152948000Y-55709428D01*
X153019428Y-55852285D01*
X153019428Y-56066571D01*
X152948000Y-56209428D01*
X152876571Y-56280857D01*
X152733714Y-56352285D01*
X152162285Y-56352285D01*
X154519428Y-56923714D02*
X154448000Y-56995142D01*
X154233714Y-57066571D01*
X154090857Y-57066571D01*
X153876571Y-56995142D01*
X153733714Y-56852285D01*
X153662285Y-56709428D01*
X153590857Y-56423714D01*
X153590857Y-56209428D01*
X153662285Y-55923714D01*
X153733714Y-55780857D01*
X153876571Y-55638000D01*
X154090857Y-55566571D01*
X154233714Y-55566571D01*
X154448000Y-55638000D01*
X154519428Y-55709428D01*
X155876571Y-55566571D02*
X155162285Y-55566571D01*
X155090857Y-56280857D01*
X155162285Y-56209428D01*
X155305142Y-56138000D01*
X155662285Y-56138000D01*
X155805142Y-56209428D01*
X155876571Y-56280857D01*
X155948000Y-56423714D01*
X155948000Y-56780857D01*
X155876571Y-56923714D01*
X155805142Y-56995142D01*
X155662285Y-57066571D01*
X155305142Y-57066571D01*
X155162285Y-56995142D01*
X155090857Y-56923714D01*
X156519428Y-55709428D02*
X156590857Y-55638000D01*
X156733714Y-55566571D01*
X157090857Y-55566571D01*
X157233714Y-55638000D01*
X157305142Y-55709428D01*
X157376571Y-55852285D01*
X157376571Y-55995142D01*
X157305142Y-56209428D01*
X156448000Y-57066571D01*
X157376571Y-57066571D01*
X157948000Y-55709428D02*
X158019428Y-55638000D01*
X158162285Y-55566571D01*
X158519428Y-55566571D01*
X158662285Y-55638000D01*
X158733714Y-55709428D01*
X158805142Y-55852285D01*
X158805142Y-55995142D01*
X158733714Y-56209428D01*
X157876571Y-57066571D01*
X158805142Y-57066571D01*
D10*
X108539595Y-85288380D02*
X108539595Y-84288380D01*
X109015785Y-84621714D02*
X109015785Y-85288380D01*
X109015785Y-84716952D02*
X109063404Y-84669333D01*
X109158642Y-84621714D01*
X109301500Y-84621714D01*
X109396738Y-84669333D01*
X109444357Y-84764571D01*
X109444357Y-85288380D01*
X111158642Y-85288380D02*
X110682452Y-85288380D01*
X110682452Y-84288380D01*
X124468000Y-91088595D02*
X124420380Y-91183833D01*
X124420380Y-91326690D01*
X124468000Y-91469547D01*
X124563238Y-91564785D01*
X124658476Y-91612404D01*
X124848952Y-91660023D01*
X124991809Y-91660023D01*
X125182285Y-91612404D01*
X125277523Y-91564785D01*
X125372761Y-91469547D01*
X125420380Y-91326690D01*
X125420380Y-91231452D01*
X125372761Y-91088595D01*
X125325142Y-91040976D01*
X124991809Y-91040976D01*
X124991809Y-91231452D01*
X125420380Y-90612404D02*
X124420380Y-90612404D01*
X124420380Y-90231452D01*
X124468000Y-90136214D01*
X124515619Y-90088595D01*
X124610857Y-90040976D01*
X124753714Y-90040976D01*
X124848952Y-90088595D01*
X124896571Y-90136214D01*
X124944190Y-90231452D01*
X124944190Y-90612404D01*
X125420380Y-89612404D02*
X124420380Y-89612404D01*
X124420380Y-88945738D02*
X124420380Y-88755261D01*
X124468000Y-88660023D01*
X124563238Y-88564785D01*
X124753714Y-88517166D01*
X125087047Y-88517166D01*
X125277523Y-88564785D01*
X125372761Y-88660023D01*
X125420380Y-88755261D01*
X125420380Y-88945738D01*
X125372761Y-89040976D01*
X125277523Y-89136214D01*
X125087047Y-89183833D01*
X124753714Y-89183833D01*
X124563238Y-89136214D01*
X124468000Y-89040976D01*
X124420380Y-88945738D01*
X124515619Y-87374309D02*
X124468000Y-87326690D01*
X124420380Y-87231452D01*
X124420380Y-86993357D01*
X124468000Y-86898119D01*
X124515619Y-86850500D01*
X124610857Y-86802880D01*
X124706095Y-86802880D01*
X124848952Y-86850500D01*
X125420380Y-87421928D01*
X125420380Y-86802880D01*
X124420380Y-86469547D02*
X124420380Y-85850500D01*
X124801333Y-86183833D01*
X124801333Y-86040976D01*
X124848952Y-85945738D01*
X124896571Y-85898119D01*
X124991809Y-85850500D01*
X125229904Y-85850500D01*
X125325142Y-85898119D01*
X125372761Y-85945738D01*
X125420380Y-86040976D01*
X125420380Y-86326690D01*
X125372761Y-86421928D01*
X125325142Y-86469547D01*
X141120761Y-52544023D02*
X141168380Y-52401166D01*
X141168380Y-52163071D01*
X141120761Y-52067833D01*
X141073142Y-52020214D01*
X140977904Y-51972595D01*
X140882666Y-51972595D01*
X140787428Y-52020214D01*
X140739809Y-52067833D01*
X140692190Y-52163071D01*
X140644571Y-52353547D01*
X140596952Y-52448785D01*
X140549333Y-52496404D01*
X140454095Y-52544023D01*
X140358857Y-52544023D01*
X140263619Y-52496404D01*
X140216000Y-52448785D01*
X140168380Y-52353547D01*
X140168380Y-52115452D01*
X140216000Y-51972595D01*
X141168380Y-51544023D02*
X140168380Y-51544023D01*
X140168380Y-51305928D01*
X140216000Y-51163071D01*
X140311238Y-51067833D01*
X140406476Y-51020214D01*
X140596952Y-50972595D01*
X140739809Y-50972595D01*
X140930285Y-51020214D01*
X141025523Y-51067833D01*
X141120761Y-51163071D01*
X141168380Y-51305928D01*
X141168380Y-51544023D01*
X141168380Y-50544023D02*
X140168380Y-50544023D01*
X108539595Y-82748380D02*
X108539595Y-81748380D01*
X109015785Y-82081714D02*
X109015785Y-82748380D01*
X109015785Y-82176952D02*
X109063404Y-82129333D01*
X109158642Y-82081714D01*
X109301500Y-82081714D01*
X109396738Y-82129333D01*
X109444357Y-82224571D01*
X109444357Y-82748380D01*
X111253880Y-82748380D02*
X110920547Y-82272190D01*
X110682452Y-82748380D02*
X110682452Y-81748380D01*
X111063404Y-81748380D01*
X111158642Y-81796000D01*
X111206261Y-81843619D01*
X111253880Y-81938857D01*
X111253880Y-82081714D01*
X111206261Y-82176952D01*
X111158642Y-82224571D01*
X111063404Y-82272190D01*
X110682452Y-82272190D01*
D11*
X120051142Y-83204857D02*
X120265428Y-83276285D01*
X120336857Y-83347714D01*
X120408285Y-83490571D01*
X120408285Y-83704857D01*
X120336857Y-83847714D01*
X120265428Y-83919142D01*
X120122571Y-83990571D01*
X119551142Y-83990571D01*
X119551142Y-82490571D01*
X120051142Y-82490571D01*
X120194000Y-82562000D01*
X120265428Y-82633428D01*
X120336857Y-82776285D01*
X120336857Y-82919142D01*
X120265428Y-83062000D01*
X120194000Y-83133428D01*
X120051142Y-83204857D01*
X119551142Y-83204857D01*
X121694000Y-82990571D02*
X121694000Y-83990571D01*
X121051142Y-82990571D02*
X121051142Y-83776285D01*
X121122571Y-83919142D01*
X121265428Y-83990571D01*
X121479714Y-83990571D01*
X121622571Y-83919142D01*
X121694000Y-83847714D01*
X122194000Y-82990571D02*
X122765428Y-82990571D01*
X122408285Y-82490571D02*
X122408285Y-83776285D01*
X122479714Y-83919142D01*
X122622571Y-83990571D01*
X122765428Y-83990571D01*
X123051142Y-82990571D02*
X123622571Y-82990571D01*
X123265428Y-82490571D02*
X123265428Y-83776285D01*
X123336857Y-83919142D01*
X123479714Y-83990571D01*
X123622571Y-83990571D01*
X124336857Y-83990571D02*
X124194000Y-83919142D01*
X124122571Y-83847714D01*
X124051142Y-83704857D01*
X124051142Y-83276285D01*
X124122571Y-83133428D01*
X124194000Y-83062000D01*
X124336857Y-82990571D01*
X124551142Y-82990571D01*
X124694000Y-83062000D01*
X124765428Y-83133428D01*
X124836857Y-83276285D01*
X124836857Y-83704857D01*
X124765428Y-83847714D01*
X124694000Y-83919142D01*
X124551142Y-83990571D01*
X124336857Y-83990571D01*
X125479714Y-82990571D02*
X125479714Y-83990571D01*
X125479714Y-83133428D02*
X125551142Y-83062000D01*
X125694000Y-82990571D01*
X125908285Y-82990571D01*
X126051142Y-83062000D01*
X126122571Y-83204857D01*
X126122571Y-83990571D01*
X126765428Y-83919142D02*
X126908285Y-83990571D01*
X127194000Y-83990571D01*
X127336857Y-83919142D01*
X127408285Y-83776285D01*
X127408285Y-83704857D01*
X127336857Y-83562000D01*
X127194000Y-83490571D01*
X126979714Y-83490571D01*
X126836857Y-83419142D01*
X126765428Y-83276285D01*
X126765428Y-83204857D01*
X126836857Y-83062000D01*
X126979714Y-82990571D01*
X127194000Y-82990571D01*
X127336857Y-83062000D01*
D10*
X109063404Y-74176000D02*
X108968166Y-74128380D01*
X108825309Y-74128380D01*
X108682452Y-74176000D01*
X108587214Y-74271238D01*
X108539595Y-74366476D01*
X108491976Y-74556952D01*
X108491976Y-74699809D01*
X108539595Y-74890285D01*
X108587214Y-74985523D01*
X108682452Y-75080761D01*
X108825309Y-75128380D01*
X108920547Y-75128380D01*
X109063404Y-75080761D01*
X109111023Y-75033142D01*
X109111023Y-74699809D01*
X108920547Y-74699809D01*
X109539595Y-75128380D02*
X109539595Y-74128380D01*
X110111023Y-75128380D01*
X110111023Y-74128380D01*
X110587214Y-75128380D02*
X110587214Y-74128380D01*
X110825309Y-74128380D01*
X110968166Y-74176000D01*
X111063404Y-74271238D01*
X111111023Y-74366476D01*
X111158642Y-74556952D01*
X111158642Y-74699809D01*
X111111023Y-74890285D01*
X111063404Y-74985523D01*
X110968166Y-75080761D01*
X110825309Y-75128380D01*
X110587214Y-75128380D01*
X136548761Y-72356023D02*
X136596380Y-72213166D01*
X136596380Y-71975071D01*
X136548761Y-71879833D01*
X136501142Y-71832214D01*
X136405904Y-71784595D01*
X136310666Y-71784595D01*
X136215428Y-71832214D01*
X136167809Y-71879833D01*
X136120190Y-71975071D01*
X136072571Y-72165547D01*
X136024952Y-72260785D01*
X135977333Y-72308404D01*
X135882095Y-72356023D01*
X135786857Y-72356023D01*
X135691619Y-72308404D01*
X135644000Y-72260785D01*
X135596380Y-72165547D01*
X135596380Y-71927452D01*
X135644000Y-71784595D01*
X136596380Y-71356023D02*
X135596380Y-71356023D01*
X135596380Y-71117928D01*
X135644000Y-70975071D01*
X135739238Y-70879833D01*
X135834476Y-70832214D01*
X136024952Y-70784595D01*
X136167809Y-70784595D01*
X136358285Y-70832214D01*
X136453523Y-70879833D01*
X136548761Y-70975071D01*
X136596380Y-71117928D01*
X136596380Y-71356023D01*
X136310666Y-70403642D02*
X136310666Y-69927452D01*
X136596380Y-70498880D02*
X135596380Y-70165547D01*
X136596380Y-69832214D01*
D12*
X163012380Y-92732952D02*
X162012380Y-92732952D01*
X162012380Y-92352000D01*
X162060000Y-92256761D01*
X162107619Y-92209142D01*
X162202857Y-92161523D01*
X162345714Y-92161523D01*
X162440952Y-92209142D01*
X162488571Y-92256761D01*
X162536190Y-92352000D01*
X162536190Y-92732952D01*
X163012380Y-91732952D02*
X162012380Y-91732952D01*
X163012380Y-91304380D02*
X162488571Y-91304380D01*
X162393333Y-91352000D01*
X162345714Y-91447238D01*
X162345714Y-91590095D01*
X162393333Y-91685333D01*
X162440952Y-91732952D01*
X163012380Y-90685333D02*
X162964761Y-90780571D01*
X162917142Y-90828190D01*
X162821904Y-90875809D01*
X162536190Y-90875809D01*
X162440952Y-90828190D01*
X162393333Y-90780571D01*
X162345714Y-90685333D01*
X162345714Y-90542476D01*
X162393333Y-90447238D01*
X162440952Y-90399619D01*
X162536190Y-90352000D01*
X162821904Y-90352000D01*
X162917142Y-90399619D01*
X162964761Y-90447238D01*
X163012380Y-90542476D01*
X163012380Y-90685333D01*
X162345714Y-89923428D02*
X163012380Y-89923428D01*
X162440952Y-89923428D02*
X162393333Y-89875809D01*
X162345714Y-89780571D01*
X162345714Y-89637714D01*
X162393333Y-89542476D01*
X162488571Y-89494857D01*
X163012380Y-89494857D01*
X163012380Y-89018666D02*
X162345714Y-89018666D01*
X162012380Y-89018666D02*
X162060000Y-89066285D01*
X162107619Y-89018666D01*
X162060000Y-88971047D01*
X162012380Y-89018666D01*
X162107619Y-89018666D01*
X162964761Y-88161523D02*
X163012380Y-88256761D01*
X163012380Y-88447238D01*
X162964761Y-88542476D01*
X162869523Y-88590095D01*
X162488571Y-88590095D01*
X162393333Y-88542476D01*
X162345714Y-88447238D01*
X162345714Y-88256761D01*
X162393333Y-88161523D01*
X162488571Y-88113904D01*
X162583809Y-88113904D01*
X162679047Y-88590095D01*
X163012380Y-87685333D02*
X162012380Y-87685333D01*
X162393333Y-87685333D02*
X162345714Y-87590095D01*
X162345714Y-87399619D01*
X162393333Y-87304380D01*
X162440952Y-87256761D01*
X162536190Y-87209142D01*
X162821904Y-87209142D01*
X162917142Y-87256761D01*
X162964761Y-87304380D01*
X163012380Y-87399619D01*
X163012380Y-87590095D01*
X162964761Y-87685333D01*
X163012380Y-86637714D02*
X162964761Y-86732952D01*
X162917142Y-86780571D01*
X162821904Y-86828190D01*
X162536190Y-86828190D01*
X162440952Y-86780571D01*
X162393333Y-86732952D01*
X162345714Y-86637714D01*
X162345714Y-86494857D01*
X162393333Y-86399619D01*
X162440952Y-86352000D01*
X162536190Y-86304380D01*
X162821904Y-86304380D01*
X162917142Y-86352000D01*
X162964761Y-86399619D01*
X163012380Y-86494857D01*
X163012380Y-86637714D01*
X163012380Y-85971047D02*
X162345714Y-85447238D01*
X162345714Y-85971047D02*
X163012380Y-85447238D01*
X163012380Y-84304380D02*
X162012380Y-84304380D01*
X162488571Y-84304380D02*
X162488571Y-83732952D01*
X163012380Y-83732952D02*
X162012380Y-83732952D01*
X162726666Y-83304380D02*
X162726666Y-82828190D01*
X163012380Y-83399619D02*
X162012380Y-83066285D01*
X163012380Y-82732952D01*
X162012380Y-82542476D02*
X162012380Y-81971047D01*
X163012380Y-82256761D02*
X162012380Y-82256761D01*
X163012380Y-80352000D02*
X163012380Y-80923428D01*
X163012380Y-80637714D02*
X162012380Y-80637714D01*
X162155238Y-80732952D01*
X162250476Y-80828190D01*
X162298095Y-80923428D01*
X162917142Y-79923428D02*
X162964761Y-79875809D01*
X163012380Y-79923428D01*
X162964761Y-79971047D01*
X162917142Y-79923428D01*
X163012380Y-79923428D01*
X162012380Y-79256761D02*
X162012380Y-79161523D01*
X162060000Y-79066285D01*
X162107619Y-79018666D01*
X162202857Y-78971047D01*
X162393333Y-78923428D01*
X162631428Y-78923428D01*
X162821904Y-78971047D01*
X162917142Y-79018666D01*
X162964761Y-79066285D01*
X163012380Y-79161523D01*
X163012380Y-79256761D01*
X162964761Y-79352000D01*
X162917142Y-79399619D01*
X162821904Y-79447238D01*
X162631428Y-79494857D01*
X162393333Y-79494857D01*
X162202857Y-79447238D01*
X162107619Y-79399619D01*
X162060000Y-79352000D01*
X162012380Y-79256761D01*
D11*
X141677142Y-82490571D02*
X141962857Y-82490571D01*
X142105714Y-82562000D01*
X142248571Y-82704857D01*
X142320000Y-82990571D01*
X142320000Y-83490571D01*
X142248571Y-83776285D01*
X142105714Y-83919142D01*
X141962857Y-83990571D01*
X141677142Y-83990571D01*
X141534285Y-83919142D01*
X141391428Y-83776285D01*
X141320000Y-83490571D01*
X141320000Y-82990571D01*
X141391428Y-82704857D01*
X141534285Y-82562000D01*
X141677142Y-82490571D01*
X142962857Y-82990571D02*
X142962857Y-84490571D01*
X142962857Y-83062000D02*
X143105714Y-82990571D01*
X143391428Y-82990571D01*
X143534285Y-83062000D01*
X143605714Y-83133428D01*
X143677142Y-83276285D01*
X143677142Y-83704857D01*
X143605714Y-83847714D01*
X143534285Y-83919142D01*
X143391428Y-83990571D01*
X143105714Y-83990571D01*
X142962857Y-83919142D01*
X144891428Y-83919142D02*
X144748571Y-83990571D01*
X144462857Y-83990571D01*
X144320000Y-83919142D01*
X144248571Y-83776285D01*
X144248571Y-83204857D01*
X144320000Y-83062000D01*
X144462857Y-82990571D01*
X144748571Y-82990571D01*
X144891428Y-83062000D01*
X144962857Y-83204857D01*
X144962857Y-83347714D01*
X144248571Y-83490571D01*
X145605714Y-82990571D02*
X145605714Y-83990571D01*
X145605714Y-83133428D02*
X145677142Y-83062000D01*
X145820000Y-82990571D01*
X146034285Y-82990571D01*
X146177142Y-83062000D01*
X146248571Y-83204857D01*
X146248571Y-83990571D01*
X148105714Y-83990571D02*
X148105714Y-82490571D01*
X148462857Y-82490571D01*
X148677142Y-82562000D01*
X148820000Y-82704857D01*
X148891428Y-82847714D01*
X148962857Y-83133428D01*
X148962857Y-83347714D01*
X148891428Y-83633428D01*
X148820000Y-83776285D01*
X148677142Y-83919142D01*
X148462857Y-83990571D01*
X148105714Y-83990571D01*
X149605714Y-83990571D02*
X149605714Y-82990571D01*
X149605714Y-83276285D02*
X149677142Y-83133428D01*
X149748571Y-83062000D01*
X149891428Y-82990571D01*
X150034285Y-82990571D01*
X151177142Y-83990571D02*
X151177142Y-83204857D01*
X151105714Y-83062000D01*
X150962857Y-82990571D01*
X150677142Y-82990571D01*
X150534285Y-83062000D01*
X151177142Y-83919142D02*
X151034285Y-83990571D01*
X150677142Y-83990571D01*
X150534285Y-83919142D01*
X150462857Y-83776285D01*
X150462857Y-83633428D01*
X150534285Y-83490571D01*
X150677142Y-83419142D01*
X151034285Y-83419142D01*
X151177142Y-83347714D01*
X151891428Y-83990571D02*
X151891428Y-82990571D01*
X151891428Y-82490571D02*
X151820000Y-82562000D01*
X151891428Y-82633428D01*
X151962857Y-82562000D01*
X151891428Y-82490571D01*
X151891428Y-82633428D01*
X152605714Y-82990571D02*
X152605714Y-83990571D01*
X152605714Y-83133428D02*
X152677142Y-83062000D01*
X152820000Y-82990571D01*
X153034285Y-82990571D01*
X153177142Y-83062000D01*
X153248571Y-83204857D01*
X153248571Y-83990571D01*
D10*
X148740761Y-52544023D02*
X148788380Y-52401166D01*
X148788380Y-52163071D01*
X148740761Y-52067833D01*
X148693142Y-52020214D01*
X148597904Y-51972595D01*
X148502666Y-51972595D01*
X148407428Y-52020214D01*
X148359809Y-52067833D01*
X148312190Y-52163071D01*
X148264571Y-52353547D01*
X148216952Y-52448785D01*
X148169333Y-52496404D01*
X148074095Y-52544023D01*
X147978857Y-52544023D01*
X147883619Y-52496404D01*
X147836000Y-52448785D01*
X147788380Y-52353547D01*
X147788380Y-52115452D01*
X147836000Y-51972595D01*
X148788380Y-51544023D02*
X147788380Y-51544023D01*
X147788380Y-51305928D01*
X147836000Y-51163071D01*
X147931238Y-51067833D01*
X148026476Y-51020214D01*
X148216952Y-50972595D01*
X148359809Y-50972595D01*
X148550285Y-51020214D01*
X148645523Y-51067833D01*
X148740761Y-51163071D01*
X148788380Y-51305928D01*
X148788380Y-51544023D01*
X148502666Y-50591642D02*
X148502666Y-50115452D01*
X148788380Y-50686880D02*
X147788380Y-50353547D01*
X148788380Y-50020214D01*
X150376000Y-91088595D02*
X150328380Y-91183833D01*
X150328380Y-91326690D01*
X150376000Y-91469547D01*
X150471238Y-91564785D01*
X150566476Y-91612404D01*
X150756952Y-91660023D01*
X150899809Y-91660023D01*
X151090285Y-91612404D01*
X151185523Y-91564785D01*
X151280761Y-91469547D01*
X151328380Y-91326690D01*
X151328380Y-91231452D01*
X151280761Y-91088595D01*
X151233142Y-91040976D01*
X150899809Y-91040976D01*
X150899809Y-91231452D01*
X151328380Y-90612404D02*
X150328380Y-90612404D01*
X150328380Y-90231452D01*
X150376000Y-90136214D01*
X150423619Y-90088595D01*
X150518857Y-90040976D01*
X150661714Y-90040976D01*
X150756952Y-90088595D01*
X150804571Y-90136214D01*
X150852190Y-90231452D01*
X150852190Y-90612404D01*
X151328380Y-89612404D02*
X150328380Y-89612404D01*
X150328380Y-88945738D02*
X150328380Y-88755261D01*
X150376000Y-88660023D01*
X150471238Y-88564785D01*
X150661714Y-88517166D01*
X150995047Y-88517166D01*
X151185523Y-88564785D01*
X151280761Y-88660023D01*
X151328380Y-88755261D01*
X151328380Y-88945738D01*
X151280761Y-89040976D01*
X151185523Y-89136214D01*
X150995047Y-89183833D01*
X150661714Y-89183833D01*
X150471238Y-89136214D01*
X150376000Y-89040976D01*
X150328380Y-88945738D01*
X150423619Y-87374309D02*
X150376000Y-87326690D01*
X150328380Y-87231452D01*
X150328380Y-86993357D01*
X150376000Y-86898119D01*
X150423619Y-86850500D01*
X150518857Y-86802880D01*
X150614095Y-86802880D01*
X150756952Y-86850500D01*
X151328380Y-87421928D01*
X151328380Y-86802880D01*
X150328380Y-86183833D02*
X150328380Y-86088595D01*
X150376000Y-85993357D01*
X150423619Y-85945738D01*
X150518857Y-85898119D01*
X150709333Y-85850500D01*
X150947428Y-85850500D01*
X151137904Y-85898119D01*
X151233142Y-85945738D01*
X151280761Y-85993357D01*
X151328380Y-86088595D01*
X151328380Y-86183833D01*
X151280761Y-86279071D01*
X151233142Y-86326690D01*
X151137904Y-86374309D01*
X150947428Y-86421928D01*
X150709333Y-86421928D01*
X150518857Y-86374309D01*
X150423619Y-86326690D01*
X150376000Y-86279071D01*
X150328380Y-86183833D01*
X137628380Y-91136214D02*
X137628380Y-91612404D01*
X138104571Y-91660023D01*
X138056952Y-91612404D01*
X138009333Y-91517166D01*
X138009333Y-91279071D01*
X138056952Y-91183833D01*
X138104571Y-91136214D01*
X138199809Y-91088595D01*
X138437904Y-91088595D01*
X138533142Y-91136214D01*
X138580761Y-91183833D01*
X138628380Y-91279071D01*
X138628380Y-91517166D01*
X138580761Y-91612404D01*
X138533142Y-91660023D01*
X137628380Y-90802880D02*
X138628380Y-90469547D01*
X137628380Y-90136214D01*
X114308000Y-91088595D02*
X114260380Y-91183833D01*
X114260380Y-91326690D01*
X114308000Y-91469547D01*
X114403238Y-91564785D01*
X114498476Y-91612404D01*
X114688952Y-91660023D01*
X114831809Y-91660023D01*
X115022285Y-91612404D01*
X115117523Y-91564785D01*
X115212761Y-91469547D01*
X115260380Y-91326690D01*
X115260380Y-91231452D01*
X115212761Y-91088595D01*
X115165142Y-91040976D01*
X114831809Y-91040976D01*
X114831809Y-91231452D01*
X115260380Y-90612404D02*
X114260380Y-90612404D01*
X115260380Y-90040976D01*
X114260380Y-90040976D01*
X115260380Y-89564785D02*
X114260380Y-89564785D01*
X114260380Y-89326690D01*
X114308000Y-89183833D01*
X114403238Y-89088595D01*
X114498476Y-89040976D01*
X114688952Y-88993357D01*
X114831809Y-88993357D01*
X115022285Y-89040976D01*
X115117523Y-89088595D01*
X115212761Y-89183833D01*
X115260380Y-89326690D01*
X115260380Y-89564785D01*
X139088761Y-72356023D02*
X139136380Y-72213166D01*
X139136380Y-71975071D01*
X139088761Y-71879833D01*
X139041142Y-71832214D01*
X138945904Y-71784595D01*
X138850666Y-71784595D01*
X138755428Y-71832214D01*
X138707809Y-71879833D01*
X138660190Y-71975071D01*
X138612571Y-72165547D01*
X138564952Y-72260785D01*
X138517333Y-72308404D01*
X138422095Y-72356023D01*
X138326857Y-72356023D01*
X138231619Y-72308404D01*
X138184000Y-72260785D01*
X138136380Y-72165547D01*
X138136380Y-71927452D01*
X138184000Y-71784595D01*
X139041142Y-70784595D02*
X139088761Y-70832214D01*
X139136380Y-70975071D01*
X139136380Y-71070309D01*
X139088761Y-71213166D01*
X138993523Y-71308404D01*
X138898285Y-71356023D01*
X138707809Y-71403642D01*
X138564952Y-71403642D01*
X138374476Y-71356023D01*
X138279238Y-71308404D01*
X138184000Y-71213166D01*
X138136380Y-71070309D01*
X138136380Y-70975071D01*
X138184000Y-70832214D01*
X138231619Y-70784595D01*
X139136380Y-69879833D02*
X139136380Y-70356023D01*
X138136380Y-70356023D01*
X129548000Y-91088595D02*
X129500380Y-91183833D01*
X129500380Y-91326690D01*
X129548000Y-91469547D01*
X129643238Y-91564785D01*
X129738476Y-91612404D01*
X129928952Y-91660023D01*
X130071809Y-91660023D01*
X130262285Y-91612404D01*
X130357523Y-91564785D01*
X130452761Y-91469547D01*
X130500380Y-91326690D01*
X130500380Y-91231452D01*
X130452761Y-91088595D01*
X130405142Y-91040976D01*
X130071809Y-91040976D01*
X130071809Y-91231452D01*
X130500380Y-90612404D02*
X129500380Y-90612404D01*
X129500380Y-90231452D01*
X129548000Y-90136214D01*
X129595619Y-90088595D01*
X129690857Y-90040976D01*
X129833714Y-90040976D01*
X129928952Y-90088595D01*
X129976571Y-90136214D01*
X130024190Y-90231452D01*
X130024190Y-90612404D01*
X130500380Y-89612404D02*
X129500380Y-89612404D01*
X129500380Y-88945738D02*
X129500380Y-88755261D01*
X129548000Y-88660023D01*
X129643238Y-88564785D01*
X129833714Y-88517166D01*
X130167047Y-88517166D01*
X130357523Y-88564785D01*
X130452761Y-88660023D01*
X130500380Y-88755261D01*
X130500380Y-88945738D01*
X130452761Y-89040976D01*
X130357523Y-89136214D01*
X130167047Y-89183833D01*
X129833714Y-89183833D01*
X129643238Y-89136214D01*
X129548000Y-89040976D01*
X129500380Y-88945738D01*
X130500380Y-86802880D02*
X130500380Y-87374309D01*
X130500380Y-87088595D02*
X129500380Y-87088595D01*
X129643238Y-87183833D01*
X129738476Y-87279071D01*
X129786095Y-87374309D01*
X129595619Y-86421928D02*
X129548000Y-86374309D01*
X129500380Y-86279071D01*
X129500380Y-86040976D01*
X129548000Y-85945738D01*
X129595619Y-85898119D01*
X129690857Y-85850500D01*
X129786095Y-85850500D01*
X129928952Y-85898119D01*
X130500380Y-86469547D01*
X130500380Y-85850500D01*
X146200761Y-52544023D02*
X146248380Y-52401166D01*
X146248380Y-52163071D01*
X146200761Y-52067833D01*
X146153142Y-52020214D01*
X146057904Y-51972595D01*
X145962666Y-51972595D01*
X145867428Y-52020214D01*
X145819809Y-52067833D01*
X145772190Y-52163071D01*
X145724571Y-52353547D01*
X145676952Y-52448785D01*
X145629333Y-52496404D01*
X145534095Y-52544023D01*
X145438857Y-52544023D01*
X145343619Y-52496404D01*
X145296000Y-52448785D01*
X145248380Y-52353547D01*
X145248380Y-52115452D01*
X145296000Y-51972595D01*
X146153142Y-50972595D02*
X146200761Y-51020214D01*
X146248380Y-51163071D01*
X146248380Y-51258309D01*
X146200761Y-51401166D01*
X146105523Y-51496404D01*
X146010285Y-51544023D01*
X145819809Y-51591642D01*
X145676952Y-51591642D01*
X145486476Y-51544023D01*
X145391238Y-51496404D01*
X145296000Y-51401166D01*
X145248380Y-51258309D01*
X145248380Y-51163071D01*
X145296000Y-51020214D01*
X145343619Y-50972595D01*
X146248380Y-50544023D02*
X145248380Y-50544023D01*
X146248380Y-49972595D02*
X145676952Y-50401166D01*
X145248380Y-49972595D02*
X145819809Y-50544023D01*
X145296000Y-91088595D02*
X145248380Y-91183833D01*
X145248380Y-91326690D01*
X145296000Y-91469547D01*
X145391238Y-91564785D01*
X145486476Y-91612404D01*
X145676952Y-91660023D01*
X145819809Y-91660023D01*
X146010285Y-91612404D01*
X146105523Y-91564785D01*
X146200761Y-91469547D01*
X146248380Y-91326690D01*
X146248380Y-91231452D01*
X146200761Y-91088595D01*
X146153142Y-91040976D01*
X145819809Y-91040976D01*
X145819809Y-91231452D01*
X146248380Y-90612404D02*
X145248380Y-90612404D01*
X145248380Y-90231452D01*
X145296000Y-90136214D01*
X145343619Y-90088595D01*
X145438857Y-90040976D01*
X145581714Y-90040976D01*
X145676952Y-90088595D01*
X145724571Y-90136214D01*
X145772190Y-90231452D01*
X145772190Y-90612404D01*
X146248380Y-89612404D02*
X145248380Y-89612404D01*
X145248380Y-88945738D02*
X145248380Y-88755261D01*
X145296000Y-88660023D01*
X145391238Y-88564785D01*
X145581714Y-88517166D01*
X145915047Y-88517166D01*
X146105523Y-88564785D01*
X146200761Y-88660023D01*
X146248380Y-88755261D01*
X146248380Y-88945738D01*
X146200761Y-89040976D01*
X146105523Y-89136214D01*
X145915047Y-89183833D01*
X145581714Y-89183833D01*
X145391238Y-89136214D01*
X145296000Y-89040976D01*
X145248380Y-88945738D01*
X146248380Y-86802880D02*
X146248380Y-87374309D01*
X146248380Y-87088595D02*
X145248380Y-87088595D01*
X145391238Y-87183833D01*
X145486476Y-87279071D01*
X145534095Y-87374309D01*
X145248380Y-86469547D02*
X145248380Y-85850500D01*
X145629333Y-86183833D01*
X145629333Y-86040976D01*
X145676952Y-85945738D01*
X145724571Y-85898119D01*
X145819809Y-85850500D01*
X146057904Y-85850500D01*
X146153142Y-85898119D01*
X146200761Y-85945738D01*
X146248380Y-86040976D01*
X146248380Y-86326690D01*
X146200761Y-86421928D01*
X146153142Y-86469547D01*
X152916000Y-91088595D02*
X152868380Y-91183833D01*
X152868380Y-91326690D01*
X152916000Y-91469547D01*
X153011238Y-91564785D01*
X153106476Y-91612404D01*
X153296952Y-91660023D01*
X153439809Y-91660023D01*
X153630285Y-91612404D01*
X153725523Y-91564785D01*
X153820761Y-91469547D01*
X153868380Y-91326690D01*
X153868380Y-91231452D01*
X153820761Y-91088595D01*
X153773142Y-91040976D01*
X153439809Y-91040976D01*
X153439809Y-91231452D01*
X153868380Y-90612404D02*
X152868380Y-90612404D01*
X152868380Y-90231452D01*
X152916000Y-90136214D01*
X152963619Y-90088595D01*
X153058857Y-90040976D01*
X153201714Y-90040976D01*
X153296952Y-90088595D01*
X153344571Y-90136214D01*
X153392190Y-90231452D01*
X153392190Y-90612404D01*
X153868380Y-89612404D02*
X152868380Y-89612404D01*
X152868380Y-88945738D02*
X152868380Y-88755261D01*
X152916000Y-88660023D01*
X153011238Y-88564785D01*
X153201714Y-88517166D01*
X153535047Y-88517166D01*
X153725523Y-88564785D01*
X153820761Y-88660023D01*
X153868380Y-88755261D01*
X153868380Y-88945738D01*
X153820761Y-89040976D01*
X153725523Y-89136214D01*
X153535047Y-89183833D01*
X153201714Y-89183833D01*
X153011238Y-89136214D01*
X152916000Y-89040976D01*
X152868380Y-88945738D01*
X152963619Y-87374309D02*
X152916000Y-87326690D01*
X152868380Y-87231452D01*
X152868380Y-86993357D01*
X152916000Y-86898119D01*
X152963619Y-86850500D01*
X153058857Y-86802880D01*
X153154095Y-86802880D01*
X153296952Y-86850500D01*
X153868380Y-87421928D01*
X153868380Y-86802880D01*
X152868380Y-85945738D02*
X152868380Y-86136214D01*
X152916000Y-86231452D01*
X152963619Y-86279071D01*
X153106476Y-86374309D01*
X153296952Y-86421928D01*
X153677904Y-86421928D01*
X153773142Y-86374309D01*
X153820761Y-86326690D01*
X153868380Y-86231452D01*
X153868380Y-86040976D01*
X153820761Y-85945738D01*
X153773142Y-85898119D01*
X153677904Y-85850500D01*
X153439809Y-85850500D01*
X153344571Y-85898119D01*
X153296952Y-85945738D01*
X153249333Y-86040976D01*
X153249333Y-86231452D01*
X153296952Y-86326690D01*
X153344571Y-86374309D01*
X153439809Y-86421928D01*
X147836000Y-91088595D02*
X147788380Y-91183833D01*
X147788380Y-91326690D01*
X147836000Y-91469547D01*
X147931238Y-91564785D01*
X148026476Y-91612404D01*
X148216952Y-91660023D01*
X148359809Y-91660023D01*
X148550285Y-91612404D01*
X148645523Y-91564785D01*
X148740761Y-91469547D01*
X148788380Y-91326690D01*
X148788380Y-91231452D01*
X148740761Y-91088595D01*
X148693142Y-91040976D01*
X148359809Y-91040976D01*
X148359809Y-91231452D01*
X148788380Y-90612404D02*
X147788380Y-90612404D01*
X147788380Y-90231452D01*
X147836000Y-90136214D01*
X147883619Y-90088595D01*
X147978857Y-90040976D01*
X148121714Y-90040976D01*
X148216952Y-90088595D01*
X148264571Y-90136214D01*
X148312190Y-90231452D01*
X148312190Y-90612404D01*
X148788380Y-89612404D02*
X147788380Y-89612404D01*
X147788380Y-88945738D02*
X147788380Y-88755261D01*
X147836000Y-88660023D01*
X147931238Y-88564785D01*
X148121714Y-88517166D01*
X148455047Y-88517166D01*
X148645523Y-88564785D01*
X148740761Y-88660023D01*
X148788380Y-88755261D01*
X148788380Y-88945738D01*
X148740761Y-89040976D01*
X148645523Y-89136214D01*
X148455047Y-89183833D01*
X148121714Y-89183833D01*
X147931238Y-89136214D01*
X147836000Y-89040976D01*
X147788380Y-88945738D01*
X148788380Y-86802880D02*
X148788380Y-87374309D01*
X148788380Y-87088595D02*
X147788380Y-87088595D01*
X147931238Y-87183833D01*
X148026476Y-87279071D01*
X148074095Y-87374309D01*
X147788380Y-85945738D02*
X147788380Y-86136214D01*
X147836000Y-86231452D01*
X147883619Y-86279071D01*
X148026476Y-86374309D01*
X148216952Y-86421928D01*
X148597904Y-86421928D01*
X148693142Y-86374309D01*
X148740761Y-86326690D01*
X148788380Y-86231452D01*
X148788380Y-86040976D01*
X148740761Y-85945738D01*
X148693142Y-85898119D01*
X148597904Y-85850500D01*
X148359809Y-85850500D01*
X148264571Y-85898119D01*
X148216952Y-85945738D01*
X148169333Y-86040976D01*
X148169333Y-86231452D01*
X148216952Y-86326690D01*
X148264571Y-86374309D01*
X148359809Y-86421928D01*
X155408380Y-91136214D02*
X155408380Y-91612404D01*
X155884571Y-91660023D01*
X155836952Y-91612404D01*
X155789333Y-91517166D01*
X155789333Y-91279071D01*
X155836952Y-91183833D01*
X155884571Y-91136214D01*
X155979809Y-91088595D01*
X156217904Y-91088595D01*
X156313142Y-91136214D01*
X156360761Y-91183833D01*
X156408380Y-91279071D01*
X156408380Y-91517166D01*
X156360761Y-91612404D01*
X156313142Y-91660023D01*
X155408380Y-90802880D02*
X156408380Y-90469547D01*
X155408380Y-90136214D01*
X133548380Y-51924976D02*
X133072190Y-52258309D01*
X133548380Y-52496404D02*
X132548380Y-52496404D01*
X132548380Y-52115452D01*
X132596000Y-52020214D01*
X132643619Y-51972595D01*
X132738857Y-51924976D01*
X132881714Y-51924976D01*
X132976952Y-51972595D01*
X133024571Y-52020214D01*
X133072190Y-52115452D01*
X133072190Y-52496404D01*
X133500761Y-51544023D02*
X133548380Y-51448785D01*
X133548380Y-51258309D01*
X133500761Y-51163071D01*
X133405523Y-51115452D01*
X133357904Y-51115452D01*
X133262666Y-51163071D01*
X133215047Y-51258309D01*
X133215047Y-51401166D01*
X133167428Y-51496404D01*
X133072190Y-51544023D01*
X133024571Y-51544023D01*
X132929333Y-51496404D01*
X132881714Y-51401166D01*
X132881714Y-51258309D01*
X132929333Y-51163071D01*
X132881714Y-50829738D02*
X132881714Y-50448785D01*
X132548380Y-50686880D02*
X133405523Y-50686880D01*
X133500761Y-50639261D01*
X133548380Y-50544023D01*
X133548380Y-50448785D01*
X101560380Y-88217333D02*
X102274666Y-88217333D01*
X102417523Y-88264952D01*
X102512761Y-88360190D01*
X102560380Y-88503047D01*
X102560380Y-88598285D01*
X101893714Y-87312571D02*
X102560380Y-87312571D01*
X101512761Y-87550666D02*
X102227047Y-87788761D01*
X102227047Y-87169714D01*
X127932380Y-64849333D02*
X128646666Y-64849333D01*
X128789523Y-64896952D01*
X128884761Y-64992190D01*
X128932380Y-65135047D01*
X128932380Y-65230285D01*
X127932380Y-63896952D02*
X127932380Y-64373142D01*
X128408571Y-64420761D01*
X128360952Y-64373142D01*
X128313333Y-64277904D01*
X128313333Y-64039809D01*
X128360952Y-63944571D01*
X128408571Y-63896952D01*
X128503809Y-63849333D01*
X128741904Y-63849333D01*
X128837142Y-63896952D01*
X128884761Y-63944571D01*
X128932380Y-64039809D01*
X128932380Y-64277904D01*
X128884761Y-64373142D01*
X128837142Y-64420761D01*
X127932380Y-56721333D02*
X128646666Y-56721333D01*
X128789523Y-56768952D01*
X128884761Y-56864190D01*
X128932380Y-57007047D01*
X128932380Y-57102285D01*
X127932380Y-55816571D02*
X127932380Y-56007047D01*
X127980000Y-56102285D01*
X128027619Y-56149904D01*
X128170476Y-56245142D01*
X128360952Y-56292761D01*
X128741904Y-56292761D01*
X128837142Y-56245142D01*
X128884761Y-56197523D01*
X128932380Y-56102285D01*
X128932380Y-55911809D01*
X128884761Y-55816571D01*
X128837142Y-55768952D01*
X128741904Y-55721333D01*
X128503809Y-55721333D01*
X128408571Y-55768952D01*
X128360952Y-55816571D01*
X128313333Y-55911809D01*
X128313333Y-56102285D01*
X128360952Y-56197523D01*
X128408571Y-56245142D01*
X128503809Y-56292761D01*
X111426666Y-93432380D02*
X111426666Y-94146666D01*
X111379047Y-94289523D01*
X111283809Y-94384761D01*
X111140952Y-94432380D01*
X111045714Y-94432380D01*
X111855238Y-93527619D02*
X111902857Y-93480000D01*
X111998095Y-93432380D01*
X112236190Y-93432380D01*
X112331428Y-93480000D01*
X112379047Y-93527619D01*
X112426666Y-93622857D01*
X112426666Y-93718095D01*
X112379047Y-93860952D01*
X111807619Y-94432380D01*
X112426666Y-94432380D01*
X135302666Y-93432380D02*
X135302666Y-94146666D01*
X135255047Y-94289523D01*
X135159809Y-94384761D01*
X135016952Y-94432380D01*
X134921714Y-94432380D01*
X135683619Y-93432380D02*
X136302666Y-93432380D01*
X135969333Y-93813333D01*
X136112190Y-93813333D01*
X136207428Y-93860952D01*
X136255047Y-93908571D01*
X136302666Y-94003809D01*
X136302666Y-94241904D01*
X136255047Y-94337142D01*
X136207428Y-94384761D01*
X136112190Y-94432380D01*
X135826476Y-94432380D01*
X135731238Y-94384761D01*
X135683619Y-94337142D01*
D13*
X107300000Y-65496000D02*
X107300000Y-86397000D01*
X100980000Y-65496000D02*
X100980000Y-86397000D01*
X107300000Y-65496000D02*
X100980000Y-65496000D01*
X101480000Y-65256000D02*
X100740000Y-65256000D01*
X101540000Y-65496000D02*
X101540000Y-86397000D01*
X100740000Y-65256000D02*
X100740000Y-65756000D01*
X107300000Y-86397000D02*
X100980000Y-86397000D01*
X106840000Y-65496000D02*
X106840000Y-86397000D01*
X139190000Y-63186000D02*
X139760000Y-63186000D01*
X136650000Y-65846000D02*
X139760000Y-65846000D01*
X129480000Y-65846000D02*
X129480000Y-63186000D01*
X130050000Y-65846000D02*
X130050000Y-67366000D01*
X139760000Y-65846000D02*
X139760000Y-63186000D01*
X131570000Y-65846000D02*
X135130000Y-65846000D01*
X129480000Y-63186000D02*
X132590000Y-63186000D01*
X134110000Y-63186000D02*
X137670000Y-63186000D01*
X129480000Y-65846000D02*
X130050000Y-65846000D01*
X139190000Y-55058000D02*
X142750000Y-55058000D01*
X134110000Y-55058000D02*
X137670000Y-55058000D01*
X131570000Y-57718000D02*
X135130000Y-57718000D01*
X149350000Y-55058000D02*
X149920000Y-55058000D01*
X144270000Y-55058000D02*
X147830000Y-55058000D01*
X141730000Y-57718000D02*
X145290000Y-57718000D01*
X129480000Y-57718000D02*
X129480000Y-55058000D01*
X129480000Y-55058000D02*
X132590000Y-55058000D01*
X146810000Y-57718000D02*
X149920000Y-57718000D01*
X129480000Y-57718000D02*
X130050000Y-57718000D01*
X136650000Y-57718000D02*
X140210000Y-57718000D01*
X130050000Y-57718000D02*
X130050000Y-59238000D01*
X149920000Y-57718000D02*
X149920000Y-55058000D01*
X113008000Y-98672000D02*
X113008000Y-99412000D01*
X113248000Y-98612000D02*
X134149000Y-98612000D01*
X113248000Y-92852000D02*
X113248000Y-99172000D01*
X113248000Y-93312000D02*
X134149000Y-93312000D01*
X134149000Y-92852000D02*
X134149000Y-99172000D01*
X113248000Y-99172000D02*
X134149000Y-99172000D01*
X113248000Y-92852000D02*
X134149000Y-92852000D01*
X113008000Y-99412000D02*
X113508000Y-99412000D01*
X136376000Y-99412000D02*
X136876000Y-99412000D01*
X136616000Y-99172000D02*
X157517000Y-99172000D01*
X136376000Y-98672000D02*
X136376000Y-99412000D01*
X136616000Y-92852000D02*
X136616000Y-99172000D01*
X136616000Y-92852000D02*
X157517000Y-92852000D01*
X157517000Y-92852000D02*
X157517000Y-99172000D01*
X136616000Y-93312000D02*
X157517000Y-93312000D01*
X136616000Y-98612000D02*
X157517000Y-98612000D01*
%LPC*%
D14*
X161500000Y-47500000D03*
X103500000Y-96500000D03*
X103500000Y-47500000D03*
D15*
X104140000Y-67056000D03*
D16*
X104140000Y-69596000D03*
X104140000Y-72136000D03*
X104140000Y-74676000D03*
X104140000Y-77216000D03*
X104140000Y-79756000D03*
X104140000Y-82296000D03*
X104140000Y-84836000D03*
D17*
X130810000Y-66171000D03*
X133350000Y-62861000D03*
X135890000Y-66171000D03*
X138430000Y-62861000D03*
X130810000Y-58043000D03*
X133350000Y-54733000D03*
X135890000Y-58043000D03*
X138430000Y-54733000D03*
X140970000Y-58043000D03*
X143510000Y-54733000D03*
X146050000Y-58043000D03*
X148590000Y-54733000D03*
D14*
X161500000Y-96500000D03*
D15*
X114808000Y-96012000D03*
D16*
X117348000Y-96012000D03*
X119888000Y-96012000D03*
X122428000Y-96012000D03*
X124968000Y-96012000D03*
X127508000Y-96012000D03*
X130048000Y-96012000D03*
X132588000Y-96012000D03*
D15*
X138176000Y-96012000D03*
D16*
X140716000Y-96012000D03*
X143256000Y-96012000D03*
X145796000Y-96012000D03*
X148336000Y-96012000D03*
X150876000Y-96012000D03*
X153416000Y-96012000D03*
X155956000Y-96012000D03*
D18*
X108370000Y-48770000D03*
D19*
X108370000Y-46230000D03*
X110910000Y-48770000D03*
X110910000Y-46230000D03*
X113450000Y-48770000D03*
X113450000Y-46230000D03*
X115990000Y-48770000D03*
X115990000Y-46230000D03*
X118530000Y-48770000D03*
X118530000Y-46230000D03*
X121070000Y-48770000D03*
X121070000Y-46230000D03*
X123610000Y-48770000D03*
X123610000Y-46230000D03*
X126150000Y-48770000D03*
X126150000Y-46230000D03*
X128690000Y-48770000D03*
X128690000Y-46230000D03*
X131230000Y-48770000D03*
X131230000Y-46230000D03*
X133770000Y-48770000D03*
X133770000Y-46230000D03*
X136310000Y-48770000D03*
X136310000Y-46230000D03*
X138850000Y-48770000D03*
X138850000Y-46230000D03*
X141390000Y-48770000D03*
X141390000Y-46230000D03*
X143930000Y-48770000D03*
X143930000Y-46230000D03*
X146470000Y-48770000D03*
X146470000Y-46230000D03*
X149010000Y-48770000D03*
X149010000Y-46230000D03*
X151550000Y-48770000D03*
X151550000Y-46230000D03*
X154090000Y-48770000D03*
X154090000Y-46230000D03*
X156630000Y-48770000D03*
X156630000Y-46230000D03*
D20*
X106740000Y-54514000D03*
X106740000Y-60294000D03*
D21*
X107270000Y-61724000D03*
D22*
X103090000Y-61724000D03*
D21*
X107270000Y-53084000D03*
D22*
X103090000Y-53084000D03*
M02*
