G04 #@! TF.GenerationSoftware,KiCad,Pcbnew,(6.0.6)*
G04 #@! TF.CreationDate,2022-10-01T16:28:01+02:00*
G04 #@! TF.ProjectId,Phoniebox,50686f6e-6965-4626-9f78-2e6b69636164,rev?*
G04 #@! TF.SameCoordinates,Original*
G04 #@! TF.FileFunction,Legend,Top*
G04 #@! TF.FilePolarity,Positive*
%FSLAX46Y46*%
G04 Gerber Fmt 4.6, Leading zero omitted, Abs format (unit mm)*
G04 Created by KiCad (PCBNEW (6.0.6)) date 2022-10-01 16:28:01*
%MOMM*%
%LPD*%
G01*
G04 APERTURE LIST*
%ADD10C,0.200000*%
%ADD11C,0.300000*%
%ADD12C,0.150000*%
%ADD13C,0.120000*%
%ADD14C,2.700000*%
%ADD15R,2.200000X2.200000*%
%ADD16C,2.200000*%
%ADD17R,1.000000X2.510000*%
%ADD18R,1.700000X1.700000*%
%ADD19O,1.700000X1.700000*%
%ADD20C,0.650000*%
%ADD21O,2.100000X1.000000*%
%ADD22O,1.600000X1.000000*%
G04 APERTURE END LIST*
D10*
X163012380Y-92732952D02*
X162012380Y-92732952D01*
X162012380Y-92352000D01*
X162060000Y-92256761D01*
X162107619Y-92209142D01*
X162202857Y-92161523D01*
X162345714Y-92161523D01*
X162440952Y-92209142D01*
X162488571Y-92256761D01*
X162536190Y-92352000D01*
X162536190Y-92732952D01*
X163012380Y-91732952D02*
X162012380Y-91732952D01*
X163012380Y-91304380D02*
X162488571Y-91304380D01*
X162393333Y-91352000D01*
X162345714Y-91447238D01*
X162345714Y-91590095D01*
X162393333Y-91685333D01*
X162440952Y-91732952D01*
X163012380Y-90685333D02*
X162964761Y-90780571D01*
X162917142Y-90828190D01*
X162821904Y-90875809D01*
X162536190Y-90875809D01*
X162440952Y-90828190D01*
X162393333Y-90780571D01*
X162345714Y-90685333D01*
X162345714Y-90542476D01*
X162393333Y-90447238D01*
X162440952Y-90399619D01*
X162536190Y-90352000D01*
X162821904Y-90352000D01*
X162917142Y-90399619D01*
X162964761Y-90447238D01*
X163012380Y-90542476D01*
X163012380Y-90685333D01*
X162345714Y-89923428D02*
X163012380Y-89923428D01*
X162440952Y-89923428D02*
X162393333Y-89875809D01*
X162345714Y-89780571D01*
X162345714Y-89637714D01*
X162393333Y-89542476D01*
X162488571Y-89494857D01*
X163012380Y-89494857D01*
X163012380Y-89018666D02*
X162345714Y-89018666D01*
X162012380Y-89018666D02*
X162060000Y-89066285D01*
X162107619Y-89018666D01*
X162060000Y-88971047D01*
X162012380Y-89018666D01*
X162107619Y-89018666D01*
X162964761Y-88161523D02*
X163012380Y-88256761D01*
X163012380Y-88447238D01*
X162964761Y-88542476D01*
X162869523Y-88590095D01*
X162488571Y-88590095D01*
X162393333Y-88542476D01*
X162345714Y-88447238D01*
X162345714Y-88256761D01*
X162393333Y-88161523D01*
X162488571Y-88113904D01*
X162583809Y-88113904D01*
X162679047Y-88590095D01*
X163012380Y-87685333D02*
X162012380Y-87685333D01*
X162393333Y-87685333D02*
X162345714Y-87590095D01*
X162345714Y-87399619D01*
X162393333Y-87304380D01*
X162440952Y-87256761D01*
X162536190Y-87209142D01*
X162821904Y-87209142D01*
X162917142Y-87256761D01*
X162964761Y-87304380D01*
X163012380Y-87399619D01*
X163012380Y-87590095D01*
X162964761Y-87685333D01*
X163012380Y-86637714D02*
X162964761Y-86732952D01*
X162917142Y-86780571D01*
X162821904Y-86828190D01*
X162536190Y-86828190D01*
X162440952Y-86780571D01*
X162393333Y-86732952D01*
X162345714Y-86637714D01*
X162345714Y-86494857D01*
X162393333Y-86399619D01*
X162440952Y-86352000D01*
X162536190Y-86304380D01*
X162821904Y-86304380D01*
X162917142Y-86352000D01*
X162964761Y-86399619D01*
X163012380Y-86494857D01*
X163012380Y-86637714D01*
X163012380Y-85971047D02*
X162345714Y-85447238D01*
X162345714Y-85971047D02*
X163012380Y-85447238D01*
X163012380Y-84304380D02*
X162012380Y-84304380D01*
X162488571Y-84304380D02*
X162488571Y-83732952D01*
X163012380Y-83732952D02*
X162012380Y-83732952D01*
X162726666Y-83304380D02*
X162726666Y-82828190D01*
X163012380Y-83399619D02*
X162012380Y-83066285D01*
X163012380Y-82732952D01*
X162012380Y-82542476D02*
X162012380Y-81971047D01*
X163012380Y-82256761D02*
X162012380Y-82256761D01*
X163012380Y-80352000D02*
X163012380Y-80923428D01*
X163012380Y-80637714D02*
X162012380Y-80637714D01*
X162155238Y-80732952D01*
X162250476Y-80828190D01*
X162298095Y-80923428D01*
X162917142Y-79923428D02*
X162964761Y-79875809D01*
X163012380Y-79923428D01*
X162964761Y-79971047D01*
X162917142Y-79923428D01*
X163012380Y-79923428D01*
X162012380Y-79256761D02*
X162012380Y-79161523D01*
X162060000Y-79066285D01*
X162107619Y-79018666D01*
X162202857Y-78971047D01*
X162393333Y-78923428D01*
X162631428Y-78923428D01*
X162821904Y-78971047D01*
X162917142Y-79018666D01*
X162964761Y-79066285D01*
X163012380Y-79161523D01*
X163012380Y-79256761D01*
X162964761Y-79352000D01*
X162917142Y-79399619D01*
X162821904Y-79447238D01*
X162631428Y-79494857D01*
X162393333Y-79494857D01*
X162202857Y-79447238D01*
X162107619Y-79399619D01*
X162060000Y-79352000D01*
X162012380Y-79256761D01*
D11*
X109827142Y-80342857D02*
X109898571Y-80128571D01*
X109898571Y-79771428D01*
X109827142Y-79628571D01*
X109755714Y-79557142D01*
X109612857Y-79485714D01*
X109470000Y-79485714D01*
X109327142Y-79557142D01*
X109255714Y-79628571D01*
X109184285Y-79771428D01*
X109112857Y-80057142D01*
X109041428Y-80200000D01*
X108970000Y-80271428D01*
X108827142Y-80342857D01*
X108684285Y-80342857D01*
X108541428Y-80271428D01*
X108470000Y-80200000D01*
X108398571Y-80057142D01*
X108398571Y-79700000D01*
X108470000Y-79485714D01*
X108898571Y-78842857D02*
X110398571Y-78842857D01*
X108970000Y-78842857D02*
X108898571Y-78700000D01*
X108898571Y-78414285D01*
X108970000Y-78271428D01*
X109041428Y-78200000D01*
X109184285Y-78128571D01*
X109612857Y-78128571D01*
X109755714Y-78200000D01*
X109827142Y-78271428D01*
X109898571Y-78414285D01*
X109898571Y-78700000D01*
X109827142Y-78842857D01*
X109827142Y-76914285D02*
X109898571Y-77057142D01*
X109898571Y-77342857D01*
X109827142Y-77485714D01*
X109684285Y-77557142D01*
X109112857Y-77557142D01*
X108970000Y-77485714D01*
X108898571Y-77342857D01*
X108898571Y-77057142D01*
X108970000Y-76914285D01*
X109112857Y-76842857D01*
X109255714Y-76842857D01*
X109398571Y-77557142D01*
X109898571Y-75557142D02*
X109112857Y-75557142D01*
X108970000Y-75628571D01*
X108898571Y-75771428D01*
X108898571Y-76057142D01*
X108970000Y-76200000D01*
X109827142Y-75557142D02*
X109898571Y-75700000D01*
X109898571Y-76057142D01*
X109827142Y-76200000D01*
X109684285Y-76271428D01*
X109541428Y-76271428D01*
X109398571Y-76200000D01*
X109327142Y-76057142D01*
X109327142Y-75700000D01*
X109255714Y-75557142D01*
X109898571Y-74842857D02*
X108398571Y-74842857D01*
X109327142Y-74700000D02*
X109898571Y-74271428D01*
X108898571Y-74271428D02*
X109470000Y-74842857D01*
X109827142Y-73057142D02*
X109898571Y-73200000D01*
X109898571Y-73485714D01*
X109827142Y-73628571D01*
X109684285Y-73700000D01*
X109112857Y-73700000D01*
X108970000Y-73628571D01*
X108898571Y-73485714D01*
X108898571Y-73200000D01*
X108970000Y-73057142D01*
X109112857Y-72985714D01*
X109255714Y-72985714D01*
X109398571Y-73700000D01*
X109898571Y-72342857D02*
X108898571Y-72342857D01*
X109184285Y-72342857D02*
X109041428Y-72271428D01*
X108970000Y-72200000D01*
X108898571Y-72057142D01*
X108898571Y-71914285D01*
X142807714Y-65194571D02*
X142807714Y-63694571D01*
X143450571Y-63837428D02*
X143522000Y-63766000D01*
X143664857Y-63694571D01*
X144022000Y-63694571D01*
X144164857Y-63766000D01*
X144236285Y-63837428D01*
X144307714Y-63980285D01*
X144307714Y-64123142D01*
X144236285Y-64337428D01*
X143379142Y-65194571D01*
X144307714Y-65194571D01*
X145807714Y-65051714D02*
X145736285Y-65123142D01*
X145522000Y-65194571D01*
X145379142Y-65194571D01*
X145164857Y-65123142D01*
X145022000Y-64980285D01*
X144950571Y-64837428D01*
X144879142Y-64551714D01*
X144879142Y-64337428D01*
X144950571Y-64051714D01*
X145022000Y-63908857D01*
X145164857Y-63766000D01*
X145379142Y-63694571D01*
X145522000Y-63694571D01*
X145736285Y-63766000D01*
X145807714Y-63837428D01*
X102235428Y-57964820D02*
X102449714Y-58036249D01*
X102806857Y-58036249D01*
X102949714Y-57964820D01*
X103021142Y-57893392D01*
X103092571Y-57750535D01*
X103092571Y-57607678D01*
X103021142Y-57464820D01*
X102949714Y-57393392D01*
X102806857Y-57321963D01*
X102521142Y-57250535D01*
X102378285Y-57179106D01*
X102306857Y-57107678D01*
X102235428Y-56964820D01*
X102235428Y-56821963D01*
X102306857Y-56679106D01*
X102378285Y-56607678D01*
X102521142Y-56536249D01*
X102878285Y-56536249D01*
X103092571Y-56607678D01*
X104378285Y-57036249D02*
X104378285Y-58036249D01*
X103735428Y-57036249D02*
X103735428Y-57821963D01*
X103806857Y-57964820D01*
X103949714Y-58036249D01*
X104164000Y-58036249D01*
X104306857Y-57964820D01*
X104378285Y-57893392D01*
X105092571Y-57036249D02*
X105092571Y-58536249D01*
X105092571Y-57107678D02*
X105235428Y-57036249D01*
X105521142Y-57036249D01*
X105664000Y-57107678D01*
X105735428Y-57179106D01*
X105806857Y-57321963D01*
X105806857Y-57750535D01*
X105735428Y-57893392D01*
X105664000Y-57964820D01*
X105521142Y-58036249D01*
X105235428Y-58036249D01*
X105092571Y-57964820D01*
X106449714Y-57036249D02*
X106449714Y-58536249D01*
X106449714Y-57107678D02*
X106592571Y-57036249D01*
X106878285Y-57036249D01*
X107021142Y-57107678D01*
X107092571Y-57179106D01*
X107164000Y-57321963D01*
X107164000Y-57750535D01*
X107092571Y-57893392D01*
X107021142Y-57964820D01*
X106878285Y-58036249D01*
X106592571Y-58036249D01*
X106449714Y-57964820D01*
X108021142Y-58036249D02*
X107878285Y-57964820D01*
X107806857Y-57821963D01*
X107806857Y-56536249D01*
X108449714Y-57036249D02*
X108806857Y-58036249D01*
X109164000Y-57036249D02*
X108806857Y-58036249D01*
X108664000Y-58393392D01*
X108592571Y-58464820D01*
X108449714Y-58536249D01*
X153019428Y-57066571D02*
X152519428Y-56352285D01*
X152162285Y-57066571D02*
X152162285Y-55566571D01*
X152733714Y-55566571D01*
X152876571Y-55638000D01*
X152948000Y-55709428D01*
X153019428Y-55852285D01*
X153019428Y-56066571D01*
X152948000Y-56209428D01*
X152876571Y-56280857D01*
X152733714Y-56352285D01*
X152162285Y-56352285D01*
X154519428Y-56923714D02*
X154448000Y-56995142D01*
X154233714Y-57066571D01*
X154090857Y-57066571D01*
X153876571Y-56995142D01*
X153733714Y-56852285D01*
X153662285Y-56709428D01*
X153590857Y-56423714D01*
X153590857Y-56209428D01*
X153662285Y-55923714D01*
X153733714Y-55780857D01*
X153876571Y-55638000D01*
X154090857Y-55566571D01*
X154233714Y-55566571D01*
X154448000Y-55638000D01*
X154519428Y-55709428D01*
X155876571Y-55566571D02*
X155162285Y-55566571D01*
X155090857Y-56280857D01*
X155162285Y-56209428D01*
X155305142Y-56138000D01*
X155662285Y-56138000D01*
X155805142Y-56209428D01*
X155876571Y-56280857D01*
X155948000Y-56423714D01*
X155948000Y-56780857D01*
X155876571Y-56923714D01*
X155805142Y-56995142D01*
X155662285Y-57066571D01*
X155305142Y-57066571D01*
X155162285Y-56995142D01*
X155090857Y-56923714D01*
X156519428Y-55709428D02*
X156590857Y-55638000D01*
X156733714Y-55566571D01*
X157090857Y-55566571D01*
X157233714Y-55638000D01*
X157305142Y-55709428D01*
X157376571Y-55852285D01*
X157376571Y-55995142D01*
X157305142Y-56209428D01*
X156448000Y-57066571D01*
X157376571Y-57066571D01*
X157948000Y-55709428D02*
X158019428Y-55638000D01*
X158162285Y-55566571D01*
X158519428Y-55566571D01*
X158662285Y-55638000D01*
X158733714Y-55709428D01*
X158805142Y-55852285D01*
X158805142Y-55995142D01*
X158733714Y-56209428D01*
X157876571Y-57066571D01*
X158805142Y-57066571D01*
X121575142Y-90824857D02*
X121789428Y-90896285D01*
X121860857Y-90967714D01*
X121932285Y-91110571D01*
X121932285Y-91324857D01*
X121860857Y-91467714D01*
X121789428Y-91539142D01*
X121646571Y-91610571D01*
X121075142Y-91610571D01*
X121075142Y-90110571D01*
X121575142Y-90110571D01*
X121718000Y-90182000D01*
X121789428Y-90253428D01*
X121860857Y-90396285D01*
X121860857Y-90539142D01*
X121789428Y-90682000D01*
X121718000Y-90753428D01*
X121575142Y-90824857D01*
X121075142Y-90824857D01*
X123218000Y-90610571D02*
X123218000Y-91610571D01*
X122575142Y-90610571D02*
X122575142Y-91396285D01*
X122646571Y-91539142D01*
X122789428Y-91610571D01*
X123003714Y-91610571D01*
X123146571Y-91539142D01*
X123218000Y-91467714D01*
X123718000Y-90610571D02*
X124289428Y-90610571D01*
X123932285Y-90110571D02*
X123932285Y-91396285D01*
X124003714Y-91539142D01*
X124146571Y-91610571D01*
X124289428Y-91610571D01*
X124575142Y-90610571D02*
X125146571Y-90610571D01*
X124789428Y-90110571D02*
X124789428Y-91396285D01*
X124860857Y-91539142D01*
X125003714Y-91610571D01*
X125146571Y-91610571D01*
X125860857Y-91610571D02*
X125718000Y-91539142D01*
X125646571Y-91467714D01*
X125575142Y-91324857D01*
X125575142Y-90896285D01*
X125646571Y-90753428D01*
X125718000Y-90682000D01*
X125860857Y-90610571D01*
X126075142Y-90610571D01*
X126218000Y-90682000D01*
X126289428Y-90753428D01*
X126360857Y-90896285D01*
X126360857Y-91324857D01*
X126289428Y-91467714D01*
X126218000Y-91539142D01*
X126075142Y-91610571D01*
X125860857Y-91610571D01*
X127003714Y-90610571D02*
X127003714Y-91610571D01*
X127003714Y-90753428D02*
X127075142Y-90682000D01*
X127218000Y-90610571D01*
X127432285Y-90610571D01*
X127575142Y-90682000D01*
X127646571Y-90824857D01*
X127646571Y-91610571D01*
X128289428Y-91539142D02*
X128432285Y-91610571D01*
X128718000Y-91610571D01*
X128860857Y-91539142D01*
X128932285Y-91396285D01*
X128932285Y-91324857D01*
X128860857Y-91182000D01*
X128718000Y-91110571D01*
X128503714Y-91110571D01*
X128360857Y-91039142D01*
X128289428Y-90896285D01*
X128289428Y-90824857D01*
X128360857Y-90682000D01*
X128503714Y-90610571D01*
X128718000Y-90610571D01*
X128860857Y-90682000D01*
X140661142Y-90110571D02*
X140946857Y-90110571D01*
X141089714Y-90182000D01*
X141232571Y-90324857D01*
X141304000Y-90610571D01*
X141304000Y-91110571D01*
X141232571Y-91396285D01*
X141089714Y-91539142D01*
X140946857Y-91610571D01*
X140661142Y-91610571D01*
X140518285Y-91539142D01*
X140375428Y-91396285D01*
X140304000Y-91110571D01*
X140304000Y-90610571D01*
X140375428Y-90324857D01*
X140518285Y-90182000D01*
X140661142Y-90110571D01*
X141946857Y-90610571D02*
X141946857Y-92110571D01*
X141946857Y-90682000D02*
X142089714Y-90610571D01*
X142375428Y-90610571D01*
X142518285Y-90682000D01*
X142589714Y-90753428D01*
X142661142Y-90896285D01*
X142661142Y-91324857D01*
X142589714Y-91467714D01*
X142518285Y-91539142D01*
X142375428Y-91610571D01*
X142089714Y-91610571D01*
X141946857Y-91539142D01*
X143875428Y-91539142D02*
X143732571Y-91610571D01*
X143446857Y-91610571D01*
X143304000Y-91539142D01*
X143232571Y-91396285D01*
X143232571Y-90824857D01*
X143304000Y-90682000D01*
X143446857Y-90610571D01*
X143732571Y-90610571D01*
X143875428Y-90682000D01*
X143946857Y-90824857D01*
X143946857Y-90967714D01*
X143232571Y-91110571D01*
X144589714Y-90610571D02*
X144589714Y-91610571D01*
X144589714Y-90753428D02*
X144661142Y-90682000D01*
X144804000Y-90610571D01*
X145018285Y-90610571D01*
X145161142Y-90682000D01*
X145232571Y-90824857D01*
X145232571Y-91610571D01*
X147089714Y-91610571D02*
X147089714Y-90110571D01*
X147446857Y-90110571D01*
X147661142Y-90182000D01*
X147804000Y-90324857D01*
X147875428Y-90467714D01*
X147946857Y-90753428D01*
X147946857Y-90967714D01*
X147875428Y-91253428D01*
X147804000Y-91396285D01*
X147661142Y-91539142D01*
X147446857Y-91610571D01*
X147089714Y-91610571D01*
X148589714Y-91610571D02*
X148589714Y-90610571D01*
X148589714Y-90896285D02*
X148661142Y-90753428D01*
X148732571Y-90682000D01*
X148875428Y-90610571D01*
X149018285Y-90610571D01*
X150161142Y-91610571D02*
X150161142Y-90824857D01*
X150089714Y-90682000D01*
X149946857Y-90610571D01*
X149661142Y-90610571D01*
X149518285Y-90682000D01*
X150161142Y-91539142D02*
X150018285Y-91610571D01*
X149661142Y-91610571D01*
X149518285Y-91539142D01*
X149446857Y-91396285D01*
X149446857Y-91253428D01*
X149518285Y-91110571D01*
X149661142Y-91039142D01*
X150018285Y-91039142D01*
X150161142Y-90967714D01*
X150875428Y-91610571D02*
X150875428Y-90610571D01*
X150875428Y-90110571D02*
X150804000Y-90182000D01*
X150875428Y-90253428D01*
X150946857Y-90182000D01*
X150875428Y-90110571D01*
X150875428Y-90253428D01*
X151589714Y-90610571D02*
X151589714Y-91610571D01*
X151589714Y-90753428D02*
X151661142Y-90682000D01*
X151804000Y-90610571D01*
X152018285Y-90610571D01*
X152161142Y-90682000D01*
X152232571Y-90824857D01*
X152232571Y-91610571D01*
D12*
X108164380Y-85677333D02*
X108878666Y-85677333D01*
X109021523Y-85724952D01*
X109116761Y-85820190D01*
X109164380Y-85963047D01*
X109164380Y-86058285D01*
X108497714Y-84772571D02*
X109164380Y-84772571D01*
X108116761Y-85010666D02*
X108831047Y-85248761D01*
X108831047Y-84629714D01*
X127932380Y-64849333D02*
X128646666Y-64849333D01*
X128789523Y-64896952D01*
X128884761Y-64992190D01*
X128932380Y-65135047D01*
X128932380Y-65230285D01*
X127932380Y-63896952D02*
X127932380Y-64373142D01*
X128408571Y-64420761D01*
X128360952Y-64373142D01*
X128313333Y-64277904D01*
X128313333Y-64039809D01*
X128360952Y-63944571D01*
X128408571Y-63896952D01*
X128503809Y-63849333D01*
X128741904Y-63849333D01*
X128837142Y-63896952D01*
X128884761Y-63944571D01*
X128932380Y-64039809D01*
X128932380Y-64277904D01*
X128884761Y-64373142D01*
X128837142Y-64420761D01*
X127932380Y-56721333D02*
X128646666Y-56721333D01*
X128789523Y-56768952D01*
X128884761Y-56864190D01*
X128932380Y-57007047D01*
X128932380Y-57102285D01*
X127932380Y-55816571D02*
X127932380Y-56007047D01*
X127980000Y-56102285D01*
X128027619Y-56149904D01*
X128170476Y-56245142D01*
X128360952Y-56292761D01*
X128741904Y-56292761D01*
X128837142Y-56245142D01*
X128884761Y-56197523D01*
X128932380Y-56102285D01*
X128932380Y-55911809D01*
X128884761Y-55816571D01*
X128837142Y-55768952D01*
X128741904Y-55721333D01*
X128503809Y-55721333D01*
X128408571Y-55768952D01*
X128360952Y-55816571D01*
X128313333Y-55911809D01*
X128313333Y-56102285D01*
X128360952Y-56197523D01*
X128408571Y-56245142D01*
X128503809Y-56292761D01*
X113839666Y-91019380D02*
X113839666Y-91733666D01*
X113792047Y-91876523D01*
X113696809Y-91971761D01*
X113553952Y-92019380D01*
X113458714Y-92019380D01*
X114268238Y-91114619D02*
X114315857Y-91067000D01*
X114411095Y-91019380D01*
X114649190Y-91019380D01*
X114744428Y-91067000D01*
X114792047Y-91114619D01*
X114839666Y-91209857D01*
X114839666Y-91305095D01*
X114792047Y-91447952D01*
X114220619Y-92019380D01*
X114839666Y-92019380D01*
X136572666Y-91019380D02*
X136572666Y-91733666D01*
X136525047Y-91876523D01*
X136429809Y-91971761D01*
X136286952Y-92019380D01*
X136191714Y-92019380D01*
X136953619Y-91019380D02*
X137572666Y-91019380D01*
X137239333Y-91400333D01*
X137382190Y-91400333D01*
X137477428Y-91447952D01*
X137525047Y-91495571D01*
X137572666Y-91590809D01*
X137572666Y-91828904D01*
X137525047Y-91924142D01*
X137477428Y-91971761D01*
X137382190Y-92019380D01*
X137096476Y-92019380D01*
X137001238Y-91971761D01*
X136953619Y-91924142D01*
D13*
X107300000Y-65496000D02*
X107300000Y-86397000D01*
X100980000Y-65496000D02*
X100980000Y-86397000D01*
X107300000Y-65496000D02*
X100980000Y-65496000D01*
X101480000Y-65256000D02*
X100740000Y-65256000D01*
X101540000Y-65496000D02*
X101540000Y-86397000D01*
X100740000Y-65256000D02*
X100740000Y-65756000D01*
X107300000Y-86397000D02*
X100980000Y-86397000D01*
X106840000Y-65496000D02*
X106840000Y-86397000D01*
X139190000Y-63186000D02*
X139760000Y-63186000D01*
X136650000Y-65846000D02*
X139760000Y-65846000D01*
X129480000Y-65846000D02*
X129480000Y-63186000D01*
X130050000Y-65846000D02*
X130050000Y-67366000D01*
X139760000Y-65846000D02*
X139760000Y-63186000D01*
X131570000Y-65846000D02*
X135130000Y-65846000D01*
X129480000Y-63186000D02*
X132590000Y-63186000D01*
X134110000Y-63186000D02*
X137670000Y-63186000D01*
X129480000Y-65846000D02*
X130050000Y-65846000D01*
X139190000Y-55058000D02*
X142750000Y-55058000D01*
X134110000Y-55058000D02*
X137670000Y-55058000D01*
X131570000Y-57718000D02*
X135130000Y-57718000D01*
X149350000Y-55058000D02*
X149920000Y-55058000D01*
X144270000Y-55058000D02*
X147830000Y-55058000D01*
X141730000Y-57718000D02*
X145290000Y-57718000D01*
X129480000Y-57718000D02*
X129480000Y-55058000D01*
X129480000Y-55058000D02*
X132590000Y-55058000D01*
X146810000Y-57718000D02*
X149920000Y-57718000D01*
X129480000Y-57718000D02*
X130050000Y-57718000D01*
X136650000Y-57718000D02*
X140210000Y-57718000D01*
X130050000Y-57718000D02*
X130050000Y-59238000D01*
X149920000Y-57718000D02*
X149920000Y-55058000D01*
X113008000Y-98672000D02*
X113008000Y-99412000D01*
X113248000Y-98612000D02*
X134149000Y-98612000D01*
X113248000Y-92852000D02*
X113248000Y-99172000D01*
X113248000Y-93312000D02*
X134149000Y-93312000D01*
X134149000Y-92852000D02*
X134149000Y-99172000D01*
X113248000Y-99172000D02*
X134149000Y-99172000D01*
X113248000Y-92852000D02*
X134149000Y-92852000D01*
X113008000Y-99412000D02*
X113508000Y-99412000D01*
X136616000Y-98612000D02*
X157517000Y-98612000D01*
X136616000Y-93312000D02*
X157517000Y-93312000D01*
X157517000Y-92852000D02*
X157517000Y-99172000D01*
X136616000Y-92852000D02*
X157517000Y-92852000D01*
X136616000Y-92852000D02*
X136616000Y-99172000D01*
X136376000Y-98672000D02*
X136376000Y-99412000D01*
X136616000Y-99172000D02*
X157517000Y-99172000D01*
X136376000Y-99412000D02*
X136876000Y-99412000D01*
%LPC*%
D14*
X161500000Y-47500000D03*
X103500000Y-96500000D03*
X103500000Y-47500000D03*
D15*
X104140000Y-67056000D03*
D16*
X104140000Y-69596000D03*
X104140000Y-72136000D03*
X104140000Y-74676000D03*
X104140000Y-77216000D03*
X104140000Y-79756000D03*
X104140000Y-82296000D03*
X104140000Y-84836000D03*
D17*
X130810000Y-66171000D03*
X133350000Y-62861000D03*
X135890000Y-66171000D03*
X138430000Y-62861000D03*
X130810000Y-58043000D03*
X133350000Y-54733000D03*
X135890000Y-58043000D03*
X138430000Y-54733000D03*
X140970000Y-58043000D03*
X143510000Y-54733000D03*
X146050000Y-58043000D03*
X148590000Y-54733000D03*
D14*
X161500000Y-96500000D03*
D15*
X114808000Y-96012000D03*
D16*
X117348000Y-96012000D03*
X119888000Y-96012000D03*
X122428000Y-96012000D03*
X124968000Y-96012000D03*
X127508000Y-96012000D03*
X130048000Y-96012000D03*
X132588000Y-96012000D03*
X155956000Y-96012000D03*
X153416000Y-96012000D03*
X150876000Y-96012000D03*
X148336000Y-96012000D03*
X145796000Y-96012000D03*
X143256000Y-96012000D03*
X140716000Y-96012000D03*
D15*
X138176000Y-96012000D03*
D18*
X108370000Y-48770000D03*
D19*
X108370000Y-46230000D03*
X110910000Y-48770000D03*
X110910000Y-46230000D03*
X113450000Y-48770000D03*
X113450000Y-46230000D03*
X115990000Y-48770000D03*
X115990000Y-46230000D03*
X118530000Y-48770000D03*
X118530000Y-46230000D03*
X121070000Y-48770000D03*
X121070000Y-46230000D03*
X123610000Y-48770000D03*
X123610000Y-46230000D03*
X126150000Y-48770000D03*
X126150000Y-46230000D03*
X128690000Y-48770000D03*
X128690000Y-46230000D03*
X131230000Y-48770000D03*
X131230000Y-46230000D03*
X133770000Y-48770000D03*
X133770000Y-46230000D03*
X136310000Y-48770000D03*
X136310000Y-46230000D03*
X138850000Y-48770000D03*
X138850000Y-46230000D03*
X141390000Y-48770000D03*
X141390000Y-46230000D03*
X143930000Y-48770000D03*
X143930000Y-46230000D03*
X146470000Y-48770000D03*
X146470000Y-46230000D03*
X149010000Y-48770000D03*
X149010000Y-46230000D03*
X151550000Y-48770000D03*
X151550000Y-46230000D03*
X154090000Y-48770000D03*
X154090000Y-46230000D03*
X156630000Y-48770000D03*
X156630000Y-46230000D03*
D20*
X106740000Y-54514000D03*
X106740000Y-60294000D03*
D21*
X107270000Y-61724000D03*
D22*
X103090000Y-61724000D03*
D21*
X107270000Y-53084000D03*
D22*
X103090000Y-53084000D03*
M02*
